<svg width="378" height="142" viewBox="0 0 378 142" fill="none" xmlns="http://www.w3.org/2000/svg">
<path d="M45.7642 139.757V137.974C45.7642 120.047 31.178 105.444 13.2345 105.444H10.5679V40.8509L2.13428 32.4173V1.79932H376.217V32.4173L367.767 40.8509V105.444H365.101C347.157 105.444 332.571 120.03 332.571 137.974V139.757H45.7642Z" fill="black"/>
<path d="M374.418 3.58227V31.6782L365.968 40.1119V103.661H365.085C346.129 103.661 330.772 119.018 330.772 137.974H47.531C47.531 119.018 32.1738 103.661 13.2183 103.661H12.3348V40.1119L3.90117 31.6782V3.59835H374.418M378 0H0.334961V33.1401L1.37912 34.1842L8.76857 41.5737V107.211H13.2344C30.1819 107.211 43.9648 120.994 43.9648 137.942V141.524H330.772H334.354V137.942C334.354 120.994 348.137 107.211 365.085 107.211H369.534V41.5737L376.924 34.1842L377.968 33.1401V0H378Z" fill="#E8AA1F"/>
<path d="M90.92 105.091L85.7314 115.067V120.432H82.6471V115.067L77.4263 105.091H80.9443L84.2053 111.806L87.4663 105.091H90.92Z" fill="#FFF2C5"/>
<path d="M100.301 105.091V114.087C100.301 115.291 100.558 116.191 101.089 116.785C101.619 117.38 102.374 117.685 103.386 117.685C104.398 117.685 105.121 117.38 105.651 116.785C106.181 116.191 106.438 115.275 106.438 114.087V105.091H109.474V114.087C109.474 115.5 109.217 116.705 108.687 117.685C108.157 118.665 107.434 119.388 106.486 119.87C105.554 120.352 104.494 120.593 103.305 120.593C101.458 120.593 99.9962 120.046 98.8877 118.938C97.7793 117.83 97.2332 116.223 97.2332 114.087V105.091H100.269H100.301Z" fill="#FFF2C5"/>
<path d="M137.088 105.091L133.329 120.432H129.554L126.678 109.3L123.787 120.432H120.028L116.269 105.091H119.594L121.939 116.978L124.976 105.091H128.349L131.417 116.978L133.763 105.091H137.088Z" fill="#FFF2C5"/>
<path d="M153.296 117.348H147.144L146.052 120.432H142.807L148.461 105.268H151.963L157.586 120.432H154.341L153.28 117.348H153.296ZM152.477 115.019L150.212 108.545L147.947 115.019H152.461H152.477Z" fill="#FFF2C5"/>
<path d="M172.027 120.432L168.445 114.456H167.096V120.432H164.027V105.091H169.875C171.658 105.091 173.007 105.525 173.955 106.392C174.887 107.259 175.352 108.4 175.352 109.83C175.352 110.986 175.031 111.966 174.389 112.737C173.746 113.524 172.814 114.038 171.593 114.296L175.417 120.416H172.027V120.432ZM167.096 112.352H169.618C171.369 112.352 172.252 111.581 172.252 110.022C172.252 109.284 172.043 108.705 171.61 108.288C171.176 107.87 170.517 107.661 169.618 107.661H167.096V112.336V112.352Z" fill="#FFF2C5"/>
<path d="M191.545 117.348H185.392L184.3 120.432H181.055L186.709 105.268H190.211L195.834 120.432H192.589L191.529 117.348H191.545ZM190.725 115.019L188.46 108.545L186.195 115.019H190.709H190.725Z" fill="#FFF2C5"/>
<path d="M210.999 105.091V115.918C210.999 117.396 210.581 118.536 209.778 119.356C208.958 120.175 207.834 120.577 206.372 120.577C204.814 120.577 203.561 120.127 202.661 119.227C201.746 118.328 201.296 117.042 201.296 115.388H204.316C204.316 116.175 204.477 116.769 204.798 117.187C205.119 117.605 205.601 117.814 206.244 117.814C206.822 117.814 207.256 117.637 207.529 117.299C207.802 116.962 207.946 116.496 207.946 115.902V105.075H211.015L210.999 105.091Z" fill="#FFF2C5"/>
<path d="M227.785 117.348H221.633L220.541 120.432H217.296L222.95 105.268H226.452L232.075 120.432H228.83L227.769 117.348H227.785ZM226.966 115.019L224.701 108.545L222.436 115.019H226.95H226.966Z" fill="#FFF2C5"/>
<path d="M257.054 120.432L253.6 115.195L250.532 120.432H247.03L251.849 112.593L246.902 105.091H250.532L253.922 110.215L256.942 105.091H260.444L255.64 112.802L260.685 120.432H257.054Z" fill="#FFF2C5"/>
<path d="M269.279 105.091L273.391 117.235L277.519 105.091H280.796L275.367 120.432H271.431L266.001 105.091H269.279Z" fill="#FFF2C5"/>
<path d="M290.291 105.091V120.432H287.222V105.091H290.291Z" fill="#FFF2C5"/>
<path d="M300.909 105.091V120.432H297.84V105.091H300.909Z" fill="#FFF2C5"/>
<path d="M251.64 21.1083H263.383V86.1194H251.64V21.1083ZM297.326 21.1083V64.5293L290.531 74.2641L283.736 64.5293V21.1083H271.993V67.5815V68.2241L283.383 84.513L284.507 86.1194H296.587L297.712 84.513L309.101 68.2241V67.5815V21.1083H297.358H297.326ZM155.385 21.1083V32.8511V86.1194H143.642V60.7704H130.325V86.1194H118.582V41.2847C121.875 37.9916 123.722 36.1442 127.032 32.835H118.582V29.5419C121.875 26.2488 123.722 24.4014 127.032 21.0923H155.401L155.385 21.1083ZM152.092 32.8511H130.325V57.4772C133.618 54.1841 135.465 52.3368 138.774 49.0276H143.658V41.2847C146.951 37.9916 148.798 36.1442 152.108 32.835L152.092 32.8511ZM111.032 29.5419V32.835V77.6697C107.739 80.9628 105.891 82.8102 102.582 86.1194H101.538H99.273H85.956H74.2132V41.2847L82.6628 32.835H74.2132V21.0923H102.582C105.875 24.3854 107.723 26.2327 111.032 29.5419ZM99.3052 32.8511H85.9881V82.8263C89.2812 79.5332 91.1286 77.6858 94.4378 74.3766H99.3212V32.835L99.3052 32.8511ZM199.737 29.5419V32.835V52.3046C196.444 55.5978 194.597 57.4451 191.288 60.7543H190.244H187.979H174.661V86.1033H162.919V41.2687C166.212 37.9755 168.059 36.1282 171.368 32.819H162.919V21.0762H191.288C194.581 24.3693 196.428 26.2167 199.737 29.5259V29.5419ZM187.995 32.8511H174.678V57.4772C177.971 54.1841 179.818 52.3368 183.127 49.0276H188.011V32.8511H187.995ZM207.287 21.1083V32.8511H228.267C224.974 36.1442 223.127 37.9916 219.817 41.3008V86.1355H231.56V32.8672H244.09V21.1244H207.287V21.1083ZM356.892 24.4014V21.1083H329.39H326.097H317.647V32.8511H348.442C351.735 29.558 353.582 27.7106 356.892 24.4014ZM329.406 57.4612V32.835H326.113C322.82 36.1282 320.973 37.9755 317.663 41.2847V86.1194H329.406H348.458V74.3766H329.406V60.7543H348.458V49.0115H337.856C334.563 52.3046 332.715 54.152 329.406 57.4612ZM66.6952 21.1083V32.8511V86.1194H54.9524V60.7704H41.6353V86.1194H29.8925V41.2847C33.1857 37.9916 35.033 36.1442 38.3422 32.835H29.8925C26.5994 29.5419 24.7521 27.6945 21.4429 24.3854V21.0923H38.3262H41.6193H63.386H66.6791L66.6952 21.1083ZM63.386 32.8511H41.6193V57.4772C44.9124 54.1841 46.7598 52.3368 50.069 49.0276H54.9524V41.2847C58.2455 37.9916 60.0929 36.1442 63.4021 32.835L63.386 32.8511Z" fill="#3FEAE5"/>
<mask id="mask0_286_1934" style="mask-type:luminance" maskUnits="userSpaceOnUse" x="21" y="21" width="336" height="66">
<path d="M251.64 21.1083H263.383V86.1194H251.64V21.1083ZM297.326 21.1083V64.5293L290.531 74.2641L283.736 64.5293V21.1083H271.993V67.5815V68.2241L283.383 84.513L284.507 86.1194H296.587L297.712 84.513L309.101 68.2241V67.5815V21.1083H297.358H297.326ZM155.385 21.1083V32.8511V86.1194H143.642V60.7704H130.325V86.1194H118.582V41.2847C121.875 37.9916 123.722 36.1442 127.032 32.835H118.582V29.5419C121.875 26.2488 123.722 24.4014 127.032 21.0923H155.401L155.385 21.1083ZM152.092 32.8511H130.325V57.4772C133.618 54.1841 135.465 52.3368 138.774 49.0276H143.658V41.2847C146.951 37.9916 148.798 36.1442 152.108 32.835L152.092 32.8511ZM111.032 29.5419V32.835V77.6697C107.739 80.9628 105.891 82.8102 102.582 86.1194H101.538H99.273H85.956H74.2132V41.2847L82.6628 32.835H74.2132V21.0923H102.582C105.875 24.3854 107.723 26.2327 111.032 29.5419ZM99.3052 32.8511H85.9881V82.8263C89.2812 79.5332 91.1286 77.6858 94.4378 74.3766H99.3212V32.835L99.3052 32.8511ZM199.737 29.5419V32.835V52.3046C196.444 55.5978 194.597 57.4451 191.288 60.7543H190.244H187.979H174.661V86.1033H162.919V41.2687C166.212 37.9755 168.059 36.1282 171.368 32.819H162.919V21.0762H191.288C194.581 24.3693 196.428 26.2167 199.737 29.5259V29.5419ZM187.995 32.8511H174.678V57.4772C177.971 54.1841 179.818 52.3368 183.127 49.0276H188.011V32.8511H187.995ZM207.287 21.1083V32.8511H228.267C224.974 36.1442 223.127 37.9916 219.817 41.3008V86.1355H231.56V32.8672H244.09V21.1244H207.287V21.1083ZM356.892 24.4014V21.1083H329.39H326.097H317.647V32.8511H348.442C351.735 29.558 353.582 27.7106 356.892 24.4014ZM329.406 57.4612V32.835H326.113C322.82 36.1282 320.973 37.9755 317.663 41.2847V86.1194H329.406H348.458V74.3766H329.406V60.7543H348.458V49.0115H337.856C334.563 52.3046 332.715 54.152 329.406 57.4612ZM66.6952 21.1083V32.8511V86.1194H54.9524V60.7704H41.6353V86.1194H29.8925V41.2847C33.1857 37.9916 35.033 36.1442 38.3422 32.835H29.8925C26.5994 29.5419 24.7521 27.6945 21.4429 24.3854V21.0923H38.3262H41.6193H63.386H66.6791L66.6952 21.1083ZM63.386 32.8511H41.6193V57.4772C44.9124 54.1841 46.7598 52.3368 50.069 49.0276H54.9524V41.2847C58.2455 37.9916 60.0929 36.1442 63.4021 32.835L63.386 32.8511Z" fill="white"/>
</mask>
<g mask="url(#mask0_286_1934)">
<path d="M350.37 41.4292H28.1736V70.9227H350.37V41.4292Z" fill="#46B0D5"/>
<path d="M350.37 60.626H28.1736V90.1195H350.37V60.626Z" fill="#1F7589"/>
</g>
<path d="M355.285 22.7143V23.7264L347.783 31.2282H319.27V22.7143H355.269M307.447 22.7143V67.7096L296.362 83.5809L295.72 84.4965H285.327L284.684 83.5809L273.6 67.7096V22.7143H282.114V65.0269L282.403 65.4446L289.198 75.1794L290.531 77.0749L291.865 75.1794L298.66 65.4446L298.949 65.0269V22.7143H307.463M101.924 22.7143L109.426 30.2162V77.0107L101.924 84.5126H86.5825L87.1287 83.9664L92.1567 78.9384L95.0964 75.9987H100.928V31.2282H75.8678V22.7143H101.94M65.0727 22.7143V31.2282H30.5512L26.1818 26.8588L23.0653 23.7424V22.7304H65.0727M261.761 22.7143V84.4965H253.247V22.7143H261.761ZM242.468 22.7143V31.2282H208.894V22.7143H242.468ZM190.629 22.7143L198.131 30.2162V51.6456L190.629 59.1475H175.288L175.834 58.6013L179.609 54.8263L183.802 50.6336H189.633V31.2282H164.573V22.7143H190.645M153.778 22.7143V31.2282H120.204V30.2162L123.514 26.907L127.706 22.7143H153.778ZM128.702 33.4451V84.4965H120.188V41.9429L123.931 38.2L128.156 33.9752L128.702 33.429M84.3496 33.4451V84.4965H75.8356V41.9429L83.8034 33.9752L84.3496 33.429M40.0129 33.4451V84.4965H31.4989V41.9429L35.2419 38.2L39.4667 33.9752L40.0129 33.429M229.938 33.4451V84.4965H221.424V41.9429L225.552 37.8145L229.392 33.9752L229.938 33.429M173.055 33.4451V84.4965H164.541V41.9429L168.67 37.8145L172.509 33.9752L173.055 33.429M153.778 33.4451V84.4965H145.264V59.1475H130.935L131.481 58.6013L135.706 54.3765L139.449 50.6336H145.28V41.959L149.409 37.8306L153.248 33.9913L153.794 33.4451M65.0727 33.4451V84.4965H56.5588V59.1475H42.2297L42.7759 58.6013L47.0007 54.3765L50.7436 50.6336H56.5749V41.959L64.5426 33.9913L65.0888 33.4451M327.784 34.4571V75.9987H346.836V84.5126H319.27V41.959L326.772 34.4571H327.784ZM346.836 50.6336V59.1475H330.001L330.547 58.6013L334.772 54.3765L338.514 50.6336H346.836ZM356.892 21.1079H317.663V32.8507H348.458C351.751 29.5576 353.599 27.7102 356.908 24.401V21.1079H356.892ZM309.069 21.1079H297.326V64.5289L290.531 74.2637L283.736 64.5289V21.1079H271.993V68.2237L283.367 84.5126L284.491 86.119H296.571L297.696 84.5126L309.069 68.2237V21.1079ZM102.598 21.1079H74.2292V32.8507H82.6789L74.2292 41.3004V86.1351H102.598C105.891 82.8419 107.739 80.9946 111.048 77.6854V29.5576C107.755 26.2645 105.907 24.4171 102.598 21.1079ZM85.972 82.8259V32.8507H99.2891V74.3923H94.4056C91.1125 77.6854 89.2652 79.5327 85.956 82.8419L85.972 82.8259ZM66.6952 21.1079H21.4429V24.401C24.736 27.6942 26.5834 29.5415 29.8925 32.8507H38.3422C35.0491 36.1438 33.2017 37.9912 29.8925 41.3004V86.1351H41.6353V60.786H54.9524V86.1351H66.6952V21.124V21.1079ZM63.386 32.8507C60.0929 36.1438 58.2455 37.9912 54.9364 41.3004V49.0432H50.0529C46.7598 52.3364 44.9124 54.1837 41.6032 57.4929V32.8668H63.37L63.386 32.8507ZM263.383 21.1079H251.64V86.119H263.383V21.1079ZM244.09 21.1079H207.288V32.8507H228.267C224.974 36.1438 223.127 37.9912 219.817 41.3004V86.1351H231.56V32.8668H244.09V21.124V21.1079ZM191.304 21.1079H162.935V32.8507H171.384C168.091 36.1438 166.244 37.9912 162.935 41.3004V86.1351H174.678V60.786H191.304C194.597 57.4929 196.444 55.6456 199.753 52.3364V29.5576C196.46 26.2645 194.613 24.4171 191.304 21.1079ZM174.678 57.4608V32.8346H187.995V49.0111H183.111C179.818 52.3042 177.971 54.1516 174.661 57.4608H174.678ZM155.385 21.1079H127.016C123.722 24.401 121.875 26.2484 118.566 29.5576V32.8507H127.016C123.722 36.1438 121.875 37.9912 118.566 41.3004V86.1351H130.309V60.786H143.626V86.1351H155.369V21.124L155.385 21.1079ZM152.092 32.8507C148.798 36.1438 146.951 37.9912 143.642 41.3004V49.0432H138.758C135.465 52.3364 133.618 54.1837 130.309 57.4929V32.8668H152.075L152.092 32.8507ZM329.406 32.8507H326.113C322.82 36.1438 320.973 37.9912 317.663 41.3004V86.1351H348.458V74.3923H329.406V60.77H348.458V49.0272H337.856C334.563 52.3203 332.715 54.1677 329.406 57.4768V32.8507Z" fill="#3FEAE5"/>
<path d="M202.099 72.6257H194.035L206.356 57.7344L203.995 68.7543H212.059L199.738 83.6456L202.099 72.6257Z" fill="#FFF2C5"/>
<path d="M205.151 60.224L203.513 67.8223L203.175 69.4126H210.661L200.942 81.1554L202.581 73.5571L202.918 71.9668H195.432L205.151 60.224ZM207.561 55.2441L192.637 73.268H201.28L198.517 86.1192L213.44 68.0954H204.798L207.561 55.2441Z" fill="#E8AA1F"/>
</svg>
