<svg width="60" height="50" viewBox="0 0 60 50" fill="none" xmlns="http://www.w3.org/2000/svg">
<path d="M13.0845 14.3247C16.6326 8.71562 22.8836 5 30.0005 5C37.1175 5 43.3685 8.71562 46.9168 14.3247L51.1423 11.6518C46.7162 4.65497 38.903 0 30.0005 0C21.0982 0 13.2848 4.65497 8.8589 11.6518L13.0845 14.3247ZM30.0005 45C22.8836 45 16.6326 41.2845 13.0845 35.6752L8.8589 38.3483C13.2848 45.345 21.0982 50 30.0005 50C38.903 50 46.7162 45.345 51.1423 38.3483L46.9168 35.6752C43.3685 41.2845 37.1175 45 30.0005 45ZM30 15C31.3808 15 32.5 16.1193 32.5 17.5C32.5 18.8807 31.3808 20 30 20C28.6192 20 27.5 18.8807 27.5 17.5C27.5 16.1193 28.6192 15 30 15ZM30 25C34.1423 25 37.5 21.6423 37.5 17.5C37.5 13.3579 34.1423 10 30 10C25.8577 10 22.5 13.3579 22.5 17.5C22.5 21.6423 25.8577 25 30 25ZM30 32.5C27.2385 32.5 25 34.7385 25 37.5H20C20 31.9772 24.4771 27.5 30 27.5C35.5228 27.5 40 31.9772 40 37.5H35C35 34.7385 32.7615 32.5 30 32.5ZM7.5 22.5C6.1193 22.5 5 23.6192 5 25C5 26.3808 6.1193 27.5 7.5 27.5C8.8807 27.5 10 26.3808 10 25C10 23.6192 8.8807 22.5 7.5 22.5ZM0 25C0 20.8577 3.35788 17.5 7.5 17.5C11.6421 17.5 15 20.8577 15 25C15 29.1423 11.6421 32.5 7.5 32.5C3.35788 32.5 0 29.1423 0 25ZM50 25C50 23.6192 51.1193 22.5 52.5 22.5C53.8807 22.5 55 23.6192 55 25C55 26.3808 53.8807 27.5 52.5 27.5C51.1193 27.5 50 26.3808 50 25ZM52.5 17.5C48.3577 17.5 45 20.8577 45 25C45 29.1423 48.3577 32.5 52.5 32.5C56.6423 32.5 60 29.1423 60 25C60 20.8577 56.6423 17.5 52.5 17.5Z" fill="#3FEAE5"/>
</svg>
