<svg width="54" height="54" viewBox="0 0 54 54" fill="none" xmlns="http://www.w3.org/2000/svg">
<rect width="54" height="54" fill="#E8AA1F"/>
<mask id="mask0_161_2936" style="mask-type:alpha" maskUnits="userSpaceOnUse" x="9" y="9" width="36" height="36">
<rect x="9" y="9" width="36" height="36" fill="#D9D9D9"/>
</mask>
<g mask="url(#mask0_161_2936)">
<path d="M16.5 16.275V37.725C16.075 37.3 15.675 36.85 15.3 36.375C14.925 35.9 14.575 35.4125 14.25 34.9125V19.0875C14.575 18.5875 14.925 18.1 15.3 17.625C15.675 17.15 16.075 16.7 16.5 16.275ZM22.5 12.675V41.325C21.975 41.15 21.4625 40.9563 20.9625 40.7438C20.4625 40.5312 19.975 40.2875 19.5 40.0125V13.9875C19.975 13.7125 20.4625 13.4688 20.9625 13.2563C21.4625 13.0438 21.975 12.85 22.5 12.675ZM33 40.7625V13.2375C35.65 14.4125 37.8125 16.225 39.4875 18.675C41.1625 21.125 42 23.9 42 27C42 30.1 41.1625 32.875 39.4875 35.325C37.8125 37.775 35.65 39.5875 33 40.7625ZM27 42C26.75 42 26.5 41.9938 26.25 41.9813C26 41.9688 25.75 41.95 25.5 41.925V12.075C25.75 12.05 26 12.0312 26.25 12.0188C26.5 12.0062 26.75 12 27 12C27.5 12 28 12.025 28.5 12.075C29 12.125 29.5 12.2 30 12.3V41.7C29.5 41.8 29 41.875 28.5 41.925C28 41.975 27.5 42 27 42Z" fill="white"/>
</g>
</svg>
