<svg width="388" height="91" viewBox="0 0 388 91" fill="none" xmlns="http://www.w3.org/2000/svg">
<path fill-rule="evenodd" clip-rule="evenodd" d="M82.5061 1.06745C78.0406 0.671963 63.1324 0.241437 61.0849 11.9057L60.5192 16.0007L60.2538 17.9131C60.2538 17.9131 80.3184 24.5012 83.7677 1.20762C83.7677 1.20762 83.3021 1.13753 82.5061 1.06745Z" fill="#F4C738"/>
<path fill-rule="evenodd" clip-rule="evenodd" d="M80.799 10.5892C74.1459 22.4788 60.2538 17.9132 60.2538 17.9132L60.5192 16.0008L61.0849 11.9058C62.3014 5.00237 68.0234 2.3341 73.415 1.38794C73.1947 1.90858 73.0345 2.46426 72.9494 3.04497C72.4087 6.69444 74.9268 10.0936 78.5813 10.6343C79.3422 10.7444 80.0881 10.7294 80.799 10.5892Z" fill="#F4C738"/>
<path fill-rule="evenodd" clip-rule="evenodd" d="M36.9803 55.4841L35.7338 42.8636C33.9015 24.2959 13.9421 20.7465 0 26.043C5.24643 28.4009 6.95853 35.0741 8.2401 47.7096L9.35146 58.673C9.40152 59.1636 9.45659 59.6442 9.52167 60.1098C9.37649 60.2149 9.61178 61.5666 9.6268 61.7217C9.76697 63.1535 10.0023 64.5802 10.3176 65.987C11.2238 70.0319 12.8107 73.9818 15.1786 77.401C18.4025 82.0567 23.2034 85.576 28.565 87.3632C32.8703 88.7999 37.4659 89.1504 41.9965 89.0502C44.6697 88.9902 47.358 88.7749 49.9412 88.0991C57.3303 86.1617 63.0673 80.2645 67.2324 74.1169C67.2324 74.1169 38.357 75.6788 36.9753 55.4891L36.9803 55.4841Z" fill="#273A59"/>
<path fill-rule="evenodd" clip-rule="evenodd" d="M25.8367 65.4515C25.311 63.8596 24.9255 62.2176 24.6903 60.5355C24.5 59.1738 24.3248 57.8122 24.1446 56.4455C23.7992 53.8573 23.4537 51.2641 23.1033 48.676C22.9882 47.7999 22.868 46.9238 22.7529 46.0477C19.599 22.4588 0.0200195 26.2285 0.0200195 26.2285C5.26645 28.5863 6.97855 35.2595 8.26012 47.895L9.32142 58.3528C11.2988 87.7138 34.1769 88.7851 34.1769 88.7851C51.9937 90.9678 57.9911 83.804 57.9911 83.804C52.5794 84.8703 47.0727 85.5061 42.0015 83.2684C34.292 79.8642 28.4048 73.2811 25.8367 65.4515Z" fill="#203349"/>
<path d="M55.147 85.2358C55.147 85.2358 55.1136 85.247 55.1025 85.2581C55.1192 85.2525 55.1359 85.247 55.147 85.2358Z" fill="#EAB82D"/>
<path d="M71.9582 21.6878C66.111 21.6177 55.7733 22.8792 54.4567 32.501C52.6044 46.0176 50.6871 57.3565 50.6871 57.3565C50.6871 57.3565 50.597 57.9922 50.3567 59.0385C50.2566 59.4641 50.1314 59.9597 49.9762 60.5003C49.9762 60.5053 49.9762 60.5103 49.9712 60.5153C49.9212 60.6906 49.8711 60.8658 49.821 61.051C49.821 61.061 49.811 61.071 49.811 61.081C49.2203 63.0384 48.2691 65.5465 46.7973 68.0296C44.8099 71.1334 40.0691 76.3347 31.043 75.2834C32.3246 76.1395 33.5511 76.8804 34.7325 77.5262C55.0775 88.6498 60.8746 69.9369 62.066 64.6905H62.1211C63.1824 57.8421 67.5478 32.1606 68.8844 27.0944C70.4213 21.2823 78.2509 22.2935 78.2509 22.2935C78.2509 22.2935 74.8417 21.5976 71.9482 21.6828L71.9582 21.6878Z" fill="#ECAA2C"/>
<path d="M68.8944 27.0995C67.5528 32.1707 63.1874 57.8522 62.1311 64.6905H62.0761C60.8846 69.942 55.0875 88.6499 34.7426 77.5313C33.5611 76.8855 32.3346 76.1446 31.053 75.2885C31.053 75.2885 31.9642 76.3498 33.6212 77.7716C36.5598 80.2897 41.8613 83.9391 48.7347 84.9103C48.99 84.8553 49.2403 84.7902 49.4856 84.7201C49.2403 84.7902 48.995 84.8553 48.7447 84.9103C51.0275 85.3359 53.5506 85.446 55.7934 84.7652C57.971 84.1043 59.9535 82.8979 61.6655 81.411C65.9108 77.7265 68.3888 72.8205 69.7304 67.4239C69.8055 67.1185 70.3562 64.0197 70.4513 64.0097C70.4513 64.0097 70.3912 64.0097 70.2861 64.0247L70.4513 64.0097C70.9469 61.2463 71.2873 58.4529 71.7079 55.6845C72.1784 52.6007 72.654 49.517 73.1446 46.4332C73.6402 43.3294 74.1458 40.2306 74.6865 37.1318C75.1521 34.4585 75.6377 31.7852 76.1883 29.127C76.5588 27.3298 76.9292 25.5125 77.5 23.7654C77.6051 23.45 77.7753 22.664 78.1107 22.3787C78.1658 22.3186 78.2158 22.2886 78.2609 22.2886C78.2609 22.2886 70.4313 21.2773 68.8944 27.0895V27.0995ZM53.8159 82.3572C53.7909 82.3772 53.7609 82.4023 53.7358 82.4223C53.8059 82.3622 53.876 82.3021 53.9411 82.2371C53.896 82.2771 53.861 82.3172 53.8159 82.3572ZM60.1437 72.5502C60.1437 72.5502 60.1337 72.5752 60.1287 72.5852C60.1387 72.5552 60.1487 72.5302 60.1587 72.5001C60.1537 72.5151 60.1487 72.5302 60.1437 72.5452V72.5502Z" fill="#EAB82D"/>
<path d="M379.922 83.5498C379.258 83.5498 378.612 83.4669 377.985 83.3009C377.377 83.1164 376.833 82.8398 376.353 82.4709C375.874 82.102 375.495 81.641 375.219 81.0877C374.942 80.5344 374.804 79.8888 374.804 79.1511C374.804 78.1552 375.007 77.3621 375.412 76.7719C375.818 76.1633 376.362 75.7022 377.045 75.3887C377.727 75.0751 378.511 74.863 379.396 74.7524C380.3 74.6417 381.231 74.5864 382.19 74.5864H384.293C384.293 74.0515 384.191 73.5812 383.989 73.1755C383.804 72.7513 383.518 72.4285 383.131 72.2072C382.744 71.9674 382.246 71.8476 381.637 71.8476C381.25 71.8476 380.872 71.9029 380.503 72.0135C380.152 72.1058 379.857 72.2441 379.618 72.4285C379.378 72.613 379.221 72.8527 379.147 73.1478H375.219C375.329 72.3363 375.588 71.6447 375.993 71.0729C376.399 70.4827 376.906 70.0032 377.515 69.6344C378.124 69.2655 378.788 68.9981 379.507 68.8321C380.245 68.6476 381.001 68.5554 381.775 68.5554C383.896 68.5554 385.464 69.164 386.478 70.3813C387.493 71.5801 388 73.2861 388 75.4993V83.3562H384.514L384.459 81.475C383.998 82.1205 383.472 82.5908 382.882 82.8859C382.31 83.181 381.757 83.3654 381.222 83.4392C380.687 83.513 380.254 83.5498 379.922 83.5498ZM380.807 80.479C381.453 80.479 382.043 80.3499 382.578 80.0917C383.113 79.8335 383.537 79.4831 383.85 79.0405C384.164 78.5978 384.321 78.0998 384.321 77.5465V77.1869H381.665C381.277 77.1869 380.899 77.2053 380.53 77.2422C380.18 77.2791 379.857 77.3529 379.562 77.4635C379.286 77.5558 379.064 77.7125 378.898 77.9339C378.732 78.1552 378.649 78.4503 378.649 78.8191C378.649 79.188 378.741 79.5015 378.926 79.7597C379.129 79.9995 379.396 80.1839 379.728 80.313C380.06 80.4237 380.42 80.479 380.807 80.479Z" fill="white"/>
<path d="M364.7 90.0789C363.575 90.0789 362.478 89.9314 361.408 89.6363C360.338 89.3412 359.333 88.8432 358.393 88.1424L359.693 85.0439C360.283 85.4865 360.956 85.8369 361.712 86.0951C362.469 86.3718 363.308 86.5101 364.23 86.5101C365.65 86.5101 366.701 86.1781 367.384 85.5142C368.085 84.8502 368.435 83.8912 368.435 82.637V81.8624C368.121 82.2866 367.725 82.6278 367.245 82.886C366.784 83.1258 366.286 83.301 365.751 83.4116C365.217 83.5223 364.682 83.5776 364.147 83.5776C362.745 83.5776 361.62 83.2825 360.772 82.6924C359.923 82.1022 359.306 81.2999 358.918 80.2855C358.549 79.2527 358.365 78.0815 358.365 76.772V68.7769H362.238V75.9698C362.238 76.4493 362.266 76.9288 362.321 77.4083C362.376 77.8879 362.505 78.3305 362.708 78.7363C362.911 79.142 363.216 79.474 363.621 79.7322C364.027 79.972 364.571 80.0918 365.254 80.0918C366.139 80.0918 366.803 79.8797 367.245 79.4555C367.688 79.0129 367.983 78.4596 368.131 77.7956C368.297 77.1317 368.38 76.4401 368.38 75.7208V68.7769H372.253V81.2538C372.253 82.5817 372.124 83.7897 371.865 84.8779C371.626 85.966 371.211 86.8974 370.621 87.6721C370.049 88.4467 369.274 89.0369 368.297 89.4426C367.338 89.8668 366.139 90.0789 364.7 90.0789Z" fill="white"/>
<path d="M347.151 83.5498C346.487 83.5498 345.841 83.4669 345.214 83.3009C344.606 83.1164 344.061 82.8398 343.582 82.4709C343.102 82.102 342.724 81.641 342.448 81.0877C342.171 80.5344 342.033 79.8888 342.033 79.1511C342.033 78.1552 342.236 77.3621 342.641 76.7719C343.047 76.1633 343.591 75.7022 344.274 75.3887C344.956 75.0751 345.74 74.863 346.625 74.7524C347.529 74.6417 348.46 74.5864 349.419 74.5864H351.522C351.522 74.0515 351.42 73.5812 351.217 73.1755C351.033 72.7513 350.747 72.4285 350.36 72.2072C349.973 71.9674 349.475 71.8476 348.866 71.8476C348.479 71.8476 348.101 71.9029 347.732 72.0135C347.381 72.1058 347.086 72.2441 346.846 72.4285C346.607 72.613 346.45 72.8527 346.376 73.1478H342.448C342.558 72.3363 342.816 71.6447 343.222 71.0729C343.628 70.4827 344.135 70.0032 344.744 69.6344C345.352 69.2655 346.016 68.9981 346.736 68.8321C347.473 68.6476 348.23 68.5554 349.004 68.5554C351.125 68.5554 352.693 69.164 353.707 70.3813C354.722 71.5801 355.229 73.2861 355.229 75.4993V83.3562H351.743L351.688 81.475C351.227 82.1205 350.701 82.5908 350.111 82.8859C349.539 83.181 348.986 83.3654 348.451 83.4392C347.916 83.513 347.483 83.5498 347.151 83.5498ZM348.036 80.479C348.681 80.479 349.272 80.3499 349.807 80.0917C350.341 79.8335 350.766 79.4831 351.079 79.0405C351.393 78.5978 351.549 78.0998 351.549 77.5465V77.1869H348.894C348.506 77.1869 348.128 77.2053 347.759 77.2422C347.409 77.2791 347.086 77.3529 346.791 77.4635C346.514 77.5558 346.293 77.7125 346.127 77.9339C345.961 78.1552 345.878 78.4503 345.878 78.8191C345.878 79.188 345.97 79.5015 346.155 79.7597C346.358 79.9995 346.625 80.1839 346.957 80.313C347.289 80.4237 347.649 80.479 348.036 80.479Z" fill="white"/>
<path d="M332.389 88.9999V85.5418H333.468C334.04 85.5418 334.455 85.4403 334.713 85.2375C334.99 85.0346 335.165 84.7764 335.239 84.4629C335.313 84.1493 335.349 83.8266 335.349 83.4946V68.7768H339.222V84.0479C339.222 85.1545 339.066 86.0766 338.752 86.8144C338.439 87.5521 337.931 88.0962 337.231 88.4466C336.548 88.8155 335.617 88.9999 334.436 88.9999H332.389ZM337.258 67.3105C336.539 67.3105 335.958 67.0985 335.515 66.6743C335.073 66.2316 334.851 65.6691 334.851 64.9867C334.851 64.2674 335.082 63.6864 335.543 63.2438C336.004 62.8012 336.585 62.5798 337.286 62.5798C337.931 62.5798 338.485 62.8012 338.946 63.2438C339.425 63.668 339.665 64.2397 339.665 64.959C339.665 65.6599 339.435 66.2316 338.974 66.6743C338.531 67.0985 337.959 67.3105 337.258 67.3105Z" fill="white"/>
<path d="M328.185 83.3563V68.7768H332.058V83.3563H328.185ZM330.121 67.3105C329.402 67.3105 328.821 67.0985 328.379 66.6743C327.936 66.2316 327.715 65.6691 327.715 64.9867C327.715 64.2674 327.945 63.6864 328.406 63.2438C328.867 62.8012 329.448 62.5798 330.149 62.5798C330.795 62.5798 331.348 62.8012 331.809 63.2438C332.288 63.668 332.528 64.2397 332.528 64.959C332.528 65.6599 332.298 66.2316 331.837 66.6743C331.394 67.0985 330.822 67.3105 330.121 67.3105Z" fill="white"/>
<path d="M307.32 83.3563L302.728 68.7769H306.961L309.672 78.9299L312.549 68.7769H316.892L319.769 78.9299L322.425 68.7769H326.603L322.01 83.3563H317.556L314.651 73.5076L311.774 83.3563H307.32Z" fill="white"/>
<path d="M293.09 83.5498C292.426 83.5498 291.781 83.4669 291.154 83.3009C290.545 83.1164 290.001 82.8398 289.522 82.4709C289.042 82.102 288.664 81.641 288.387 81.0877C288.111 80.5344 287.972 79.8888 287.972 79.1511C287.972 78.1552 288.175 77.3621 288.581 76.7719C288.987 76.1633 289.531 75.7022 290.213 75.3887C290.896 75.0751 291.68 74.863 292.565 74.7524C293.469 74.6417 294.4 74.5864 295.359 74.5864H297.462C297.462 74.0515 297.36 73.5812 297.157 73.1755C296.973 72.7513 296.687 72.4285 296.3 72.2072C295.912 71.9674 295.414 71.8476 294.806 71.8476C294.418 71.8476 294.04 71.9029 293.671 72.0135C293.321 72.1058 293.026 72.2441 292.786 72.4285C292.546 72.613 292.39 72.8527 292.316 73.1478H288.387C288.498 72.3363 288.756 71.6447 289.162 71.0729C289.568 70.4827 290.075 70.0032 290.684 69.6344C291.292 69.2655 291.956 68.9981 292.675 68.8321C293.413 68.6476 294.169 68.5554 294.944 68.5554C297.065 68.5554 298.633 69.164 299.647 70.3813C300.661 71.5801 301.169 73.2861 301.169 75.4993V83.3562H297.683L297.627 81.475C297.166 82.1205 296.641 82.5908 296.051 82.8859C295.479 83.181 294.926 83.3654 294.391 83.4392C293.856 83.513 293.422 83.5498 293.09 83.5498ZM293.976 80.479C294.621 80.479 295.211 80.3499 295.746 80.0917C296.281 79.8335 296.705 79.4831 297.019 79.0405C297.332 78.5978 297.489 78.0998 297.489 77.5465V77.1869H294.833C294.446 77.1869 294.068 77.2053 293.699 77.2422C293.349 77.2791 293.026 77.3529 292.731 77.4635C292.454 77.5558 292.233 77.7125 292.067 77.9339C291.901 78.1552 291.818 78.4503 291.818 78.8191C291.818 79.188 291.91 79.5015 292.094 79.7597C292.297 79.9995 292.565 80.1839 292.897 80.313C293.229 80.4237 293.588 80.479 293.976 80.479Z" fill="white"/>
<path d="M277.61 83.3563V68.7768H281.096L281.345 70.5197C281.713 69.9664 282.128 69.5514 282.589 69.2748C283.051 68.9797 283.53 68.786 284.028 68.6938C284.526 68.5832 285.033 68.5278 285.55 68.5278C285.789 68.5278 286.011 68.5371 286.214 68.5555C286.416 68.5555 286.564 68.5555 286.656 68.5555V72.2903H285.743C284.876 72.2903 284.12 72.4378 283.475 72.7329C282.829 73.028 282.331 73.4891 281.981 74.1162C281.649 74.7432 281.483 75.5455 281.483 76.523V83.3563H277.61Z" fill="white"/>
<path d="M259.413 83.3564V63.7695H267.989C268.893 63.7695 269.713 63.8617 270.451 64.0462C271.207 64.2122 271.862 64.4888 272.415 64.8761C272.969 65.2634 273.393 65.7799 273.688 66.4254C274.002 67.0709 274.158 67.8916 274.158 68.8876C274.158 69.6991 273.974 70.4552 273.605 71.1561C273.236 71.8569 272.692 72.3918 271.973 72.7607C272.932 73.0742 273.688 73.6183 274.241 74.3929C274.795 75.1491 275.071 76.1542 275.071 77.4084C275.071 78.5334 274.859 79.4833 274.435 80.2579C274.011 81.014 273.43 81.6227 272.692 82.0838C271.954 82.5448 271.097 82.8768 270.119 83.0797C269.142 83.2641 268.1 83.3564 266.993 83.3564H259.413ZM263.369 79.7046H267.463C267.961 79.7046 268.422 79.6677 268.847 79.5939C269.289 79.5201 269.677 79.4003 270.009 79.2343C270.341 79.0498 270.599 78.8008 270.783 78.4873C270.986 78.1738 271.087 77.7865 271.087 77.3254C271.087 76.9012 271.004 76.5508 270.838 76.2741C270.691 75.979 270.47 75.7393 270.175 75.5548C269.898 75.3704 269.566 75.2413 269.179 75.1675C268.81 75.0937 268.395 75.0568 267.934 75.0568H263.369V79.7046ZM263.369 71.7647H266.993C267.491 71.7647 267.943 71.7186 268.349 71.6264C268.754 71.5342 269.096 71.3866 269.372 71.1838C269.649 70.9809 269.861 70.7319 270.009 70.4368C270.156 70.1233 270.23 69.7636 270.23 69.3579C270.248 68.8046 270.128 68.3988 269.87 68.1406C269.612 67.864 269.262 67.6795 268.819 67.5873C268.376 67.4766 267.878 67.4213 267.325 67.4213H263.369V71.7647Z" fill="white"/>
<path d="M242.595 83.5499C241.912 83.5499 241.211 83.4762 240.492 83.3286C239.773 83.1811 239.109 82.9321 238.5 82.5817C237.892 82.2128 237.375 81.724 236.951 81.1154C236.527 80.4883 236.25 79.7137 236.121 78.7916H240.05C240.16 79.1235 240.354 79.4094 240.63 79.6492C240.926 79.8889 241.258 80.0641 241.626 80.1748C242.014 80.2855 242.401 80.3408 242.788 80.3408C243.047 80.3408 243.305 80.3223 243.563 80.2855C243.821 80.2486 244.061 80.1748 244.282 80.0641C244.504 79.9535 244.679 79.8152 244.808 79.6492C244.937 79.4647 245.002 79.2342 245.002 78.9575C245.002 78.6624 244.909 78.4319 244.725 78.2659C244.54 78.0999 244.282 77.9708 243.95 77.8786C243.618 77.7679 243.24 77.6665 242.816 77.5743C242.06 77.4083 241.248 77.2239 240.381 77.021C239.515 76.8181 238.768 76.523 238.141 76.1357C237.882 75.9513 237.652 75.7484 237.449 75.5271C237.246 75.3058 237.08 75.0568 236.951 74.7801C236.822 74.5035 236.721 74.2176 236.647 73.9225C236.573 73.609 236.536 73.277 236.536 72.9266C236.536 72.1335 236.702 71.4603 237.034 70.907C237.384 70.3353 237.846 69.8742 238.417 69.5238C238.989 69.1734 239.625 68.9244 240.326 68.7768C241.027 68.6108 241.746 68.5278 242.484 68.5278C243.48 68.5278 244.402 68.6938 245.251 69.0258C246.099 69.3393 246.8 69.8373 247.353 70.5197C247.906 71.1837 248.248 72.0505 248.377 73.1202H244.67C244.596 72.7145 244.347 72.3917 243.923 72.1519C243.498 71.8937 242.973 71.7646 242.346 71.7646C242.124 71.7646 241.885 71.7831 241.626 71.82C241.387 71.8569 241.165 71.9214 240.962 72.0136C240.76 72.1058 240.594 72.2349 240.464 72.4009C240.335 72.5485 240.271 72.7514 240.271 73.0096C240.271 73.2124 240.326 73.3969 240.437 73.5629C240.566 73.7289 240.741 73.8672 240.962 73.9778C241.202 74.0885 241.488 74.1899 241.82 74.2822C242.447 74.4297 243.074 74.568 243.701 74.6971C244.347 74.8078 244.919 74.9277 245.417 75.0568C246.025 75.1859 246.578 75.398 247.076 75.6931C247.593 75.9882 248.008 76.3939 248.321 76.9103C248.653 77.4083 248.819 78.063 248.819 78.8745C248.819 79.7967 248.635 80.5621 248.266 81.1707C247.897 81.7609 247.399 82.2312 246.772 82.5817C246.163 82.9321 245.49 83.1811 244.753 83.3286C244.033 83.4762 243.314 83.5499 242.595 83.5499Z" fill="white"/>
<path d="M225.792 83.5498C225.128 83.5498 224.483 83.4669 223.856 83.3009C223.247 83.1164 222.703 82.8398 222.223 82.4709C221.744 82.102 221.366 81.641 221.089 81.0877C220.812 80.5344 220.674 79.8888 220.674 79.1511C220.674 78.1552 220.877 77.3621 221.283 76.7719C221.688 76.1633 222.233 75.7022 222.915 75.3887C223.597 75.0751 224.381 74.863 225.266 74.7524C226.17 74.6417 227.102 74.5864 228.061 74.5864H230.163C230.163 74.0515 230.062 73.5812 229.859 73.1755C229.674 72.7513 229.389 72.4285 229.001 72.2072C228.614 71.9674 228.116 71.8476 227.507 71.8476C227.12 71.8476 226.742 71.9029 226.373 72.0135C226.023 72.1058 225.728 72.2441 225.488 72.4285C225.248 72.613 225.091 72.8527 225.017 73.1478H221.089C221.2 72.3363 221.458 71.6447 221.864 71.0729C222.269 70.4827 222.777 70.0032 223.385 69.6344C223.994 69.2655 224.658 68.9981 225.377 68.8321C226.115 68.6476 226.871 68.5554 227.646 68.5554C229.767 68.5554 231.334 69.164 232.349 70.3813C233.363 71.5801 233.87 73.2861 233.87 75.4993V83.3562H230.384L230.329 81.475C229.868 82.1205 229.342 82.5908 228.752 82.8859C228.181 83.181 227.627 83.3654 227.092 83.4392C226.557 83.513 226.124 83.5498 225.792 83.5498ZM226.677 80.479C227.323 80.479 227.913 80.3499 228.448 80.0917C228.983 79.8335 229.407 79.4831 229.721 79.0405C230.034 78.5978 230.191 78.0998 230.191 77.5465V77.1869H227.535C227.148 77.1869 226.77 77.2053 226.401 77.2422C226.05 77.2791 225.728 77.3529 225.432 77.4635C225.156 77.5558 224.934 77.7125 224.769 77.9339C224.603 78.1552 224.52 78.4503 224.52 78.8191C224.52 79.188 224.612 79.5015 224.796 79.7597C224.999 79.9995 225.266 80.1839 225.598 80.313C225.93 80.4237 226.29 80.479 226.677 80.479Z" fill="white"/>
<path d="M215.449 83.5497C213.807 83.5497 212.59 83.0886 211.797 82.1664C211.022 81.2443 210.635 79.9809 210.635 78.3763V72.2347H208.45V68.7766H210.635V64.8481H214.508V68.7766H218.935V72.2347H214.508V77.574C214.508 78.0536 214.564 78.4685 214.674 78.819C214.803 79.1694 215.006 79.446 215.283 79.6489C215.578 79.8334 215.974 79.9256 216.472 79.9256C216.915 79.9256 217.284 79.861 217.579 79.7319C217.893 79.5844 218.151 79.4276 218.354 79.2616L219.571 82.2494C219.184 82.563 218.75 82.8212 218.271 83.024C217.81 83.2085 217.339 83.3376 216.86 83.4114C216.38 83.5036 215.91 83.5497 215.449 83.5497Z" fill="white"/>
<path d="M202.558 83.3563V68.7768H206.431V83.3563H202.558ZM204.494 67.3105C203.775 67.3105 203.194 67.0985 202.751 66.6743C202.309 66.2316 202.087 65.6691 202.087 64.9867C202.087 64.2674 202.318 63.6864 202.779 63.2438C203.24 62.8012 203.821 62.5798 204.522 62.5798C205.167 62.5798 205.721 62.8012 206.182 63.2438C206.661 63.668 206.901 64.2397 206.901 64.959C206.901 65.6599 206.67 66.2316 206.209 66.6743C205.767 67.0985 205.195 67.3105 204.494 67.3105Z" fill="white"/>
<path d="M194.073 83.5499C193.39 83.5499 192.69 83.4762 191.97 83.3286C191.251 83.1811 190.587 82.9321 189.978 82.5817C189.37 82.2128 188.853 81.724 188.429 81.1154C188.005 80.4883 187.728 79.7137 187.599 78.7916H191.528C191.638 79.1235 191.832 79.4094 192.109 79.6492C192.404 79.8889 192.736 80.0641 193.105 80.1748C193.492 80.2855 193.879 80.3408 194.267 80.3408C194.525 80.3408 194.783 80.3223 195.041 80.2855C195.299 80.2486 195.539 80.1748 195.76 80.0641C195.982 79.9535 196.157 79.8152 196.286 79.6492C196.415 79.4647 196.48 79.2342 196.48 78.9575C196.48 78.6624 196.388 78.4319 196.203 78.2659C196.019 78.0999 195.76 77.9708 195.428 77.8786C195.096 77.7679 194.718 77.6665 194.294 77.5743C193.538 77.4083 192.727 77.2239 191.86 77.021C190.993 76.8181 190.246 76.523 189.619 76.1357C189.361 75.9513 189.13 75.7484 188.927 75.5271C188.724 75.3058 188.558 75.0568 188.429 74.7801C188.3 74.5035 188.199 74.2176 188.125 73.9225C188.051 73.609 188.014 73.277 188.014 72.9266C188.014 72.1335 188.18 71.4603 188.512 70.907C188.863 70.3353 189.324 69.8742 189.895 69.5238C190.467 69.1734 191.104 68.9244 191.804 68.7768C192.505 68.6108 193.224 68.5278 193.962 68.5278C194.958 68.5278 195.88 68.6938 196.729 69.0258C197.577 69.3393 198.278 69.8373 198.831 70.5197C199.385 71.1837 199.726 72.0505 199.855 73.1202H196.148C196.074 72.7145 195.825 72.3917 195.401 72.1519C194.977 71.8937 194.451 71.7646 193.824 71.7646C193.603 71.7646 193.363 71.7831 193.105 71.82C192.865 71.8569 192.644 71.9214 192.441 72.0136C192.238 72.1058 192.072 72.2349 191.943 72.4009C191.814 72.5485 191.749 72.7514 191.749 73.0096C191.749 73.2124 191.804 73.3969 191.915 73.5629C192.044 73.7289 192.219 73.8672 192.441 73.9778C192.68 74.0885 192.966 74.1899 193.298 74.2822C193.925 74.4297 194.552 74.568 195.179 74.6971C195.825 74.8078 196.397 74.9277 196.895 75.0568C197.503 75.1859 198.057 75.398 198.555 75.6931C199.071 75.9882 199.486 76.3939 199.8 76.9103C200.132 77.4083 200.298 78.063 200.298 78.8745C200.298 79.7967 200.113 80.5621 199.744 81.1707C199.375 81.7609 198.877 82.2312 198.25 82.5817C197.642 82.9321 196.968 83.1811 196.231 83.3286C195.511 83.4762 194.792 83.5499 194.073 83.5499Z" fill="white"/>
<path d="M177.783 83.3563V68.7768H181.269L181.518 70.5197C181.887 69.9664 182.302 69.5514 182.763 69.2748C183.224 68.9797 183.704 68.786 184.202 68.6938C184.7 68.5832 185.207 68.5278 185.723 68.5278C185.963 68.5278 186.184 68.5371 186.387 68.5555C186.59 68.5555 186.738 68.5555 186.83 68.5555V72.2903H185.917C185.05 72.2903 184.294 72.4378 183.648 72.7329C183.003 73.028 182.505 73.4891 182.154 74.1162C181.822 74.7432 181.656 75.5455 181.656 76.523V83.3563H177.783Z" fill="white"/>
<path d="M168.538 83.5499C167.007 83.5499 165.707 83.2456 164.637 82.637C163.567 82.0284 162.747 81.1707 162.175 80.0641C161.603 78.9391 161.317 77.6296 161.317 76.1357C161.317 74.6234 161.612 73.3047 162.203 72.1796C162.793 71.0361 163.623 70.1416 164.692 69.4961C165.781 68.8506 167.062 68.5278 168.538 68.5278C169.644 68.5278 170.613 68.7123 171.443 69.0811C172.291 69.45 173.001 69.9664 173.573 70.6304C174.163 71.2943 174.596 72.069 174.873 72.9542C175.168 73.8211 175.307 74.7617 175.288 75.7761C175.288 76.0343 175.279 76.2833 175.26 76.523C175.242 76.7628 175.205 77.0025 175.15 77.2423H165.163C165.218 77.7956 165.375 78.3028 165.633 78.7639C165.891 79.225 166.251 79.5938 166.712 79.8705C167.191 80.1287 167.782 80.2578 168.483 80.2578C168.944 80.2578 169.368 80.2117 169.755 80.1195C170.142 80.0088 170.474 79.8428 170.751 79.6215C171.028 79.4002 171.221 79.142 171.332 78.8469H175.15C174.91 79.935 174.458 80.8295 173.794 81.5304C173.149 82.2312 172.365 82.7476 171.443 83.0796C170.521 83.3932 169.552 83.5499 168.538 83.5499ZM165.246 74.5311H171.581C171.563 74.0332 171.433 73.5721 171.194 73.1479C170.972 72.7052 170.631 72.3548 170.17 72.0966C169.727 71.82 169.156 71.6816 168.455 71.6816C167.754 71.6816 167.164 71.82 166.684 72.0966C166.223 72.3733 165.873 72.7329 165.633 73.1756C165.412 73.5997 165.283 74.0516 165.246 74.5311Z" fill="white"/>
<path d="M150.041 83.3563L144.923 68.7769H149.155L152.641 80.2025L156.099 68.7769H160.36L155.242 83.3563H150.041Z" fill="white"/>
<path d="M139.501 83.3563V68.7768H143.374V83.3563H139.501ZM141.437 67.3105C140.718 67.3105 140.137 67.0985 139.695 66.6743C139.252 66.2316 139.031 65.6691 139.031 64.9867C139.031 64.2674 139.261 63.6864 139.722 63.2438C140.183 62.8012 140.764 62.5798 141.465 62.5798C142.111 62.5798 142.664 62.8012 143.125 63.2438C143.605 63.668 143.844 64.2397 143.844 64.959C143.844 65.6599 143.614 66.2316 143.153 66.6743C142.71 67.0985 142.138 67.3105 141.437 67.3105Z" fill="white"/>
<path d="M122.751 83.3563V68.7768H126.375L126.568 70.4644C126.974 69.9664 127.435 69.5791 127.952 69.3025C128.486 69.0074 129.021 68.8045 129.556 68.6938C130.109 68.5832 130.607 68.5278 131.05 68.5278C132.452 68.5278 133.54 68.8321 134.315 69.4408C135.108 70.0494 135.67 70.8701 136.002 71.903C136.353 72.9173 136.528 74.0516 136.528 75.3058V83.3563H132.655V75.8037C132.655 75.3611 132.618 74.9184 132.544 74.4758C132.47 74.0332 132.332 73.6274 132.129 73.2585C131.945 72.8897 131.677 72.5946 131.327 72.3733C130.976 72.1519 130.515 72.0413 129.943 72.0413C129.206 72.0413 128.588 72.2257 128.09 72.5946C127.592 72.9635 127.223 73.4614 126.983 74.0885C126.744 74.7156 126.624 75.4072 126.624 76.1634V83.3563H122.751Z" fill="white"/>
<path d="M111.068 83.5777C109.149 83.5777 107.572 83.218 106.337 82.4987C105.12 81.7794 104.216 80.7466 103.626 79.4003C103.054 78.0539 102.768 76.4401 102.768 74.5589V63.7695H106.724V74.7525C106.724 75.6378 106.853 76.477 107.111 77.27C107.388 78.0447 107.84 78.681 108.467 79.1789C109.113 79.6585 109.989 79.8982 111.095 79.8982C112.22 79.8982 113.087 79.6585 113.696 79.1789C114.304 78.681 114.729 78.0354 114.968 77.2424C115.208 76.4493 115.328 75.6194 115.328 74.7525V63.7695H119.284V74.5589C119.284 76.4217 118.998 78.0354 118.426 79.4003C117.855 80.7466 116.96 81.7794 115.743 82.4987C114.526 83.218 112.967 83.5777 111.068 83.5777Z" fill="white"/>
<path d="M300.034 47.6658V33.0864H303.907V47.6658H300.034ZM301.97 31.6201C301.251 31.6201 300.67 31.408 300.227 30.9838C299.785 30.5412 299.563 29.9787 299.563 29.2963C299.563 28.577 299.794 27.996 300.255 27.5534C300.716 27.1107 301.297 26.8894 301.998 26.8894C302.643 26.8894 303.197 27.1107 303.658 27.5534C304.137 27.9776 304.377 28.5493 304.377 29.2686C304.377 29.9694 304.146 30.5412 303.685 30.9838C303.243 31.408 302.671 31.6201 301.97 31.6201Z" fill="white"/>
<path d="M291.549 47.8595C290.866 47.8595 290.166 47.7857 289.446 47.6382C288.727 47.4906 288.063 47.2416 287.454 46.8912C286.846 46.5224 286.329 46.0336 285.905 45.425C285.481 44.7979 285.204 44.0233 285.075 43.1011H289.004C289.114 43.4331 289.308 43.719 289.585 43.9587C289.88 44.1985 290.212 44.3737 290.581 44.4844C290.968 44.595 291.355 44.6504 291.742 44.6504C292.001 44.6504 292.259 44.6319 292.517 44.595C292.775 44.5581 293.015 44.4844 293.236 44.3737C293.458 44.263 293.633 44.1247 293.762 43.9587C293.891 43.7743 293.956 43.5438 293.956 43.2671C293.956 42.972 293.863 42.7415 293.679 42.5755C293.495 42.4095 293.236 42.2804 292.904 42.1882C292.572 42.0775 292.194 41.9761 291.77 41.8839C291.014 41.7179 290.202 41.5334 289.336 41.3306C288.469 41.1277 287.722 40.8326 287.095 40.4453C286.837 40.2608 286.606 40.058 286.403 39.8366C286.2 39.6153 286.034 39.3663 285.905 39.0897C285.776 38.813 285.675 38.5272 285.601 38.2321C285.527 37.9185 285.49 37.5866 285.49 37.2361C285.49 36.4431 285.656 35.7699 285.988 35.2166C286.339 34.6448 286.8 34.1838 287.371 33.8333C287.943 33.4829 288.579 33.2339 289.28 33.0864C289.981 32.9204 290.7 32.8374 291.438 32.8374C292.434 32.8374 293.356 33.0034 294.205 33.3354C295.053 33.6489 295.754 34.1469 296.307 34.8293C296.86 35.4932 297.202 36.3601 297.331 37.4298H293.624C293.55 37.024 293.301 36.7013 292.877 36.4615C292.453 36.2033 291.927 36.0742 291.3 36.0742C291.078 36.0742 290.839 36.0926 290.581 36.1295C290.341 36.1664 290.119 36.231 289.917 36.3232C289.714 36.4154 289.548 36.5445 289.419 36.7105C289.289 36.858 289.225 37.0609 289.225 37.3191C289.225 37.522 289.28 37.7064 289.391 37.8724C289.52 38.0384 289.695 38.1767 289.917 38.2874C290.156 38.3981 290.442 38.4995 290.774 38.5917C291.401 38.7393 292.028 38.8776 292.655 39.0067C293.301 39.1174 293.873 39.2372 294.371 39.3663C294.979 39.4954 295.533 39.7075 296.031 40.0026C296.547 40.2977 296.962 40.7035 297.275 41.2199C297.607 41.7179 297.773 42.3726 297.773 43.1841C297.773 44.1063 297.589 44.8717 297.22 45.4803C296.851 46.0705 296.353 46.5408 295.726 46.8912C295.118 47.2416 294.444 47.4906 293.707 47.6382C292.987 47.7857 292.268 47.8595 291.549 47.8595Z" fill="white"/>
<path d="M274.746 47.8597C274.082 47.8597 273.437 47.7767 272.81 47.6107C272.201 47.4262 271.657 47.1496 271.177 46.7807C270.698 46.4119 270.32 45.9508 270.043 45.3975C269.767 44.8442 269.628 44.1987 269.628 43.4609C269.628 42.465 269.831 41.6719 270.237 41.0817C270.643 40.4731 271.187 40.012 271.869 39.6985C272.551 39.385 273.335 39.1729 274.221 39.0622C275.124 38.9515 276.056 38.8962 277.015 38.8962H279.117C279.117 38.3613 279.016 37.891 278.813 37.4853C278.629 37.0611 278.343 36.7383 277.955 36.517C277.568 36.2773 277.07 36.1574 276.461 36.1574C276.074 36.1574 275.696 36.2127 275.327 36.3234C274.977 36.4156 274.682 36.5539 274.442 36.7383C274.202 36.9228 274.045 37.1625 273.972 37.4576H270.043C270.154 36.6461 270.412 35.9545 270.818 35.3828C271.224 34.7926 271.731 34.313 272.339 33.9442C272.948 33.5753 273.612 33.3079 274.331 33.1419C275.069 32.9575 275.825 32.8652 276.6 32.8652C278.721 32.8652 280.288 33.4739 281.303 34.6911C282.317 35.8899 282.824 37.596 282.824 39.8092V47.666H279.339L279.283 45.7848C278.822 46.4303 278.297 46.9006 277.706 47.1957C277.135 47.4908 276.581 47.6752 276.046 47.749C275.512 47.8228 275.078 47.8597 274.746 47.8597ZM275.631 44.7889C276.277 44.7889 276.867 44.6597 277.402 44.4015C277.937 44.1433 278.361 43.7929 278.675 43.3503C278.988 42.9076 279.145 42.4097 279.145 41.8564V41.4967H276.489C276.102 41.4967 275.724 41.5152 275.355 41.552C275.004 41.5889 274.682 41.6627 274.387 41.7734C274.11 41.8656 273.889 42.0224 273.723 42.2437C273.557 42.465 273.474 42.7601 273.474 43.129C273.474 43.4978 273.566 43.8114 273.75 44.0696C273.953 44.3093 274.221 44.4938 274.553 44.6229C274.885 44.7335 275.244 44.7889 275.631 44.7889Z" fill="white"/>
<path d="M254.673 47.6659V28.0791H258.546V38.6748H260.455L264.023 33.0865H268.367L263.719 40.0304L268.754 47.6659H264.272L260.621 42.1329H258.546V47.6659H254.673Z" fill="white"/>
<path d="M244.917 47.8595C243.442 47.8595 242.151 47.5644 241.044 46.9742C239.937 46.3656 239.08 45.508 238.471 44.4014C237.862 43.2763 237.558 41.9484 237.558 40.4176C237.558 38.8499 237.862 37.5036 238.471 36.3785C239.098 35.235 239.965 34.359 241.072 33.7503C242.178 33.1417 243.451 32.8374 244.889 32.8374C246.365 32.8374 247.647 33.1509 248.735 33.778C249.823 34.4051 250.671 35.2811 251.28 36.4062C251.889 37.5312 252.193 38.8776 252.193 40.4453C252.193 41.9761 251.889 43.304 251.28 44.429C250.69 45.5356 249.851 46.384 248.762 46.9742C247.693 47.5644 246.411 47.8595 244.917 47.8595ZM244.862 44.3184C245.71 44.3184 246.393 44.1339 246.909 43.7651C247.425 43.3962 247.794 42.9167 248.016 42.3265C248.255 41.7179 248.375 41.0816 248.375 40.4176C248.375 39.7537 248.255 39.1174 248.016 38.5087C247.794 37.9001 247.425 37.4021 246.909 37.0148C246.411 36.6091 245.729 36.4062 244.862 36.4062C244.032 36.4062 243.359 36.6091 242.842 37.0148C242.326 37.4021 241.948 37.9001 241.708 38.5087C241.487 39.1174 241.376 39.7537 241.376 40.4176C241.376 41.1 241.487 41.7363 241.708 42.3265C241.948 42.9167 242.326 43.3962 242.842 43.7651C243.359 44.1339 244.032 44.3184 244.862 44.3184Z" fill="white"/>
<path d="M225.495 47.6659L218.358 28.0791H222.673L228.151 44.3185L233.518 28.0791H237.806L230.696 47.6659H225.495Z" fill="white"/>
<path d="M205.636 47.8595C204.954 47.8595 204.253 47.7857 203.533 47.6382C202.814 47.4906 202.15 47.2416 201.542 46.8912C200.933 46.5224 200.417 46.0336 199.992 45.425C199.568 44.7979 199.291 44.0233 199.162 43.1011H203.091C203.201 43.4331 203.395 43.719 203.672 43.9587C203.967 44.1985 204.299 44.3737 204.668 44.4844C205.055 44.595 205.442 44.6504 205.83 44.6504C206.088 44.6504 206.346 44.6319 206.604 44.595C206.862 44.5581 207.102 44.4844 207.324 44.3737C207.545 44.263 207.72 44.1247 207.849 43.9587C207.978 43.7743 208.043 43.5438 208.043 43.2671C208.043 42.972 207.951 42.7415 207.766 42.5755C207.582 42.4095 207.324 42.2804 206.992 42.1882C206.66 42.0775 206.281 41.9761 205.857 41.8839C205.101 41.7179 204.29 41.5334 203.423 41.3306C202.556 41.1277 201.809 40.8326 201.182 40.4453C200.924 40.2608 200.693 40.058 200.49 39.8366C200.287 39.6153 200.121 39.3663 199.992 39.0897C199.863 38.813 199.762 38.5272 199.688 38.2321C199.614 37.9185 199.577 37.5866 199.577 37.2361C199.577 36.4431 199.743 35.7699 200.075 35.2166C200.426 34.6448 200.887 34.1838 201.459 33.8333C202.03 33.4829 202.667 33.2339 203.367 33.0864C204.068 32.9204 204.788 32.8374 205.525 32.8374C206.521 32.8374 207.443 33.0034 208.292 33.3354C209.14 33.6489 209.841 34.1469 210.394 34.8293C210.948 35.4932 211.289 36.3601 211.418 37.4298H207.711C207.637 37.024 207.388 36.7013 206.964 36.4615C206.54 36.2033 206.014 36.0742 205.387 36.0742C205.166 36.0742 204.926 36.0926 204.668 36.1295C204.428 36.1664 204.207 36.231 204.004 36.3232C203.801 36.4154 203.635 36.5445 203.506 36.7105C203.377 36.858 203.312 37.0609 203.312 37.3191C203.312 37.522 203.367 37.7064 203.478 37.8724C203.607 38.0384 203.782 38.1767 204.004 38.2874C204.243 38.3981 204.529 38.4995 204.861 38.5917C205.488 38.7393 206.115 38.8776 206.743 39.0067C207.388 39.1174 207.96 39.2372 208.458 39.3663C209.066 39.4954 209.62 39.7075 210.118 40.0026C210.634 40.2977 211.049 40.7035 211.363 41.2199C211.695 41.7179 211.861 42.3726 211.861 43.1841C211.861 44.1063 211.676 44.8717 211.307 45.4803C210.938 46.0705 210.44 46.5408 209.813 46.8912C209.205 47.2416 208.532 47.4906 207.794 47.6382C207.075 47.7857 206.355 47.8595 205.636 47.8595Z" fill="white"/>
<path d="M188.833 47.8597C188.169 47.8597 187.524 47.7767 186.897 47.6107C186.288 47.4262 185.744 47.1496 185.265 46.7807C184.785 46.4119 184.407 45.9508 184.13 45.3975C183.854 44.8442 183.715 44.1987 183.715 43.4609C183.715 42.465 183.918 41.6719 184.324 41.0817C184.73 40.4731 185.274 40.012 185.956 39.6985C186.639 39.385 187.423 39.1729 188.308 39.0622C189.212 38.9515 190.143 38.8962 191.102 38.8962H193.204C193.204 38.3613 193.103 37.891 192.9 37.4853C192.716 37.0611 192.43 36.7383 192.043 36.517C191.655 36.2773 191.157 36.1574 190.549 36.1574C190.161 36.1574 189.783 36.2127 189.414 36.3234C189.064 36.4156 188.769 36.5539 188.529 36.7383C188.289 36.9228 188.133 37.1625 188.059 37.4576H184.13C184.241 36.6461 184.499 35.9545 184.905 35.3828C185.311 34.7926 185.818 34.313 186.427 33.9442C187.035 33.5753 187.699 33.3079 188.418 33.1419C189.156 32.9575 189.912 32.8652 190.687 32.8652C192.808 32.8652 194.376 33.4739 195.39 34.6911C196.404 35.8899 196.912 37.596 196.912 39.8092V47.666H193.426L193.37 45.7848C192.909 46.4303 192.384 46.9006 191.794 47.1957C191.222 47.4908 190.669 47.6752 190.134 47.749C189.599 47.8228 189.165 47.8597 188.833 47.8597ZM189.719 44.7889C190.364 44.7889 190.954 44.6597 191.489 44.4015C192.024 44.1433 192.448 43.7929 192.762 43.3503C193.075 42.9076 193.232 42.4097 193.232 41.8564V41.4967H190.576C190.189 41.4967 189.811 41.5152 189.442 41.552C189.092 41.5889 188.769 41.6627 188.474 41.7734C188.197 41.8656 187.976 42.0224 187.81 42.2437C187.644 42.465 187.561 42.7601 187.561 43.129C187.561 43.4978 187.653 43.8114 187.837 44.0696C188.04 44.3093 188.308 44.4938 188.64 44.6229C188.972 44.7335 189.331 44.7889 189.719 44.7889Z" fill="white"/>
<path d="M178.49 47.8595C176.849 47.8595 175.631 47.3984 174.838 46.4762C174.064 45.5541 173.676 44.2907 173.676 42.6861V36.5445H171.491V33.0864H173.676V29.158H177.55V33.0864H181.976V36.5445H177.55V41.8839C177.55 42.3634 177.605 42.7784 177.716 43.1288C177.845 43.4792 178.048 43.7559 178.324 43.9587C178.619 44.1432 179.016 44.2354 179.514 44.2354C179.956 44.2354 180.325 44.1708 180.62 44.0417C180.934 43.8942 181.192 43.7374 181.395 43.5714L182.612 46.5592C182.225 46.8728 181.792 47.131 181.312 47.3339C180.851 47.5183 180.381 47.6474 179.901 47.7212C179.422 47.8134 178.951 47.8595 178.49 47.8595Z" fill="white"/>
<path d="M165.599 47.6659V28.0791H169.472V47.6659H165.599Z" fill="white"/>
<path d="M156.028 47.8593C153.888 47.8593 152.238 47.3152 151.076 46.2271C149.932 45.1205 149.361 43.4606 149.361 41.2474V33.0862H153.234V40.9707C153.234 41.6347 153.326 42.2249 153.51 42.7413C153.713 43.2392 154.018 43.6358 154.423 43.9309C154.847 44.226 155.392 44.3735 156.056 44.3735C156.775 44.3735 157.328 44.2167 157.715 43.9032C158.103 43.5897 158.37 43.1747 158.518 42.6583C158.665 42.1234 158.739 41.5609 158.739 40.9707V33.0862H162.584V41.2474C162.584 43.5528 162.004 45.2311 160.842 46.2824C159.698 47.3337 158.094 47.8593 156.028 47.8593Z" fill="white"/>
<path d="M133.962 47.6659V28.0791H137.836V38.6748H139.744L143.313 33.0865H147.657L143.009 40.0304L148.044 47.6659H143.562L139.91 42.1329H137.836V47.6659H133.962Z" fill="white"/>
<path d="M122.859 47.8597C122.195 47.8597 121.549 47.7767 120.922 47.6107C120.314 47.4262 119.77 47.1496 119.29 46.7807C118.811 46.4119 118.432 45.9508 118.156 45.3975C117.879 44.8442 117.741 44.1987 117.741 43.4609C117.741 42.465 117.944 41.6719 118.349 41.0817C118.755 40.4731 119.299 40.012 119.982 39.6985C120.664 39.385 121.448 39.1729 122.333 39.0622C123.237 38.9515 124.168 38.8962 125.127 38.8962H127.23C127.23 38.3613 127.129 37.891 126.926 37.4853C126.741 37.0611 126.455 36.7383 126.068 36.517C125.681 36.2773 125.183 36.1574 124.574 36.1574C124.187 36.1574 123.809 36.2127 123.44 36.3234C123.089 36.4156 122.794 36.5539 122.555 36.7383C122.315 36.9228 122.158 37.1625 122.084 37.4576H118.156C118.266 36.6461 118.525 35.9545 118.93 35.3828C119.336 34.7926 119.843 34.313 120.452 33.9442C121.061 33.5753 121.725 33.3079 122.444 33.1419C123.182 32.9575 123.938 32.8652 124.712 32.8652C126.833 32.8652 128.401 33.4739 129.415 34.6911C130.43 35.8899 130.937 37.596 130.937 39.8092V47.666H127.451L127.396 45.7848C126.935 46.4303 126.409 46.9006 125.819 47.1957C125.247 47.4908 124.694 47.6752 124.159 47.749C123.624 47.8228 123.191 47.8597 122.859 47.8597ZM123.744 44.7889C124.39 44.7889 124.98 44.6597 125.515 44.4015C126.05 44.1433 126.474 43.7929 126.787 43.3503C127.101 42.9076 127.258 42.4097 127.258 41.8564V41.4967H124.602C124.214 41.4967 123.836 41.5152 123.467 41.552C123.117 41.5889 122.794 41.6627 122.499 41.7734C122.223 41.8656 122.001 42.0224 121.835 42.2437C121.669 42.465 121.586 42.7601 121.586 43.129C121.586 43.4978 121.678 43.8114 121.863 44.0696C122.066 44.3093 122.333 44.4938 122.665 44.6229C122.997 44.7335 123.357 44.7889 123.744 44.7889Z" fill="white"/>
<path d="M102.906 47.6659V28.0791H116.85V31.7585H106.862V36.8212H115.3V40.473H106.862V47.6659H102.906Z" fill="white"/>
</svg>
