<svg width="51" height="51" viewBox="0 0 51 51" fill="none" xmlns="http://www.w3.org/2000/svg">
<path d="M40.0775 36.542L50.7842 47.2487L47.2487 50.7842L36.542 40.0775C32.6922 43.1575 27.81 45 22.5 45C10.08 45 0 34.92 0 22.5C0 10.08 10.08 0 22.5 0C34.92 0 45 10.08 45 22.5C45 27.81 43.1575 32.6922 40.0775 36.542ZM35.0618 34.687C38.1188 31.5365 40 27.239 40 22.5C40 12.8313 32.1688 5 22.5 5C12.8313 5 5 12.8313 5 22.5C5 32.1688 12.8313 40 22.5 40C27.239 40 31.5365 38.1188 34.687 35.0618L35.0618 34.687ZM25.4448 12.9406C23.7085 13.7246 22.5 15.4712 22.5 17.5C22.5 20.2615 24.7385 22.5 27.5 22.5C29.5287 22.5 31.2755 21.2915 32.0595 19.5553C32.3457 20.4862 32.5 21.475 32.5 22.5C32.5 28.0228 28.0228 32.5 22.5 32.5C16.9771 32.5 12.5 28.0228 12.5 22.5C12.5 16.9771 16.9771 12.5 22.5 12.5C23.525 12.5 24.5138 12.6542 25.4448 12.9406Z" fill="#3FEAE5"/>
</svg>
