<svg width="196" height="73" viewBox="0 0 196 73" fill="none" xmlns="http://www.w3.org/2000/svg">
<path d="M36.9772 72.4251C27.1646 72.4251 17.9576 68.6247 11.0684 61.7255C4.17338 54.8262 0.452154 45.6847 0.591918 35.9854C0.725859 26.7462 4.44126 17.9899 11.0626 11.3436C17.6839 4.69151 26.4833 0.873919 35.8358 0.592199C36.2202 0.580701 36.5987 0.574951 36.9772 0.574951C46.2716 0.574951 55.1175 4.03033 61.8844 10.3087L63.0608 11.4011H191.26C193.548 11.4011 195.418 13.2409 195.418 15.5061V58.2816C195.418 60.5411 193.554 62.3809 191.26 62.3809H62.263L61.1041 63.3928C54.4478 69.2169 45.8814 72.4251 36.9772 72.4251Z" fill="black"/>
<path d="M36.9772 1.14988C46.126 1.14988 54.8263 4.55352 61.4884 10.7284L62.8337 11.976H191.265C193.234 11.976 194.841 13.5571 194.841 15.5061V58.2816C194.841 60.2249 193.24 61.8059 191.265 61.8059H62.0417L60.7197 62.9616C54.1683 68.6937 45.7358 71.8501 36.9772 71.8501C27.3219 71.8501 18.2663 68.113 11.4819 61.323C4.6975 54.533 1.04033 45.5409 1.17427 35.9969C1.30239 26.9014 4.95955 18.2946 11.4761 11.746C17.9926 5.2032 26.6463 1.4431 35.8533 1.16713C36.226 1.15563 36.6045 1.14988 36.9772 1.14988ZM36.9772 0C36.5929 0 36.2085 0.00574939 35.8184 0.0172482C26.3144 0.304718 17.3753 4.18556 10.6433 10.9411C3.91714 17.6966 0.143506 26.5909 0.00374206 35.9797C-0.136022 45.8341 3.64344 55.1194 10.6491 62.1279C17.6548 69.1364 27.0016 73 36.9714 73C46.0153 73 54.7215 69.7401 61.4884 63.824L62.4784 62.9558H191.26C193.874 62.9558 196 60.8573 196 58.2816V15.5061C196 12.9246 193.874 10.8261 191.26 10.8261H63.2937L62.2862 9.88895C55.4087 3.51288 46.4172 0 36.9772 0Z" fill="#E8AA1F"/>
<path d="M151.439 19.3582H155.637V42.3098H151.439V19.3582ZM167.779 19.3582V34.6861L165.345 38.1242L162.911 34.6861V19.3582H158.712V35.767V35.9969L162.783 41.7521L163.185 42.3213H167.506L167.907 41.7521L171.978 35.9969V35.767V19.3582H167.779ZM117.022 19.3582V23.5035V42.3098H112.823V33.358H108.059V42.3098H103.86V26.4817C105.037 25.3203 105.701 24.6649 106.877 23.5035H103.86V22.3364C105.037 21.175 105.701 20.5196 106.877 19.3582H117.022ZM115.845 23.5035H108.059V32.1966C109.236 31.0352 109.899 30.3798 111.076 29.2184H112.823V26.4874C113.999 25.3261 114.663 24.6706 115.839 23.5093L115.845 23.5035ZM101.164 22.3364V23.5035V39.3316C99.9878 40.493 99.3239 41.1484 98.1476 42.3098H97.7749H96.9654H92.2018H88.003V26.4817L91.0196 23.5035H88.003V19.3582H98.1476C99.3239 20.5196 99.9878 21.175 101.164 22.3364ZM96.9654 23.5035H92.2018V41.1484C93.3781 39.987 94.042 39.3316 95.2183 38.1702H96.9654V23.5093V23.5035ZM132.885 22.3364V23.5035V30.3798C131.708 31.5412 131.045 32.1966 129.868 33.358H129.496H128.686H123.922V42.3098H119.724V26.4817C120.9 25.3203 121.564 24.6649 122.74 23.5035H119.724V19.3582H129.868C131.045 20.5196 131.708 21.175 132.885 22.3364ZM128.686 23.5035H123.922V32.1966C125.099 31.0352 125.763 30.3798 126.939 29.2184H128.686V23.5093V23.5035ZM135.581 19.3582V23.5035H143.082C141.905 24.6649 141.242 25.3203 140.065 26.4817V42.3098H144.264V23.5035H148.748V19.3582H135.587H135.581ZM189.082 20.5196V19.3524H179.252H178.069H175.053V23.4978H186.065C187.242 22.3364 187.905 21.6809 189.082 20.5196ZM179.252 32.1966V23.5035H178.069C176.893 24.6649 176.229 25.3203 175.053 26.4817V42.3098H179.252H186.065V38.1644H179.252V33.358H186.065V29.2127H182.268C181.092 30.374 180.428 31.0295 179.252 32.1908V32.1966ZM85.3009 19.3582V23.5035V42.3098H81.1021V33.358H76.3385V42.3098H72.1398V26.4817C73.3161 25.3203 73.98 24.6649 75.1563 23.5035H72.1398C70.9634 22.3421 70.2995 21.6867 69.1232 20.5253V19.3582H75.1622H76.3443H84.1304H85.3125H85.3009ZM84.1245 23.5035H76.3385V32.1966C77.5149 31.0352 78.1787 30.3798 79.3551 29.2184H81.1021V26.4874C82.2785 25.3261 82.9424 24.6706 84.1187 23.5093L84.1245 23.5035Z" fill="#3FEAE5"/>
<mask id="mask0_61_11640" style="mask-type:luminance" maskUnits="userSpaceOnUse" x="69" y="19" width="121" height="24">
<path d="M151.439 19.3582H155.637V42.3098H151.439V19.3582ZM167.779 19.3582V34.6861L165.345 38.1242L162.911 34.6861V19.3582H158.712V35.767V35.9969L162.783 41.7521L163.185 42.3213H167.506L167.907 41.7521L171.978 35.9969V35.767V19.3582H167.779ZM117.022 19.3582V23.5035V42.3098H112.823V33.358H108.059V42.3098H103.86V26.4817C105.037 25.3203 105.701 24.6649 106.877 23.5035H103.86V22.3364C105.037 21.175 105.701 20.5196 106.877 19.3582H117.022ZM115.845 23.5035H108.059V32.1966C109.236 31.0352 109.899 30.3798 111.076 29.2184H112.823V26.4874C113.999 25.3261 114.663 24.6706 115.839 23.5093L115.845 23.5035ZM101.164 22.3364V23.5035V39.3316C99.9878 40.493 99.3239 41.1484 98.1476 42.3098H97.7749H96.9654H92.2018H88.003V26.4817L91.0196 23.5035H88.003V19.3582H98.1476C99.3239 20.5196 99.9878 21.175 101.164 22.3364ZM96.9654 23.5035H92.2018V41.1484C93.3781 39.987 94.042 39.3316 95.2183 38.1702H96.9654V23.5093V23.5035ZM132.885 22.3364V23.5035V30.3798C131.708 31.5412 131.045 32.1966 129.868 33.358H129.496H128.686H123.922V42.3098H119.724V26.4817C120.9 25.3203 121.564 24.6649 122.74 23.5035H119.724V19.3582H129.868C131.045 20.5196 131.708 21.175 132.885 22.3364ZM128.686 23.5035H123.922V32.1966C125.099 31.0352 125.763 30.3798 126.939 29.2184H128.686V23.5093V23.5035ZM135.581 19.3582V23.5035H143.082C141.905 24.6649 141.242 25.3203 140.065 26.4817V42.3098H144.264V23.5035H148.748V19.3582H135.587H135.581ZM189.082 20.5196V19.3524H179.252H178.069H175.053V23.4978H186.065C187.242 22.3364 187.905 21.6809 189.082 20.5196ZM179.252 32.1966V23.5035H178.069C176.893 24.6649 176.229 25.3203 175.053 26.4817V42.3098H179.252H186.065V38.1644H179.252V33.358H186.065V29.2127H182.268C181.092 30.374 180.428 31.0295 179.252 32.1908V32.1966ZM85.3009 19.3582V23.5035V42.3098H81.1021V33.358H76.3385V42.3098H72.1397V26.4817C73.3161 25.3203 73.98 24.6649 75.1563 23.5035H72.1397C70.9634 22.3421 70.2995 21.6867 69.1232 20.5253V19.3582H75.1621H76.3443H84.1304H85.3125H85.3009ZM84.1245 23.5035H76.3385V32.1966C77.5148 31.0352 78.1787 30.3798 79.3551 29.2184H81.1021V26.4874C82.2785 25.3261 82.9424 24.6706 84.1187 23.5093L84.1245 23.5035Z" fill="white"/>
</mask>
<g mask="url(#mask0_61_11640)">
<path d="M186.752 26.5334H71.534V36.9456H186.752V26.5334Z" fill="#46B0D5"/>
<path d="M186.752 33.3062H71.534V43.7184H186.752V33.3062Z" fill="#1F7589"/>
</g>
<path d="M188.505 19.9275V20.2839L187.061 21.7098L185.826 22.9286H175.635V19.9275H188.511M171.401 19.9275V35.813L167.436 41.4187L167.209 41.7407H163.493L163.266 41.4187L159.3 35.813V19.9275H162.34V34.8644L162.445 35.0139L164.879 38.452L165.351 39.1247L165.823 38.452L168.257 35.0139L168.362 34.8644V19.9275H171.401ZM97.9029 19.9275L100.582 22.5722V39.0902L97.9029 41.7349H92.4171L92.6093 41.5452L95.457 38.7337H97.5418V22.9286H88.5794V19.9275H97.9029ZM84.7242 19.9275V22.9286H72.3784L69.6996 20.2839V19.9275H84.7242ZM155.061 19.9275V41.7407H152.021V19.9275H155.061ZM148.166 19.9275V22.9286H136.158V19.9275H148.166ZM129.624 19.9275L132.302 22.5722V30.1384L129.624 32.7831H124.138L124.33 32.5934L125.629 31.3113L127.183 29.7762H129.268V22.9229H120.306V19.9217H129.629M116.445 19.9275V22.9286H104.437V22.5722L107.116 19.9275H116.439M75.7618 23.7163V41.7407H72.722V26.7175L73.8517 25.6021L75.5755 23.9003L75.7677 23.7106M91.6193 23.7163V41.7407H88.5794V26.7175L91.4271 23.906L91.6193 23.7163ZM84.7242 23.7163V41.7407H81.6844V32.7889H76.5597L76.7518 32.5991L79.5995 29.7877H81.6844V26.7232L84.5321 23.9118L84.7242 23.7221M143.682 23.7163V41.7407H140.642V26.7175L141.981 25.3951L143.489 23.906L143.682 23.7163ZM123.34 23.7163V41.7407H120.3V26.7175L123.148 23.906L123.34 23.7163ZM116.445 23.7163V41.7407H113.405V32.7889H108.28L108.473 32.5991L111.32 29.7877H113.405V26.7232L116.253 23.9118L116.445 23.7221M107.483 23.7163V41.7407H104.443V26.7175L107.29 23.906L107.483 23.7163ZM178.675 24.0728V38.7337H185.489V41.7349H175.635V26.7117L177.01 25.3549L178.314 24.067H178.675M185.483 29.7819V32.7831H179.461L179.653 32.5934L182.501 29.7819H185.477M189.082 19.3583H175.053V23.5036H186.065C187.241 22.3422 187.905 21.6868 189.082 20.5254V19.3583ZM171.978 19.3583H167.779V34.6862L165.345 38.1243L162.911 34.6862V19.3583H158.712V35.9913L162.783 41.7464L163.184 42.3156H167.506L167.907 41.7464L171.978 35.9913V19.3583ZM98.1416 19.3583H87.9971V23.5036H91.0136L87.9971 26.4818V42.3098H98.1416C99.318 41.1485 99.9819 40.493 101.158 39.3317V22.3365C99.9819 21.1751 99.318 20.5197 98.1416 19.3583ZM92.2016 41.1485V23.5036H96.9653V38.1645H95.2182C94.0419 39.3259 93.378 39.9813 92.2016 41.1427V41.1485ZM85.3008 19.3583H69.1172V20.5254C70.2936 21.6868 70.9574 22.3422 72.1338 23.5036H75.1504C73.974 24.665 73.3101 25.3204 72.1338 26.4818V42.3098H76.3326V33.358H81.0962V42.3098H85.295V19.3583H85.3008ZM84.1244 23.5036C82.9481 24.665 82.2842 25.3204 81.1078 26.4818V29.2127H79.3608C78.1844 30.3741 77.5205 31.0295 76.3442 32.1909V23.4978H84.1302L84.1244 23.5036ZM155.637 19.3583H151.438V42.3098H155.637V19.3583ZM148.742 19.3583H135.581V23.5036H143.082C141.905 24.665 141.241 25.3204 140.065 26.4818V42.3098H144.264V23.5036H148.748V19.3583H148.742ZM129.862 19.3583H119.718V23.5036H122.734C121.558 24.665 120.894 25.3204 119.718 26.4818V42.3098H123.917V33.358H129.862C131.039 32.1967 131.703 31.5412 132.879 30.3799V22.3365C131.703 21.1751 131.039 20.5197 129.862 19.3583ZM123.917 32.1967V23.5036H128.68V29.2127H126.933C125.757 30.3741 125.093 31.0295 123.917 32.1909V32.1967ZM117.021 19.3583H106.877C105.701 20.5197 105.037 21.1751 103.86 22.3365V23.5036H106.877C105.701 24.665 105.037 25.3204 103.86 26.4818V42.3098H108.059V33.358H112.823V42.3098H117.021V19.3583ZM115.845 23.5036C114.669 24.665 114.005 25.3204 112.829 26.4818V29.2127H111.081C109.905 30.3741 109.241 31.0295 108.065 32.1909V23.4978H115.851L115.845 23.5036ZM179.252 23.5036H178.069C176.893 24.665 176.229 25.3204 175.053 26.4818V42.3098H186.065V38.1645H179.252V33.358H186.065V29.2127H182.274C181.098 30.3741 180.434 31.0295 179.257 32.1909V23.4978L179.252 23.5036Z" fill="#3FEAE5"/>
<path d="M93.9662 49.0078L92.1085 52.5264V54.4237H91.0078V52.5264L89.1443 49.0078H90.4022L91.5669 51.3765L92.7316 49.0078H93.9662Z" fill="#FFF2C5"/>
<path d="M97.3263 49.0078V52.1814C97.3263 52.6069 97.4195 52.9231 97.6117 53.1358C97.798 53.3486 98.0718 53.4521 98.4328 53.4521C98.7939 53.4521 99.0559 53.3486 99.2423 53.1358C99.4286 52.9231 99.5276 52.6069 99.5276 52.1814V49.0078H100.617V52.1814C100.617 52.6816 100.523 53.1071 100.331 53.4521C100.145 53.797 99.8829 54.0557 99.5451 54.2225C99.2132 54.3892 98.8288 54.4755 98.4095 54.4755C97.7515 54.4755 97.2273 54.28 96.8313 53.8948C96.4353 53.5096 96.2432 52.9346 96.2432 52.1814V49.0078H97.3322H97.3263Z" fill="#FFF2C5"/>
<path d="M110.482 49.0078L109.136 54.4237H107.785L106.76 50.4969L105.73 54.4237H104.384L103.039 49.0078H104.227L105.066 53.2048L106.155 49.0078H107.36L108.455 53.2048L109.294 49.0078H110.482Z" fill="#FFF2C5"/>
<path d="M116.276 53.3371H114.075L113.685 54.4237H112.526L114.546 49.071H115.799L117.813 54.4237H116.655L116.276 53.3371ZM115.979 52.5149L115.17 50.2266L114.36 52.5149H115.979Z" fill="#FFF2C5"/>
<path d="M122.973 54.4237L121.692 52.3137H121.209V54.4237H120.114V49.0078H122.204C122.839 49.0078 123.328 49.163 123.66 49.4677C123.992 49.7725 124.161 50.1807 124.161 50.6809C124.161 51.0891 124.045 51.434 123.818 51.71C123.585 51.986 123.253 52.1699 122.822 52.2619L124.19 54.4237H122.979H122.973ZM121.209 51.572H122.111C122.74 51.572 123.049 51.296 123.049 50.7498C123.049 50.4911 122.973 50.2841 122.822 50.1404C122.67 49.9967 122.432 49.9219 122.111 49.9219H121.209V51.572Z" fill="#FFF2C5"/>
<path d="M129.955 53.3371H127.754L127.364 54.4237H126.205L128.226 49.071H129.478L131.493 54.4237H130.334L129.955 53.3371ZM129.658 52.5149L128.849 50.2266L128.04 52.5149H129.658Z" fill="#FFF2C5"/>
<path d="M136.909 49.0078V52.8254C136.909 53.3486 136.763 53.751 136.472 54.0385C136.181 54.326 135.773 54.4697 135.255 54.4697C134.696 54.4697 134.253 54.3087 133.927 53.9925C133.601 53.6763 133.438 53.2221 133.438 52.6356H134.515C134.515 52.9116 134.574 53.1243 134.69 53.2738C134.806 53.4233 134.981 53.4981 135.208 53.4981C135.418 53.4981 135.569 53.4406 135.668 53.3198C135.767 53.1991 135.814 53.0324 135.814 52.8254V49.0078H136.909Z" fill="#FFF2C5"/>
<path d="M142.913 53.3371H140.712L140.321 54.4237H139.162L141.183 49.071H142.435L144.45 54.4237H143.291L142.913 53.3371ZM142.622 52.5149L141.812 50.2266L141.003 52.5149H142.622Z" fill="#FFF2C5"/>
<path d="M153.378 54.4237L152.143 52.5724L151.048 54.4237H149.796L151.52 51.6525L149.75 49.0078H151.048L152.26 50.8188L153.343 49.0078H154.595L152.877 51.733L154.682 54.4237H153.384H153.378Z" fill="#FFF2C5"/>
<path d="M157.745 49.0078L159.213 53.2968L160.692 49.0078H161.868L159.923 54.4237H158.514L156.569 49.0078H157.745Z" fill="#FFF2C5"/>
<path d="M165.263 49.0078V54.4237H164.169V49.0078H165.263Z" fill="#FFF2C5"/>
<path d="M169.06 49.0078V54.4237H167.966V49.0078H169.06Z" fill="#FFF2C5"/>
<path d="M66.0482 36.4051C66.0482 35.3645 65.99 34.3066 65.8735 33.2602L65.8619 33.1395L65.8502 33.0475L65.8095 32.6968H65.8036C65.4426 29.9198 64.6681 27.2176 63.5092 24.6649L63.4626 24.5556L63.3869 24.3889L63.2821 24.1532C62.0708 21.6292 60.4926 19.2892 58.5883 17.1964L58.5184 17.1217L58.402 16.9952L58.2214 16.7997C56.0725 14.5344 53.5917 12.6371 50.8314 11.1596L50.7615 11.1251L50.7207 11.1021L50.3771 10.9181C47.3897 9.38874 44.1867 8.38835 40.8499 7.9514L40.3782 7.88815V34.6516L40.6228 34.7608C43.7034 36.1637 45.695 39.2281 45.695 42.5742C45.695 47.3175 41.7875 51.1753 36.9831 51.1753C32.1787 51.1753 28.2711 47.3175 28.2711 42.5742C28.2711 39.2281 30.2627 36.1637 33.3434 34.7608L33.5879 34.6516V7.8939L33.1162 7.95715C29.7794 8.3941 26.5764 9.39449 23.589 10.9296L23.2454 11.1078L23.2046 11.1308L23.1347 11.1653C20.3802 12.6429 17.8936 14.5402 15.7447 16.8112L15.5642 17.0009L15.4477 17.1274L15.3778 17.2022C13.4735 19.2892 11.8954 21.6349 10.6841 24.1589L10.5792 24.3889L10.5035 24.5556L10.4569 24.6649C9.29807 27.2176 8.52354 29.9198 8.16248 32.7025H8.15666L8.11589 33.0475L8.10424 33.1337L8.0926 33.2602C7.97613 34.3066 7.91789 35.3702 7.91789 36.4051C7.91789 37.9115 8.04019 39.4293 8.27895 40.9241H8.2673L8.3663 41.4703C8.77395 43.7298 9.46112 45.9376 10.4045 48.0361L10.5094 48.2546L10.5909 48.4328L10.6317 48.5248C11.5984 50.5716 12.8096 52.5034 14.2364 54.2685H14.2306L14.5043 54.6019L14.5509 54.6594C15.8088 56.16 17.2297 57.5456 18.7729 58.776L19.0175 58.9657L19.1107 59.0405L19.1398 59.0635C20.9451 60.4491 22.9134 61.6277 24.9808 62.5533L25.0681 62.5936L25.371 62.7316C29.0456 64.3069 32.9532 65.1118 36.9831 65.1118C41.0129 65.1118 44.9263 64.3069 48.5952 62.7258L48.8921 62.5936L48.9795 62.5533C51.0527 61.6219 53.0152 60.4491 54.8205 59.0635L54.8496 59.0405L54.937 58.9715L55.1874 58.7817C56.7364 57.5514 58.1574 56.1658 59.4094 54.6594L59.7297 54.2742H59.7239C61.1507 52.5034 62.3619 50.5716 63.3286 48.5248L63.3694 48.4328L63.4451 48.2661L63.5558 48.0361C64.4992 45.9376 65.1863 43.7298 65.594 41.4703L65.693 40.9241H65.6813C65.9201 39.4293 66.0424 37.9115 66.0424 36.4051H66.0482Z" fill="black"/>
<path d="M23.5657 49.2838C23.0823 48.3524 22.698 47.3635 22.4243 46.3286L10.9927 48.3466C11.9652 50.3991 13.1765 52.3252 14.5975 54.073L23.5657 49.2838Z" fill="#1F7589"/>
<path d="M52.0136 42.5627L65.2562 40.9874C65.5008 39.4983 65.6348 37.969 65.6348 36.4051C65.6348 35.3587 65.5765 34.3238 65.4601 33.3004L51.6583 39.3891C51.8854 40.4124 52.0077 41.4703 52.0136 42.5627Z" fill="#1F7589"/>
<path d="M28.504 54.8377C27.4674 54.1362 26.5298 53.3141 25.7029 52.3884L19.3844 58.7415C21.1547 60.0984 23.0881 61.2597 25.1497 62.1854L28.504 54.8377Z" fill="#1F7589"/>
<path d="M51.6001 42.58C51.6001 35.9222 47.0112 30.305 40.7916 28.6434V31.1157C45.6659 32.7025 49.2008 37.2388 49.2008 42.58C49.2008 49.2377 43.715 54.6479 36.9772 54.6479C30.2394 54.6479 24.7537 49.232 24.7537 42.58C24.7537 37.2388 28.2827 32.7025 33.1628 31.1157V28.6434C26.9433 30.305 22.3544 35.9222 22.3544 42.58C22.3544 50.5429 28.9175 57.0224 36.9831 57.0224C45.0486 57.0224 51.6117 50.5429 51.6117 42.58H51.6001Z" fill="#1F7589"/>
<path d="M33.157 34.3928V31.5411C28.5098 33.1107 25.1555 37.463 25.1555 42.58C25.1555 49.0135 30.4549 54.2455 36.9714 54.2455C43.4879 54.2455 48.7873 49.0135 48.7873 42.58C48.7873 37.4688 45.433 33.1165 40.7858 31.5411V34.3928C43.9189 35.8187 46.0969 38.9464 46.0969 42.58C46.0969 47.5589 42.0088 51.595 36.9656 51.595C31.9224 51.595 27.8343 47.5589 27.8343 42.58C27.8343 38.9464 30.0123 35.8187 33.1454 34.3928H33.157Z" fill="#1F7589"/>
<path d="M50.1966 49.646C49.7191 50.5141 49.1542 51.3305 48.5194 52.0837L54.8904 58.4885C56.4278 57.2697 57.8371 55.9013 59.0949 54.4007L50.2024 49.646H50.1966Z" fill="#1F7589"/>
<path d="M23.752 49.646L14.8595 54.4007C16.1116 55.9013 17.5209 57.2697 19.0641 58.4885L25.435 52.0837C24.8003 51.3305 24.2354 50.5141 23.7579 49.646H23.752Z" fill="#1F7589"/>
<path d="M22.2962 39.3891L8.49442 33.3004C8.38377 34.3181 8.31971 35.353 8.31971 36.4051C8.31971 37.9632 8.44783 39.4925 8.69824 40.9874L21.9409 42.5627C21.9409 41.4761 22.069 40.4124 22.2962 39.3891Z" fill="#1F7589"/>
<path d="M25.767 32.6968L15.6806 17.4724C13.7938 19.5422 12.204 21.8879 10.9985 24.4406L23.7928 35.445C24.346 34.4561 25.0099 33.5304 25.767 32.6968Z" fill="#1F7589"/>
<path d="M22.3893 38.9866C22.6689 37.877 23.0823 36.8134 23.6006 35.8187L10.8238 24.8316C9.68242 27.3441 8.90207 30.0463 8.54101 32.8808L22.3893 38.9866Z" fill="#1F7589"/>
<path d="M22.3311 45.9376C22.104 44.9775 21.9759 43.9886 21.9467 42.9709L8.76229 41.4013C9.17576 43.7011 9.87459 45.9031 10.8122 47.9729L22.3253 45.9376H22.3311Z" fill="#1F7589"/>
<path d="M44.5711 29.7761L50.2607 11.332C47.3606 9.83145 44.1693 8.80806 40.7975 8.36536V28.2237C42.1369 28.5745 43.4064 29.0977 44.5769 29.7761H44.5711Z" fill="#1F7589"/>
<path d="M44.9322 29.9946C46.0212 30.6673 47.017 31.4779 47.8963 32.3978L57.9827 17.1734C55.8629 14.9197 53.3821 13.0109 50.6217 11.5333L44.9263 30.0003L44.9322 29.9946Z" fill="#1F7589"/>
<path d="M29.3834 29.7761C30.5539 29.0977 31.8176 28.5745 33.1628 28.2237V8.36536C29.7852 8.80806 26.5939 9.8372 23.6996 11.332L29.3892 29.7761H29.3834Z" fill="#1F7589"/>
<path d="M26.0523 32.392C26.9317 31.4721 27.9275 30.6672 29.0165 29.9888L23.3211 11.5218C20.5607 12.9994 18.0799 14.9081 15.9602 17.1619L26.0465 32.3863L26.0523 32.392Z" fill="#1F7589"/>
<path d="M45.101 55.0619C42.7542 56.5567 39.9647 57.4249 36.9772 57.4249C33.9898 57.4249 31.1945 56.5567 28.8534 55.0619L25.5282 62.3464C29.034 63.8585 32.9066 64.6979 36.9772 64.6979C41.0479 64.6979 44.9205 63.8585 48.4263 62.3464L45.101 55.0619Z" fill="#1F7589"/>
<path d="M54.5643 58.7415L48.2458 52.3884C47.4188 53.3141 46.4812 54.1362 45.4446 54.8377L48.799 62.1854C50.8663 61.2597 52.7939 60.0984 54.5643 58.7415Z" fill="#1F7589"/>
<path d="M50.3539 35.8187C50.8722 36.8134 51.2856 37.877 51.5652 38.9866L65.4135 32.8808C65.0583 30.0463 64.2721 27.3384 63.1307 24.8316L50.3539 35.8187Z" fill="#1F7589"/>
<path d="M48.1817 32.6968C48.9388 33.5362 49.6026 34.4561 50.1559 35.445L62.9501 24.4406C61.7388 21.8879 60.1548 19.5422 58.268 17.4724L48.1817 32.6968Z" fill="#1F7589"/>
<path d="M51.5244 46.3343C51.2507 47.3692 50.8663 48.3524 50.3829 49.2895L59.3512 54.0787C60.7721 52.3252 61.9834 50.4049 62.9559 48.3524L51.5244 46.3343Z" fill="#1F7589"/>
<path d="M52.0019 42.9709C51.9728 43.9886 51.8447 44.9832 51.6176 45.9376L63.1306 47.9729C64.0741 45.9031 64.7671 43.7011 65.1805 41.4013L51.9961 42.9709H52.0019Z" fill="#1F7589"/>
<mask id="mask1_61_11640" style="mask-type:luminance" maskUnits="userSpaceOnUse" x="8" y="8" width="58" height="57">
<path d="M14.5975 54.0788C13.1765 52.3252 11.9652 50.4049 10.9927 48.3524L22.4243 46.3343C22.698 47.3692 23.0823 48.3524 23.5657 49.2895L14.5975 54.0788ZM52.0135 42.5627L65.2562 40.9874C65.5008 39.4983 65.6348 37.969 65.6348 36.4051C65.6348 35.3587 65.5765 34.3238 65.4601 33.3005L51.6583 39.3891C51.8854 40.4125 52.0077 41.4703 52.0135 42.5627ZM28.504 54.8377C27.4674 54.1362 26.5298 53.3141 25.7029 52.3884L19.3844 58.7415C21.1547 60.0984 23.0882 61.2597 25.1497 62.1854L28.504 54.8377ZM51.6001 42.58C51.6001 35.9222 47.0112 30.305 40.7916 28.6435V31.1157C45.6659 32.7025 49.2008 37.2388 49.2008 42.58C49.2008 49.2378 43.715 54.6479 36.9772 54.6479C30.2394 54.6479 24.7537 49.232 24.7537 42.58C24.7537 37.2388 28.2827 32.7025 33.1628 31.1157V28.6435C26.9433 30.305 22.3544 35.9222 22.3544 42.58C22.3544 50.5429 28.9175 57.0224 36.9831 57.0224C45.0486 57.0224 51.6117 50.5429 51.6117 42.58H51.6001ZM33.157 34.3928V31.5411C28.5098 33.1107 25.1555 37.463 25.1555 42.58C25.1555 49.0135 30.4549 54.2455 36.9714 54.2455C43.4879 54.2455 48.7873 49.0135 48.7873 42.58C48.7873 37.4688 45.433 33.1165 40.7858 31.5411V34.3928C43.9189 35.8187 46.0969 38.9464 46.0969 42.58C46.0969 47.5589 42.0088 51.595 36.9656 51.595C31.9224 51.595 27.8343 47.5589 27.8343 42.58C27.8343 38.9464 30.0123 35.8187 33.1454 34.3928H33.157ZM50.1966 49.646C49.7191 50.5141 49.1542 51.3305 48.5194 52.0837L54.8904 58.4885C56.4278 57.2697 57.8371 55.9013 59.0949 54.4007L50.2024 49.646H50.1966ZM23.752 49.646L14.8595 54.4007C16.1116 55.9013 17.5209 57.2697 19.0641 58.4885L25.435 52.0837C24.8003 51.3305 24.2354 50.5141 23.7579 49.646H23.752ZM22.2962 39.3891L8.49442 33.3005C8.38377 34.3181 8.31971 35.353 8.31971 36.4051C8.31971 37.9632 8.44783 39.4926 8.69824 40.9874L21.9409 42.5627C21.9409 41.4761 22.069 40.4125 22.2962 39.3891ZM25.767 32.6968L15.6806 17.4724C13.7938 19.5422 12.204 21.8879 10.9985 24.4406L23.7928 35.445C24.346 34.4561 25.0099 33.5304 25.767 32.6968ZM22.3893 38.9866C22.6689 37.877 23.0823 36.8133 23.6006 35.8187L10.8238 24.8316C9.68242 27.3441 8.90207 30.0463 8.54101 32.8808L22.3893 38.9866ZM22.3311 45.9376C22.104 44.9775 21.9759 43.9886 21.9467 42.9709L8.7623 41.4014C9.17577 43.7011 9.87459 45.9031 10.8122 47.9729L22.3253 45.9376H22.3311ZM44.5711 29.7761L50.2607 11.332C47.3606 9.83145 44.1693 8.80806 40.7975 8.36536V28.2237C42.1369 28.5745 43.4064 29.0977 44.5769 29.7761H44.5711ZM44.9322 29.9946C46.0212 30.6672 47.017 31.4779 47.8963 32.3978L57.9827 17.1734C55.8629 14.9197 53.3821 13.0109 50.6217 11.5333L44.9263 30.0003L44.9322 29.9946ZM29.3834 29.7761C30.5539 29.0977 31.8176 28.5745 33.1628 28.2237V8.36536C29.7852 8.80806 26.5939 9.8372 23.6996 11.332L29.3892 29.7761H29.3834ZM26.0523 32.3921C26.9317 31.4722 27.9275 30.6672 29.0165 29.9888L23.3211 11.5218C20.5607 12.9994 18.0799 14.9082 15.9602 17.1619L26.0465 32.3863L26.0523 32.3921ZM45.101 55.0619C42.7542 56.5567 39.9647 57.4249 36.9772 57.4249C33.9898 57.4249 31.1945 56.5567 28.8534 55.0619L25.5282 62.3464C29.034 63.8585 32.9066 64.6979 36.9772 64.6979C41.0479 64.6979 44.9205 63.8585 48.4263 62.3464L45.101 55.0619ZM54.5643 58.7415L48.2457 52.3884C47.4188 53.3141 46.4812 54.1362 45.4446 54.8377L48.799 62.1854C50.8663 61.2597 52.7939 60.0984 54.5643 58.7415ZM50.3539 35.8187C50.8721 36.8133 51.2856 37.877 51.5651 38.9866L65.4135 32.8808C65.0582 30.0463 64.2721 27.3383 63.1306 24.8316L50.3539 35.8187ZM48.1817 32.6968C48.9387 33.5362 49.6026 34.4561 50.1559 35.445L62.9501 24.4406C61.7388 21.8879 60.1548 19.5422 58.268 17.4724L48.1817 32.6968ZM51.5244 46.3343C51.2507 47.3692 50.8663 48.3524 50.383 49.2895L59.3512 54.0788C60.7721 52.3252 61.9834 50.4049 62.9559 48.3524L51.5244 46.3343ZM52.0019 42.9709C51.9728 43.9886 51.8447 44.9832 51.6175 45.9376L63.1306 47.9729C64.0741 45.9031 64.7671 43.7011 65.1805 41.4014L51.9961 42.9709H52.0019Z" fill="white"/>
</mask>
<g mask="url(#mask1_61_11640)">
<path d="M48.7291 59.3567C48.7291 61.6105 43.4646 63.4445 36.9772 63.4445C30.4899 63.4445 25.2254 61.6162 25.2254 59.3567C25.2254 57.0972 20.5491 70.6945 36.9772 70.6945C53.4054 70.6945 48.7291 57.103 48.7291 59.3567Z" fill="#012633"/>
<path d="M28.7078 54.7342L30.3093 55.7576L28.2711 62.1107L25.5224 62.3464L28.702 54.7342H28.7078ZM45.2408 54.7342L43.6393 55.7576L45.6776 62.1107L48.4263 62.3464L45.2466 54.7342H45.2408Z" fill="#0C4451"/>
<path d="M65.1864 41.4014L62.6182 44.7188L63.1365 47.9729L65.594 46.2194L66.3045 43.2814L65.1864 41.4014Z" fill="#012633"/>
<path d="M62.6182 44.7187L51.6874 44.6267L51.6176 45.9376L63.1365 47.9729L62.6182 44.7187Z" fill="#0C4451"/>
<path d="M50.8489 47.7199L59.9685 50.8189L59.3512 54.0788L50.383 49.2838L50.8489 47.7199Z" fill="#0C4451"/>
<path d="M49.2299 50.8476L55.991 56.022L54.8904 58.4885L48.5194 52.0837L49.2299 50.8476Z" fill="#0C4451"/>
<path d="M46.9354 53.3083L50.9129 59.3395L48.799 62.1854L45.4505 54.8377L46.9354 53.3083Z" fill="#0C4451"/>
<path d="M48.799 62.1854L50.9129 59.3395L54.5642 58.7415L55.1524 61.1793L51.571 63.18L49.0727 63.4388L48.799 62.1854Z" fill="#012633"/>
<path d="M54.8904 58.4885L55.991 56.0221L59.0891 54.4007L57.476 59.2245L54.8904 58.4885Z" fill="#012633"/>
<path d="M59.3512 54.0787L59.9685 50.8188L62.9559 48.3524L62.8686 51.1811L61.7039 54.1995L59.3512 54.0787Z" fill="#012633"/>
<path d="M51.7573 40.9529L63.7188 37.44L65.2562 40.9874L52.0136 42.5627L51.7573 40.9529Z" fill="#0C4451"/>
<path d="M50.977 37.6987L62.9443 29.9428L65.4076 32.8807L51.5651 38.9866L50.977 37.6987Z" fill="#0C4451"/>
<path d="M42.7367 29.1436L45.1068 11.47L50.2607 11.332L44.5711 29.7761L42.7367 29.1436Z" fill="#0C4451"/>
<path d="M47.8963 32.3921L57.9826 17.1677L53.6849 16.3628L46.2483 31.2594L47.8963 32.3921Z" fill="#0C4451"/>
<path d="M49.0727 34.1226L59.4153 22.3421L62.9501 24.4464L50.1559 35.4507L49.556 34.985L49.0727 34.1226Z" fill="#0C4451"/>
<path d="M50.6275 11.5275L53.6849 16.3628L57.9826 17.1677L57.0916 13.4708L53.0792 11.5563L50.6275 11.5275Z" fill="#012633"/>
<path d="M58.268 17.4781L59.4152 22.3421L62.9501 24.4464L64.1148 22.4686L61.4884 17.8519L59.8928 17.0469L58.268 17.4781Z" fill="#012633"/>
<path d="M63.1306 24.8316L62.9443 29.9428L65.4076 32.8808L66.9509 30.3855L65.1398 25.6308L63.1306 24.8316Z" fill="#012633"/>
<path d="M65.4601 33.3004L63.7188 37.44L65.2562 40.9874L67.277 38.8486L67.1431 35.5255L65.4601 33.3004Z" fill="#012633"/>
<path d="M8.7623 41.4014L11.3305 44.7188L10.818 47.9729L8.36048 46.2194L7.65001 43.2814L8.7623 41.4014Z" fill="#012633"/>
<path d="M11.3305 44.7187L22.2612 44.6267L22.3311 45.9376L10.818 47.9729L11.3305 44.7187Z" fill="#0C4451"/>
<path d="M23.0998 47.7199L13.986 50.8189L14.5975 54.0788L23.5657 49.2838L23.0998 47.7199Z" fill="#0C4451"/>
<path d="M24.7187 50.8476L17.9635 56.022L19.0641 58.4885L25.435 52.0837L24.7187 50.8476Z" fill="#0C4451"/>
<path d="M27.0132 53.3083L23.0357 59.3395L25.1497 62.1854L28.504 54.8377L27.0132 53.3083Z" fill="#0C4451"/>
<path d="M25.1497 62.1854L23.0357 59.3395L19.3844 58.7415L18.802 61.1793L22.3777 63.18L24.8818 63.4388L25.1497 62.1854Z" fill="#012633"/>
<path d="M19.0641 58.4885L17.9635 56.0221L14.8595 54.4007L16.4726 59.2245L19.0641 58.4885Z" fill="#012633"/>
<path d="M14.5975 54.0787L13.986 50.8188L10.9927 48.3524L11.0859 51.1811L12.2506 54.1995L14.5975 54.0787Z" fill="#012633"/>
<path d="M22.1972 40.9529L10.2357 37.44L8.69242 40.9874L21.9409 42.5627L22.1972 40.9529Z" fill="#0C4451"/>
<path d="M22.9717 37.6987L11.0102 29.9428L8.54101 32.8807L22.3893 38.9866L22.9717 37.6987Z" fill="#0C4451"/>
<path d="M31.2178 29.1436L28.8476 11.47L23.6938 11.332L29.3834 29.7761L31.2178 29.1436Z" fill="#0C4451"/>
<path d="M26.0523 32.3921L15.966 17.1677L20.2696 16.3628L27.7062 31.2594L26.0523 32.3921Z" fill="#0C4451"/>
<path d="M24.8818 34.1226L14.5334 22.3421L10.9985 24.4464L23.7928 35.4507L24.3926 34.985L24.8818 34.1226Z" fill="#0C4451"/>
<path d="M23.3269 11.5275L20.2696 16.3628L15.966 17.1677L16.8628 13.4708L20.8694 11.5563L23.3269 11.5275Z" fill="#012633"/>
<path d="M15.6806 17.4781L14.5334 22.3421L10.9985 24.4464L9.83383 22.4686L12.4661 17.8519L14.0617 17.0469L15.6806 17.4781Z" fill="#012633"/>
<path d="M10.8238 24.8316L11.0102 29.9428L8.54102 32.8808L6.99778 30.3855L8.8089 25.6308L10.8238 24.8316Z" fill="#012633"/>
<path d="M8.48861 33.3004L10.2357 37.44L8.69243 40.9874L6.67749 38.8486L6.80561 35.5255L8.48861 33.3004Z" fill="#012633"/>
<path d="M44.6294 15.0864C44.5944 15.0864 44.5595 15.0807 44.5187 15.0807C44.1111 15.0807 43.7616 15.3854 43.7092 15.7821L42.5212 24.6189C42.463 25.0616 42.7775 25.4698 43.2259 25.5273C43.2608 25.5273 43.2958 25.533 43.3365 25.533C43.7442 25.533 44.0936 25.2283 44.146 24.8316L45.334 15.9948C45.3922 15.5521 45.0778 15.1439 44.6294 15.0864Z" fill="black"/>
<path d="M48.1642 27.4418C48.2749 27.4936 48.403 27.5281 48.5253 27.5281C48.8397 27.5281 49.1193 27.3556 49.259 27.0796L52.7473 20.0884C52.8463 19.8929 52.858 19.6744 52.7881 19.4732C52.7182 19.2662 52.5726 19.1052 52.3746 19.0075C52.264 18.9558 52.1359 18.927 52.0136 18.927C51.6991 18.927 51.4196 19.0995 51.2798 19.3755L47.7915 26.3667C47.5935 26.7692 47.7566 27.2521 48.1642 27.4476V27.4418Z" fill="black"/>
<path d="M51.4487 30.5523C51.4661 30.765 51.5651 30.9662 51.7282 31.1042C51.8796 31.2307 52.066 31.2997 52.264 31.2997C52.5027 31.2997 52.7299 31.1962 52.8813 31.018L57.4993 25.7573C57.6449 25.5963 57.7148 25.3836 57.6973 25.1709C57.6798 24.9581 57.5808 24.7569 57.4178 24.6189C57.2664 24.4924 57.08 24.4234 56.882 24.4234C56.6433 24.4234 56.4161 24.5269 56.2647 24.7052L51.6467 29.9658C51.5011 30.1268 51.4312 30.3396 51.4487 30.5523Z" fill="black"/>
<path d="M53.7082 35.9337C53.8596 36.1637 54.1158 36.2959 54.3954 36.2959C54.5526 36.2959 54.7098 36.2499 54.8438 36.1637L60.1315 32.737C60.5101 32.4898 60.6149 31.9896 60.3645 31.6159C60.2131 31.3859 59.9568 31.2537 59.6773 31.2537C59.5201 31.2537 59.3628 31.2997 59.2289 31.3859L53.9411 34.8126C53.5626 35.0598 53.4578 35.56 53.7082 35.9337Z" fill="black"/>
<path d="M61.4651 38.107C61.3603 37.7678 61.04 37.5263 60.6789 37.5263C60.5974 37.5263 60.5217 37.5378 60.446 37.5608L54.4594 39.3143C54.2498 39.3776 54.0751 39.5156 53.9703 39.7053C53.8654 39.895 53.8421 40.1135 53.9062 40.3205C54.011 40.6597 54.3313 40.9012 54.6924 40.9012C54.7739 40.9012 54.8496 40.8897 54.9253 40.8667L60.9119 39.1131C61.1215 39.0499 61.2962 38.9119 61.4011 38.7221C61.5059 38.5324 61.5292 38.3139 61.4651 38.107Z" fill="black"/>
<path d="M60.0791 43.8909L54.6458 43.8449C54.1974 43.8449 53.8305 44.2071 53.8246 44.644C53.8246 44.8625 53.9062 45.0637 54.0576 45.219C54.209 45.3742 54.4186 45.4605 54.6341 45.4605L60.0675 45.5065C60.5217 45.5065 60.8886 45.1442 60.8944 44.7073C60.8944 44.4888 60.8129 44.2876 60.6615 44.1323C60.51 43.9771 60.3004 43.8909 60.0849 43.8909H60.0791Z" fill="black"/>
<path d="M57.9885 49.2895L53.7723 47.8579C53.6849 47.8292 53.5976 47.8119 53.5044 47.8119C53.155 47.8119 52.8463 48.0304 52.7299 48.3581C52.66 48.5593 52.6716 48.7836 52.7706 48.9733C52.8638 49.1688 53.0327 49.3125 53.2423 49.3815L57.4586 50.8131C57.5459 50.8418 57.6333 50.8591 57.7264 50.8591C58.0759 50.8591 58.3845 50.6406 58.501 50.3129C58.5709 50.1059 58.5592 49.8874 58.4602 49.6977C58.367 49.5022 58.1982 49.3585 57.9885 49.2895Z" fill="black"/>
<path d="M54.739 54.0328L51.8738 51.8422C51.7282 51.733 51.5535 51.6755 51.373 51.6755C51.1167 51.6755 50.8838 51.7905 50.7266 51.986C50.5926 52.1585 50.5344 52.3712 50.5635 52.5839C50.5926 52.7966 50.7033 52.9864 50.8722 53.1244L53.7373 55.3149C53.8829 55.4241 54.0576 55.4816 54.2381 55.4816C54.4944 55.4816 54.7273 55.3666 54.8846 55.1711C55.0185 54.9987 55.0767 54.7859 55.0476 54.5732C55.0185 54.3605 54.9079 54.1707 54.739 54.0328Z" fill="black"/>
<path d="M48.9562 54.8722C48.8048 54.6422 48.5486 54.5042 48.269 54.5042C48.1118 54.5042 47.9546 54.5502 47.8206 54.6365C47.6343 54.7572 47.512 54.9354 47.4654 55.1482C47.4188 55.3609 47.4654 55.5736 47.5819 55.7576L49.3522 58.4368C49.5036 58.6668 49.7599 58.8048 50.0394 58.8048C50.1966 58.8048 50.3539 58.7588 50.4878 58.6725C50.6742 58.5518 50.7964 58.3736 50.843 58.1609C50.8896 57.9481 50.843 57.7354 50.7266 57.5514L48.9562 54.8722Z" fill="black"/>
<path d="M30.2452 15.7821C30.1928 15.3796 29.8434 15.0807 29.4358 15.0807C29.4008 15.0807 29.3659 15.0807 29.331 15.0864C28.8825 15.1439 28.5681 15.5521 28.6263 15.9948L29.8143 24.8316C29.8667 25.2341 30.2161 25.533 30.6238 25.533C30.6587 25.533 30.6937 25.533 30.7286 25.5273C31.177 25.4698 31.4915 25.0616 31.4332 24.6189L30.2452 15.7821Z" fill="black"/>
<path d="M24.6896 27.0739C24.8294 27.3498 25.1089 27.5223 25.4234 27.5223C25.5457 27.5223 25.6738 27.4936 25.7844 27.4418C26.1921 27.2464 26.3551 26.7577 26.1571 26.3609L22.6689 19.3697C22.5291 19.0937 22.2496 18.9212 21.9351 18.9212C21.8128 18.9212 21.6847 18.95 21.574 19.0017C21.376 19.0995 21.2305 19.2604 21.1606 19.4674C21.0907 19.6744 21.1023 19.8929 21.2013 20.0826L24.6896 27.0739Z" fill="black"/>
<path d="M21.0674 31.0237C21.2246 31.202 21.4459 31.2997 21.6847 31.2997C21.8827 31.2997 22.0749 31.2307 22.2205 31.1042C22.3835 30.9605 22.4825 30.765 22.5 30.5523C22.5175 30.3396 22.4476 30.1268 22.302 29.9658L17.6839 24.7052C17.5267 24.5269 17.3054 24.4234 17.0666 24.4234C16.8686 24.4234 16.6765 24.4924 16.5309 24.6189C16.3678 24.7626 16.2688 24.9581 16.2514 25.1709C16.2339 25.3836 16.3038 25.5963 16.4494 25.7573L21.0674 31.018V31.0237Z" fill="black"/>
<path d="M13.8229 32.737L19.1107 36.1637C19.2446 36.2499 19.4019 36.2959 19.5591 36.2959C19.8386 36.2959 20.0949 36.1579 20.2463 35.9337C20.4967 35.56 20.3861 35.0598 20.0133 34.8126L14.7256 31.3859C14.5917 31.2997 14.4344 31.2537 14.2772 31.2537C13.9977 31.2537 13.7414 31.3917 13.59 31.6159C13.3396 31.9896 13.4502 32.4898 13.8229 32.737Z" fill="black"/>
<path d="M19.2563 40.9012C19.6173 40.9012 19.9376 40.6654 20.0424 40.3205C20.1065 40.1135 20.0832 39.895 19.9784 39.7053C19.8736 39.5156 19.6989 39.3776 19.4892 39.3143L13.5026 37.5608C13.4269 37.5378 13.3512 37.5263 13.2697 37.5263C12.9086 37.5263 12.5883 37.762 12.4835 38.107C12.4195 38.3139 12.4428 38.5324 12.5476 38.7221C12.6524 38.9119 12.8271 39.0499 13.0368 39.1131L19.0233 40.8667C19.099 40.8897 19.1806 40.9012 19.2563 40.9012Z" fill="black"/>
<path d="M19.891 45.219C20.0425 45.0637 20.1298 44.8625 20.124 44.644C20.124 44.2013 19.7513 43.8449 19.3029 43.8449L13.8695 43.8909C13.6482 43.8909 13.4444 43.9771 13.293 44.1323C13.1416 44.2876 13.0542 44.4888 13.0601 44.7073C13.0601 45.15 13.4328 45.5065 13.8812 45.5065L19.3203 45.4605C19.5416 45.4605 19.7455 45.3742 19.8969 45.219H19.891Z" fill="black"/>
<path d="M21.178 48.9733C21.2712 48.7778 21.2887 48.5593 21.2188 48.3581C21.1082 48.0304 20.7937 47.8119 20.4443 47.8119C20.3511 47.8119 20.2638 47.8292 20.1764 47.8579L15.9602 49.2895C15.7505 49.3585 15.5875 49.508 15.4885 49.6977C15.3953 49.8932 15.3778 50.1117 15.4477 50.3129C15.5642 50.6406 15.8728 50.8591 16.2222 50.8591C16.3154 50.8591 16.4028 50.8418 16.4901 50.8131L20.7063 49.3815C20.916 49.3125 21.079 49.163 21.178 48.9733Z" fill="black"/>
<path d="M23.3851 52.5839C23.4143 52.3712 23.356 52.1585 23.2221 51.986C23.0649 51.7847 22.8319 51.6755 22.5757 51.6755C22.3951 51.6755 22.2146 51.733 22.0749 51.8422L19.2097 54.0328C19.035 54.165 18.9243 54.3547 18.901 54.5732C18.8719 54.7859 18.9302 54.9987 19.0641 55.1711C19.2213 55.3724 19.4543 55.4816 19.7105 55.4816C19.891 55.4816 20.0716 55.4241 20.2113 55.3149L23.0765 53.1244C23.2512 52.9921 23.3619 52.8024 23.3851 52.5839Z" fill="black"/>
<path d="M26.128 54.6365C25.9941 54.5502 25.8427 54.5042 25.6796 54.5042C25.4001 54.5042 25.1439 54.6422 24.9925 54.8722L23.2221 57.5514C23.1056 57.7296 23.0649 57.9481 23.1056 58.1609C23.1522 58.3736 23.2745 58.5518 23.4609 58.6725C23.5948 58.7588 23.7462 58.8048 23.9093 58.8048C24.1888 58.8048 24.445 58.6668 24.5965 58.4368L26.3668 55.7576C26.4833 55.5794 26.524 55.3609 26.4833 55.1482C26.4367 54.9354 26.3144 54.7572 26.128 54.6365Z" fill="black"/>
<path d="M41.8865 59.259C41.8282 59.259 41.7758 59.259 41.7176 59.2762C40.2908 59.5694 38.6544 59.7304 36.9772 59.7304C35.3001 59.7304 33.6636 59.5752 32.2369 59.2762C32.1786 59.2647 32.1262 59.259 32.068 59.259C31.6895 59.259 31.3459 59.5177 31.2644 59.9029C31.1712 60.3399 31.4565 60.7711 31.8991 60.8631C33.4365 61.1793 35.1894 61.3517 36.9772 61.3517C38.765 61.3517 40.5179 61.185 42.0553 60.8631C42.4979 60.7711 42.7833 60.3399 42.6901 59.9029C42.6086 59.5234 42.2708 59.259 41.8865 59.259Z" fill="black"/>
<path d="M43.3365 25.1306C43.3365 25.1306 43.3016 25.1306 43.2841 25.1306C43.0628 25.1018 42.8998 24.9006 42.9347 24.6764L44.1227 15.8396C44.1518 15.6211 44.3556 15.4601 44.5828 15.4946C44.8041 15.5233 44.9671 15.7246 44.9322 15.9488L43.7442 24.7856C43.7151 24.9868 43.5404 25.1363 43.3365 25.1363V25.1306Z" fill="#E8AA1F"/>
<path d="M48.5253 27.1199C48.467 27.1199 48.403 27.1084 48.3448 27.0796C48.1409 26.9819 48.0594 26.7404 48.1584 26.5392L51.6467 19.5479C51.7457 19.3467 51.9903 19.2662 52.1941 19.364C52.3979 19.4617 52.4794 19.7032 52.3804 19.9044L48.8922 26.8956C48.8223 27.0394 48.6767 27.1199 48.5253 27.1199Z" fill="#E8AA1F"/>
<path d="M52.264 30.8972C52.1708 30.8972 52.0718 30.8627 51.9961 30.7994C51.8272 30.6557 51.8039 30.397 51.9553 30.2303L56.5734 24.9696C56.7189 24.8028 56.981 24.7798 57.1499 24.9293C57.3188 25.0731 57.3421 25.3318 57.1906 25.4985L52.5726 30.7592C52.4911 30.8512 52.3804 30.8972 52.264 30.8972Z" fill="#E8AA1F"/>
<path d="M54.3954 35.8934C54.2614 35.8934 54.1333 35.8302 54.0518 35.7094C53.9295 35.5255 53.9819 35.2725 54.1683 35.1517L59.456 31.7251C59.6482 31.6044 59.8986 31.6561 60.0209 31.8401C60.1432 32.0241 60.0908 32.277 59.9044 32.3978L54.6167 35.8244C54.5468 35.8704 54.4711 35.8934 54.3896 35.8934H54.3954Z" fill="#E8AA1F"/>
<path d="M54.6924 40.4987C54.5177 40.4987 54.3546 40.3837 54.3022 40.2112C54.2382 39.9985 54.3605 39.7743 54.5759 39.711L60.5625 37.9574C60.778 37.8942 61.0051 38.0149 61.0691 38.2277C61.1332 38.4404 61.0109 38.6646 60.7954 38.7279L54.8089 40.4814C54.7681 40.4929 54.7332 40.4987 54.6924 40.4987Z" fill="#E8AA1F"/>
<path d="M60.0733 45.1039L54.64 45.0579C54.4128 45.0579 54.2323 44.874 54.2323 44.6497C54.2323 44.4255 54.4187 44.2473 54.64 44.2473L60.0733 44.2933C60.3004 44.2933 60.4809 44.4773 60.4809 44.7015C60.4809 44.9257 60.2946 45.1039 60.0733 45.1039Z" fill="#E8AA1F"/>
<path d="M57.7264 50.4566C57.6798 50.4566 57.6391 50.4509 57.5925 50.4336L53.3763 49.002C53.1608 48.9273 53.0501 48.6973 53.12 48.4903C53.1957 48.2776 53.4287 48.1684 53.6383 48.2374L57.8545 49.669C58.07 49.7437 58.1807 49.9737 58.1108 50.1807C58.0525 50.3474 57.8953 50.4509 57.7264 50.4509V50.4566Z" fill="#E8AA1F"/>
<path d="M54.2382 55.0791C54.1508 55.0791 54.0634 55.0504 53.9877 54.9929L51.1226 52.8024C50.942 52.6644 50.9129 52.4114 51.0527 52.2332C51.1925 52.0549 51.4487 52.0262 51.6292 52.1642L54.4944 54.3547C54.6749 54.4927 54.704 54.7457 54.5643 54.9239C54.4827 55.0274 54.3604 55.0791 54.2382 55.0791Z" fill="#E8AA1F"/>
<path d="M50.0394 58.4023C49.9055 58.4023 49.7715 58.339 49.6958 58.2183L47.9255 55.5391C47.8032 55.3494 47.8556 55.1021 48.0478 54.9814C48.2399 54.8607 48.4903 54.9124 48.6126 55.1021L50.383 57.7813C50.5053 57.9711 50.4529 58.2183 50.2607 58.339C50.1908 58.385 50.1151 58.4023 50.0394 58.4023Z" fill="#E8AA1F"/>
<path d="M30.618 25.1306C30.618 25.1306 30.6529 25.1306 30.6704 25.1306C30.8917 25.1018 31.0547 24.9006 31.0198 24.6764L29.8318 15.8396C29.8027 15.6211 29.5988 15.4601 29.3717 15.4946C29.1504 15.5233 28.9874 15.7246 29.0223 15.9488L30.2103 24.7856C30.2394 24.9868 30.4141 25.1363 30.618 25.1363V25.1306Z" fill="#E8AA1F"/>
<path d="M25.4292 27.1199C25.4875 27.1199 25.5515 27.1084 25.6097 27.0796C25.8136 26.9819 25.8951 26.7404 25.7961 26.5392L22.3078 19.5479C22.2088 19.3467 21.9642 19.2662 21.7604 19.364C21.5566 19.4617 21.475 19.7032 21.574 19.9044L25.0623 26.8956C25.1322 27.0394 25.2778 27.1199 25.4292 27.1199Z" fill="#E8AA1F"/>
<path d="M21.6847 30.8972C21.7779 30.8972 21.8769 30.8627 21.9526 30.7994C22.1215 30.6557 22.1448 30.397 21.9933 30.2303L17.3753 24.9696C17.2297 24.8028 16.9676 24.7798 16.7988 24.9293C16.6299 25.0731 16.6066 25.3318 16.758 25.4985L21.3761 30.7592C21.4576 30.8512 21.5682 30.8972 21.6847 30.8972Z" fill="#E8AA1F"/>
<path d="M19.5591 35.8934C19.6931 35.8934 19.8212 35.8302 19.9027 35.7094C20.025 35.5255 19.9726 35.2725 19.7862 35.1517L14.4985 31.7251C14.3063 31.6044 14.0559 31.6561 13.9336 31.8401C13.8113 32.0241 13.8637 32.277 14.0501 32.3978L19.3378 35.8244C19.4077 35.8704 19.4834 35.8934 19.5649 35.8934H19.5591Z" fill="#E8AA1F"/>
<path d="M19.2563 40.4987C19.431 40.4987 19.594 40.3837 19.6465 40.2112C19.7105 39.9985 19.5882 39.7743 19.3728 39.711L13.3862 37.9574C13.1707 37.8942 12.9436 38.0149 12.8795 38.2277C12.8155 38.4404 12.9378 38.6646 13.1532 38.7279L19.1398 40.4814C19.1806 40.4929 19.2155 40.4987 19.2563 40.4987Z" fill="#E8AA1F"/>
<path d="M13.8754 45.1039L19.3087 45.0579C19.5358 45.0579 19.7163 44.874 19.7163 44.6497C19.7163 44.4255 19.53 44.2473 19.3087 44.2473L13.8754 44.2933C13.6482 44.2933 13.4677 44.4773 13.4677 44.7015C13.4677 44.9257 13.6541 45.1039 13.8754 45.1039Z" fill="#E8AA1F"/>
<path d="M16.2281 50.4566C16.2746 50.4566 16.3154 50.4509 16.362 50.4336L20.5782 49.002C20.7937 48.9273 20.9043 48.6973 20.8345 48.4903C20.7587 48.2776 20.5258 48.1684 20.3162 48.2374L16.0999 49.669C15.8845 49.7437 15.7738 49.9737 15.8437 50.1807C15.9019 50.3474 16.0592 50.4509 16.2281 50.4509V50.4566Z" fill="#E8AA1F"/>
<path d="M19.7105 55.0791C19.7979 55.0791 19.8852 55.0504 19.9609 54.9929L22.8261 52.8024C23.0066 52.6644 23.0358 52.4114 22.896 52.2332C22.7562 52.0549 22.5 52.0262 22.3195 52.1642L19.4543 54.3547C19.2738 54.4927 19.2446 54.7457 19.3844 54.9239C19.4659 55.0274 19.5882 55.0791 19.7105 55.0791Z" fill="#E8AA1F"/>
<path d="M23.9151 58.4023C24.049 58.4023 24.183 58.339 24.2587 58.2183L26.029 55.5391C26.1513 55.3494 26.0989 55.1021 25.9067 54.9814C25.7146 54.8607 25.4642 54.9124 25.3419 55.1021L23.5715 57.7813C23.4492 57.9711 23.5016 58.2183 23.6938 58.339C23.7637 58.385 23.8394 58.4023 23.9151 58.4023Z" fill="#E8AA1F"/>
<path d="M41.8865 59.6614C41.8865 59.6614 41.8282 59.6614 41.7991 59.6729C40.3491 59.9719 38.6777 60.1329 36.9772 60.1329C35.2768 60.1329 33.6054 59.9719 32.1554 59.6729C32.1263 59.6729 32.0971 59.6672 32.0738 59.6672C31.8817 59.6672 31.7128 59.7994 31.672 59.9891C31.6254 60.2076 31.7652 60.4203 31.9865 60.4663C33.4948 60.7768 35.2185 60.9435 36.9772 60.9435C38.7359 60.9435 40.4597 60.7768 41.968 60.4663C42.0728 60.4433 42.166 60.3801 42.2242 60.2938C42.2825 60.2019 42.3058 60.0926 42.2825 59.9891C42.2417 59.8051 42.0728 59.6672 41.8806 59.6672L41.8865 59.6614Z" fill="#E8AA1F"/>
<path d="M56.8878 25.0328C56.8296 25.0328 56.7714 25.0558 56.7306 25.1018L52.1126 30.3625C52.0776 30.4028 52.0602 30.4545 52.0602 30.512C52.0602 30.5637 52.0893 30.6155 52.13 30.65C52.165 30.6845 52.2174 30.7017 52.264 30.7017C52.3222 30.7017 52.3804 30.6787 52.4212 30.6327L57.0393 25.3721C57.0742 25.3318 57.0917 25.2801 57.0917 25.2226C57.0917 25.1708 57.0626 25.1191 57.0218 25.0846C56.9868 25.0501 56.9344 25.0328 56.8878 25.0328Z" fill="#FFF2C5"/>
<path d="M57.6565 50.2439C57.6565 50.2439 57.7031 50.2554 57.7206 50.2554C57.808 50.2554 57.8837 50.1979 57.9128 50.1174C57.9303 50.0657 57.9244 50.014 57.9011 49.9622C57.8778 49.9162 57.8371 49.876 57.7847 49.8587L53.5684 48.4271C53.5684 48.4271 53.5219 48.4156 53.5044 48.4156C53.417 48.4156 53.3413 48.4731 53.3122 48.5536C53.2947 48.6053 53.3006 48.6571 53.3239 48.7088C53.3471 48.7606 53.3879 48.7951 53.4403 48.8123L57.6565 50.2439Z" fill="#FFF2C5"/>
<path d="M60.8595 38.4347C60.8828 38.3887 60.8886 38.3312 60.877 38.2794C60.8537 38.1932 60.7721 38.1357 60.679 38.1357C60.6615 38.1357 60.6382 38.1357 60.6207 38.1415L54.6341 39.9008C54.5817 39.918 54.541 39.9525 54.5119 39.9985C54.4827 40.0445 54.4827 40.102 54.4944 40.1537C54.5177 40.24 54.5992 40.2975 54.6924 40.2975C54.7099 40.2975 54.7331 40.2975 54.7506 40.2917L60.7372 38.5324C60.7896 38.5152 60.8304 38.4807 60.8595 38.4347Z" fill="#FFF2C5"/>
<path d="M59.6773 31.8574C59.6365 31.8574 59.6016 31.8689 59.5667 31.8919L54.2789 35.3185C54.1857 35.3817 54.1566 35.5082 54.2207 35.6002C54.2614 35.6577 54.3255 35.6922 54.3896 35.6922C54.4303 35.6922 54.4653 35.6807 54.5002 35.6577L59.788 32.2311C59.8811 32.1678 59.9102 32.0471 59.8462 31.9494C59.8054 31.8919 59.7414 31.8574 59.6773 31.8574Z" fill="#FFF2C5"/>
<path d="M54.1159 54.8319C54.1508 54.8607 54.1974 54.8722 54.2381 54.8722C54.3022 54.8722 54.3604 54.8434 54.4012 54.7917C54.4361 54.7514 54.4478 54.6939 54.442 54.6422C54.4361 54.5905 54.407 54.5387 54.3663 54.51L51.5011 52.3195C51.4545 52.285 51.4079 52.2792 51.3788 52.2792C51.3147 52.2792 51.2565 52.308 51.2157 52.3597C51.1459 52.4459 51.1633 52.5724 51.2507 52.6414L54.1159 54.8319Z" fill="#FFF2C5"/>
<path d="M44.3207 15.8626L43.1327 24.6994C43.1152 24.8086 43.1967 24.9121 43.3074 24.9236C43.319 24.9236 43.3249 24.9236 43.3365 24.9236C43.4413 24.9236 43.5229 24.8489 43.5403 24.7454L44.7283 15.9086C44.7458 15.7993 44.6643 15.6958 44.5536 15.6843C44.542 15.6843 44.5362 15.6843 44.5245 15.6843C44.4197 15.6843 44.3382 15.7591 44.3207 15.8626Z" fill="#FFF2C5"/>
<path d="M48.4437 55.2056C48.403 55.1481 48.3389 55.1136 48.269 55.1136C48.2283 55.1136 48.1933 55.1251 48.1584 55.1481C48.0652 55.2114 48.0361 55.3321 48.1001 55.4299L49.8705 58.1091C49.9113 58.1666 49.9753 58.2011 50.0452 58.2011C50.086 58.2011 50.1209 58.1896 50.1558 58.1666C50.2024 58.1378 50.2316 58.0918 50.2432 58.0401C50.2548 57.9883 50.2432 57.9308 50.2141 57.8906L48.4437 55.2114V55.2056Z" fill="#FFF2C5"/>
<path d="M52.2116 19.6572C52.1941 19.6054 52.1592 19.5652 52.1068 19.5422C52.0776 19.5307 52.0485 19.5192 52.0136 19.5192C51.932 19.5192 51.8622 19.5652 51.8272 19.6342L48.3389 26.6254C48.3156 26.6714 48.3098 26.7289 48.3273 26.7807C48.3448 26.8324 48.3797 26.8727 48.4321 26.8957C48.4612 26.9072 48.4903 26.9187 48.5195 26.9187C48.601 26.9187 48.6709 26.8727 48.7058 26.8037L52.1941 19.8124C52.2174 19.7664 52.2232 19.7089 52.2057 19.6572H52.2116Z" fill="#FFF2C5"/>
<path d="M60.0733 44.4945L54.64 44.4485C54.5293 44.4485 54.4361 44.5405 54.4361 44.6498C54.4361 44.759 54.5235 44.851 54.64 44.851L60.0733 44.897C60.1898 44.897 60.2771 44.805 60.2771 44.6958C60.2771 44.644 60.2597 44.5923 60.2189 44.552C60.1781 44.5118 60.1315 44.4945 60.0733 44.4888V44.4945Z" fill="#FFF2C5"/>
<path d="M25.7903 55.1481C25.7553 55.1251 25.7204 55.1136 25.6796 55.1136C25.6097 55.1136 25.5457 55.1481 25.5049 55.2056L23.7404 57.8849C23.7113 57.9308 23.6996 57.9826 23.7113 58.0343C23.7229 58.0861 23.752 58.1321 23.7986 58.1608C23.8336 58.1838 23.8685 58.1953 23.9093 58.1953C23.9792 58.1953 24.0432 58.1608 24.084 58.1033L25.8543 55.4241C25.9184 55.3321 25.8893 55.2056 25.7961 55.1424L25.7903 55.1481Z" fill="#FFF2C5"/>
<path d="M16.2281 50.2554C16.2281 50.2554 16.2746 50.2554 16.2921 50.2439L20.5083 48.8123C20.5608 48.7951 20.6015 48.7606 20.6248 48.7088C20.6481 48.6628 20.6539 48.6053 20.6365 48.5536C20.6073 48.4731 20.5316 48.4156 20.4443 48.4156C20.421 48.4156 20.3977 48.4156 20.3802 48.4271L16.164 49.8587C16.1116 49.876 16.0708 49.9105 16.0475 49.9622C16.0242 50.0082 16.0184 50.0657 16.0359 50.1174C16.065 50.1979 16.1407 50.2554 16.2281 50.2554Z" fill="#FFF2C5"/>
<path d="M13.3279 38.1415C13.3279 38.1415 13.2872 38.1357 13.2697 38.1357C13.1823 38.1357 13.1008 38.1932 13.0717 38.2794C13.0542 38.3312 13.0601 38.3829 13.0892 38.4347C13.1183 38.4864 13.1591 38.5152 13.2115 38.5324L19.198 40.286C19.198 40.286 19.2388 40.2917 19.2563 40.2917C19.3436 40.2917 19.4252 40.2342 19.4543 40.148C19.4717 40.0963 19.4659 40.0388 19.4368 39.9928C19.4135 39.9468 19.3669 39.9123 19.3145 39.895L13.3279 38.1415Z" fill="#FFF2C5"/>
<path d="M13.8754 44.897L19.3087 44.851C19.4193 44.851 19.5125 44.759 19.5125 44.6498C19.5125 44.5405 19.4193 44.4485 19.3087 44.4485L13.8812 44.4945C13.8288 44.4945 13.7764 44.5175 13.7356 44.5578C13.6948 44.598 13.6774 44.6498 13.6774 44.7015C13.6774 44.8108 13.7705 44.9027 13.8812 44.9027L13.8754 44.897Z" fill="#FFF2C5"/>
<path d="M22.1215 19.6342C22.0865 19.5652 22.0166 19.5192 21.9351 19.5192C21.906 19.5192 21.871 19.5249 21.8419 19.5422C21.7953 19.5652 21.7546 19.6054 21.7371 19.6572C21.7196 19.7089 21.7255 19.7607 21.7487 19.8124L25.237 26.8037C25.272 26.8727 25.3419 26.9187 25.4234 26.9187C25.4525 26.9187 25.4874 26.9129 25.5166 26.8957C25.6156 26.8439 25.6622 26.7232 25.6097 26.6254L22.1215 19.6342Z" fill="#FFF2C5"/>
<path d="M19.7105 54.8779C19.7571 54.8779 19.7979 54.8607 19.8328 54.8377L22.698 52.6472C22.7853 52.5782 22.8028 52.4517 22.7329 52.3654C22.6922 52.3137 22.6339 52.2849 22.5699 52.2849C22.5233 52.2849 22.4825 52.3022 22.4476 52.3252L19.5824 54.5157C19.5416 54.5502 19.5125 54.5962 19.5067 54.6479C19.5009 54.6997 19.5125 54.7572 19.5475 54.7974C19.5882 54.8492 19.6465 54.8779 19.7105 54.8779Z" fill="#FFF2C5"/>
<path d="M29.43 15.6843C29.43 15.6843 29.4125 15.6843 29.4008 15.6843C29.2902 15.7016 29.2087 15.7993 29.2261 15.9086L30.4141 24.7454C30.4258 24.8431 30.5131 24.9236 30.618 24.9236C30.6296 24.9236 30.6354 24.9236 30.6471 24.9236C30.7577 24.9063 30.8393 24.8086 30.8218 24.6994L29.6338 15.8626C29.6221 15.7648 29.5348 15.6843 29.43 15.6843Z" fill="#FFF2C5"/>
<path d="M14.382 31.8919C14.3471 31.8689 14.3121 31.8574 14.2713 31.8574C14.2015 31.8574 14.1374 31.8919 14.1025 31.9494C14.0384 32.0413 14.0675 32.1678 14.1607 32.2311L19.4485 35.6577C19.4834 35.6807 19.5183 35.6922 19.5591 35.6922C19.629 35.6922 19.693 35.6577 19.728 35.6002C19.792 35.5082 19.7629 35.3817 19.6697 35.3185L14.382 31.8919Z" fill="#FFF2C5"/>
<path d="M17.2181 25.1018C17.1773 25.0558 17.1249 25.0328 17.0608 25.0328C17.0259 25.0328 16.9735 25.0386 16.9269 25.0846C16.8861 25.1191 16.8628 25.1708 16.857 25.2226C16.857 25.2743 16.8686 25.3261 16.9094 25.3721L21.5275 30.6327C21.5682 30.6787 21.6206 30.7017 21.6847 30.7017C21.7196 30.7017 21.772 30.696 21.8186 30.65C21.8594 30.6155 21.8827 30.5637 21.8885 30.512C21.8943 30.4603 21.8769 30.4085 21.8361 30.3625L17.2181 25.1018Z" fill="#FFF2C5"/>
<path d="M42.0553 60.1789C42.0845 60.1329 42.0961 60.0811 42.0845 60.0294C42.067 59.9374 41.9796 59.8684 41.8865 59.8684C41.8748 59.8684 41.8573 59.8684 41.8457 59.8684C40.3782 60.1731 38.6952 60.3341 36.9831 60.3341C35.2709 60.3341 33.5821 60.1731 32.1146 59.8684C32.1029 59.8684 32.0855 59.8684 32.0738 59.8684C31.9748 59.8684 31.8933 59.9374 31.8758 60.0294C31.8642 60.0811 31.8758 60.1386 31.9049 60.1789C31.9341 60.2249 31.9807 60.2536 32.0331 60.2651C33.5297 60.5756 35.2418 60.7366 36.9831 60.7366C38.7243 60.7366 40.4364 60.5756 41.933 60.2651C41.9855 60.2536 42.032 60.2249 42.0612 60.1789H42.0553Z" fill="#FFF2C5"/>
<path d="M36.9772 64.2379C21.3527 64.2379 8.62836 51.5203 8.08678 35.6232C8.07513 35.9682 8.06931 36.3189 8.06931 36.6696C8.06931 53.0496 21.0092 66.3307 36.9772 66.3307C52.9453 66.3307 65.8852 53.0496 65.8852 36.6696C65.8852 36.3189 65.8794 35.9682 65.8677 35.6232C65.3319 51.5203 52.6017 64.2379 36.9772 64.2379Z" fill="#3FEAE5"/>
<path d="M45.1069 11.47L40.7916 8.36536L48.8106 8.49184L50.2607 11.332L45.1069 11.47Z" fill="#012633"/>
<path d="M28.8476 11.47L33.157 8.36536L25.138 8.49184L23.6938 11.332L28.8476 11.47Z" fill="#012633"/>
<path d="M51.7923 42.603C51.7923 50.6809 45.1593 57.2294 36.9772 57.2294C28.7952 57.2294 22.1622 50.6809 22.1622 42.603C22.1622 34.5251 28.7952 27.9765 36.9772 27.9765C45.1593 27.9765 51.7923 34.5251 51.7923 42.603Z" fill="#1F7589"/>
<path d="M36.9772 55.8898C44.3778 55.8898 50.3772 49.9668 50.3772 42.6605C50.3772 35.3541 44.3778 29.4311 36.9772 29.4311C29.5767 29.4311 23.5773 35.3541 23.5773 42.6605C23.5773 49.9668 29.5767 55.8898 36.9772 55.8898Z" fill="#0C4451"/>
<path d="M36.9773 54.4697C43.6156 54.4697 48.997 49.1568 48.997 42.603C48.997 36.0492 43.6156 30.7362 36.9773 30.7362C30.3389 30.7362 24.9575 36.0492 24.9575 42.603C24.9575 49.1568 30.3389 54.4697 36.9773 54.4697Z" fill="#1F7589"/>
<path d="M36.9773 53.1301C42.8115 53.1301 47.5411 48.4607 47.5411 42.7007C47.5411 36.9407 42.8115 32.2713 36.9773 32.2713C31.143 32.2713 26.4134 36.9407 26.4134 42.7007C26.4134 48.4607 31.143 53.1301 36.9773 53.1301Z" fill="#0C4451"/>
<path d="M41.0246 34.2951L40.8033 16.8457L39.8599 33.8582C38.9456 33.5822 37.9789 33.4327 36.9714 33.4327C35.9639 33.4327 34.9972 33.5822 34.0829 33.8582L33.1395 16.8457L32.9182 34.2951C29.5231 35.8187 27.1646 39.1879 27.1646 43.1089C27.1646 48.4559 31.5555 52.7909 36.9714 52.7909C42.3873 52.7909 46.7782 48.4559 46.7782 43.1089C46.7782 39.1879 44.4197 35.8187 41.0246 34.2951Z" fill="#E8AA1F"/>
<path d="M40.9023 34.3296L40.7567 18.7257L39.7201 33.8869C38.8524 33.6282 37.9323 33.4844 36.9772 33.4844C36.0222 33.4844 35.1021 33.6282 34.2344 33.8869L33.1978 18.7257L33.0522 34.3296C29.791 35.8014 27.5199 39.0498 27.5199 42.8214C27.5199 47.9786 31.7535 52.1584 36.9772 52.1584C42.2009 52.1584 46.4346 47.9786 46.4346 42.8214C46.4346 39.0498 44.1635 35.8014 40.9023 34.3296Z" fill="#FFF2C5"/>
</g>
<path d="M76.8276 52.2792H74.568L78.0214 48.1569L77.3633 51.2098H79.6229L76.1695 55.3321L76.8276 52.2792Z" fill="#FFF2C5"/>
<path d="M77.6836 48.8411L77.2236 50.9453L77.1304 51.388H79.2327L76.5073 54.6422L76.9673 52.5379L77.0605 52.0952H74.9582L77.6836 48.8411ZM78.3592 47.4669L74.1721 52.4632H76.6005L75.8259 56.022L80.013 51.0258H77.5846L78.3592 47.4669Z" fill="#E8AA1F"/>
<path d="M180.841 51.2098H178.582L182.035 55.3321L181.371 52.2792H183.637L180.178 48.1569L180.841 51.2098Z" fill="#FFF2C5"/>
<path d="M181.697 54.6422L178.972 51.388H181.074L180.981 50.9453L180.521 48.8411L183.247 52.0952H181.144L181.237 52.5379L181.697 54.6422ZM182.373 56.022L181.598 52.4632H184.027L179.84 47.4669L180.614 51.0258H178.186L182.373 56.022Z" fill="#E8AA1F"/>
</svg>
