<?xml version="1.0" encoding="UTF-8"?>
<svg version="1.1" xmlns="http://www.w3.org/2000/svg" width="750" height="750">
<path d="M0 0 C2.11920403 -0.00599882 4.2384059 -0.01280743 6.35760498 -0.02035522 C12.05937771 -0.0378673 17.76109026 -0.04270379 23.46288729 -0.0439868 C27.0301592 -0.04541539 30.59741613 -0.04969791 34.1646843 -0.05498123 C46.62184359 -0.07342 59.07896032 -0.08165804 71.53613281 -0.08007812 C83.13404165 -0.0788727 94.73176563 -0.10006921 106.32962763 -0.13156545 C116.31132239 -0.15770392 126.29295654 -0.16844671 136.27468526 -0.16716731 C142.22659236 -0.16665773 148.1783342 -0.17234147 154.13020706 -0.19352341 C159.71675864 -0.21286909 165.30298633 -0.21305534 170.88954926 -0.19849014 C172.93780108 -0.19639764 174.98607305 -0.20112911 177.03429031 -0.21321106 C179.83172351 -0.22864429 182.62803654 -0.21936872 185.42544556 -0.20394897 C186.23390446 -0.2142361 187.04236337 -0.22452323 187.87532103 -0.23512208 C193.47046125 -0.16703892 196.72707064 1.11515457 201.35302734 4.29052734 C208.39594421 13.25423972 204.5837746 34.08691895 203.4074707 44.91625977 C199.45851768 76.62657711 186.57974553 108.22620968 165.35302734 132.29052734 C164.61052734 133.14259766 163.86802734 133.99466797 163.10302734 134.87255859 C160.88623027 137.37800112 158.6307146 139.84040953 156.35302734 142.29052734 C155.70333984 143.00595703 155.05365234 143.72138672 154.38427734 144.45849609 C126.78937117 173.59234896 86.42944668 189.37266639 46.91552734 192.10302734 C46.19945312 192.15620117 45.48337891 192.209375 44.74560547 192.26416016 C40.98200926 192.46675918 39.5856997 192.44564225 36.35302734 190.29052734 C35.91943359 187.02490234 35.91943359 187.02490234 35.91552734 183.04052734 C35.89619141 181.73599609 35.87685547 180.43146484 35.85693359 179.08740234 C36.43314585 174.67733687 37.44805681 172.63535199 40.35302734 169.29052734 C45.25364331 165.97285371 50.24857951 165.60325004 55.97802734 164.97802734 C80.82810652 161.75535715 104.82714134 152.15346348 124.35302734 136.29052734 C125.21565186 135.60869385 125.21565186 135.60869385 126.09570312 134.91308594 C156.28125409 110.94390014 173.68279783 75.81913362 178.19580078 37.81738281 C178.34547375 35.4119244 178.3683071 33.04213816 178.362854 30.63259888 C178.36072592 29.41383151 178.36072592 29.41383151 178.35855484 28.17044258 C178.35673077 27.55007055 178.35490669 26.92969852 178.35302734 26.29052734 C152.34366215 26.22025578 126.33431132 26.16745058 100.32487011 26.13509083 C88.24657697 26.11966219 76.16834302 26.0986497 64.09008789 26.06420898 C53.55518006 26.03418355 43.02031513 26.0149233 32.48536569 26.00826186 C26.91401466 26.00437176 21.34278631 25.9953141 15.77147484 25.97333717 C10.5126598 25.95276375 5.25401634 25.94673507 -0.00483513 25.9512043 C-1.92064475 25.95038832 -3.83646096 25.94454828 -5.75223541 25.93291092 C-46.43369956 25.69820422 -82.65473814 39.43114575 -111.83447266 68.04052734 C-126.7903392 83.14760971 -137.52870968 101.33318881 -144.64697266 121.29052734 C-145.02595703 122.34498047 -145.40494141 123.39943359 -145.79541016 124.48583984 C-150.93345738 139.89998152 -152.03658309 155.12074942 -152.1809082 171.27685547 C-152.41033023 185.15829274 -152.41033023 185.15829274 -157.58447266 190.16552734 C-161.5584568 192.33315506 -165.28812553 192.45048529 -169.77197266 192.47802734 C-171.35365234 192.49929688 -171.35365234 192.49929688 -172.96728516 192.52099609 C-175.64697266 192.29052734 -175.64697266 192.29052734 -177.64697266 190.29052734 C-177.86011573 187.653616 -177.95040287 185.12460946 -177.94775391 182.48583984 C-177.95339859 181.69913406 -177.95904327 180.91242828 -177.96485901 180.10188293 C-177.97693405 177.53956636 -177.97060656 174.97784329 -177.95947266 172.41552734 C-177.9573175 171.54606476 -177.95516235 170.67660217 -177.95294189 169.78079224 C-177.90209251 157.08417083 -177.63898958 144.69059746 -174.64697266 132.29052734 C-174.44297852 131.44329102 -174.23898438 130.59605469 -174.02880859 129.72314453 C-168.0832831 105.88046222 -158.29434154 83.40062512 -142.64697266 64.29052734 C-142.21239746 63.75588867 -141.77782227 63.22125 -141.33007812 62.67041016 C-117.29783115 33.21703464 -86.04999658 13.63159457 -49.14697266 4.54052734 C-48.35395752 4.34177002 -47.56094238 4.1430127 -46.74389648 3.93823242 C-31.30103812 0.33433239 -15.77545174 -0.00902198 0 0 Z " fill="#425C6D" transform="translate(391.64697265625,163.70947265625)"/>
<path d="M0 0 C2.39248346 6.87838994 3.43724125 13.56311874 0.5625 20.4375 C-4.87504969 25.87504969 -12.80114454 26.47250356 -20.1796875 27.02734375 C-21.03192902 27.10239639 -21.88417053 27.17744904 -22.76223755 27.254776 C-26.3548285 27.57097138 -29.94929167 27.86238993 -33.54394531 28.15405273 C-49.48712312 29.47090637 -65.61216755 31.32480511 -80.625 37.1875 C-81.39948486 37.48374268 -82.17396973 37.77998535 -82.97192383 38.08520508 C-116.14622536 51.16655426 -141.75653725 75.23495778 -156 108 C-163.53815713 127.56189093 -167.39915329 150.40323003 -162 171 C-160.08212341 172.22917168 -160.08212341 172.22917168 -158.1784668 171.55029297 C-157.44281494 171.28361816 -156.70716309 171.01694336 -155.94921875 170.7421875 C-155.11648437 170.44860352 -154.28375 170.15501953 -153.42578125 169.85253906 C-152.52214844 169.52995117 -151.61851562 169.20736328 -150.6875 168.875 C-114.3806578 156.39452299 -78.42954548 155.52237054 -40.43286133 156.68969727 C-37.66641548 156.77396744 -34.89991977 156.84998759 -32.13305664 156.91918945 C-28.10506059 157.01999732 -24.07807986 157.14387665 -20.05078125 157.26953125 C-18.81435379 157.29779495 -17.57792633 157.32605865 -16.30403137 157.35517883 C-15.15480698 157.39499374 -14.00558258 157.43480865 -12.8215332 157.47583008 C-11.81500198 157.50469803 -10.80847076 157.53356598 -9.7714386 157.56330872 C-5.32568259 158.2638196 -1.86763297 160.55884044 1 164 C2.16903873 167.50711619 2.16839619 170.36782386 2.1875 174.0625 C2.20167969 175.31160156 2.21585938 176.56070313 2.23046875 177.84765625 C2 181 2 181 0 183 C-1.78295898 183.24291992 -1.78295898 183.24291992 -3.99609375 183.23046875 C-4.8463916 183.22917969 -5.69668945 183.22789062 -6.57275391 183.2265625 C-7.51812012 183.21367188 -8.46348633 183.20078125 -9.4375 183.1875 C-10.94062744 183.17783203 -10.94062744 183.17783203 -12.47412109 183.16796875 C-20.94700832 183.0868521 -29.41414354 182.82908158 -37.88293457 182.56863403 C-80.97925063 181.24937102 -120.35848711 183.12765149 -160.67895508 200.12963867 C-161.55318115 200.49549072 -162.42740723 200.86134277 -163.328125 201.23828125 C-164.10961914 201.57384033 -164.89111328 201.90939941 -165.69628906 202.25512695 C-169.62591752 203.52571793 -173.10655281 203.27464045 -177 202 C-183.28297069 198.09059602 -184.29989416 190.75258117 -186 184 C-188.51260091 172.98252419 -189.53682428 162.52506272 -189.4375 151.25 C-189.43445862 150.51120605 -189.43141724 149.77241211 -189.42828369 149.01123047 C-189.35523277 136.96204847 -188.35377412 125.60921811 -185 114 C-184.80164551 113.26539551 -184.60329102 112.53079102 -184.39892578 111.77392578 C-174.12250772 74.28993469 -147.55090899 43.78853052 -114.47167969 24.40039062 C-89.23143507 10.09991224 -62.25988874 4.45050012 -33.59350586 1.98925781 C-30.77405821 1.74669274 -27.95644742 1.48777784 -25.13867188 1.2265625 C-23.30737568 1.06156483 -21.47599801 0.89746847 -19.64453125 0.734375 C-18.40990898 0.62195465 -18.40990898 0.62195465 -17.15034485 0.50726318 C-11.42279522 0.02170797 -5.74665839 -0.08026602 0 0 Z " fill="#425C6D" transform="translate(189,383)"/>
<path d="M0 0 C6.1258839 0.11017777 10.75407146 0.66879051 15.1875 5.25 C17.37512911 9.26065337 17.43521638 12.93603879 17.42602539 17.45800781 C17.42594986 18.69899231 17.42587433 19.93997681 17.42579651 21.21856689 C17.42069031 22.56758667 17.41547432 23.91660604 17.41015625 25.265625 C17.40829024 26.64996286 17.4068672 28.03430138 17.40586853 29.41864014 C17.40205773 33.05511308 17.39223975 36.69154582 17.38116455 40.32800293 C17.3709195 44.04157976 17.36636429 47.7551631 17.36132812 51.46875 C17.35061616 58.75001829 17.33355704 66.0312535 17.3125 73.3125 C18.3010498 73.02955078 19.28959961 72.74660156 20.30810547 72.45507812 C35.35900318 68.23299325 49.60605705 66.87748242 63.90625 74.73828125 C66.12987218 76.17251756 68.22281277 77.69097081 70.3125 79.3125 C71.34375 80.055 72.375 80.7975 73.4375 81.5625 C82.38623538 90.12215993 88.02521253 101.52972725 88.43275452 113.98884583 C88.43563451 115.43112069 88.43303796 116.87341313 88.42602539 118.31567383 C88.42617142 119.10644318 88.42631744 119.89721252 88.4264679 120.71194458 C88.42577362 123.31450179 88.418004 125.91698661 88.41015625 128.51953125 C88.40829035 130.32842469 88.40686726 132.13731864 88.40586853 133.94621277 C88.40205694 138.69893803 88.39223825 143.45163256 88.38116455 148.2043457 C88.37092123 153.0574502 88.36636465 157.91055968 88.36132812 162.76367188 C88.35061475 172.27996139 88.33355465 181.79622814 88.3125 191.3125 C83.41450689 193.76149656 75.30137907 193.26178101 70.16015625 191.62890625 C66.4568688 189.35793354 64.94363972 186.20162978 63.3125 182.3125 C62.94068909 178.99406433 62.94068909 178.99406433 62.94360352 175.34838867 C62.9379538 174.34463448 62.9379538 174.34463448 62.93218994 173.32060242 C62.92578702 171.87691328 62.92605962 170.43318194 62.93237495 168.98949242 C62.94154037 166.69692003 62.93119929 164.40515607 62.91575623 162.11262512 C62.87581354 155.59812586 62.87444703 149.08369323 62.87670898 142.5690918 C62.87676035 138.57437743 62.85746322 134.58009911 62.82737541 130.58550453 C62.81663287 128.34033128 62.82863131 126.09602037 62.84120178 123.85087585 C62.82089499 115.47433165 62.54956764 107.82879507 56.56251526 101.44718933 C50.69557493 95.98119965 45.21427275 94.83916548 37.31640625 95.00390625 C30.25400705 95.72943231 25.97606812 99.09183559 21.5390625 104.43359375 C18.58970044 108.95156556 18.06013433 112.846765 18.04125977 118.19482422 C18.03341965 119.20317825 18.03341965 119.20317825 18.02542114 120.23190308 C18.01521706 121.68488113 18.00940703 123.13789537 18.00753975 124.59090805 C18.00386131 126.8953412 17.98709441 129.19934963 17.96678162 131.50369263 C17.91151337 138.0529997 17.88072263 144.60236871 17.85620117 151.15185547 C17.84027438 155.1648273 17.81000302 159.17749678 17.77143669 163.19031143 C17.75983264 164.7140086 17.75385674 166.23775996 17.75375557 167.76150131 C17.75356223 169.89844851 17.73520387 172.03456884 17.71313477 174.17138672 C17.70552879 175.99076248 17.70552879 175.99076248 17.69776917 177.84689331 C17.16441288 182.64458613 15.93141041 186.79477149 12.3125 190.1875 C8.23095065 192.48337151 4.79229334 192.44695543 0.1875 192.4375 C-1.70355469 192.44136719 -1.70355469 192.44136719 -3.6328125 192.4453125 C-6.6875 192.3125 -6.6875 192.3125 -7.6875 191.3125 C-7.7896191 188.87599675 -7.82637502 186.46768762 -7.82121277 184.03053284 C-7.82347833 183.25929815 -7.82574388 182.48806346 -7.82807809 181.69345802 C-7.83444704 179.08932495 -7.83358689 176.48524354 -7.83276367 173.88110352 C-7.83575336 172.02215507 -7.83915544 170.16320725 -7.84294128 168.30426025 C-7.85180477 163.24029379 -7.85412038 158.1763442 -7.85475707 153.11237073 C-7.85570418 148.89241987 -7.85938017 144.67247299 -7.86292917 140.45252365 C-7.87108261 130.50081777 -7.87351259 120.54912094 -7.87280273 110.59741211 C-7.87220166 100.31423114 -7.88275732 90.03110258 -7.8985464 79.74793488 C-7.91159932 70.93436579 -7.91698758 62.12081387 -7.91634732 53.30723518 C-7.91609168 48.03661284 -7.91897935 42.76603703 -7.92952538 37.49542427 C-7.93916868 32.54035169 -7.9393116 27.5853705 -7.93200874 22.6302948 C-7.9309582 20.80733037 -7.93335341 18.98436037 -7.9393692 17.16140556 C-7.9470261 14.68131127 -7.94248661 12.20153763 -7.93473816 9.72145081 C-7.93988172 8.99256938 -7.94502529 8.26368796 -7.95032471 7.51271921 C-7.90518683 1.01776577 -6.29414567 0.02369189 0 0 Z " fill="#425C6D" transform="translate(221.6875,377.6875)"/>
<path d="M0 0 C4.79820412 1.62796211 7.35587879 3.69274314 10 8 C10.60337573 11.58230645 10.56378177 15.13106062 10.54589844 18.75708008 C10.56140495 20.38214478 10.56140495 20.38214478 10.57722473 22.04003906 C10.60669413 25.61668744 10.60815284 29.19277091 10.609375 32.76953125 C10.62435377 35.25104352 10.64108027 37.73254581 10.65948486 40.21403503 C10.70320414 46.74226332 10.72316783 53.27035711 10.73822021 59.79870605 C10.7556359 66.46158859 10.79974661 73.12433202 10.83984375 79.78710938 C10.91519563 92.85802362 10.96621843 105.9289156 11 119 C14.98427467 118.95549154 18.96723428 118.88529685 22.95068359 118.79248047 C24.9629854 118.75076728 26.97566395 118.72871469 28.98828125 118.70703125 C38.06121217 118.47906816 44.17914357 117.82085643 50.8125 111.1875 C56.06984373 103.52679914 56.43270346 97.42735853 56.43945312 88.3828125 C56.57066154 82.42866504 57.42897252 78.83694728 61 74 C64.50029359 71.11462285 68.9260638 71.77568698 73.25 71.875 C73.99507812 71.88402344 74.74015625 71.89304687 75.5078125 71.90234375 C77.33868059 71.92581642 79.16938238 71.96168475 81 72 C83.2225489 76.4450978 82.23010466 82.49566889 82.25 87.375 C82.270625 88.60089844 82.29125 89.82679688 82.3125 91.08984375 C82.37775642 106.47404479 78.537665 119.53254103 68 131 C69.45924941 134.17133907 71.27572814 136.78027726 73.375 139.5625 C81.47484798 150.98666059 82.18063391 162.6551353 82.1875 176.25 C82.19974609 177.54164063 82.21199219 178.83328125 82.22460938 180.1640625 C82.22654297 181.39382813 82.22847656 182.62359375 82.23046875 183.890625 C82.23457764 185.01500977 82.23868652 186.13939453 82.24291992 187.29785156 C82 190 82 190 80 192 C76.91796875 192.30078125 76.91796875 192.30078125 73.1875 192.3125 C71.96417969 192.32925781 70.74085938 192.34601563 69.48046875 192.36328125 C64.58009685 191.85179462 61.14422113 189.77306535 58 186 C57.07896771 183.23690313 56.86603322 181.50445588 56.82421875 178.6484375 C56.78844727 177.37033203 56.78844727 177.37033203 56.75195312 176.06640625 C56.7095512 174.29580485 56.67799819 172.52490467 56.65820312 170.75390625 C56.40440084 162.88013303 54.57133482 156.18420924 48.75 150.625 C41.45056705 144.44577706 33.11951743 144.58333838 24.0625 144.75 C22.91458984 144.75515625 21.76667969 144.7603125 20.58398438 144.765625 C15.43401623 144.32663991 15.43401623 144.32663991 11 146 C10.88917418 148.73974397 10.83835746 151.45851377 10.82421875 154.19921875 C10.80100813 155.90040283 10.7768903 157.60157473 10.75195312 159.30273438 C10.71691479 161.99088532 10.68754464 164.67859247 10.67407227 167.36694336 C10.65854039 169.957421 10.61828386 172.54658939 10.57421875 175.13671875 C10.57612717 175.9338176 10.57803558 176.73091644 10.58000183 177.5521698 C10.46565494 182.80189644 9.47083428 185.8316217 6 190 C2.03527623 192.35321189 -1.71079823 192.23972931 -6.25 192.1875 C-8.11398437 192.17783203 -8.11398437 192.17783203 -10.015625 192.16796875 C-13 192 -13 192 -14 191 C-14.09769877 188.54629379 -14.12996241 186.1207683 -14.12025452 183.66661072 C-14.12110894 182.88988134 -14.12196337 182.11315197 -14.12284368 181.31288534 C-14.12450084 178.69025678 -14.11897329 176.0676911 -14.11352539 173.44506836 C-14.11324354 171.57302349 -14.1134012 169.70097852 -14.1139679 167.82893372 C-14.11425597 162.7299724 -14.10835769 157.63103438 -14.10139394 152.5320785 C-14.09516199 147.20958367 -14.09455673 141.88708837 -14.09336853 136.56459045 C-14.09025474 126.47815109 -14.08204072 116.39172251 -14.07201904 106.3052879 C-14.06085937 94.82543621 -14.05534782 83.34558402 -14.05032361 71.86572826 C-14.03985814 48.24381285 -14.02225778 24.62190703 -14 1 C-9.83626979 -1.0818651 -4.54581641 -0.32725118 0 0 Z " fill="#425C6D" transform="translate(502,378)"/>
<path d="M0 0 C10.29552335 7.5350036 16.51795815 17.28031815 19.31640625 29.6953125 C20.0073674 36.16970296 19.80847158 42.70628571 19.7421875 49.20703125 C19.73725516 51.07078196 19.73396178 52.93453765 19.73222351 54.79829407 C19.72463135 58.67713598 19.70420446 62.55560253 19.6730957 66.43432617 C19.63321884 71.41565312 19.61543296 76.39673866 19.60578632 81.37820721 C19.59584839 86.13368135 19.57596555 90.88909631 19.5546875 95.64453125 C19.54959388 97.00844277 19.54959388 97.00844277 19.54439735 98.39990807 C19.53288403 100.95377154 19.51438065 103.50747816 19.4934082 106.0612793 C19.4907193 106.82429352 19.4880304 107.58730774 19.48526001 108.3734436 C19.43132816 113.58039059 19.43132816 113.58039059 18.31640625 114.6953125 C10.45176114 115.3384001 3.61488017 115.84860934 -2.68359375 110.6953125 C-5.02776346 107.20710225 -4.94024308 104.07396411 -4.95483398 99.94238281 C-4.96006073 99.27189911 -4.96528748 98.60141541 -4.97067261 97.91061401 C-4.98089322 96.45816633 -4.98668963 95.00568222 -4.988554 93.55319977 C-4.99222713 91.24857133 -5.00898112 88.94436961 -5.02931213 86.63983154 C-5.08462056 80.08874479 -5.11533058 73.53759462 -5.13989258 66.98632812 C-5.15583793 62.97450507 -5.18613297 58.96298315 -5.22465706 54.95131683 C-5.23624976 53.42844611 -5.2422369 51.90552135 -5.24233818 50.38260651 C-5.22788058 39.20533828 -5.22788058 39.20533828 -8.68359375 28.6953125 C-9.19921875 27.6434375 -9.71484375 26.5915625 -10.24609375 25.5078125 C-14.3442446 20.7791769 -19.26897945 18.29760578 -25.4296875 17.2109375 C-32.36431152 16.85682904 -38.12832949 18.4803043 -43.68359375 22.6953125 C-49.22038289 29.01985619 -50.79713552 34.20223515 -50.84130859 42.49584961 C-50.84638931 43.17115219 -50.85147003 43.84645477 -50.85670471 44.54222107 C-50.86738054 46.004508 -50.87601158 47.46681098 -50.88282394 48.92912102 C-50.89464755 51.2454408 -50.91410806 53.56157704 -50.9359436 55.87782288 C-50.99745097 62.46202479 -51.05161604 69.04620555 -51.08496094 75.63061523 C-51.10592332 79.66190114 -51.14123458 83.69284795 -51.18571854 87.7239399 C-51.19986158 89.25765553 -51.20859716 90.79143111 -51.21177292 92.32520866 C-51.21669025 94.47229318 -51.23986618 96.6184794 -51.26708984 98.76538086 C-51.2751767 99.98575546 -51.28326355 101.20613007 -51.29159546 102.46348572 C-51.8669363 107.2068787 -54.02693505 110.64809692 -57.68359375 113.6953125 C-61.19070994 114.86435123 -64.05141761 114.86370869 -67.74609375 114.8828125 C-68.99519531 114.89699219 -70.24429688 114.91117188 -71.53125 114.92578125 C-74.68359375 114.6953125 -74.68359375 114.6953125 -76.68359375 112.6953125 C-76.93248272 110.64318848 -76.93248272 110.64318848 -76.93083191 108.06445312 C-76.9350264 107.08855225 -76.93922089 106.11265137 -76.94354248 105.10717773 C-76.93792297 104.03282471 -76.93230347 102.95847168 -76.92651367 101.8515625 C-76.92841202 100.72306885 -76.93031036 99.5945752 -76.93226624 98.43188477 C-76.93598336 94.68629093 -76.92525641 90.94088923 -76.9140625 87.1953125 C-76.91287112 84.60221377 -76.91241745 82.00911461 -76.91267395 79.41601562 C-76.91110746 73.97523104 -76.90304688 68.5345164 -76.8894043 63.09375 C-76.87367829 56.79874519 -76.86840617 50.50380142 -76.86913985 44.20877838 C-76.86974976 38.15927671 -76.86453991 32.1098 -76.85634804 26.06030273 C-76.85315687 23.48299276 -76.85119292 20.90568098 -76.85045433 18.32836914 C-76.84829551 14.73190209 -76.83956114 11.13551293 -76.82885742 7.5390625 C-76.82931061 6.46470947 -76.82976379 5.39035645 -76.83023071 4.28344727 C-76.82596573 3.30754639 -76.82170074 2.33164551 -76.81730652 1.32617188 C-76.81563067 0.47518921 -76.81395483 -0.37579346 -76.8122282 -1.25256348 C-76.68359375 -3.3046875 -76.68359375 -3.3046875 -75.68359375 -5.3046875 C-73.12044876 -5.38600937 -70.55990957 -5.44532925 -67.99609375 -5.4921875 C-66.91424805 -5.52989258 -66.91424805 -5.52989258 -65.81054688 -5.56835938 C-61.11962684 -5.63261855 -58.53791752 -4.89518409 -54.68359375 -2.3046875 C-51.74721152 -2.86500023 -51.74721152 -2.86500023 -48.68359375 -4.3046875 C-47.31139756 -4.83286359 -45.9362567 -5.35343935 -44.55859375 -5.8671875 C-43.91664063 -6.11597656 -43.2746875 -6.36476563 -42.61328125 -6.62109375 C-28.24687902 -11.71040628 -12.47826922 -7.97167119 0 0 Z " fill="#425C6D" transform="translate(730.68359375,455.3046875)"/>
<path d="M0 0 C1.44795959 0.00424484 1.44795959 0.00424484 2.9251709 0.00857544 C5.98149478 0.01969126 9.03751601 0.04477965 12.09375 0.0703125 C14.17707907 0.08035342 16.26041278 0.08947732 18.34375 0.09765625 C23.42719837 0.11960239 28.51042303 0.15407233 33.59375 0.1953125 C35.79044557 4.58870365 34.9204198 10.40026649 34.59375 15.1953125 C33.11912975 19.47171122 31.53041944 21.92874525 27.59375 24.1953125 C24.00002 25.38875653 20.53818264 25.32094847 16.7734375 25.3359375 C15.41925423 25.3542812 14.06508714 25.37385294 12.7109375 25.39453125 C10.59803097 25.42332143 8.48616139 25.44530844 6.37304688 25.44580078 C-2.40719154 25.46025555 -10.06573249 25.8609918 -17.40625 31.1953125 C-24.68168437 38.72422443 -24.77928755 48.0041257 -24.77685547 57.99145508 C-24.78121666 59.99251709 -24.8182187 61.9934206 -24.85546875 63.99414062 C-24.88224137 72.9228098 -24.15420296 80.46105612 -18.4765625 87.6328125 C-17.83460938 88.1484375 -17.19265625 88.6640625 -16.53125 89.1953125 C-15.89445312 89.7315625 -15.25765625 90.2678125 -14.6015625 90.8203125 C-9.60503979 93.94980715 -4.83567925 94.44152334 0.96875 94.46875 C2.38021637 94.48903135 3.79167466 94.50988199 5.203125 94.53125 C7.40176284 94.55384547 9.60007942 94.57032932 11.79882812 94.57617188 C13.93937428 94.58573642 16.07852059 94.61954083 18.21875 94.65625 C19.48976563 94.66446777 20.76078125 94.67268555 22.0703125 94.68115234 C27.17017958 95.42535412 30.34744704 97.57511866 33.46875 101.6328125 C35.17881745 107.04802608 35.19297278 112.56106194 34.59375 118.1953125 C31.95118697 120.83787553 29.99563129 120.45518405 26.39820862 120.49885559 C25.54621384 120.49794418 24.69421906 120.49703278 23.81640625 120.49609375 C22.93528671 120.50037888 22.05416718 120.504664 21.14634705 120.50907898 C19.27424986 120.51483248 17.40213032 120.51531507 15.5300293 120.51098633 C12.6986524 120.50785933 9.86835441 120.5311562 7.03710938 120.55664062 C-10.20480582 120.61771415 -24.22787486 117.89678893 -37.1484375 105.64453125 C-49.04665952 92.73763643 -50.58486409 77.18636345 -50.59375 60.4453125 C-50.60599609 59.24648438 -50.61824219 58.04765625 -50.63085938 56.8125 C-50.6591246 39.43880971 -47.61522401 25.70789912 -35.3046875 13.03125 C-25.00350195 3.31246364 -13.92513976 -0.15604658 0 0 Z " fill="#425C6D" transform="translate(430.40625,449.8046875)"/>
<path d="M0 0 C1.06250977 -0.05607422 1.06250977 -0.05607422 2.14648438 -0.11328125 C6.04409863 -0.17806154 8.57711998 0.15695136 11.70703125 2.5859375 C16.93418333 8.18141963 16.60117534 13.52578603 16.57128906 20.82495117 C16.5747937 21.87585434 16.57829834 22.92675751 16.58190918 24.00950623 C16.59070376 27.47906113 16.58488653 30.94841181 16.578125 34.41796875 C16.579472 36.82741841 16.58141282 39.2368678 16.58392334 41.64631653 C16.58687127 46.69254141 16.58258639 51.73869546 16.57324219 56.78491211 C16.56182956 63.26514647 16.56842075 69.7452155 16.58038712 76.22544384 C16.58759896 81.19840247 16.58532121 86.1713216 16.58013153 91.14428139 C16.57879411 93.53458996 16.58044595 95.92490209 16.58509064 98.31520653 C16.59014674 101.64797918 16.58245928 104.98048011 16.57128906 108.31323242 C16.57533752 109.30806641 16.57938599 110.30290039 16.58355713 111.32788086 C16.57791748 112.23213303 16.57227783 113.13638519 16.56646729 114.06803894 C16.56571323 114.8561304 16.56495918 115.64422186 16.56418228 116.45619488 C16.3125 118.375 16.3125 118.375 14.3125 120.375 C11.23046875 120.67578125 11.23046875 120.67578125 7.5 120.6875 C6.27667969 120.70425781 5.05335938 120.72101563 3.79296875 120.73828125 C-1.00373192 120.23761552 -3.31038581 118.6389903 -6.80192566 115.43426514 C-9.59252682 110.90663202 -9.2231321 106.85379272 -9.1574707 101.63378906 C-9.1596611 100.55201889 -9.1618515 99.47024872 -9.16410828 98.35569763 C-9.16641803 94.7836948 -9.14017497 91.21251779 -9.11328125 87.640625 C-9.10835848 85.16152203 -9.10505886 82.68241535 -9.10331726 80.20330811 C-9.09567814 75.01155709 -9.07511541 69.82008184 -9.04418945 64.62841797 C-9.00453213 57.95752685 -8.98656779 51.28687473 -8.97688007 44.61587906 C-8.96693145 38.26993653 -8.94702467 31.92403827 -8.92578125 25.578125 C-8.9223855 24.35927864 -8.91898975 23.14043228 -8.9154911 21.88465118 C-8.90397489 18.45592405 -8.88546526 15.02731359 -8.86450195 11.59863281 C-8.86181305 10.57215134 -8.85912415 9.54566986 -8.85635376 8.48808289 C-8.84919846 7.55996292 -8.84204315 6.63184296 -8.83467102 5.67559814 C-8.83039754 4.86446186 -8.82612406 4.05332558 -8.82172108 3.21760941 C-8.49370674 -1.28542625 -3.49876443 0.06817787 0 0 Z " fill="#425C6D" transform="translate(341.6875,449.625)"/>
<path d="M0 0 C0.68900391 0.00064453 1.37800781 0.00128906 2.08789062 0.00195312 C7.17194475 0.04694475 7.17194475 0.04694475 8.3125 1.1875 C8.41674766 2.6307591 8.45211617 4.07906259 8.45967102 5.52606201 C8.46682632 6.46259613 8.47398163 7.39913025 8.48135376 8.36404419 C8.48538712 9.91779251 8.48538712 9.91779251 8.48950195 11.50292969 C8.49607315 12.58744415 8.50264435 13.67195862 8.50941467 14.78933716 C8.52920485 18.39601705 8.54082327 22.00265518 8.55078125 25.609375 C8.55485678 26.83786415 8.5589323 28.0663533 8.56313133 29.3320694 C8.58186026 35.16318846 8.59641992 40.994291 8.6047433 46.82543445 C8.61451068 53.55736324 8.64081267 60.28896277 8.68124419 67.02077556 C8.7150516 72.84974659 8.72688918 78.67860726 8.73094749 84.50766754 C8.73582778 86.98762493 8.74748245 89.46757845 8.76598549 91.94747162 C8.79026027 95.41674666 8.78943274 98.88515872 8.7824707 102.35449219 C8.79528076 103.38222748 8.80809082 104.40996277 8.82128906 105.46884155 C8.78895168 109.8828118 8.76064003 112.45183225 6.42668152 116.28326416 C1.96462144 120.30222594 -2.07056154 120.44250661 -7.9375 120.375 C-9.18015625 120.36855469 -10.4228125 120.36210938 -11.703125 120.35546875 C-14.6875 120.1875 -14.6875 120.1875 -15.6875 119.1875 C-15.79174766 117.7442409 -15.82711617 116.29593741 -15.83467102 114.84893799 C-15.84182632 113.91240387 -15.84898163 112.97586975 -15.85635376 112.01095581 C-15.85904266 110.9751236 -15.86173157 109.93929138 -15.86450195 108.87207031 C-15.87107315 107.78755585 -15.87764435 106.70304138 -15.88441467 105.58566284 C-15.90420485 101.97898295 -15.91582327 98.37234482 -15.92578125 94.765625 C-15.93189454 92.92289127 -15.93189454 92.92289127 -15.93813133 91.0429306 C-15.95686026 85.21181154 -15.97141992 79.380709 -15.9797433 73.54956555 C-15.98951068 66.81763676 -16.01581267 60.08603723 -16.05624419 53.35422444 C-16.0900516 47.52525341 -16.10188918 41.69639274 -16.10594749 35.86733246 C-16.11082778 33.38737507 -16.12248245 30.90742155 -16.14098549 28.42752838 C-16.16526027 24.95825334 -16.16443274 21.48984128 -16.1574707 18.02050781 C-16.17028076 16.99277252 -16.18309082 15.96503723 -16.19628906 14.90615845 C-16.14515051 7.92587538 -16.14515051 7.92587538 -13.76872253 4.09173584 C-9.385761 0.08150037 -5.81786066 -0.10517541 0 0 Z " fill="#425C6D" transform="translate(622.6875,449.8125)"/>
<path d="M0 0 C3.07816851 1.96886627 5.4956256 4.35294022 8 7 C8.72832031 7.75539063 9.45664062 8.51078125 10.20703125 9.2890625 C15.83501844 15.35309194 18.83157825 20.50235719 19 29 C18.19308504 39.09540267 12.12624777 46.55192466 5.0078125 53.33203125 C1.05922794 56.61227562 -2.20739759 57.93481446 -7.4375 58.125 C-12.44252388 56.54446614 -15.31148001 53.63043306 -19 50 C-19.63421875 49.43796875 -20.2684375 48.8759375 -20.921875 48.296875 C-26.19275589 43.47649675 -29.3759045 38.45231017 -30.37890625 31.296875 C-30.80375711 21.48419066 -27.53075119 15.47692869 -21.1875 8.1875 C-14.92088317 1.65519328 -9.4027159 -3.30233794 0 0 Z " fill="#425C6D" transform="translate(351,359)"/>
<path d="M0 0 C5.20280184 4.36731542 7.34530714 7.54447672 8.015625 14.359375 C7.87410376 19.03842105 6.38011234 22.76856066 3.640625 26.546875 C-1.12384374 30.33900318 -5.03205621 31.92591896 -11.16796875 31.82421875 C-16.64466568 31.13108955 -20.402095 28.7496114 -23.796875 24.484375 C-26.82720063 18.78736281 -27.14798384 14.19103406 -25.296875 7.984375 C-22.77415283 3.5085776 -19.42661425 -0.39545629 -14.43359375 -2.1171875 C-9.35418256 -2.93984167 -4.44877167 -2.73997196 0 0 Z " fill="#425C6D" transform="translate(628.359375,401.453125)"/>
</svg>
