<?xml version="1.0" encoding="UTF-8"?>
<svg version="1.1" xmlns="http://www.w3.org/2000/svg" width="1600" height="1188">
<path d="M0 0 C528 0 1056 0 1600 0 C1600 392.04 1600 784.08 1600 1188 C1072 1188 544 1188 0 1188 C0 795.96 0 403.92 0 0 Z " fill="#222222" transform="translate(0,0)"/>
<path d="M0 0 C1.07349197 -0.00151062 1.07349197 -0.00151062 2.16867065 -0.00305176 C21.93324726 0.01557314 41.48829606 1.61540118 60.5 7.25 C61.84561953 7.61470062 63.19200263 7.97659343 64.5390625 8.3359375 C81.62867927 12.99384052 97.90927192 19.8804558 113.5 28.25 C114.11601074 28.58 114.73202148 28.91 115.36669922 29.25 C123.53340671 33.66886841 131.103312 38.62503177 138.5 44.25 C139.80641869 45.22642951 141.11377553 46.20160459 142.421875 47.17578125 C149.50678745 52.45843496 156.56115379 57.77602132 163.5 63.25 C167.17490304 61.62254294 170.09527924 59.34913379 173.25 56.875 C174.41752547 55.96948025 175.5855148 55.06455834 176.75390625 54.16015625 C178.63016957 52.703473 180.50552853 51.24568726 182.37841797 49.78466797 C213.33908511 25.71830212 248.31682464 10.22809794 286.8125 3 C287.67077393 2.83669189 288.52904785 2.67338379 289.41333008 2.50512695 C345.70374703 -7.51261389 403.83046007 7.21662609 450.52734375 39.33203125 C469.10101056 52.5393932 486.5732813 68.15245677 500.5 86.25 C501.13156006 87.05896729 501.13156006 87.05896729 501.77587891 87.88427734 C520.62441853 112.14170785 533.57343282 139.78565795 541.25 169.4375 C541.44891846 170.19619385 541.64783691 170.9548877 541.8527832 171.73657227 C544.98496947 184.43059359 545.79666902 197.03212065 545.74050903 210.06248474 C545.74138358 211.59748263 545.74313912 213.13248022 545.74568737 214.66747624 C545.75011603 218.84080594 545.74221971 223.01403112 545.73213124 227.18734753 C545.72343366 231.70450824 545.72642133 236.22166383 545.72793579 240.73883057 C545.72898068 248.55031652 545.72274567 256.36176888 545.71146011 264.17324638 C545.69515411 275.46710246 545.6899919 286.76094241 545.68748413 298.05480898 C545.68311501 316.38168198 545.6698272 334.70853709 545.65087891 353.03540039 C545.63249981 370.83032136 545.61835325 388.62523746 545.60986328 406.42016602 C545.60907511 408.06755679 545.60907511 408.06755679 545.60827102 409.74822818 C545.6056608 415.25829093 545.60313342 420.76835371 545.60064721 426.27841651 C545.57993909 471.93562689 545.54308252 517.59280418 545.5 563.25 C508.21 563.25 470.92 563.25 432.5 563.25 C432.49589111 552.55062012 432.49178223 541.85124023 432.48754883 530.82763672 C432.47086433 496.52984283 432.42965091 462.23211723 432.37314438 427.93436676 C432.36437842 422.60012501 432.35582847 417.26588293 432.34741211 411.93164062 C432.34573305 410.86976198 432.34405398 409.80788334 432.34232404 408.71382655 C432.31570926 391.55682303 432.30656292 374.39985291 432.30395857 357.24283086 C432.30089093 339.61674472 432.27885072 321.99075464 432.23947543 304.36471188 C432.2158003 293.50278122 432.20663667 282.64104273 432.21648689 271.77908988 C432.22183379 264.31412498 432.20862641 256.84933107 432.1813371 249.38441484 C432.16616289 245.08799983 432.15868011 240.79196791 432.17340279 236.49554253 C432.2818601 201.5802231 426.93650365 171.76421253 402.25 145.5 C379.85555116 124.41586466 351.59501383 114.43991189 321.046875 115 C297.00693063 115.82611493 273.94963342 124.93680426 255.5 140.25 C254.20835937 141.29607422 254.20835937 141.29607422 252.890625 142.36328125 C233.92427795 158.4728959 222.8742527 181.84333049 219.5 206.25 C219.23467777 210.52621147 219.22684079 214.78756574 219.24171448 219.07102966 C219.23620092 220.94065269 219.23620092 220.94065269 219.23057598 222.84804589 C219.22237148 226.27757825 219.2229469 229.70689984 219.22730291 233.13642514 C219.22979395 236.84680111 219.22069196 240.55715095 219.21292114 244.26751709 C219.20091133 250.68868406 219.19577007 257.10982627 219.19503975 263.53100395 C219.19371006 272.82786588 219.17856312 282.12466804 219.15954458 291.4215088 C219.12874412 306.52456943 219.10455953 321.62763157 219.08666992 336.73071289 C219.08559724 337.63348215 219.08452456 338.53625142 219.08341938 339.46637733 C219.07159966 349.53784559 219.06139303 359.60931446 219.05297852 369.68078613 C219.04990443 373.33349611 219.04681566 376.98620607 219.04370117 380.63891602 C219.04293583 381.54027487 219.04217049 382.44163373 219.04138196 383.37030648 C219.02828509 398.41798298 219.00362644 413.46561608 218.96995777 428.51326042 C218.94971154 437.78286392 218.93937232 447.0523745 218.94194698 456.32200027 C218.94298473 462.67617149 218.93330218 469.03026936 218.91530795 475.38441496 C218.90529906 479.04568601 218.90009583 482.70679468 218.90807533 486.36807442 C218.91664185 490.34614243 218.90195847 494.32394049 218.88526917 498.30198669 C218.89148098 499.44626851 218.8976928 500.59055033 218.90409285 501.76950735 C218.7834669 517.60543346 213.51257007 531.70323809 202.5 543.25 C188.61792686 555.7030362 173.96515053 559.1265895 155.89892578 558.42919922 C143.24175527 557.48371142 129.98364824 551.34941372 121.40234375 541.953125 C111.32234692 529.36815878 108.02179977 517.39533264 108.12818909 501.24865723 C108.12436452 499.99478132 108.12053996 498.74090541 108.1165995 497.44903326 C108.10641699 494.00298224 108.11456676 490.55719084 108.12589633 487.11115265 C108.13480853 483.38087303 108.12622875 479.65062793 108.11968994 475.92034912 C108.11056124 469.46427591 108.11184133 463.00827391 108.11987495 456.55220032 C108.13114946 447.19620536 108.12202662 437.84031088 108.10731315 428.48432463 C108.08357134 413.27340565 108.07018101 398.06249912 108.06616211 382.8515625 C108.06591724 381.94248538 108.06567237 381.03340825 108.06542008 380.09678334 C108.0628766 369.96483123 108.06230622 359.83288008 108.06335449 349.70092773 C108.06368751 346.03108724 108.06397291 342.36124675 108.06420898 338.69140625 C108.06427177 337.78587236 108.06433456 336.88033846 108.06439925 335.94736415 C108.06500593 320.80017441 108.05004673 305.65304193 108.02337593 290.50587606 C108.00764503 281.1847532 108.00523446 271.86381625 108.02050995 262.54269165 C108.03003628 256.14361085 108.0251256 249.74464134 108.00929613 243.34557348 C108.00067417 239.66502385 107.99828396 235.98477094 108.01382256 232.30423737 C108.16687258 203.77016186 108.16687258 203.77016186 99.75 176.75 C99.40493408 176.01700684 99.05986816 175.28401367 98.7043457 174.52880859 C86.58570678 149.4661978 64.94423835 130.7635874 38.91625977 121.21923828 C10.29921177 111.57350648 -20.33987937 113.03276572 -47.5 126.25 C-49.05460937 126.99443359 -49.05460937 126.99443359 -50.640625 127.75390625 C-57.26203486 131.14784119 -62.86017196 135.4263422 -68.5 140.25 C-69.26183594 140.86617187 -70.02367187 141.48234375 -70.80859375 142.1171875 C-88.74295717 157.09875279 -98.75121212 179.59429704 -102.5 202.25 C-102.89479843 207.38126261 -102.9179783 212.49531842 -102.89872742 217.63851929 C-102.90418032 219.1396601 -102.91093742 220.64079664 -102.91886932 222.14192641 C-102.93674541 226.22631473 -102.93635609 230.31051987 -102.93273985 234.39493799 C-102.93211224 238.81466711 -102.94877108 243.23433674 -102.96325684 247.65403748 C-102.9859788 255.29801254 -102.99791686 262.94194224 -103.00238609 270.58594894 C-103.00886355 281.63768471 -103.03182891 292.68933868 -103.05872939 303.74104138 C-103.10193714 321.67468011 -103.13193818 339.60831539 -103.15356445 357.54199219 C-103.17459219 374.95574644 -103.20188293 392.36947244 -103.23754883 409.78320312 C-103.23974765 410.8578304 -103.24194648 411.93245767 -103.24421193 413.03964941 C-103.25528203 418.43111047 -103.26647476 423.82257126 -103.27772844 429.21403193 C-103.37082839 473.89267087 -103.44002014 518.57130192 -103.5 563.25 C-141.12 563.25 -178.74 563.25 -217.5 563.25 C-217.5883508 517.21073843 -217.66214216 471.17155747 -217.70426132 425.13223524 C-217.70926353 419.6842667 -217.71444088 414.23629835 -217.71972656 408.78833008 C-217.7207758 407.70383807 -217.72182505 406.61934606 -217.72290608 405.50199065 C-217.74026292 387.99268281 -217.77177429 370.48342804 -217.80861118 352.97415157 C-217.84615254 334.97857703 -217.86826359 316.98303009 -217.87635398 298.987418 C-217.88181453 287.90284945 -217.89899618 276.81843099 -217.93166587 265.73390869 C-217.95297709 258.11011063 -217.95916294 250.486389 -217.95400551 242.86256339 C-217.95146926 238.47846404 -217.95507056 234.09462502 -217.9768219 229.7105732 C-218.09172935 205.33348844 -217.57129836 180.9249808 -209.6875 157.5625 C-209.16929687 155.95785889 -209.16929687 155.95785889 -208.640625 154.32080078 C-205.79426803 145.69701686 -202.47387271 137.40971385 -198.5 129.25 C-198.02046875 128.24187256 -198.02046875 128.24187256 -197.53125 127.21337891 C-193.39071652 118.51785424 -188.96040984 110.20467113 -183.5 102.25 C-183.13680664 101.71697266 -182.77361328 101.18394531 -182.39941406 100.63476562 C-176.28656821 91.70726219 -169.65944685 83.35731728 -162.5 75.25 C-162.05011719 74.73695313 -161.60023438 74.22390625 -161.13671875 73.6953125 C-144.9778491 55.34777751 -125.90360112 40.08802729 -104.5 28.25 C-103.8503125 27.88213379 -103.200625 27.51426758 -102.53125 27.13525391 C-81.62120569 15.32811591 -59.3649264 7.73699595 -35.875 2.9375 C-35.09447266 2.77797852 -34.31394531 2.61845703 -33.50976562 2.45410156 C-22.40278152 0.31669128 -11.2874291 0.01110726 0 0 Z " fill="#B3B7B8" transform="translate(500.5,233.75)"/>
<path d="M0 0 C60.21273312 -0.1209091 60.21273312 -0.1209091 85.5 -0.14648438 C91.27734401 -0.15235708 97.05468777 -0.15841827 102.83203125 -0.16479492 C103.91802184 -0.16598179 103.91802184 -0.16598179 105.02595162 -0.16719264 C116.68064615 -0.1802042 128.3352958 -0.20383538 139.98996381 -0.23145839 C151.97043941 -0.25961462 163.95089167 -0.27619774 175.93139899 -0.28226548 C182.65239566 -0.28599542 189.37328477 -0.29526783 196.09424973 -0.31719017 C202.43237422 -0.33769444 208.77035646 -0.34380582 215.10851097 -0.33932304 C217.42304065 -0.34014204 219.73757555 -0.34602393 222.05207634 -0.35761642 C269.26471982 -0.58230118 310.00854332 16.35888886 344 49 C344.84183838 49.8046167 344.84183838 49.8046167 345.70068359 50.62548828 C349.83188373 54.65038324 353.44494091 58.8669079 356.875 63.5 C357.38893311 64.1914209 357.90286621 64.8828418 358.43237305 65.59521484 C363.45189606 72.45270831 367.88595145 79.56875902 372 87 C372.92232422 88.65708984 372.92232422 88.65708984 373.86328125 90.34765625 C395.21257382 130.82137054 396.64620187 177.06377468 383.83251953 220.35058594 C377.64583885 240.03910758 367.33645338 257.3304868 354.96484375 273.69140625 C354.39894531 274.47386719 353.83304688 275.25632812 353.25 276.0625 C352.76015625 276.71347656 352.2703125 277.36445312 351.765625 278.03515625 C350.78232745 280.01618984 350.78232745 280.01618984 351.51171875 282.25390625 C353.55849669 286.03050702 356.02837109 289.41273656 358.5625 292.875 C383.59359127 327.86897612 397.53625908 371.47625377 391.25 414.8125 C390.85527731 416.87931188 390.43647961 418.94160186 390 421 C389.72732817 422.45538592 389.45665261 423.91114664 389.1875 425.3671875 C384.71529452 448.83541139 376.28836018 471.66703139 362 491 C361.31550781 491.96679688 360.63101562 492.93359375 359.92578125 493.9296875 C337.41082587 525.05449116 305.85445424 546.48419572 269 557 C267.85015625 557.33515625 266.7003125 557.6703125 265.515625 558.015625 C250.12962656 562.16740236 235.00633393 562.27971513 219.19580078 562.22705078 C216.80952967 562.22648579 214.42325821 562.22680494 212.0369873 562.22793579 C205.59584213 562.22850688 199.15477226 562.21679211 192.7136445 562.20278788 C186.65304808 562.19054655 180.59244523 562.18953756 174.53183852 562.18748413 C162.53797592 562.18312093 150.54414072 562.16984941 138.55029297 562.15087891 C126.90836724 562.13248433 115.26644904 562.11836836 103.62451172 562.10986328 C102.89802795 562.10932729 102.17154418 562.10879129 101.42304575 562.10823905 C95.10239593 562.10361255 88.78174589 562.09930734 82.46109581 562.09503365 C55.30737139 562.07625822 28.15371976 562.03640451 1 562 C1 526.03 1 490.06 1 453 C17.29632812 452.96261719 33.59265625 452.92523437 50.3828125 452.88671875 C60.70964391 452.85644127 71.03646412 452.82541626 81.36328125 452.79101562 C86.78987564 452.7729846 92.21647046 452.75510385 97.64306641 452.73754883 C98.66316345 452.7342373 98.66316345 452.7342373 99.70386851 452.73085886 C110.65973177 452.69556146 121.61559496 452.67066221 132.57149388 452.64965298 C143.82878886 452.62783248 155.0860107 452.5945035 166.34324729 452.55129844 C172.6605467 452.52741307 178.9777653 452.50865356 185.2951088 452.50238609 C191.24915474 452.4963141 197.20299407 452.47623781 203.15696335 452.44572449 C205.33447075 452.43697812 207.51200518 452.43321457 209.68952942 452.43499184 C230.51608856 452.44661638 249.08845395 450.58013977 264.8203125 435.3125 C277.00012325 422.39055024 282.73049149 407.47792534 282.27734375 389.66015625 C281.00752868 372.90217422 273.06830492 359.16934913 260.8125 348.0078125 C249.04614116 338.21652104 236.5132427 335.6981541 221.61425781 335.72875977 C220.2729562 335.72436557 218.93165731 335.71906091 217.59036255 335.71292114 C214.71485988 335.701472 211.83943041 335.69596547 208.96390533 335.69503975 C204.40643208 335.69308775 199.84910856 335.67497193 195.29168701 335.65428162 C183.97090781 335.60524344 172.65008811 335.5742656 161.32922363 335.55297852 C152.5294929 335.53640634 143.72989147 335.51345446 134.93024707 335.46995777 C130.41086261 335.44832177 125.89172465 335.44011034 121.37229204 335.44235051 C118.54623789 335.44066964 115.72034126 335.4265354 112.89434433 335.40913773 C110.98352438 335.40097729 109.07265896 335.4074213 107.16183472 335.414505 C91.08585314 335.28149764 76.06618333 330.68275862 64.5 319.1875 C53.25933428 307.42015588 48.30586779 294.00072385 48.45922852 277.76171875 C49.11586389 262.01590481 56.53148535 249.69005426 67.765625 238.96484375 C78.59499578 229.44181316 91.79573458 226.23205846 105.94335938 226.38818359 C107.25915482 226.38251877 108.57495026 226.37685394 109.93061829 226.37101746 C112.76200339 226.35896322 115.59278266 226.36215602 118.42414856 226.37784958 C122.91554269 226.40245824 127.40642205 226.39055414 131.89782715 226.37417603 C139.81637956 226.34981406 147.73469127 226.35543395 155.65325928 226.36798096 C167.56707663 226.38662872 179.4808467 226.3814872 191.39463091 226.34794676 C195.84495718 226.33654216 200.29489718 226.3407199 204.74520111 226.35796714 C206.85330276 226.36401393 208.96127613 226.36321997 211.06938171 226.35957336 C213.61940676 226.3553869 216.16948348 226.36158072 218.71943665 226.38117981 C236.2881092 226.30014598 252.01879768 221.75382026 264.82421875 209.3046875 C277.11039013 196.29061009 282.49506113 182.12041271 282.1875 164.3203125 C281.94328377 159.99565017 281.28351527 156.12925199 280 152 C279.61521484 150.71029297 279.61521484 150.71029297 279.22265625 149.39453125 C274.57718977 135.25875558 265.66023079 123.60432228 252.62109375 116.28125 C243.26528033 111.70791647 234.8315576 109.85304439 224.5151825 109.84178162 C223.55535912 109.83684364 222.59553574 109.83190566 221.60662681 109.82681805 C218.38838771 109.81145215 215.17016854 109.80308485 211.9519043 109.79467773 C209.6457756 109.7850985 207.33964866 109.77508839 205.03352356 109.76467896 C198.76956782 109.73762875 192.50560455 109.71661977 186.24162269 109.69667697 C179.69661569 109.67481817 173.15163193 109.64742895 166.60664368 109.62062073 C155.62017898 109.5762046 144.6337047 109.5355326 133.6472168 109.49731445 C122.33177764 109.45794264 111.01634916 109.41650116 99.70092773 109.37231445 C98.99617201 109.36956495 98.29141629 109.36681544 97.56530434 109.36398262 C91.43481152 109.3400474 85.30431932 109.31595549 79.17382717 109.29184818 C52.78257203 109.18827136 26.39129071 109.09498359 0 109 C0 73.03 0 37.06 0 0 Z " fill="#B3B7B8" transform="translate(1101,235)"/>
<path d="M0 0 C12.17998381 9.52084231 20.69700971 21.61747967 23.55859375 37 C24.28276054 44.00628341 24.08252695 51.08107 24.03961182 58.11470032 C24.04135815 60.2501943 24.04486419 62.38568744 24.04996848 64.52117604 C24.05888005 70.36372592 24.04295727 76.20598051 24.02285624 82.04849279 C24.00554054 88.35847966 24.01143085 94.66845063 24.01446533 100.97845459 C24.01656009 111.90247873 24.00417793 122.82639323 23.98151398 133.75039101 C23.95781516 145.20264453 23.942444 156.65485982 23.93810272 168.10713768 C23.93782776 168.82021266 23.93755281 169.53328763 23.93726951 170.26797094 C23.93591611 173.88957758 23.9347106 177.51118424 23.93356201 181.13279095 C23.92516882 206.75937032 23.89824305 232.38589986 23.86035156 258.01245117 C23.82359176 282.90242244 23.79526813 307.79238006 23.77832031 332.68237305 C23.77779421 333.450102 23.7772681 334.21783096 23.77672606 335.00882442 C23.7714518 342.71894023 23.76634857 350.42905614 23.76137062 358.13917214 C23.7512268 373.84442501 23.73994179 389.549677 23.72796631 405.25492859 C23.72741715 405.97697061 23.72686799 406.69901264 23.72630219 407.44293473 C23.70941575 429.56648006 23.68769418 451.69001696 23.66119385 473.81355286 C23.65971162 475.0526053 23.65822939 476.29165775 23.65670225 477.56825723 C23.626729 502.37884171 23.59205287 527.18942002 23.55859375 552 C-14.06140625 552 -51.68140625 552 -90.44140625 552 C-90.52169654 492.69543186 -90.52169654 492.69543186 -90.54400635 474.1184845 C-90.54479568 473.46208536 -90.54558502 472.80568623 -90.54639827 472.12939622 C-90.57290322 450.02858451 -90.593904 427.92777115 -90.61077881 405.82695007 C-90.61160715 404.74484915 -90.61160715 404.74484915 -90.61245223 403.6408876 C-90.6244245 387.96204053 -90.63550514 372.28319296 -90.64566757 356.60434463 C-90.65065681 348.91518471 -90.65584304 341.22602494 -90.66113281 333.53686523 C-90.66165585 332.7717108 -90.66217888 332.00655637 -90.66271777 331.21821543 C-90.67975615 306.42763479 -90.70979615 281.63709067 -90.74659513 256.84653214 C-90.78434934 231.36611565 -90.80895356 205.88571936 -90.81706621 180.40527537 C-90.81821879 176.80444142 -90.81952134 173.20360753 -90.82091522 169.60277367 C-90.82118491 168.89409397 -90.82145461 168.18541427 -90.82173247 167.45525943 C-90.82645511 156.05804331 -90.84499589 144.66088975 -90.86873439 133.26369912 C-90.89231698 121.79925166 -90.90094648 110.33489037 -90.89541176 98.87041501 C-90.89284943 92.66129056 -90.89678168 86.4523494 -90.91822815 80.24325752 C-90.9377323 74.55489676 -90.9386509 68.86684208 -90.92500183 63.17846706 C-90.92331556 61.12440738 -90.9283567 59.07032839 -90.94093898 57.01630656 C-91.05195453 37.76871403 -87.64135558 20.81744257 -73.95825195 6.23608398 C-53.92966847 -13.85253522 -23.08583917 -15.91653696 0 0 Z " fill="#B3B7B8" transform="translate(197.44140625,245)"/>
<path d="M0 0 C13.17528502 10.19067194 23.76278589 25.86470539 26.421875 42.4921875 C26.72222975 46.74583092 26.74665306 50.97924622 26.734375 55.2421875 C26.75048828 56.345625 26.76660156 57.4490625 26.78320312 58.5859375 C26.79455636 77.93185733 19.31868745 94.15906645 6.234375 108.1796875 C-9.16681718 122.89638225 -28.05253148 127.13118646 -48.6796875 126.83203125 C-64.35463273 126.22914874 -75.9792888 118.4340471 -87.578125 108.4921875 C-87.908125 129.2821875 -88.238125 150.0721875 -88.578125 171.4921875 C-97.488125 171.4921875 -106.398125 171.4921875 -115.578125 171.4921875 C-115.66869027 155.04483848 -115.74226025 138.59770486 -115.78537369 122.15017509 C-115.80593098 114.51197203 -115.83391941 106.87393578 -115.87988281 99.23583984 C-115.91996145 92.57244022 -115.94560737 85.90916151 -115.95447898 79.24564469 C-115.95965851 75.72277282 -115.97168611 72.20024663 -116.00104523 68.67748642 C-116.0336822 64.72877657 -116.03407106 60.78039375 -116.03222656 56.83154297 C-116.04660767 55.6849823 -116.06098877 54.53842163 -116.07580566 53.3571167 C-115.98346375 34.94708116 -108.28433044 18.00086309 -95.359375 5.078125 C-68.7698749 -19.64413493 -28.99760181 -21.03211186 0 0 Z " fill="#B3B6B7" transform="translate(223.578125,929.5078125)"/>
<path d="M0 0 C1.010625 0.36351562 2.02125 0.72703125 3.0625 1.1015625 C9.62896895 3.64606922 15.42184648 6.70304782 21 11 C21.81210937 11.62390625 22.62421875 12.2478125 23.4609375 12.890625 C35.11245504 22.57034727 43.58569802 36.96706361 46 52 C46.08747331 54.64656426 46.12655469 57.265553 46.11352539 59.91137695 C46.11367142 60.69239273 46.11381744 61.47340851 46.1139679 62.27809143 C46.1132737 64.84818339 46.10550446 67.41820202 46.09765625 69.98828125 C46.09579032 71.77475444 46.09436724 73.56122814 46.09336853 75.34770203 C46.08955716 80.04124371 46.07973867 84.73475427 46.06866455 89.42828369 C46.05842075 94.22106505 46.05386455 99.01385146 46.04882812 103.80664062 C46.03811514 113.20444293 46.02052953 122.602214 46 132 C38.08 132 30.16 132 22 132 C21.67 124.41 21.34 116.82 21 109 C19.700625 110.505625 18.40125 112.01125 17.0625 113.5625 C7.71269566 123.87349918 -4.11191629 131.90907364 -18.40771484 133.22094727 C-29.78669978 133.71821039 -40.40347339 133.59903672 -51 129 C-51.99902344 128.59910156 -52.99804688 128.19820312 -54.02734375 127.78515625 C-68.9912894 121.14093328 -80.70143856 107.97270487 -87 93 C-92.83367648 77.46317139 -95.2103047 58.84004842 -89 43 C-88.67128906 42.04351563 -88.34257812 41.08703125 -88.00390625 40.1015625 C-82.08729765 24.17380648 -69.36832123 10.33488059 -54 3 C-37.16098274 -3.79469118 -17.47000499 -6.49925781 0 0 Z " fill="#B2B6B7" transform="translate(498,969)"/>
<path d="M0 0 C6.94488841 5.52571556 12.87539731 11.24041105 16.75 19.3125 C17.17796875 20.19550781 17.6059375 21.07851563 18.046875 21.98828125 C18.36140625 22.65214844 18.6759375 23.31601562 19 24 C19.32871094 23.32195313 19.65742187 22.64390625 19.99609375 21.9453125 C27.4846124 7.29298062 37.91446947 -1.92586265 53.4921875 -7.2734375 C69.07675737 -11.78859326 87.1278108 -9.73610185 101.53344727 -2.41796875 C117.11378041 6.16863999 125.23140508 18.83366816 130.9375 35.1875 C132.5445845 40.95409734 133.1422546 46.11156984 133.11352539 52.0949707 C133.11367142 52.89549362 133.11381744 53.69601654 133.1139679 54.52079773 C133.11327355 57.1558202 133.10550356 59.79077119 133.09765625 62.42578125 C133.09579037 64.25709494 133.09436727 66.08840914 133.09336853 67.91972351 C133.08955672 72.73163235 133.07973785 77.54351084 133.06866455 82.35540771 C133.05842169 87.26883534 133.05386475 92.18226789 133.04882812 97.09570312 C133.03811437 106.73048421 133.02052839 116.36523483 133 126 C124.09 126 115.18 126 106 126 C105.97812622 122.72388794 105.97812622 122.72388794 105.95581055 119.3815918 C105.90525567 112.12916499 105.83862501 104.8769482 105.76428509 97.6247282 C105.71974098 93.23185279 105.68045066 88.83906671 105.65356445 84.44604492 C105.62737099 80.19888159 105.58685799 75.95206505 105.53681374 71.70511818 C105.52025267 70.09263263 105.50867192 68.48008725 105.50238609 66.86752892 C105.44117966 52.59646676 103.9159289 38.19429431 93.8125 27.1875 C85.80426361 19.77506238 76.74176381 17.65884339 66.12890625 17.7890625 C56.77936393 18.41936872 49.66546883 21.97814119 43.3125 28.81640625 C36.05729146 37.79472682 32.80007643 49.19266318 32.68115234 60.609375 C32.67110672 61.32255386 32.6610611 62.03573273 32.65071106 62.77052307 C32.62014456 65.09700815 32.60291891 67.42337963 32.5859375 69.75 C32.56720441 71.3752539 32.54762943 73.0004983 32.5272522 74.62573242 C32.47615094 78.88021208 32.43640819 83.1347232 32.39910889 87.38934326 C32.35893045 91.74010865 32.30790158 96.09074567 32.2578125 100.44140625 C32.16131407 108.96085584 32.07783094 117.4803594 32 126 C23.09 126 14.18 126 5 126 C4.99589111 123.80657959 4.99178223 121.61315918 4.98754883 119.35327148 C4.97023438 112.04893727 4.92554001 104.74494704 4.86790943 97.44082546 C4.83383856 93.01883299 4.8085608 88.59717869 4.80444336 84.17504883 C4.80011718 79.89530266 4.77130336 75.61631677 4.72656822 71.33680916 C4.71372952 69.71646644 4.70923627 68.09603209 4.71384621 66.47564507 C4.74705031 51.23905898 2.36180138 37.62675802 -8.65625 26.296875 C-16.07914572 19.34634537 -25.17096768 17.65569177 -35.09375 17.7890625 C-44.33425871 18.45974458 -51.41334572 22.06297629 -57.6875 28.81640625 C-67.87906553 41.42846859 -68.29456066 56.87116083 -68.4140625 72.38671875 C-68.43281321 73.94042443 -68.45238939 75.49412034 -68.4727478 77.04780579 C-68.52366343 81.1000284 -68.56350377 85.15228389 -68.60089111 89.20465088 C-68.64118795 93.35461281 -68.69216193 97.50444284 -68.7421875 101.65429688 C-68.83846521 109.76944694 -68.92203182 117.88465336 -69 126 C-77.91 126 -86.82 126 -96 126 C-96.09104648 116.27133347 -96.16414049 106.54295852 -96.20724869 96.81395912 C-96.22795793 92.29442911 -96.25596299 87.77521034 -96.30175781 83.25585938 C-96.34582025 78.8791443 -96.36926165 74.50272498 -96.37950897 70.1258049 C-96.38679376 68.47156504 -96.40101189 66.8173379 -96.42292023 65.16322708 C-96.69305629 43.88475201 -92.52702833 22.99698146 -77.49438477 7.03393555 C-57.64510471 -12.44306474 -23.1554059 -15.06999368 0 0 Z " fill="#B3B6B7" transform="translate(1360,975)"/>
<path d="M0 0 C11.71905142 8.82202334 21.05789976 21.78338691 23.7109375 36.453125 C25.44795032 51.75761637 22.99513097 66.70769225 14.0078125 79.5078125 C4.62579532 91.1531957 -7.7866965 100.80577353 -23 103 C-26.39660287 103.19169208 -29.78604095 103.23082335 -33.1875 103.25 C-34.08275391 103.270625 -34.97800781 103.29125 -35.90039062 103.3125 C-49.54582149 103.39131837 -63.17976263 97.53575386 -73.09765625 88.12109375 C-85.56611753 74.21888743 -90.8415069 58.71245597 -90 40 C-88.77991264 28.20001228 -83.86380218 17.78508444 -76 9 C-75.40445313 8.31164062 -74.80890625 7.62328125 -74.1953125 6.9140625 C-54.50428329 -14.41107702 -23.38779237 -15.13154908 0 0 Z " fill="#B3B7B8" transform="translate(197,86)"/>
<path d="M0 0 C1.42119141 0.4021875 1.42119141 0.4021875 2.87109375 0.8125 C20.98922918 6.35180255 32.61907042 16.41029839 41.57421875 32.8984375 C46.70091392 43.64448324 49.13386425 54.68941244 49.11352539 66.58764648 C49.11367142 67.31043289 49.11381744 68.0332193 49.1139679 68.77790833 C49.11327699 71.14233511 49.10552352 73.5066809 49.09765625 75.87109375 C49.09578914 77.52018694 49.09436662 79.16928069 49.09336853 80.81837463 C49.0895664 85.14034581 49.07975597 89.46228292 49.06866455 93.78424072 C49.05840071 98.20185892 49.05386029 102.61948267 49.04882812 107.03710938 C49.03813147 115.69142356 49.02055352 124.3457036 49 133 C39.76 133 30.52 133 21 133 C20.9906543 130.82116211 20.98130859 128.64232422 20.97167969 126.39746094 C20.93774437 119.15698572 20.88210482 111.91679057 20.81609726 104.67654037 C20.77677408 100.29150763 20.74451197 95.90667114 20.72900391 91.52148438 C20.71373651 87.28072732 20.67911547 83.04051039 20.63169098 78.79999542 C20.61698022 77.19113133 20.60896498 75.58219009 20.60811615 73.97325897 C20.59305387 59.72429473 18.34730451 46.11329246 8.33984375 35.1875 C-0.50701344 27.12658229 -11.11088146 24.43679705 -22.8828125 24.69140625 C-32.23402217 25.61715257 -40.45672966 29.20956836 -47 36 C-54.90681995 46.36554024 -58.04000134 58.25724724 -58.20532227 71.12866211 C-58.22017166 72.13968994 -58.22017166 72.13968994 -58.23532104 73.17114258 C-58.2666144 75.37317534 -58.29156448 77.57522959 -58.31640625 79.77734375 C-58.33700366 81.31434147 -58.35800081 82.85133387 -58.37937927 84.38832092 C-58.43431241 88.41431349 -58.48384728 92.44035472 -58.53222656 96.46643066 C-58.58265291 100.58248169 -58.63822815 104.69846291 -58.69335938 108.81445312 C-58.80058868 116.87624441 -58.90163395 124.93809569 -59 133 C-67.91 133 -76.82 133 -86 133 C-86.09107117 123.53210141 -86.16415423 114.06450291 -86.20724869 104.59626198 C-86.22795203 100.1977956 -86.2559456 95.79964939 -86.30175781 91.40136719 C-86.34584222 87.14136068 -86.36926603 82.88165824 -86.37950897 78.62144089 C-86.38678997 77.01185709 -86.40100011 75.40228623 -86.42292023 73.79283524 C-86.70046913 52.53074941 -82.38035527 31.7867971 -67.27685547 15.95922852 C-50.2003883 -0.86860904 -22.93277344 -6.92310142 0 0 Z " fill="#B2B6B7" transform="translate(954,968)"/>
<path d="M0 0 C8.91 0 17.82 0 27 0 C27.01458252 2.02213623 27.02916504 4.04427246 27.04418945 6.12768555 C27.0948407 12.85723545 27.16148651 19.58656132 27.23571491 26.31589031 C27.2801788 30.39034176 27.31948545 34.46469872 27.34643555 38.53930664 C27.37271078 42.48175001 27.4132776 46.42382491 27.46318626 50.36603737 C27.47969319 51.85964131 27.49130698 53.35330874 27.49761391 54.84699059 C27.56887479 70.19225457 29.44326793 85.59097413 40.1875 97.3984375 C49.86225244 105.94724892 59.3141767 106.79144057 71.65039062 106.21777344 C79.90610978 105.45259249 86.77454733 101.44216149 92.25390625 95.34765625 C102.05916432 82.16430032 103.44211932 66.89925728 103.51171875 50.9765625 C103.52861751 49.4944007 103.54677446 48.01225278 103.56611633 46.53012085 C103.61305978 42.68013859 103.64322524 38.83021252 103.66955566 34.9800415 C103.69964668 31.03085217 103.74607662 27.08185584 103.79101562 23.1328125 C103.87641317 15.42195569 103.94252065 7.71112472 104 0 C112.91 0 121.82 0 131 0 C131.09101842 9.48516922 131.1641247 18.97003991 131.20724869 28.45555019 C131.22796472 32.86189164 131.25598276 37.26791424 131.30175781 41.67407227 C131.34579534 45.94055799 131.36925661 50.20674058 131.37950897 54.47343636 C131.3867981 56.08663761 131.40102538 57.69982569 131.42292023 59.31289482 C131.60528808 73.32907332 130.14855855 87.71842809 123.4375 100.3125 C123.10161865 100.9607373 122.7657373 101.60897461 122.41967773 102.27685547 C113.82793492 118.01257728 99.43779117 127.78755206 82.4375 132.8125 C65.25323467 136.74543979 45.53629139 134.20208144 30.2734375 125.43359375 C14.37805932 114.82847301 5.75990631 100.16118759 1 82 C0.1609213 77.05963332 -0.12197066 72.32860151 -0.11352539 67.32055664 C-0.11367142 66.58801666 -0.11381744 65.85547668 -0.1139679 65.10073853 C-0.11327686 62.70384657 -0.10552276 60.30703446 -0.09765625 57.91015625 C-0.09578919 56.23864281 -0.09436665 54.56712881 -0.09336853 52.89561462 C-0.08956603 48.51445991 -0.07975529 44.13333879 -0.06866455 39.75219727 C-0.0584015 35.27425592 -0.05386046 30.79630911 -0.04882812 26.31835938 C-0.03813083 17.54555584 -0.02055257 8.77278598 0 0 Z " fill="#B3B6B7" transform="translate(1068,967)"/>
<path d="M0 0 C8.91 0 17.82 0 27 0 C27 11.55 27 23.1 27 35 C44.16 35 61.32 35 79 35 C79 42.59 79 50.18 79 58 C61.84 58 44.68 58 27 58 C27.06187522 69.51098177 27.06187522 69.51098177 27.16015625 81.02148438 C27.20835347 85.72192656 27.2524494 90.42213783 27.27099609 95.12280273 C27.28623312 98.91619238 27.32080119 102.70897451 27.36830902 106.50209236 C27.38305077 107.94317379 27.39103685 109.384342 27.39188385 110.82549858 C27.40479054 121.78277212 28.75508399 130.26690981 36.359375 138.5625 C41.81587388 143.34343235 48.99477808 144.27780026 56 143.875 C63.26064343 143.26305511 69.36173423 140.86432459 76 138 C76.99 137.67 77.98 137.34 79 137 C79 145.25 79 153.5 79 162 C68.97613421 167.0119329 61.28700232 169.5609128 50.125 169.4375 C48.67818848 169.42614014 48.67818848 169.42614014 47.20214844 169.41455078 C33.87743084 169.10691911 22.6219426 164.38688699 12.75 155.375 C0.43796014 142.39003489 -0.16076737 125.58714536 -0.09765625 108.78125 C-0.09578817 107.31294808 -0.09436611 105.84464554 -0.09336853 104.37634277 C-0.08957409 100.53607422 -0.07977049 96.69584426 -0.06866455 92.85559082 C-0.05838392 88.92717002 -0.05385674 84.99874291 -0.04882812 81.0703125 C-0.03814508 73.38018881 -0.02057363 65.69010476 0 58 C-8.91 58 -17.82 58 -27 58 C-27 50.41 -27 42.82 -27 35 C-18.09 35 -9.18 35 0 35 C0 23.45 0 11.9 0 0 Z " fill="#B3B7B8" transform="translate(623,932)"/>
<path d="M0 0 C8.48444524 7.71189991 14.60814929 17.32876887 15.203125 28.9765625 C15.44320854 43.18125071 13.39533316 55.49939272 3.55859375 66.53125 C-6.00952825 75.54782612 -18.06155508 80.40603187 -31.19140625 80.2109375 C-44.03095597 79.24663196 -54.14965382 73.80244299 -62.95703125 64.55859375 C-72.13165541 53.06838567 -74.11804208 40.21310993 -73 26 C-72.13112222 22.04561873 -70.800761 18.61835155 -69 15 C-68.57589844 14.13761719 -68.15179688 13.27523437 -67.71484375 12.38671875 C-61.56382623 1.09557517 -52.16659497 -5.14169176 -40.25 -9.3125 C-25.81774333 -12.30952104 -11.66982629 -8.89585119 0 0 Z " fill="#222222" transform="translate(208,951)"/>
<path d="M0 0 C8.94912161 6.68694301 14.67065973 15.99929688 16.8125 26.9375 C18.20918989 41.25758488 14.92036346 52.83359269 6.1015625 64.12890625 C-0.9848233 72.00765164 -11.07384206 76.43642248 -21.5703125 77.17578125 C-34.72269559 77.43663227 -45.35136671 74.2680763 -55.125 65.125 C-63.84140957 55.80745873 -67.75508908 44.78315961 -67.5 32.15625 C-66.17736433 18.53310262 -59.94721688 8.65945824 -49.78125 -0.11328125 C-35.20426872 -11.0679705 -14.77379412 -9.3119672 0 0 Z " fill="#222222" transform="translate(500.1875,999.0625)"/>
<path d="M0 0 C9.24 0 18.48 0 28 0 C28 61.71 28 123.42 28 187 C18.76 187 9.52 187 0 187 C0 125.29 0 63.58 0 0 Z " fill="#B0B3B4" transform="translate(313,914)"/>
<path d="M0 0 C9.24 0 18.48 0 28 0 C28 44.22 28 88.44 28 134 C18.76 134 9.52 134 0 134 C0 89.78 0 45.56 0 0 Z " fill="#B76035" transform="translate(769,967)"/>
<path d="M0 0 C2.64 0 5.28 0 8 0 C8.15855469 0.75023437 8.31710937 1.50046875 8.48046875 2.2734375 C11.2766699 14.53964588 15.52729545 24.38486865 26.31640625 31.53515625 C32.59997014 34.99464648 38.92369399 36.18537371 46 37 C46 39.97 46 42.94 46 46 C45.24976563 46.08636719 44.49953125 46.17273438 43.7265625 46.26171875 C34.52253355 47.52524414 26.35005724 49.8561856 20 57 C19.34 57 18.68 57 18 57 C17.731875 57.54398438 17.46375 58.08796875 17.1875 58.6484375 C16.33689673 60.33285582 15.45858086 62.00339091 14.5625 63.6640625 C11.18928685 70.05630143 8.92173177 75.81684898 8 83 C5.36 83 2.72 83 0 83 C-0.14695312 82.17757812 -0.29390625 81.35515625 -0.4453125 80.5078125 C-3.00964719 67.74508928 -8.29083634 58.57130463 -19.12109375 51.1328125 C-25.13058027 47.50962936 -31.08014714 46.5406135 -38 46 C-38 43.03 -38 40.06 -38 37 C-37.24976563 36.91363281 -36.49953125 36.82726562 -35.7265625 36.73828125 C-25.75628203 35.36956517 -16.08017709 32.24021752 -9.51171875 24.171875 C-4.25216819 16.91552237 -1.61415067 8.75796602 0 0 Z " fill="#D77D49" transform="translate(779,863)"/>
<path d="M0 0 C0.33 0 0.66 0 1 0 C1.01030746 0.8558519 1.02061493 1.7117038 1.03123474 2.5934906 C1.15284011 12.65343928 1.27753471 22.71334735 1.40406036 32.77323532 C1.43734417 35.4250847 1.47035811 38.07693735 1.50335693 40.72879028 C1.72035743 58.09118684 1.93825864 75.45290256 2.32421875 92.8125 C2.36242989 94.53993187 2.36242989 94.53993187 2.40141296 96.30226135 C2.51902237 101.51942035 2.64542158 106.73621041 2.78295898 111.95288086 C2.82671441 113.76936718 2.87041912 115.58585473 2.9140625 117.40234375 C2.94985664 118.59700256 2.94985664 118.59700256 2.9863739 119.8157959 C3.08278396 124.00717805 2.84327716 127.89075523 2 132 C2.65597168 131.96447021 3.31194336 131.92894043 3.98779297 131.89233398 C6.94992662 131.73506417 9.91242329 131.5861795 12.875 131.4375 C13.90753906 131.38142578 14.94007813 131.32535156 16.00390625 131.26757812 C16.99003906 131.21923828 17.97617187 131.17089844 18.9921875 131.12109375 C19.90339355 131.0739624 20.81459961 131.02683105 21.75341797 130.97827148 C24 131 24 131 26 132 C25.99777939 131.42294815 25.99555878 130.8458963 25.99327087 130.25135803 C25.87492537 97.76561575 26.02751492 65.29478514 26.5 32.8125 C26.51195782 31.99008442 26.52391563 31.16766884 26.53623581 30.32033157 C26.68382641 20.2134432 26.83840233 10.10667447 27 0 C27.33 0 27.66 0 28 0 C28 44.22 28 88.44 28 134 C18.76 134 9.52 134 0 134 C0 89.78 0 45.56 0 0 Z " fill="#8A5439" transform="translate(769,967)"/>
<path d="M0 0 C8.58 0 17.16 0 26 0 C26 13.53 26 27.06 26 41 C25.67 41 25.34 41 25 41 C24.28350744 27.92279225 23.64059611 15.05027735 25 2 C24.44538086 2.03029297 23.89076172 2.06058594 23.31933594 2.09179688 C20.796283 2.22897667 18.27314393 2.36450461 15.75 2.5 C14.87730469 2.54769531 14.00460937 2.59539063 13.10546875 2.64453125 C12.26113281 2.68964844 11.41679688 2.73476563 10.546875 2.78125 C9.38430176 2.8440918 9.38430176 2.8440918 8.19824219 2.90820312 C6.13373418 2.99441537 4.0663073 3 2 3 C1.67 8.94 1.34 14.88 1 21 C0.67 21 0.34 21 0 21 C0 14.07 0 7.14 0 0 Z " fill="#BB724B" transform="translate(770,967)"/>
<path d="M0 0 C0.66 0.33 1.32 0.66 2 1 C-4.66843475 6.71580122 -9.45272078 7.29873986 -18 7 C-18 8.98 -18 10.96 -18 13 C-16.906875 12.95875 -15.81375 12.9175 -14.6875 12.875 C-11 13 -11 13 -8 15 C-6.96875 15.33 -5.9375 15.66 -4.875 16 C-2 17 -2 17 -1 19 C-1.61746094 18.79503906 -2.23492188 18.59007812 -2.87109375 18.37890625 C-8.62710276 16.54784707 -13.97978316 15.48550136 -20 15 C-20 12.03 -20 9.06 -20 6 C-19.2265625 5.90203125 -18.453125 5.8040625 -17.65625 5.703125 C-10.93410012 4.73806388 -5.95672186 3.19898026 0 0 Z " fill="#BA7753" transform="translate(761,894)"/>
<path d="M0 0 C0.33 0 0.66 0 1 0 C1 7.92 1 15.84 1 24 C0.67 24 0.34 24 0 24 C-0.33 18.39 -0.66 12.78 -1 7 C-1.66 6.67 -2.32 6.34 -3 6 C-3.33 6.99 -3.66 7.98 -4 9 C-6.0625 10.6875 -6.0625 10.6875 -8 12 C-8.66 11.67 -9.32 11.34 -10 11 C-9.52949219 10.54109375 -9.05898438 10.0821875 -8.57421875 9.609375 C-5.45970597 6.54000009 -2.56125052 3.55729239 0 0 Z " fill="#414343" transform="translate(519,1077)"/>
<path d="M0 0 C1.32 0.33 2.64 0.66 4 1 C4 2.32 4 3.64 4 5 C4.66 5 5.32 5 6 5 C7.74685308 8.82745451 8.34886333 12.12442723 8.625 16.3125 C8.69976563 17.38113281 8.77453125 18.44976563 8.8515625 19.55078125 C8.90054688 20.35902344 8.94953125 21.16726563 9 22 C10.98 22 12.96 22 15 22 C15.33 21.01 15.66 20.02 16 19 C16 20.32 16 21.64 16 23 C13.36 23 10.72 23 8 23 C7.84144531 22.17757812 7.68289063 21.35515625 7.51953125 20.5078125 C5.95288755 13.01215812 3.79903492 6.6520651 0 0 Z " fill="#BF7A55" transform="translate(771,923)"/>
<path d="M0 0 C2.64 0 5.28 0 8 0 C8.33 2.97 8.66 5.94 9 9 C6.64046906 6.64046906 6.50858587 5.22104383 6 2 C5.01 2 4.02 2 3 2 C2.896875 2.556875 2.79375 3.11375 2.6875 3.6875 C1.86866423 6.44176578 0.54146219 8.58727657 -1 11 C-2.31625194 8.36749612 -1.74813658 7.19820944 -1.0625 4.375 C-0.86785156 3.55773437 -0.67320312 2.74046875 -0.47265625 1.8984375 C-0.23869141 0.95871094 -0.23869141 0.95871094 0 0 Z " fill="#C17C57" transform="translate(779,863)"/>
<path d="M0 0 C1.15330002 2.8320681 1.01282196 3.96283128 -0.00390625 6.91015625 C-0.51824219 7.95042969 -1.03257812 8.99070312 -1.5625 10.0625 C-2.30693359 11.62677734 -2.30693359 11.62677734 -3.06640625 13.22265625 C-5.35702444 16.51281692 -7.26469912 17.63122532 -11 19 C-11.66 18.67 -12.32 18.34 -13 18 C-12.29875 17.525625 -11.5975 17.05125 -10.875 16.5625 C-5.76136184 12.00469207 -2.38005437 6.39569112 0 0 Z " fill="#C07A51" transform="translate(776,875)"/>
<path d="M0 0 C0.33 1.32 0.66 2.64 1 4 C0.1028125 4.37125 0.1028125 4.37125 -0.8125 4.75 C-3.28647521 6.16370012 -4.43370255 7.65055383 -6 10 C-6.66 9.67 -7.32 9.34 -8 9 C-7.23997083 7.68121422 -6.46656347 6.3701316 -5.6875 5.0625 C-5.25824219 4.33160156 -4.82898438 3.60070312 -4.38671875 2.84765625 C-3 1 -3 1 0 0 Z " fill="#2F231D" transform="translate(798,922)"/>
<path d="M0 0 C4.875 4.625 4.875 4.625 6 8 C3.69 7.67 1.38 7.34 -1 7 C-1.625 4.625 -1.625 4.625 -2 2 C-1.34 1.34 -0.68 0.68 0 0 Z " fill="#272828" transform="translate(506,1006)"/>
<path d="M0 0 C0.99 0 1.98 0 3 0 C3 2.97 3 5.94 3 9 C0.36 9 -2.28 9 -5 9 C-5 8.34 -5 7.68 -5 7 C-3.02 7 -1.04 7 1 7 C0.67 4.69 0.34 2.38 0 0 Z " fill="#B67652" transform="translate(822,900)"/>
<path d="M0 0 C0.99 0 1.98 0 3 0 C3.99 1.98 4.98 3.96 6 6 C3.37886292 6 1.49064888 5.68707555 -1 5 C-0.67 3.35 -0.34 1.7 0 0 Z " fill="#ACAFB0" transform="translate(1009,335)"/>
<path d="M0 0 C0.99 0 1.98 0 3 0 C1.76163579 3.71509263 -0.22104936 5.28882864 -3 8 C-3.99 9.485 -3.99 9.485 -5 11 C-5.66 10.67 -6.32 10.34 -7 10 C-5.90833564 8.3251177 -4.80126363 6.66026877 -3.6875 5 C-3.07261719 4.071875 -2.45773437 3.14375 -1.82421875 2.1875 C-0.92123047 1.1046875 -0.92123047 1.1046875 0 0 Z " fill="#ACADAE" transform="translate(327,322)"/>
<path d="M0 0 C5.75 1.75 5.75 1.75 8 4 C7.625 6.125 7.625 6.125 7 8 C5.83035398 6.8572081 4.66435444 5.71068285 3.5 4.5625 C2.8503125 3.92441406 2.200625 3.28632812 1.53125 2.62890625 C0 1 0 1 0 0 Z " fill="#302113" transform="translate(796,886)"/>
<path d="M0 0 C1 2 1 2 0.4375 3.9375 C-1.5350252 6.76764485 -3.88495996 7.64563476 -7 9 C-5.44499019 5.18315774 -2.96404505 2.80804268 0 0 Z " fill="#28292A" transform="translate(1307,998)"/>
<path d="M0 0 C0.99 0 1.98 0 3 0 C2.4375 1.875 2.4375 1.875 1 4 C-2.625 5.25 -2.625 5.25 -6 6 C-4 4 -2 2 0 0 Z " fill="#ACAFB0" transform="translate(370,279)"/>
<path d="M0 0 C1.98 0.495 1.98 0.495 4 1 C2.515 4.465 2.515 4.465 1 8 C-0.42944945 5.64561267 -1.08661261 4.51967567 -0.625 1.75 C-0.41875 1.1725 -0.2125 0.595 0 0 Z " fill="#ACAFAF" transform="translate(139,958)"/>
<path d="M0 0 C0.99 0.33 1.98 0.66 3 1 C0.525 5.455 0.525 5.455 -2 10 C-3 8 -3 8 -2.44140625 6.0546875 C-2.15136719 5.33539062 -1.86132812 4.61609375 -1.5625 3.875 C-1.27503906 3.15054688 -0.98757813 2.42609375 -0.69140625 1.6796875 C-0.46324219 1.12539063 -0.23507812 0.57109375 0 0 Z " fill="#C1764C" transform="translate(780,864)"/>
<path d="M0 0 C0.33 0.66 0.66 1.32 1 2 C-1.31 3.65 -3.62 5.3 -6 7 C-6.99 6.34 -7.98 5.68 -9 5 C-6.03 3.35 -3.06 1.7 0 0 Z " fill="#303030" transform="translate(697,781)"/>
</svg>
