<?xml version="1.0" encoding="UTF-8"?>
<svg version="1.1" xmlns="http://www.w3.org/2000/svg" width="464" height="511">
<path d="M0 0 C153.12 0 306.24 0 464 0 C464 168.63 464 337.26 464 511 C310.88 511 157.76 511 0 511 C0 342.37 0 173.74 0 0 Z " fill="#FEFEFE" transform="translate(0,0)"/>
<path d="M0 0 C0.85076111 -0.00067474 1.70152222 -0.00134949 2.57806396 -0.00204468 C14.82887027 0.01340419 26.60038318 0.38801526 38.5625 3.25 C39.38830566 3.43755859 40.21411133 3.62511719 41.06494141 3.81835938 C91.31023886 15.29557018 135.46323639 44.54730598 163.30126953 88.22070312 C168.68557848 96.88395825 173.73528783 105.78434357 177.5625 115.25 C178.00980469 116.26191406 178.45710938 117.27382812 178.91796875 118.31640625 C183.74779804 129.62739465 186.76828832 141.29232278 189.5625 153.25 C189.83586182 154.35190674 189.83586182 154.35190674 190.11474609 155.47607422 C195.49514373 177.62403943 194.29400614 204.1169193 189.5625 226.25 C189.38509277 227.17264648 189.20768555 228.09529297 189.02490234 229.04589844 C179.6151197 277.71498628 150.61119844 320.72778563 109.92626953 348.67919922 C104.24837969 352.4523394 98.35881599 355.87376339 92.41259766 359.20385742 C91.2004003 359.8892976 89.99643791 360.58955874 88.80224609 361.3059082 C84.52279263 363.85677203 80.2324226 365.6529777 75.5625 367.3125 C74.20773149 367.80172196 72.85355865 368.29259678 71.5 368.78515625 C70.83468262 369.02637207 70.16936523 369.26758789 69.48388672 369.51611328 C67.71457142 370.19191529 65.98321974 370.96496967 64.2578125 371.74609375 C21.62700227 389.0958421 -31.23102525 385.82002584 -73.14257812 368.4387207 C-89.39586967 361.38235868 -104.99417062 352.88181691 -118.4375 341.25 C-119.28828125 340.5796875 -120.1390625 339.909375 -121.015625 339.21875 C-145.44489309 319.95452716 -165.43219213 293.42444823 -176.4375 264.25 C-176.99707648 262.82930126 -177.55699837 261.40873853 -178.1171875 259.98828125 C-181.2948784 251.79793115 -184.0732274 243.57713183 -186.25 235.0625 C-186.44464844 234.31677734 -186.63929688 233.57105469 -186.83984375 232.80273438 C-190.34524174 218.37382502 -190.84000847 203.83149185 -190.8125 189.0625 C-190.81367828 187.71260986 -190.81367828 187.71260986 -190.81488037 186.33544922 C-190.80167289 173.69448 -190.26811122 161.56380306 -186.97216797 149.28588867 C-186.19064014 146.31001625 -185.56872649 143.30244128 -184.93457031 140.29223633 C-184.27254503 137.57227487 -183.30024196 135.03418571 -182.265625 132.4375 C-181.33038475 129.96705406 -180.58440046 127.4637197 -179.8125 124.9375 C-173.54520307 106.1356092 -163.31690069 87.34101495 -150.4375 72.25 C-149.51147343 71.14082977 -148.58571668 70.03143424 -147.66015625 68.921875 C-127.73583571 45.20077593 -103.05898395 26.30297928 -74.4375 14.25 C-73.75300781 13.95883301 -73.06851563 13.66766602 -72.36328125 13.36767578 C-49.07492877 3.64828823 -25.04071489 0.01783311 0 0 Z " fill="#FCFCFC" transform="translate(232.4375,64.75)"/>
<path d="M0 0 C3.26899152 0.29675283 4.50662985 1.18802415 7.0859375 3.18359375 C11.14857711 6.17522822 15.30297657 8.8765962 19.6484375 11.43359375 C25.29696278 14.77379651 30.86474722 18.21905472 36.3984375 21.74609375 C44.43476704 26.85951428 52.55985028 31.81883213 60.7109375 36.74609375 C70.41817024 42.61484663 80.06112367 48.57218266 89.6328125 54.66015625 C93.36763096 57.03510876 97.12670874 59.36784291 100.8984375 61.68359375 C101.90648437 62.30878906 102.91453125 62.93398437 103.953125 63.578125 C105.7048699 64.6376081 107.47952281 65.66075604 109.28125 66.6328125 C111.5234375 67.87109375 111.5234375 67.87109375 114.7109375 70.24609375 C114.7109375 72.22609375 114.7109375 74.20609375 114.7109375 76.24609375 C106.7909375 76.24609375 98.8709375 76.24609375 90.7109375 76.24609375 C90.7109375 106.27609375 90.7109375 136.30609375 90.7109375 167.24609375 C89.0609375 167.57609375 87.4109375 167.90609375 85.7109375 168.24609375 C89.79013353 169.62887206 93.85406883 170.99821388 97.9921875 172.1953125 C105.00550071 174.23013847 110.43563681 175.86161637 115.5859375 181.18359375 C116.95815645 183.69932849 116.7947038 185.42130802 116.7109375 188.24609375 C115.51082031 187.99214844 114.31070313 187.73820313 113.07421875 187.4765625 C90.66700671 182.81123804 68.56532575 180.49753185 45.7109375 179.24609375 C44.20635986 179.15714844 44.20635986 179.15714844 42.67138672 179.06640625 C10.35352385 177.17824733 -22.05271798 177.95764556 -54.33184814 180.11651611 C-56.1165903 180.23467521 -57.90178312 180.34597629 -59.68701172 180.45654297 C-77.43419481 181.5784093 -96.05703715 183.66147422 -113.2890625 188.24609375 C-113.73747129 184.38977819 -113.68147077 182.7611296 -111.2890625 179.62109375 C-103.50692717 173.46023661 -94.72495951 171.55592271 -85.2890625 169.24609375 C-86.7740625 168.25609375 -86.7740625 168.25609375 -88.2890625 167.24609375 C-88.60497292 164.31838235 -88.72642303 161.59780051 -88.72143555 158.66552734 C-88.7316272 157.77766037 -88.74181885 156.8897934 -88.75231934 155.97502136 C-88.78258645 153.03146162 -88.79173613 150.08822652 -88.80078125 147.14453125 C-88.81761778 145.10713609 -88.83576661 143.06975139 -88.85517883 141.03237915 C-88.90279641 135.66315985 -88.93252962 130.29398291 -88.95861816 124.92462158 C-88.98836451 119.44836049 -89.03491507 113.97224556 -89.08007812 108.49609375 C-89.16624508 97.74615314 -89.23197823 86.99622818 -89.2890625 76.24609375 C-97.2090625 75.91609375 -105.1290625 75.58609375 -113.2890625 75.24609375 C-113.7840625 72.77109375 -113.7840625 72.77109375 -114.2890625 70.24609375 C-110.07456923 67.48021914 -105.85221333 64.72653063 -101.6171875 61.9921875 C-100.90208008 61.52997803 -100.18697266 61.06776855 -99.45019531 60.59155273 C-96.54750669 58.78442248 -93.56967505 57.1384058 -90.5546875 55.52734375 C-87.5766264 53.84319885 -84.71854765 51.98533434 -81.8515625 50.12109375 C-76.4254598 46.59312367 -70.94434302 43.17092401 -65.4140625 39.80859375 C-59.85091692 36.42519771 -54.3032947 33.02116998 -48.7890625 29.55859375 C-40.45766247 24.32842776 -32.0739211 19.18352581 -23.6875 14.04223633 C-0.98798477 0.10621679 -0.98798477 0.10621679 0 0 Z " fill="#FAFAFA" transform="translate(232.2890625,138.75390625)"/>
<path d="M0 0 C0.85076111 -0.00067474 1.70152222 -0.00134949 2.57806396 -0.00204468 C14.82887027 0.01340419 26.60038318 0.38801526 38.5625 3.25 C39.38830566 3.43755859 40.21411133 3.62511719 41.06494141 3.81835938 C91.31023886 15.29557018 135.46323639 44.54730598 163.30126953 88.22070312 C168.68557848 96.88395825 173.73528783 105.78434357 177.5625 115.25 C178.00980469 116.26191406 178.45710938 117.27382812 178.91796875 118.31640625 C183.74779804 129.62739465 186.76828832 141.29232278 189.5625 153.25 C189.83586182 154.35190674 189.83586182 154.35190674 190.11474609 155.47607422 C195.49514373 177.62403943 194.29400614 204.1169193 189.5625 226.25 C189.38509277 227.17264648 189.20768555 228.09529297 189.02490234 229.04589844 C179.6151197 277.71498628 150.61119844 320.72778563 109.92626953 348.67919922 C104.24837969 352.4523394 98.35881599 355.87376339 92.41259766 359.20385742 C91.2004003 359.8892976 89.99643791 360.58955874 88.80224609 361.3059082 C84.52279263 363.85677203 80.2324226 365.6529777 75.5625 367.3125 C74.20773149 367.80172196 72.85355865 368.29259678 71.5 368.78515625 C70.83468262 369.02637207 70.16936523 369.26758789 69.48388672 369.51611328 C67.71457142 370.19191529 65.98321974 370.96496967 64.2578125 371.74609375 C21.62700227 389.0958421 -31.23102525 385.82002584 -73.14257812 368.4387207 C-89.39586967 361.38235868 -104.99417062 352.88181691 -118.4375 341.25 C-119.28828125 340.5796875 -120.1390625 339.909375 -121.015625 339.21875 C-145.44489309 319.95452716 -165.43219213 293.42444823 -176.4375 264.25 C-176.99707648 262.82930126 -177.55699837 261.40873853 -178.1171875 259.98828125 C-181.2948784 251.79793115 -184.0732274 243.57713183 -186.25 235.0625 C-186.44464844 234.31677734 -186.63929688 233.57105469 -186.83984375 232.80273438 C-190.34524174 218.37382502 -190.84000847 203.83149185 -190.8125 189.0625 C-190.81367828 187.71260986 -190.81367828 187.71260986 -190.81488037 186.33544922 C-190.80167289 173.69448 -190.26811122 161.56380306 -186.97216797 149.28588867 C-186.19064014 146.31001625 -185.56872649 143.30244128 -184.93457031 140.29223633 C-184.27254503 137.57227487 -183.30024196 135.03418571 -182.265625 132.4375 C-181.33038475 129.96705406 -180.58440046 127.4637197 -179.8125 124.9375 C-173.54520307 106.1356092 -163.31690069 87.34101495 -150.4375 72.25 C-149.51147343 71.14082977 -148.58571668 70.03143424 -147.66015625 68.921875 C-127.73583571 45.20077593 -103.05898395 26.30297928 -74.4375 14.25 C-73.75300781 13.95883301 -73.06851563 13.66766602 -72.36328125 13.36767578 C-49.07492877 3.64828823 -25.04071489 0.01783311 0 0 Z M-121.4375 49.25 C-122.81231713 50.41688216 -124.18729194 51.58357859 -125.5625 52.75 C-156.89888388 80.53886872 -178.0823934 118.81565114 -184.4375 160.25 C-184.61120117 161.28624512 -184.78490234 162.32249023 -184.96386719 163.39013672 C-186.37206454 172.27734302 -186.84337728 181.00956411 -186.8125 190 C-186.81062683 190.71443268 -186.80875366 191.42886536 -186.80682373 192.16494751 C-186.57683968 233.06528872 -173.22006085 271.71069274 -148.4375 304.25 C-147.51710938 305.46236328 -147.51710938 305.46236328 -146.578125 306.69921875 C-129.49625354 328.61624805 -109.09354873 344.78070786 -84.5625 357.75 C-83.17333374 358.48863281 -83.17333374 358.48863281 -81.75610352 359.2421875 C-76.02035525 362.19336934 -70.29387834 364.42412644 -64.14428711 366.36352539 C-61.4375 367.25 -61.4375 367.25 -57.80859375 368.83984375 C-53.46146038 370.65828541 -49.07920651 371.73803037 -44.5 372.8125 C-43.24606445 373.12477539 -43.24606445 373.12477539 -41.96679688 373.44335938 C-27.99820269 376.76623898 -13.98958367 377.68993657 0.3125 377.6875 C1.10876801 377.68889984 1.90503601 377.69029968 2.72543335 377.69174194 C23.45529755 377.66206038 44.12855997 374.74148618 63.5625 367.25 C64.29694336 366.96785645 65.03138672 366.68571289 65.78808594 366.39501953 C87.22620167 358.01756802 106.04410903 347.24700336 123.5625 332.25 C124.37074219 331.56550781 125.17898438 330.88101562 126.01171875 330.17578125 C156.19905045 303.87731676 176.16118605 268.28800943 184.5625 229.25 C184.81999023 228.14237305 185.07748047 227.03474609 185.34277344 225.89355469 C187.80405187 214.37734705 188.11945395 203.12445196 188.0625 191.375 C188.06040527 190.38377136 188.05831055 189.39254272 188.05615234 188.37127686 C187.92336373 157.85264268 181.16713567 130.16294497 166.5625 103.25 C166.06105469 102.27160156 165.55960937 101.29320312 165.04296875 100.28515625 C144.75015175 61.32071149 109.98310204 34.67627472 70.5625 17.25 C68.96728516 16.54037109 68.96728516 16.54037109 67.33984375 15.81640625 C57.42197315 11.70848823 47.02941558 9.47144521 36.5625 7.25 C35.44657471 6.99790771 35.44657471 6.99790771 34.30810547 6.74072266 C-19.64239514 -5.22485608 -80.69090965 12.84896015 -121.4375 49.25 Z " fill="#181818" transform="translate(232.4375,64.75)"/>
<path d="M0 0 C2.0703125 1.1015625 2.0703125 1.1015625 4.125 2.625 C7.46719445 4.99169491 10.8106137 7.03428244 14.4375 8.9375 C18.94982791 11.34657133 23.02967822 14.07420074 27.17578125 17.05859375 C30.68381072 19.47006076 34.28950508 21.68297241 37.9375 23.875 C38.58879883 24.26856689 39.24009766 24.66213379 39.91113281 25.06762695 C42.58531769 26.66115287 45.03705769 28.01235256 48 29 C48 29.66 48 30.32 48 31 C48.63679688 31.2165625 49.27359375 31.433125 49.9296875 31.65625 C54.24341433 33.54419152 58.13041722 36.0186139 62.125 38.5 C62.93582031 38.99886719 63.74664062 39.49773437 64.58203125 40.01171875 C67.7529823 41.96670179 70.9001061 43.93340407 74 46 C74 46.99 74 47.98 74 49 C23.84 49 -26.32 49 -78 49 C-76.75654415 44.02617662 -74.53168998 42.94295045 -70.4375 40.375 C-69.77218262 39.94550049 -69.10686523 39.51600098 -68.42138672 39.07348633 C-66.2888742 37.70272782 -64.14541397 36.35045932 -62 35 C-60.58710443 34.10047267 -59.17434244 33.20073548 -57.76171875 32.30078125 C-51.74572765 28.48879393 -45.71481183 24.7800125 -39.44921875 21.390625 C-29.84548602 15.93778791 -20.60356203 9.78879109 -11.34106445 3.78027344 C-4.85622252 -0.41789452 -4.85622252 -0.41789452 0 0 Z " fill="#FAFAFA" transform="translate(235,146)"/>
<path d="M0 0 C3.26899152 0.29675283 4.50662985 1.18802415 7.0859375 3.18359375 C11.14857711 6.17522822 15.30297657 8.8765962 19.6484375 11.43359375 C25.29696278 14.77379651 30.86474722 18.21905472 36.3984375 21.74609375 C44.43476704 26.85951428 52.55985028 31.81883213 60.7109375 36.74609375 C70.41817024 42.61484663 80.06112367 48.57218266 89.6328125 54.66015625 C93.36762362 57.03510409 97.12646602 59.36824648 100.8984375 61.68359375 C101.90648437 62.3075 102.91453125 62.93140625 103.953125 63.57421875 C105.70933546 64.63889025 107.48416769 65.67383811 109.28125 66.66796875 C111.5234375 67.93359375 111.5234375 67.93359375 114.7109375 70.24609375 C114.7109375 71.89609375 114.7109375 73.54609375 114.7109375 75.24609375 C106.4609375 75.24609375 98.2109375 75.24609375 89.7109375 75.24609375 C89.7109375 105.27609375 89.7109375 135.30609375 89.7109375 166.24609375 C87.7309375 166.24609375 85.7509375 166.24609375 83.7109375 166.24609375 C83.3809375 132.25609375 83.0509375 98.26609375 82.7109375 63.24609375 C27.9309375 62.91609375 -26.8490625 62.58609375 -83.2890625 62.24609375 C-83.2890625 96.56609375 -83.2890625 130.88609375 -83.2890625 166.24609375 C-84.9390625 166.57609375 -86.5890625 166.90609375 -88.2890625 167.24609375 C-88.6190625 137.21609375 -88.9490625 107.18609375 -89.2890625 76.24609375 C-97.2090625 75.91609375 -105.1290625 75.58609375 -113.2890625 75.24609375 C-113.7840625 72.77109375 -113.7840625 72.77109375 -114.2890625 70.24609375 C-110.07456923 67.48021914 -105.85221333 64.72653063 -101.6171875 61.9921875 C-100.90208008 61.52997803 -100.18697266 61.06776855 -99.45019531 60.59155273 C-96.54750669 58.78442248 -93.56967505 57.1384058 -90.5546875 55.52734375 C-87.5766264 53.84319885 -84.71854765 51.98533434 -81.8515625 50.12109375 C-76.4254598 46.59312367 -70.94434302 43.17092401 -65.4140625 39.80859375 C-59.85091692 36.42519771 -54.3032947 33.02116998 -48.7890625 29.55859375 C-40.45766247 24.32842776 -32.0739211 19.18352581 -23.6875 14.04223633 C-0.98798477 0.10621679 -0.98798477 0.10621679 0 0 Z M-8.2890625 10.74609375 C-9.44376748 11.48605632 -10.5987225 12.22562882 -11.75390625 12.96484375 C-12.34026855 13.34511719 -12.92663086 13.72539062 -13.53076172 14.1171875 C-16.27318067 15.8779408 -19.06513644 17.55613137 -21.8515625 19.24609375 C-27.02026028 22.41821874 -32.05885209 25.74271385 -37.046875 29.19140625 C-39.80282708 30.93794938 -42.56096474 32.4948836 -45.43359375 34.03515625 C-51.41450157 37.26039368 -57.13478104 40.82740463 -62.8515625 44.49609375 C-63.83447266 45.12 -64.81738281 45.74390625 -65.83007812 46.38671875 C-70.82613882 49.47734781 -70.82613882 49.47734781 -75.2890625 53.24609375 C-75.2890625 54.23609375 -75.2890625 55.22609375 -75.2890625 56.24609375 C-25.1290625 56.24609375 25.0309375 56.24609375 76.7109375 56.24609375 C76.7109375 55.25609375 76.7109375 54.26609375 76.7109375 53.24609375 C74.24091039 51.47750638 71.81856023 49.91070079 69.2109375 48.37109375 C67.8046875 47.51953125 66.3984375 46.66796875 64.9921875 45.81640625 C63.93837891 45.18847168 63.93837891 45.18847168 62.86328125 44.54785156 C59.99026929 42.81022681 57.17221063 40.98984531 54.35742188 39.15966797 C52.7332924 38.08436692 52.7332924 38.08436692 50.7109375 38.24609375 C50.7109375 37.58609375 50.7109375 36.92609375 50.7109375 36.24609375 C50.1025 35.92898437 49.4940625 35.611875 48.8671875 35.28515625 C38.53159567 29.78297354 28.56988467 23.59420852 18.8984375 16.99609375 C14.73007642 14.16612327 10.34884674 11.80032072 5.8984375 9.4453125 C3.7109375 8.24609375 3.7109375 8.24609375 2.7109375 7.24609375 C-1.95004873 6.64682409 -4.43440603 8.24056705 -8.2890625 10.74609375 Z " fill="#1B1B1B" transform="translate(232.2890625,138.75390625)"/>
<path d="M0 0 C2.1590538 2.34601098 3.12745733 4.00401847 3.2578125 7.20703125 C3.22171875 7.97015625 3.185625 8.73328125 3.1484375 9.51953125 C1.94832031 9.26558594 0.74820313 9.01164062 -0.48828125 8.75 C-22.89549329 4.08467554 -44.99717425 1.77096935 -67.8515625 0.51953125 C-68.85461426 0.46023438 -69.85766602 0.4009375 -70.89111328 0.33984375 C-103.20897615 -1.54831517 -135.61521798 -0.76891694 -167.89434814 1.38995361 C-169.6790903 1.50811271 -171.46428312 1.61941379 -173.24951172 1.72998047 C-190.99669481 2.8518468 -209.61953715 4.93491172 -226.8515625 9.51953125 C-227.29997129 5.66321569 -227.24397077 4.0345671 -224.8515625 0.89453125 C-208.84327511 -11.77869627 -182.04079161 -11.82389312 -162.4140625 -13.16796875 C-161.51658295 -13.23084076 -160.61910339 -13.29371277 -159.69442749 -13.35848999 C-27.93197016 -22.33379049 -27.93197016 -22.33379049 0 0 Z " fill="#070707" transform="translate(345.8515625,317.48046875)"/>
<path d="M0 0 C4.14425088 -0.07465394 8.28813624 -0.12883721 12.43286133 -0.16479492 C13.84015734 -0.17979877 15.24740724 -0.20020863 16.65454102 -0.22631836 C18.68777907 -0.26307665 20.72039432 -0.27980984 22.75390625 -0.29296875 C23.97408447 -0.3086792 25.1942627 -0.32438965 26.45141602 -0.34057617 C32.60722926 0.25022943 37.47989087 2.73100805 42 7 C45.87807563 12.44620791 45.80842316 17.51541423 45 24 C43.94122151 26.68033114 42.65192114 28.59720561 41 31 C40.0994739 32.85656933 40.0994739 32.85656933 40 35 C40.99798372 37.62607484 40.99798372 37.62607484 42.625 40.1875 C43.13289063 41.06792969 43.64078125 41.94835937 44.1640625 42.85546875 C46.09130547 45.55330127 46.09130547 45.55330127 51 46 C51 49.96 51 53.92 51 58 C43.41 58 35.82 58 28 58 C28 54.04 28 50.08 28 46 C29.32 46 30.64 46 32 46 C31.34 44.88625 30.68 43.7725 30 42.625 C28 39.25 28 39.25 28 37 C24.37 37 20.74 37 17 37 C17 39.97 17 42.94 17 46 C18.98 46 20.96 46 23 46 C23 49.96 23 53.92 23 58 C15.41 58 7.82 58 0 58 C0 54.37 0 50.74 0 47 C2.475 46.505 2.475 46.505 5 46 C5.33 34.78 5.66 23.56 6 12 C4.02 12 2.04 12 0 12 C0 8.04 0 4.08 0 0 Z " fill="#060606" transform="translate(203,224)"/>
<path d="M0 0 C0 -0.66 0 -1.32 0 -2 C3.96 -2 7.92 -2 12 -2 C12 3.94 12 9.88 12 16 C-0.05357143 16.66964286 -0.05357143 16.66964286 -3.625 13.5625 C-4.40875 12.716875 -5.1925 11.87125 -6 11 C-9.18423061 9.40788469 -12.53417863 9.61018369 -16 10 C-18.10938785 11.02421261 -18.10938785 11.02421261 -19 13 C-19.03984909 14.66619021 -19.04362934 16.33390449 -19 18 C-18.42894531 18.17015625 -17.85789062 18.3403125 -17.26953125 18.515625 C-15.53220804 19.03488854 -13.79669441 19.56022472 -12.0625 20.08984375 C-9.94686054 20.71859884 -7.82077935 21.31288284 -5.6875 21.87890625 C1.73581449 23.93234625 7.97840997 26.06302917 12.15234375 32.8828125 C13.7322734 36.82899623 13.52761183 40.83186657 13 45 C10.64327908 49.89472807 7.67187656 52.31615602 3 55 C-0.45731264 56.15243755 -3.23259213 56.16824837 -6.875 56.1875 C-8.08929688 56.20167969 -9.30359375 56.21585937 -10.5546875 56.23046875 C-13.84344421 56.01047255 -16.05365948 55.41715618 -19 54 C-19 54.66 -19 55.32 -19 56 C-22.96 56 -26.92 56 -31 56 C-31 50.39 -31 44.78 -31 39 C-18.00022143 38.47475642 -18.00022143 38.47475642 -13 43 C-8.52745503 44.49084832 -4.47254497 44.49084832 0 43 C0.33 41.02 0.66 39.04 1 37 C-2.5117521 35.44528256 -5.97363325 34.51286178 -9.72387695 33.70751953 C-18.32328706 31.82379136 -24.64371227 29.61489564 -30 22.25 C-31.57429282 17.13354833 -32.27783353 11.99297008 -30.12109375 6.94140625 C-23.45645129 -3.28651039 -10.77945764 -5.08464983 0 0 Z " fill="#080808" transform="translate(290,226)"/>
<path d="M0 0 C7.92 0 15.84 0 24 0 C24 3.96 24 7.92 24 12 C22.02 12 20.04 12 18 12 C18.02618408 12.95777344 18.05236816 13.91554687 18.0793457 14.90234375 C18.17049127 18.48787674 18.22747921 22.07330942 18.2746582 25.65966797 C18.29965732 27.20574212 18.33366902 28.75169982 18.37719727 30.29736328 C18.80275704 45.80776534 18.80275704 45.80776534 14.26586914 51.66455078 C10.1656648 55.99012797 5.83542994 57.87304326 -0.2421875 58.07421875 C-6.08877943 57.72972259 -8.9667125 56.22534881 -13 52 C-15.83041998 48.09897199 -16.34540603 45.47731619 -16.1875 40.6875 C-16.16042969 39.61886719 -16.13335937 38.55023438 -16.10546875 37.44921875 C-16.07066406 36.64097656 -16.03585938 35.83273437 -16 35 C-12.37 35 -8.74 35 -5 35 C-4.77213542 36.98567708 -4.54427083 38.97135417 -4.31640625 40.95703125 C-4.02829265 43.19396393 -4.02829265 43.19396393 -3 46 C-0.36 45.67 2.28 45.34 5 45 C5.33 34.11 5.66 23.22 6 12 C4.02 12 2.04 12 0 12 C0 8.04 0 4.08 0 0 Z " fill="#0A0A0A" transform="translate(174,224)"/>
<path d="M0 0 C3.23861303 1.44424635 5.61969163 3.25772247 8.25 5.625 C8.95640625 6.25664062 9.6628125 6.88828125 10.390625 7.5390625 C10.92171875 8.02117187 11.4528125 8.50328125 12 9 C10.98918413 13.63911285 8.96413863 17.69156687 7 22 C12.445 18.535 12.445 18.535 18 15 C22 18 26 21 30 24 C29.34 25.65 28.68 27.3 28 29 C26.68 28.67 25.36 28.34 24 28 C23.61521484 28.86818359 23.61521484 28.86818359 23.22265625 29.75390625 C21.48716574 32.94210767 19.05484287 35.29192108 16.55859375 37.90234375 C14.78747576 40.28602886 14.37045385 42.0820416 14 45 C12.265625 45.71484375 12.265625 45.71484375 10 46 C7.859375 44.56640625 7.859375 44.56640625 5.75 42.5625 C5.04359375 41.90378906 4.3371875 41.24507813 3.609375 40.56640625 C3.07828125 40.04949219 2.5471875 39.53257812 2 39 C2.85546875 37.0546875 2.85546875 37.0546875 4 35 C4.763125 34.71125 5.52625 34.4225 6.3125 34.125 C10.08009308 32.54786801 11.54270842 30.22958322 14 27 C9.8177768 28.87249539 6.67888967 31.6801953 3.21875 34.63671875 C1 36 1 36 -1.140625 35.8359375 C-3.6508761 34.70737923 -5.17106365 33.02489382 -7 31 C-5.1668733 25.00067626 -2.92678249 19.55079437 0 14 C-3.84616474 18.08806189 -6.63589551 21.40717158 -8 27 C-13.30479934 27 -14.18982627 25.4637943 -18 22 C-17.3125 20.125 -17.3125 20.125 -16 18 C-15.23429687 17.72542969 -14.46859375 17.45085937 -13.6796875 17.16796875 C-10.37525688 15.72769943 -9.00967879 14.02215813 -6.8125 11.1875 C-6.13832031 10.33542969 -5.46414062 9.48335938 -4.76953125 8.60546875 C-3.0787052 6.11588602 -2.03509438 3.8109435 -1 1 C-0.67 0.67 -0.34 0.34 0 0 Z " fill="#0B0B0B" transform="translate(116,351)"/>
<path d="M0 0 C0.6875 2.0625 0.6875 2.0625 1 4 C0.34 4 -0.32 4 -1 4 C-0.5831897 4.83192871 -0.5831897 4.83192871 -0.15795898 5.68066406 C1.09457273 8.19783433 2.32864647 10.72362531 3.5625 13.25 C4.00013672 14.12269531 4.43777344 14.99539063 4.88867188 15.89453125 C5.50258789 17.16103516 5.50258789 17.16103516 6.12890625 18.453125 C6.70233765 19.61569824 6.70233765 19.61569824 7.28735352 20.80175781 C8.11262041 23.34739095 7.98919026 24.53822336 7 27 C4.56870781 28.89100503 3.29677294 29.02838335 0.22265625 28.734375 C-3.25325818 27.94228783 -5.78942811 26.7060595 -8.875 24.9375 C-9.84179688 24.38964844 -10.80859375 23.84179688 -11.8046875 23.27734375 C-12.52914063 22.85582031 -13.25359375 22.43429687 -14 22 C-12.06273348 26.58826282 -10.51135667 28.80528594 -6 31 C-7 34 -7 34 -8.7421875 35.16796875 C-9.44601562 35.50441406 -10.14984375 35.84085937 -10.875 36.1875 C-11.57367188 36.53167969 -12.27234375 36.87585938 -12.9921875 37.23046875 C-15 38 -15 38 -18 38 C-19 33 -19 33 -19.3125 30.75 C-20.18049116 27.27803535 -21.63494343 24.2178244 -23.16015625 20.98828125 C-24 19 -24 19 -24 17 C-25.32 17 -26.64 17 -28 17 C-28.33 15.35 -28.66 13.7 -29 12 C-23.12356148 8.04239855 -23.12356148 8.04239855 -18.6875 7.875 C-13.59404492 9.42893545 -9.42804462 12.08657829 -5 15 C-5.66 12.69 -6.32 10.38 -7 8 C-7.99 8.33 -8.98 8.66 -10 9 C-10.66 7.35 -11.32 5.7 -12 4 C-10.56988027 3.13353333 -9.13059381 2.28218171 -7.6875 1.4375 C-6.88699219 0.96183594 -6.08648437 0.48617188 -5.26171875 -0.00390625 C-3 -1 -3 -1 0 0 Z " fill="#0B0B0B" transform="translate(315,380)"/>
<path d="M0 0 C5.76044212 0.60636233 10.72014369 2.75658279 16 5 C15.03644647 21.70842825 15.03644647 21.70842825 14 30 C14.66 30 15.32 30 16 30 C15.67 31.65 15.34 33.3 15 35 C9.03435204 34.49228528 4.36190101 32.61407872 -1 30 C-0.67 28.35 -0.34 26.7 0 25 C1.65 25.33 3.3 25.66 5 26 C5 24.68 5 23.36 5 22 C4.071875 21.855625 3.14375 21.71125 2.1875 21.5625 C-1 21 -1 21 -4 20 C-3.62875 20.763125 -3.2575 21.52625 -2.875 22.3125 C-2.58625 23.199375 -2.2975 24.08625 -2 25 C-2.66 25.99 -3.32 26.98 -4 28 C-8 26.66666667 -12 25.33333333 -16 24 C-15.8125 21.625 -15.8125 21.625 -15 19 C-13.88431641 18.58621094 -13.88431641 18.58621094 -12.74609375 18.1640625 C-9.22204306 16.67022594 -7.65632001 14.70541316 -5.25 11.75 C-4.08210937 10.35007812 -4.08210937 10.35007812 -2.890625 8.921875 C-0.88631478 5.82430466 -0.32321554 3.64156173 0 0 Z " fill="#0E0E0E" transform="translate(163,386)"/>
<path d="M0 0 C3.44451362 0.12301834 4.31336426 1.32760809 6.75 3.875 C9 7 9 7 9 10 C5.29922713 12.93884905 2.62735342 13.21033425 -2 13 C-2.33 13.33 -2.66 13.66 -3 14 C-2.78111785 18.91041909 -2.78111785 18.91041909 -0.25 22.9375 C2.35402628 24.16717908 4.15312226 24.23723981 7 24 C7.66 22.68 8.32 21.36 9 20 C7.68 19.67 6.36 19.34 5 19 C5 17.68 5 16.36 5 15 C6.94125344 13.26526288 8.94272868 11.5954349 11 10 C11.33 9.34 11.66 8.68 12 8 C12.99 8 13.98 8 15 8 C15.4125 8.86625 15.825 9.7325 16.25 10.625 C17.97832149 13.95819144 19.87076408 16.91627901 22 20 C17.375 24.875 17.375 24.875 14 26 C13.360625 26.969375 12.72125 27.93875 12.0625 28.9375 C9.26359833 33.09344491 9.26359833 33.09344491 6 34 C1.2477844 34.45989183 -0.99699991 34.52078851 -5.25 32.3125 C-9.46434968 28.76861504 -12.52473806 25.56446451 -13.2734375 19.94921875 C-13.45805944 15.83783009 -13.41760832 12.86569628 -10.875 9.5 C-7.75217356 6.78449875 -6.07703716 6.18962964 -2 6 C-1.855625 5.195625 -1.71125 4.39125 -1.5625 3.5625 C-1 1 -1 1 0 0 Z " fill="#0B0B0B" transform="translate(344,353)"/>
<path d="M0 0 C1.5094588 3.09965403 3.00590667 6.20541403 4.5 9.3125 C4.92925781 10.19357422 5.35851562 11.07464844 5.80078125 11.98242188 C6.40986328 13.25375977 6.40986328 13.25375977 7.03125 14.55078125 C7.40830078 15.33106689 7.78535156 16.11135254 8.17382812 16.9152832 C9 19 9 19 9 22 C10.32 22 11.64 22 13 22 C13 23.65 13 25.3 13 27 C10.0384304 28.4807848 7.16493705 28.35314037 3.875 28.5625 C2.59367187 28.64628906 1.31234375 28.73007812 -0.0078125 28.81640625 C-1.48894531 28.90728516 -1.48894531 28.90728516 -3 29 C-3 27.35 -3 25.7 -3 24 C-2.01 24 -1.02 24 0 24 C-0.33 23.34 -0.66 22.68 -1 22 C-3.97 22 -6.94 22 -10 22 C-10 22.99 -10 23.98 -10 25 C-8.68 25 -7.36 25 -6 25 C-6 26.65 -6 28.3 -6 30 C-10.29 30.66 -14.58 31.32 -19 32 C-19 30.02 -19 28.04 -19 26 C-18.34 26 -17.68 26 -17 26 C-16.8312433 23.125109 -16.66492885 20.25011104 -16.5 17.375 C-16.45230469 16.56675781 -16.40460938 15.75851562 -16.35546875 14.92578125 C-16.10986222 10.61012369 -15.94401342 6.32496331 -16 2 C-14.08404518 1.66259915 -12.16720278 1.33023588 -10.25 1 C-9.18265625 0.814375 -8.1153125 0.62875 -7.015625 0.4375 C-4 0 -4 0 0 0 Z " fill="#0D0D0D" transform="translate(263,398)"/>
<path d="M0 0 C2.97549227 1.67008092 5.48295784 3.70619883 8 6 C8.82371094 6.69609375 8.82371094 6.69609375 9.6640625 7.40625 C11.93618067 10.11684712 12.00250324 12.91546621 12.26953125 16.3515625 C11.80871532 20.87957985 9.3013537 23.98947984 6 27 C1.76656507 28.41114498 -1.88143144 28.91699236 -6.09375 27.09375 C-10.60094718 24.47015761 -13.76934254 21.83309116 -16 17 C-16.85551601 12.89502404 -16.94717994 9.55071838 -14.71875 5.90234375 C-10.47317083 0.83470391 -6.82806179 -1.29147228 0 0 Z " fill="#101010" transform="translate(98,154)"/>
<path d="M0 0 C4.71108835 3.04835129 8.04304403 6.67883882 10 12 C10.8022495 16.22408918 10.28891041 19.38750992 8.4375 23.3125 C4.8108589 27.31110429 1.20144849 28.64057984 -4.0625 29.5 C-8.77802258 28.69735786 -11.38625551 26.00721923 -14.265625 22.42578125 C-16.87844311 18.47895389 -17.67860283 14.86736631 -17.453125 10.1484375 C-16.64307711 6.30769321 -14.89402019 4.63677395 -12 2 C-8.05843816 -0.28195685 -4.49705491 -0.5522699 0 0 Z " fill="#101010" transform="translate(142,110)"/>
<path d="M0 0 C3.3737101 2.05056357 6.22043124 4.44086248 8 8 C8.50921186 14.11054235 8.08852244 17.13797331 4 22 C1.5 24.25 1.5 24.25 -1 26 C-1.598125 26.433125 -2.19625 26.86625 -2.8125 27.3125 C-6.31452551 28.41313659 -9.55472145 28.07536527 -13 27 C-17.10364046 23.61003614 -19.77263007 20.67685324 -20.5 15.3125 C-20.37266603 10.00365274 -17.56358506 6.70851555 -14 3 C-9.89120404 -0.55355326 -5.23215132 -1.13393041 0 0 Z " fill="#0E0E0E" transform="translate(349,124)"/>
<path d="M0 0 C3.6654183 -1.03305109 6.37714855 -1.27776918 10 0 C13.94889319 4.2842436 16.44576477 9.81749373 19 15 C19.33 11.37 19.66 7.74 20 4 C19.01 4 18.02 4 17 4 C17 2.68 17 1.36 17 0 C20.96 0 24.92 0 29 0 C29 1.32 29 2.64 29 4 C28.01 4 27.02 4 26 4 C26 11.92 26 19.84 26 28 C19 28 19 28 17.37915039 26.65478516 C17.03875732 26.03909668 16.69836426 25.4234082 16.34765625 24.7890625 C15.96416016 24.12132813 15.58066406 23.45359375 15.18554688 22.765625 C14.81494141 22.05921875 14.44433594 21.3528125 14.0625 20.625 C13.66482422 19.92632812 13.26714844 19.22765625 12.85742188 18.5078125 C10 13.39297816 10 13.39297816 10 11 C9.34 11 8.68 11 8 11 C8.33 14.96 8.66 18.92 9 23 C9.99 23.33 10.98 23.66 12 24 C12 25.32 12 26.64 12 28 C8.04 28 4.08 28 0 28 C0 26.68 0 25.36 0 24 C0.99 24 1.98 24 3 24 C3 17.4 3 10.8 3 4 C2.01 4 1.02 4 0 4 C0 2.68 0 1.36 0 0 Z " fill="#121212" transform="translate(218,81)"/>
<path d="M0 0 C10.28364689 9.67872648 10.28364689 9.67872648 11.6875 16.1875 C10.72552939 20.12283433 9.23333187 21.59219967 6 24 C3.66993089 24.35543427 1.33672984 24.6913753 -1 25 C-2.47462432 26.61116531 -2.47462432 26.61116531 -3 29 C-3.37125 30.2375 -3.7425 31.475 -4.125 32.75 C-4.41375 33.8225 -4.7025 34.895 -5 36 C-7.46800047 34.84826645 -9.04783565 33.95216435 -11 32 C-10.7084966 29.27930162 -9.68917117 27.39077549 -8.4375 24.9375 C-6.78022357 22.09595312 -6.78022357 22.09595312 -7 19 C-8.65 19.33 -10.3 19.66 -12 20 C-12 21.65 -12 23.3 -12 25 C-16 25 -16 25 -17.51953125 23.57421875 C-17.94621094 22.95160156 -18.37289063 22.32898438 -18.8125 21.6875 C-19.25207031 21.07261719 -19.69164062 20.45773438 -20.14453125 19.82421875 C-21 18 -21 18 -20 15 C-18.95585937 15.12955078 -18.95585937 15.12955078 -17.890625 15.26171875 C-13.90452965 14.90081552 -11.92282726 13.20775013 -8.75 10.8125 C-7.16445313 9.64654297 -7.16445313 9.64654297 -5.546875 8.45703125 C-2.79071712 5.7980998 -2.43248931 4.68251926 -2 1 C-1.34 0.67 -0.68 0.34 0 0 Z " fill="#111111" transform="translate(367,143)"/>
<path d="M0 0 C2.86087452 3.72780619 2.28664683 6.57206041 1.84765625 11.12890625 C1.77460233 13.8456932 1.77460233 13.8456932 4.05859375 15.40234375 C4.71988281 15.82644531 5.38117188 16.25054687 6.0625 16.6875 C6.0625 17.3475 6.0625 18.0075 6.0625 18.6875 C7.3825 18.6875 8.7025 18.6875 10.0625 18.6875 C9.7325 20.0075 9.4025 21.3275 9.0625 22.6875 C6.5 23.625 6.5 23.625 3.0625 23.6875 C0.98141708 22.04159177 -0.68293841 20.25524994 -2.421875 18.25390625 C-2.92203125 17.73699219 -3.4221875 17.22007813 -3.9375 16.6875 C-4.5975 16.6875 -5.2575 16.6875 -5.9375 16.6875 C-5.9375 18.6675 -5.9375 20.6475 -5.9375 22.6875 C-4.6175 22.6875 -3.2975 22.6875 -1.9375 22.6875 C-1.9375 24.0075 -1.9375 25.3275 -1.9375 26.6875 C-3.20589526 27.19365298 -4.47733102 27.69219099 -5.75 28.1875 C-6.45769531 28.4659375 -7.16539062 28.744375 -7.89453125 29.03125 C-9.9375 29.6875 -9.9375 29.6875 -12.9375 29.6875 C-12.855 28.594375 -12.7725 27.50125 -12.6875 26.375 C-12.65279343 21.51608075 -14.25257087 17.56116234 -16.0625 13.10546875 C-16.9375 10.6875 -16.9375 10.6875 -16.9375 7.6875 C-18.5875 7.3575 -20.2375 7.0275 -21.9375 6.6875 C-21.9375 5.6975 -21.9375 4.7075 -21.9375 3.6875 C-7.05808268 -3.15361141 -7.05808268 -3.15361141 0 0 Z " fill="#101010" transform="translate(180.9375,92.3125)"/>
<path d="M0 0 C1.79158489 -0.02696365 3.58328473 -0.04637917 5.375 -0.0625 C6.37273437 -0.07410156 7.37046875 -0.08570313 8.3984375 -0.09765625 C11 0 11 0 13 1 C13 2.65 13 4.3 13 6 C12.01 6 11.02 6 10 6 C10.020625 7.299375 10.04125 8.59875 10.0625 9.9375 C10.07004972 14.69382325 9.59887117 19.28388953 9 24 C10.65 24 12.3 24 14 24 C14 22.35 14 20.7 14 19 C16.31 19.33 18.62 19.66 21 20 C20.67 23.3 20.34 26.6 20 30 C16.91637486 29.85901714 13.83319316 29.71240852 10.75 29.5625 C9.87730469 29.52318359 9.00460938 29.48386719 8.10546875 29.44335938 C7.26113281 29.40146484 6.41679687 29.35957031 5.546875 29.31640625 C4.38430176 29.26141968 4.38430176 29.26141968 3.19824219 29.20532227 C1.0425024 29.00396985 -0.91801475 28.58270703 -3 28 C-3 26.02 -3 24.04 -3 22 C-2.01 22 -1.02 22 0 22 C0.06058594 20.94039063 0.12117187 19.88078125 0.18359375 18.7890625 C0.26800127 17.40102779 0.35264917 16.01300768 0.4375 14.625 C0.49647461 13.57699219 0.49647461 13.57699219 0.55664062 12.5078125 C0.88671875 7.2265625 0.88671875 7.2265625 2 5 C1.34 5 0.68 5 0 5 C0 3.35 0 1.7 0 0 Z " fill="#0E0E0E" transform="translate(202,399)"/>
<path d="M0 0 C0 2.31 0 4.62 0 7 C-3.3 6.67 -6.6 6.34 -10 6 C-10 7.98 -10 9.96 -10 12 C-5.545 11.505 -5.545 11.505 -1 11 C-1 12.65 -1 14.3 -1 16 C-3.64 16 -6.28 16 -9 16 C-8.67 18.64 -8.34 21.28 -8 24 C-4.535 23.505 -4.535 23.505 -1 23 C-0.67 21.68 -0.34 20.36 0 19 C1.32 19 2.64 19 4 19 C4.33 21.64 4.66 24.28 5 27 C2.43850372 27.50567729 -0.12399465 28.00470132 -2.6875 28.5 C-3.40873047 28.64308594 -4.12996094 28.78617188 -4.87304688 28.93359375 C-8.63841359 29.65571887 -12.14473813 30.1824976 -16 30 C-16 28.68 -16 27.36 -16 26 C-15.34 26 -14.68 26 -14 26 C-14.99 19.73 -15.98 13.46 -17 7 C-17.99 7 -18.98 7 -20 7 C-19.67 5.35 -19.34 3.7 -19 2 C-12.6221448 0.82706111 -6.49678438 -0.29530838 0 0 Z " fill="#141414" transform="translate(210,83)"/>
<path d="M0 0 C0.99 0 1.98 0 3 0 C4.3410005 2.4335567 5.67294856 4.87135301 7 7.3125 C7.3815625 8.00279297 7.763125 8.69308594 8.15625 9.40429688 C11 14.66015625 11 14.66015625 11 18 C8.64561267 19.42944945 7.51967567 20.08661261 4.75 19.625 C3.88375 19.315625 3.88375 19.315625 3 19 C3.185625 18.2575 3.37125 17.515 3.5625 16.75 C3.99203108 14.05009037 3.85122974 12.55368923 3 10 C1.35 10.66 -0.3 11.32 -2 12 C-1.7834375 12.86625 -1.7834375 12.86625 -1.5625 13.75 C-1.04166667 15.83333333 -0.52083333 17.91666667 0 20 C-1.32 20.33 -2.64 20.66 -4 21 C-4.99 19.35 -5.98 17.7 -7 16 C-9.31 16.33 -11.62 16.66 -14 17 C-13.67 17.598125 -13.34 18.19625 -13 18.8125 C-12 21 -12 21 -12 24 C-10.35 24 -8.7 24 -7 24 C-7.3125 25.875 -7.3125 25.875 -8 28 C-11 30 -11 30 -14 30 C-15.34070318 27.39939496 -16.67273354 24.79495084 -18 22.1875 C-18.3815625 21.44951172 -18.763125 20.71152344 -19.15625 19.95117188 C-19.5171875 19.23896484 -19.878125 18.52675781 -20.25 17.79296875 C-20.58515625 17.1383667 -20.9203125 16.48376465 -21.265625 15.80932617 C-22 14 -22 14 -22 11 C-20.98550781 11.06703125 -19.97101563 11.1340625 -18.92578125 11.203125 C-14.48499278 10.97335286 -12.05405539 9.89258482 -8.1875 7.75 C-7.06730469 7.14671875 -5.94710938 6.5434375 -4.79296875 5.921875 C-2.07096832 4.04883414 -1.06408547 3.06348174 0 0 Z " fill="#121212" transform="translate(384,170)"/>
<path d="M0 0 C2.87069081 1.41093477 5.43723274 3.0915563 8 5 C7.38722388 7.96175123 6.74627478 9.38058783 5 12 C4.01 12 3.02 12 2 12 C1.67 10.35 1.34 8.7 1 7 C-1.97 6.505 -1.97 6.505 -5 6 C-4.43387304 9.34659858 -3.53777647 10.67941268 -0.9375 12.8125 C1.62418234 15.26280485 1.97463121 15.86854354 2.6875 19.5625 C1.80378041 23.98109797 0.70901516 25.45005208 -3 28 C-9.20166853 29.01666697 -12.43702592 27.62052052 -17.53125 24.09375 C-18.0159375 23.7328125 -18.500625 23.371875 -19 23 C-18.125 18.25 -18.125 18.25 -17 16 C-15.68 16 -14.36 16 -13 16 C-12.67 17.65 -12.34 19.3 -12 21 C-9.69 21.33 -7.38 21.66 -5 22 C-5.56496951 18.65309201 -6.44266399 17.35577835 -9.0625 15.25 C-11.57706944 12.86267383 -12.47578883 11.36524388 -12.625 7.875 C-12 4 -12 4 -10.5 1.5 C-6.97483711 -0.61509773 -3.93581829 -0.85653599 0 0 Z " fill="#0E0E0E" transform="translate(302,94)"/>
<path d="M0 0 C0.99 0.33 1.98 0.66 3 1 C3.84375 3.4765625 3.84375 3.4765625 4.5 6.625 C6.04131028 13.58863002 6.04131028 13.58863002 9 20 C11.3151033 21.43981816 13.37164271 22.156942 16 23 C15.09970429 24.34444159 14.17911978 25.67531438 13.25 27 C12.73953125 27.7425 12.2290625 28.485 11.703125 29.25 C10.86007813 30.11625 10.86007813 30.11625 10 31 C8.68 31 7.36 31 6 31 C5.835 30.071875 5.67 29.14375 5.5 28.1875 C4.24531165 24.66031422 4.24531165 24.66031422 0.4375 23.25 C-3.32539061 22.08267992 -7.15885305 21.2086562 -11.01953125 20.4296875 C-13 20 -13 20 -16 19 C-15.52797514 14.75177626 -13.03344482 12.80010291 -10 10 C-9.01 10.33 -8.02 10.66 -7 11 C-6.67 11.99 -6.34 12.98 -6 14 C-2.49705129 15.71567661 -2.49705129 15.71567661 1 17 C0.34 14.36 -0.32 11.72 -1 9 C-2.65 8.67 -4.3 8.34 -6 8 C-4.55746343 4.63408134 -2.66735273 2.48952921 0 0 Z " fill="#131313" transform="translate(113,126)"/>
<path d="M0 0 C4.55564061 1.58532809 8.31475769 3.99003081 12.3125 6.625 C12.95767578 7.04523438 13.60285156 7.46546875 14.26757812 7.8984375 C15.84760724 8.92838241 17.42416047 9.96365628 19 11 C18.38722388 13.96175123 17.74627478 15.38058783 16 18 C15.01 18 14.02 18 13 18 C13 16.02 13 14.04 13 12 C12.01 12 11.02 12 10 12 C8.43073155 14.02234595 7.12304252 15.94471226 5.8125 18.125 C5.44447266 18.69476563 5.07644531 19.26453125 4.69726562 19.8515625 C2.32665024 23.72195496 1.58178058 26.48871511 2 31 C-2.13978192 31 -2.98573504 30.67617664 -6.25 28.5 C-7.30960937 27.80390625 -7.30960937 27.80390625 -8.390625 27.09375 C-8.92171875 26.7328125 -9.4528125 26.371875 -10 26 C-9.505 24.515 -9.505 24.515 -9 23 C-7.35 23 -5.7 23 -4 23 C-3.74476563 22.29488281 -3.48953125 21.58976562 -3.2265625 20.86328125 C-1.88449478 17.7303652 -0.23270133 15.04285575 1.625 12.1875 C2.25664062 11.21167969 2.88828125 10.23585938 3.5390625 9.23046875 C4.02117187 8.49441406 4.50328125 7.75835937 5 7 C2.36 7.33 -0.28 7.66 -3 8 C-3 3.73173127 -2.62386487 3.06117568 0 0 Z " fill="#111111" transform="translate(317,103)"/>
<path d="M0 0 C7.29292478 -0.28599705 16.38461352 -0.30769324 23 3 C22.67 5.64 22.34 8.28 22 11 C20.68 11 19.36 11 18 11 C18 9.68 18 8.36 18 7 C16.68 7.33 15.36 7.66 14 8 C12.2030305 14.93116809 10.65975212 21.97925636 13 29 C8.45194365 29.17835515 5.1205746 28.99785435 1 27 C1 25.68 1 24.36 1 23 C1.99 22.67 2.98 22.34 4 22 C5.79506837 16.41534286 6.4873357 10.82818365 7 5 C5.68 5 4.36 5 3 5 C3 5.99 3 6.98 3 8 C1.68 8 0.36 8 -1 8 C-0.67 5.36 -0.34 2.72 0 0 Z " fill="#131313" transform="translate(253,83)"/>
<path d="M0 0 C1.32 0.33 2.64 0.66 4 1 C4.08540039 1.6202002 4.17080078 2.24040039 4.25878906 2.87939453 C4.79635924 5.1125644 4.79635924 5.1125644 6.68652344 6.09326172 C7.40356445 6.36928223 8.12060547 6.64530273 8.859375 6.9296875 C9.64570312 7.25066406 10.43203125 7.57164062 11.2421875 7.90234375 C12.89784743 8.54449223 14.5540872 9.18514792 16.2109375 9.82421875 C21.65372166 12.04920055 24.7021766 14.07639592 28 19 C28.62319003 22.8281673 28.20009864 23.69985205 26 27 C24.68 26.67 23.36 26.34 22 26 C22 24.35 22 22.7 22 21 C19.43873936 19.705826 16.87606642 18.41459216 14.3125 17.125 C13.59126953 16.76019531 12.87003906 16.39539063 12.12695312 16.01953125 C5.69363205 12.27806969 5.69363205 12.27806969 -1.3125 11.375 C-1.869375 11.58125 -2.42625 11.7875 -3 12 C-4.21386936 8.35839192 -3.6674695 7.66834531 -2.0625 4.3125 C-1.49208984 3.10013672 -1.49208984 3.10013672 -0.91015625 1.86328125 C-0.60980469 1.24839844 -0.30945313 0.63351563 0 0 Z " fill="#111111" transform="translate(73,178)"/>
<path d="M0 0 C2.96067403 1.54469949 4.51206967 2.70156319 5.703125 5.87109375 C6.51898162 9.86728034 6.32644952 11.49452977 4.0625 15 C0.71852468 17.18382062 -1.13354264 17.81499993 -5.05859375 17.546875 C-8.81838767 16.48777812 -10.15396038 14.27523158 -12 11 C-12.06874509 7.01278471 -11.58331487 4.8749723 -9.375 1.5625 C-6.02385272 -0.64220216 -3.93750984 -0.55263296 0 0 Z " fill="#0A0A0A" transform="translate(394,250)"/>
<path d="M0 0 C3.6781948 2.31590043 5.67988729 3.6322457 6.6875 7.9375 C5.73126242 12.19710375 4.28226115 14.1280215 1 17 C-2.87041858 18.01167377 -5.99596343 17.57732103 -9.5 15.5625 C-11.72920717 11.75427109 -11.90705593 8.29865635 -11 4 C-7.78091016 0.11815637 -4.94877309 -0.90895832 0 0 Z " fill="#080808" transform="translate(76,250)"/>
<path d="M0 0 C12.33462874 -0.49338515 12.33462874 -0.49338515 15.41796875 1.79296875 C17 4 17 4 17.0625 7.5625 C16 11 16 11 14.125 12.9375 C9.3624775 14.55675765 5.01568944 14.18128998 0 14 C0 9.38 0 4.76 0 0 Z " fill="#F1F1F1" transform="translate(220,236)"/>
<path d="M0 0 C2 2 2 2 2.5 4.6875 C1.80070743 9.32031328 -0.64595288 11.84580543 -4 15 C-6.76250036 16.38125018 -8.94731099 16.19079306 -12 16 C-14 14 -14 14 -14.375 10.6875 C-13.93655405 6.37611487 -13.07070557 4.98771353 -10 2 C-6.37605236 -0.78765203 -4.37718611 -1.53793025 0 0 Z " fill="#F4F4F4" transform="translate(349,130)"/>
<path d="M0 0 C5.192649 0.5192649 8.12338426 2.74838426 11.75 6.375 C12.09490322 10.42761287 12.05163882 11.92254176 9.75 15.375 C6.44978558 16.08218881 4.4994253 15.83534169 1.61328125 14.0625 C-0.77561094 12.27833635 -3.13856513 10.48643487 -5.25 8.375 C-5.4375 5.4375 -5.4375 5.4375 -5.25 2.375 C-3.25 0.375 -3.25 0.375 0 0 Z " fill="#F2F2F2" transform="translate(92.25,160.625)"/>
<path d="M0 0 C4.49938125 0.84893986 6.15238142 2.95610178 8.953125 6.45703125 C10.3125 8.625 10.3125 8.625 10.9375 11.9375 C10.3125 14.625 10.3125 14.625 9.125 16.5 C6.65912889 18.03054069 5.18132808 17.94518171 2.3125 17.625 C-0.63494869 15.4300914 -2.75312643 12.73847207 -4.6875 9.625 C-5.25 5.75 -5.25 5.75 -4.6875 2.625 C-2.6875 0.625 -2.6875 0.625 0 0 Z " fill="#F7F7F7" transform="translate(135.6875,115.375)"/>
<path d="M0 0 C0.66 0 1.32 0 2 0 C2 0.66 2 1.32 2 2 C2.66 2 3.32 2 4 2 C2.50902342 5.7952131 0.24299151 7.61042731 -3 10 C-2.67 10.99 -2.34 11.98 -2 13 C0.01508358 13.73323796 0.01508358 13.73323796 2 14 C0.125 17.875 0.125 17.875 -1 19 C-5.16432738 18.84285557 -7.32987948 18.61857279 -10.4375 15.75 C-12.12115876 12.78676059 -12.54164815 11.3401636 -12 8 C-11.34 7.34 -10.68 6.68 -10 6 C-7.66666667 6 -5.33333333 6 -3 6 C-0.64630193 5.11935073 -0.64630193 5.11935073 1 4 C0.67 2.68 0.34 1.36 0 0 Z " fill="#EEEEEE" transform="translate(352,359)"/>
<path d="M0 0 C0.66 0.33 1.32 0.66 2 1 C-5.26 8.26 -12.52 15.52 -20 23 C-20.66 22.67 -21.32 22.34 -22 22 C-15.18667147 14.04231397 -7.77764703 6.996276 0 0 Z " fill="#2F2F2F" transform="translate(110,108)"/>
<path d="M0 0 C0.99 0 1.98 0 3 0 C3 0.66 3 1.32 3 2 C5.475 2.99 5.475 2.99 8 4 C8 5.32 8 6.64 8 8 C4.625 8.125 4.625 8.125 1 8 C-1 6 -1 6 -1.1875 3.4375 C-1 1 -1 1 0 0 Z " fill="#CCCCCC" transform="translate(322,201)"/>
<path d="M0 0 C0.66 0 1.32 0 2 0 C1.67 0.99 1.34 1.98 1 3 C8.26 3.33 15.52 3.66 23 4 C23 4.66 23 5.32 23 6 C15.41 6 7.82 6 0 6 C-0.33 4.35 -0.66 2.7 -1 1 C-0.67 0.67 -0.34 0.34 0 0 Z " fill="#494949" transform="translate(119,208)"/>
<path d="M0 0 C0.99 0.33 1.98 0.66 3 1 C3.625 3.875 3.625 3.875 4 7 C3.34 7.66 2.68 8.32 2 9 C-0.5 8.875 -0.5 8.875 -3 8 C-4.3125 5.9375 -4.3125 5.9375 -5 4 C-2.6875 1.9375 -2.6875 1.9375 0 0 Z " fill="#E0E0E0" transform="translate(368,153)"/>
<path d="M0 0 C1 1 1 1 1.25 3.4375 C1.1675 4.283125 1.085 5.12875 1 6 C-2 8 -2 8 -5 8 C-6.25664978 5.09399739 -7 3.20395416 -7 0 C-3.86350275 -1.04549908 -3.0051095 -1.00170317 0 0 Z " fill="#E2E2E2" transform="translate(176,97)"/>
<path d="M0 0 C0.33 0.99 0.66 1.98 1 3 C0.01 3 -0.98 3 -2 3 C-2 4.65 -2 6.3 -2 8 C-2.99 8.33 -3.98 8.66 -5 9 C-5 7.35 -5 5.7 -5 4 C-6.32 4 -7.64 4 -9 4 C-9 3.01 -9 2.02 -9 1 C-5.92677456 0.08941469 -3.19902639 -0.08886184 0 0 Z " fill="#D3D3D3" transform="translate(262,419)"/>
<path d="M0 0 C0.763125 0.20625 1.52625 0.4125 2.3125 0.625 C1.9825 2.275 1.6525 3.925 1.3125 5.625 C-1.3275 5.625 -3.9675 5.625 -6.6875 5.625 C-6.375 3.75 -6.375 3.75 -5.6875 1.625 C-2.6875 -0.375 -2.6875 -0.375 0 0 Z " fill="#E1E1E1" transform="translate(141.6875,202.375)"/>
<path d="M0 0 C0.33 0.66 0.66 1.32 1 2 C-0.07518118 4.44332726 -1.19808566 6.76754523 -2.4375 9.125 C-2.77587891 9.78371094 -3.11425781 10.44242187 -3.46289062 11.12109375 C-4.30149926 12.75106547 -5.14984811 14.37601909 -6 16 C-8 13 -8 13 -7.5 10.25 C-5.62096229 6.17875163 -3.05229833 3.24426677 0 0 Z " fill="#CCCCCC" transform="translate(116,364)"/>
<path d="M0 0 C0.33 0.66 0.66 1.32 1 2 C-0.66666667 3.66666667 -2.33333333 5.33333333 -4 7 C-4.495 7.61875 -4.99 8.2375 -5.5 8.875 C-7 10 -7 10 -9.6875 9.6875 C-10.450625 9.460625 -11.21375 9.23375 -12 9 C-8.11327187 5.81994972 -4.10047867 2.89445553 0 0 Z " fill="#D1D1D1" transform="translate(131,376)"/>
<path d="M0 0 C4.455 0.99 4.455 0.99 9 2 C9 3.32 9 4.64 9 6 C5.625 5.25 5.625 5.25 2 4 C1.34 2.68 0.68 1.36 0 0 Z " fill="#CFCFCF" transform="translate(159,406)"/>
<path d="M0 0 C0.33 0 0.66 0 1 0 C1 2.64 1 5.28 1 8 C-1.475 7.01 -1.475 7.01 -4 6 C-2.84826645 3.53199953 -1.95216435 1.95216435 0 0 Z " fill="#CECECE" transform="translate(168,396)"/>
<path d="M0 0 C0.66 0 1.32 0 2 0 C2 0.66 2 1.32 2 2 C2.66 2 3.32 2 4 2 C2.54744301 5.82946843 0.57104439 7.12050295 -3 9 C-3 8.01 -3 7.02 -3 6 C-1.68 5.34 -0.36 4.68 1 4 C0.67 2.68 0.34 1.36 0 0 Z " fill="#C1C1C1" transform="translate(352,359)"/>
<path d="M0 0 C0.66 0 1.32 0 2 0 C2.66 2.31 3.32 4.62 4 7 C2.68 7.33 1.36 7.66 0 8 C0 5.36 0 2.72 0 0 Z " fill="#D7D7D7" transform="translate(255,407)"/>
<path d="M0 0 C0.66 0.33 1.32 0.66 2 1 C1.566875 1.37511719 1.13375 1.75023437 0.6875 2.13671875 C-2.98563624 5.35744333 -2.98563624 5.35744333 -4.375 9.875 C-4.25125 10.57625 -4.1275 11.2775 -4 12 C-4.66 12 -5.32 12 -6 12 C-6.3125 9.3125 -6.3125 9.3125 -6 6 C-3.5625 3.1875 -3.5625 3.1875 -1 1 C-0.67 0.67 -0.34 0.34 0 0 Z " fill="#2F2F2F" transform="translate(125,315)"/>
<path d="M0 0 C0.66 0.33 1.32 0.66 2 1 C-0.64 3.64 -3.28 6.28 -6 9 C-6 6 -6 6 -3.5625 3.375 C-2.716875 2.59125 -1.87125 1.8075 -1 1 C-0.67 0.67 -0.34 0.34 0 0 Z " fill="#D9D9D9" transform="translate(342,130)"/>
</svg>
