<?xml version="1.0" encoding="UTF-8"?>
<svg version="1.1" xmlns="http://www.w3.org/2000/svg" width="861" height="863">
<path d="M0 0 C2.80825211 2.80825211 2.80301134 5.03732872 2.9375 8.9375 C2.63556223 10.61013937 2.30802135 12.27870441 1.9375 13.9375 C2.43378906 13.49019531 2.93007812 13.04289062 3.44140625 12.58203125 C12.91244635 4.15334471 18.97861541 0.27727247 31.9375 0.9375 C35.6417104 1.45197367 39.2860452 2.13245485 42.9375 2.9375 C43.2675 4.2575 43.5975 5.5775 43.9375 6.9375 C37.27443878 13.15868282 30.55718179 19.19699831 23.41015625 24.8671875 C20.75988559 27.08621349 18.34806437 29.46225143 15.9375 31.9375 C18.80204141 32.75362483 21.34916059 33.06584209 24.32421875 33.0703125 C25.17282471 33.07224609 26.02143066 33.07417969 26.89575195 33.07617188 C27.79640381 33.07166016 28.69705566 33.06714844 29.625 33.0625 C30.54949951 33.06056641 31.47399902 33.05863281 32.42651367 33.05664062 C40.95364288 33.00399048 49.43513367 32.56152689 57.9375 31.9375 C58.2675 30.9475 58.5975 29.9575 58.9375 28.9375 C58.11765625 28.70675781 57.2978125 28.47601563 56.453125 28.23828125 C47.71461819 25.59373314 47.71461819 25.59373314 44.125 22.5625 C42.54106833 19.06117735 42.58641261 17.54039972 43.9375 13.9375 C47.24617808 10.26447345 50.66191591 8.13780394 55.64453125 7.69921875 C61.93414241 7.548901 66.10309214 7.4568293 70.9375 11.9375 C76.05385885 17.17013974 77.6670247 21.58360631 78.25 28.8125 C78.10742148 33.39283508 77.15654855 37.90837431 74.9375 41.9375 C64.33478605 51.43130412 50.1112132 50.55740118 36.75 50.625 C34.07596746 50.65411526 31.40210251 50.6885754 28.72819519 50.72749329 C27.07781156 50.74989768 25.42732314 50.76576741 23.77680969 50.77433777 C19.72612697 50.71647116 19.72612697 50.71647116 15.9375 51.9375 C14.94377256 54.91868232 14.78806951 56.960412 14.74462891 60.07641602 C14.72053452 61.64934166 14.72053452 61.64934166 14.69595337 63.25404358 C14.65132223 68.0646187 14.6104098 72.87505686 14.58740234 77.68579102 C14.57088199 80.21615827 14.54364447 82.74647961 14.50537109 85.27661133 C14.45032898 88.93595455 14.42868196 92.59420358 14.4140625 96.25390625 C14.38005844 97.93414635 14.38005844 97.93414635 14.34536743 99.64833069 C14.36733179 107.89974973 15.98869705 114.84611223 21.86659241 120.93624878 C23.79900138 122.65696973 25.79537953 124.21104223 27.875 125.75 C29.25922633 126.81886571 30.64334261 127.88787397 32.02734375 128.95703125 C32.68589355 129.45541504 33.34444336 129.95379883 34.02294922 130.46728516 C36.72985157 132.54595973 39.33296198 134.73240599 41.9375 136.9375 C40.9375 139.9375 40.9375 139.9375 38.25 141.625 C31.88749224 144.09638731 24.08503568 144.00978971 17.53515625 142.31640625 C11.98557488 139.84382049 7.97641918 135.36312421 3.9375 130.9375 C3.75574219 131.96810547 3.75574219 131.96810547 3.5703125 133.01953125 C3.40273437 133.92058594 3.23515625 134.82164062 3.0625 135.75 C2.90007812 136.64332031 2.73765625 137.53664063 2.5703125 138.45703125 C1.9375 140.9375 1.9375 140.9375 -0.0625 143.9375 C-2.8015485 144.24150756 -5.26513633 144.35579599 -8 144.3125 C-8.72896484 144.32410156 -9.45792969 144.33570313 -10.20898438 144.34765625 C-13.1267463 144.3316099 -15.4638001 144.28455512 -18.0234375 142.80078125 C-19.51457824 140.12681835 -19.5864826 137.79142361 -19.75 134.75 C-19.81574219 133.66332031 -19.88148438 132.57664062 -19.94921875 131.45703125 C-20.00529297 130.20986328 -20.00529297 130.20986328 -20.0625 128.9375 C-20.475 129.54078125 -20.8875 130.1440625 -21.3125 130.765625 C-26.12634795 137.42764671 -30.37313229 140.37437743 -38.0625 142.9375 C-40.35101645 143.08369515 -42.64450316 143.15841336 -44.9375 143.1875 C-46.75894531 143.22617187 -46.75894531 143.22617187 -48.6171875 143.265625 C-52.26922783 142.91781164 -54.12135669 142.06228034 -57.0625 139.9375 C-56.59840717 135.36058449 -55.14711564 133.63417578 -51.6875 130.6875 C-50.79160156 129.91921875 -49.89570312 129.1509375 -48.97265625 128.359375 C-48.01230469 127.56015625 -47.05195312 126.7609375 -46.0625 125.9375 C-44.57556641 124.67679688 -44.57556641 124.67679688 -43.05859375 123.390625 C-35.52653354 117.09217785 -35.52653354 117.09217785 -32.0625 115.9375 C-30.90781512 114.11341915 -30.90781512 114.11341915 -30.0625 111.9375 C-29.78316116 111.28969574 -29.50382233 110.64189148 -29.21601868 109.97445679 C-26.9223782 103.76745058 -26.71258817 98.2323152 -26.91796875 91.6640625 C-26.93966629 90.61850189 -26.96136383 89.57294128 -26.98371887 88.49569702 C-27.03270755 86.30212354 -27.08943912 84.10871052 -27.15356445 81.91552734 C-27.25030415 78.55192481 -27.31936009 75.18856189 -27.38476562 71.82421875 C-27.4358752 69.68746052 -27.48855387 67.55073911 -27.54296875 65.4140625 C-27.56393112 64.40783844 -27.58489349 63.40161438 -27.60649109 62.36489868 C-27.63604385 61.43317841 -27.66559662 60.50145813 -27.69604492 59.54150391 C-27.71841721 58.72259674 -27.74078949 57.90368958 -27.76383972 57.05996704 C-27.94807826 54.63967003 -27.94807826 54.63967003 -30.0625 51.9375 C-34.20171599 50.63756142 -38.51565935 50.75511765 -42.8203125 50.69140625 C-44.34896348 50.65844111 -45.87760918 50.62522995 -47.40625 50.59179688 C-49.78869687 50.54468496 -52.17112661 50.50027199 -54.55371094 50.46069336 C-80.33078035 50.01246652 -80.33078035 50.01246652 -87.0625 43.9375 C-91.4317677 38.01784699 -92.65675318 32.18738883 -92.0625 24.9375 C-90.2001029 17.86936643 -87.32324114 12.8740681 -81.0625 8.9375 C-75.34729068 7.03243023 -69.18465895 7.1416904 -63.5625 9.25 C-58.43596101 12.71041382 -58.43596101 12.71041382 -57.1875 16.8125 C-57.03647221 20.58819465 -57.71139353 22.01888508 -60.0625 24.9375 C-62.9714966 26.70166568 -65.44300494 27.26519161 -68.8125 27.5625 C-69.61171875 27.63726562 -70.4109375 27.71203125 -71.234375 27.7890625 C-72.13929687 27.86253906 -72.13929687 27.86253906 -73.0625 27.9375 C-73.0625 29.2575 -73.0625 30.5775 -73.0625 31.9375 C-59.2025 31.9375 -45.3425 31.9375 -31.0625 31.9375 C-33.25868876 27.54512247 -35.81193448 25.53755919 -39.625 22.6875 C-40.89069158 21.71271203 -42.1550119 20.73614105 -43.41796875 19.7578125 C-44.03720215 19.27989258 -44.65643555 18.80197266 -45.29443359 18.30957031 C-47.71129327 16.43401779 -50.09369516 14.52875414 -52.4375 12.5625 C-53.50097656 11.68464844 -53.50097656 11.68464844 -54.5859375 10.7890625 C-56.0625 8.9375 -56.0625 8.9375 -56.4140625 6.3359375 C-56.0625 3.9375 -56.0625 3.9375 -54.0625 1.9375 C-46.92855058 0.38664143 -38.85342896 -0.1560372 -31.8125 1.875 C-27.62502485 5.01560636 -24.3851961 8.91484507 -21.0625 12.9375 C-20.82466797 11.79861328 -20.82466797 11.79861328 -20.58203125 10.63671875 C-18.69804532 2.61156322 -18.69804532 2.61156322 -16 -0.25 C-10.54888954 -1.75775396 -5.36254358 -1.8604743 0 0 Z " fill="#104B91" transform="translate(163.0625,294.0625)"/>
<path d="M0 0 C4.08010315 3.5360894 8.37179487 7.55608975 10.8125 12.4375 C10.99425781 11.06464844 10.99425781 11.06464844 11.1796875 9.6640625 C11.34726562 8.47554688 11.51484375 7.28703125 11.6875 6.0625 C11.84992188 4.87914062 12.01234375 3.69578125 12.1796875 2.4765625 C12.8125 -0.5625 12.8125 -0.5625 14.8125 -2.5625 C17.5247125 -2.78754349 20.10123185 -2.88684995 22.8125 -2.875 C23.54984375 -2.89111328 24.2871875 -2.90722656 25.046875 -2.92382812 C27.1875 -2.92578125 27.1875 -2.92578125 30.8125 -2.5625 C32.91640649 0.59335974 33.08211963 1.51843488 33.19140625 5.1484375 C33.22556641 6.06367188 33.25972656 6.97890625 33.29492188 7.921875 C33.32134766 8.87578125 33.34777344 9.8296875 33.375 10.8125 C33.43528449 12.69542841 33.49897859 14.57825135 33.56640625 16.4609375 C33.59033447 17.29544434 33.6142627 18.12995117 33.63891602 18.98974609 C33.81981306 21.54062337 34.26021349 23.94289001 34.8125 26.4375 C35.02865967 25.86306152 35.24481934 25.28862305 35.4675293 24.69677734 C36.46620111 22.06389117 37.4829051 19.43832131 38.5 16.8125 C38.83966797 15.90886719 39.17933594 15.00523437 39.52929688 14.07421875 C41.62917793 8.69695323 43.54757526 4.39644917 47.8125 0.4375 C52.79323492 -1.34059834 57.20097116 -1.81899314 62.46875 -1.828125 C63.17471313 -1.83003845 63.88067627 -1.8319519 64.60803223 -1.83392334 C66.09041707 -1.83527536 67.57281415 -1.83164816 69.05517578 -1.82324219 C71.30658916 -1.81252813 73.55720479 -1.82317063 75.80859375 -1.8359375 C77.25781424 -1.83461573 78.70703423 -1.83205297 80.15625 -1.828125 C82.10821289 -1.82474121 82.10821289 -1.82474121 84.09960938 -1.82128906 C88.9299909 -1.48461071 93.39120359 -1.14589946 96.73046875 2.57421875 C98.09275162 6.17910445 98.22310983 9.4525725 98.125 13.25 C98.11299561 13.95979004 98.10099121 14.66958008 98.08862305 15.40087891 C97.95325553 20.41811761 97.75999519 24.80060669 95.8125 29.4375 C93.1875 30.9375 93.1875 30.9375 90.8125 31.4375 C86.71732903 28.54679108 84.02555641 25.27106173 81.14453125 21.2421875 C79.79689951 19.3225643 79.79689951 19.3225643 77.8125 17.4375 C75.37379675 16.98832374 75.37379675 16.98832374 72.8125 17.4375 C67.07316775 21.88536656 63.40710368 29.00564922 59.9375 35.25 C59.42864258 36.15782227 58.91978516 37.06564453 58.39550781 38.00097656 C54.9833499 44.16080828 51.68106451 50.37376799 48.5625 56.6875 C48.17980957 57.43620361 47.79711914 58.18490723 47.40283203 58.95629883 C44.51230419 65.00720024 43.40716651 70.37737424 45.64892578 76.85400391 C46.83027401 79.5095752 48.13084384 82.06126557 49.5 84.625 C50.23017334 86.03338135 50.23017334 86.03338135 50.97509766 87.47021484 C54.71599576 94.59128582 58.65233651 101.60450036 62.6875 108.5625 C63.48933716 109.95698364 63.48933716 109.95698364 64.30737305 111.37963867 C66.97966683 115.88225921 69.26500974 119.60117876 73.8125 122.4375 C76.3125 123.1875 76.3125 123.1875 78.8125 122.4375 C81.2815279 120.34832255 83.28385372 118.08803622 85.3203125 115.58203125 C86.08988281 114.64423828 86.08988281 114.64423828 86.875 113.6875 C87.34035156 113.09453125 87.80570313 112.5015625 88.28515625 111.890625 C90.07806821 110.18483664 91.39999134 109.83180249 93.8125 109.4375 C97.60058617 115.36667835 97.99408691 119.97188368 98 126.9375 C98.01224609 127.69675781 98.02449219 128.45601562 98.03710938 129.23828125 C98.05631589 136.54956031 98.05631589 136.54956031 95.8125 139.4375 C93.00962655 141.10566038 90.92040791 141.69092425 87.67407227 141.7121582 C86.46745689 141.72645622 86.46745689 141.72645622 85.23646545 141.74104309 C83.94572365 141.73967598 83.94572365 141.73967598 82.62890625 141.73828125 C81.29012672 141.74470894 81.29012672 141.74470894 79.92430115 141.75126648 C78.03897957 141.75700264 76.15363586 141.7575153 74.26831055 141.75317383 C71.38877483 141.75001511 68.51026803 141.77347732 65.63085938 141.79882812 C63.79687629 141.80110136 61.96289046 141.8018045 60.12890625 141.80078125 C59.27043594 141.809991 58.41196564 141.81920074 57.52748108 141.82868958 C52.80495841 141.7922644 49.63310347 141.52779588 45.8125 138.4375 C44.1875 135.94140625 44.1875 135.94140625 42.8125 133 C42.31492187 131.94425781 41.81734375 130.88851562 41.3046875 129.80078125 C39.04872846 124.71601493 36.88160147 119.60109837 34.8125 114.4375 C34.79268066 115.00146484 34.77286133 115.56542969 34.75244141 116.14648438 C34.65618189 118.74389574 34.54691948 121.34061103 34.4375 123.9375 C34.4065625 124.824375 34.375625 125.71125 34.34375 126.625 C34.09930022 132.16586176 33.34511755 137.10448933 31.8125 142.4375 C29.39575776 142.46455308 26.9793206 142.48436438 24.5625 142.5 C23.88058594 142.50837891 23.19867188 142.51675781 22.49609375 142.52539062 C19.0098503 142.54231414 16.22589881 142.2908497 12.8125 141.4375 C12.4825 136.8175 12.1525 132.1975 11.8125 127.4375 C11.19761719 128.28054688 10.58273437 129.12359375 9.94921875 129.9921875 C9.13306983 131.09914811 8.31664933 132.20590851 7.5 133.3125 C7.09587891 133.86808594 6.69175781 134.42367187 6.27539062 134.99609375 C4.25862569 137.7179066 2.66198844 139.53784104 -0.1875 141.4375 C-8.8833874 142.40092925 -16.88587173 140.95042531 -25.1875 138.4375 C-22.33700029 132.21068025 -17.69374525 127.34951681 -12.125 123.4375 C-5.4645585 118.66526134 -2.14305016 113.35773674 -0.1875 105.4375 C-0.00867094 103.05263111 0.07811616 100.65961354 0.0871582 98.26806641 C0.0948246 97.24946281 0.0948246 97.24946281 0.10264587 96.21028137 C0.11643849 93.98644971 0.11559287 91.76293161 0.11328125 89.5390625 C0.1171741 87.97878914 0.12150998 86.41851682 0.12626648 84.85824585 C0.13370667 81.59524087 0.13345363 78.33234412 0.12817383 75.06933594 C0.1223847 70.90796701 0.13930721 66.74704396 0.1625185 62.58574867 C0.17732084 59.36505587 0.17811871 56.14446882 0.17500877 52.92374802 C0.17551881 51.39049777 0.18069628 49.8572411 0.19082069 48.3240242 C0.35707884 33.15552033 0.35707884 33.15552033 -7.1875 20.4375 C-9.8487769 18.29284391 -12.55269662 16.27368725 -15.32226562 14.27539062 C-19.24974421 11.36529856 -22.2642654 8.37325161 -25.1875 4.4375 C-25.3125 2.1875 -25.3125 2.1875 -24.1875 0.4375 C-16.86597595 -3.53704163 -7.42814063 -3.64124541 0 0 Z " fill="#104B91" transform="translate(479.1875,297.5625)"/>
<path d="M0 0 C1.09924805 0.00483398 1.09924805 0.00483398 2.22070312 0.00976562 C2.94966797 -0.00634766 3.67863281 -0.02246094 4.4296875 -0.0390625 C7.33312634 -0.04172376 9.67741692 -0.01803659 12.24414062 1.42382812 C13.7921882 4.25221581 13.81229954 6.81001315 13.97070312 10.00976562 C14.03644531 11.18925781 14.1021875 12.36875 14.16992188 13.58398438 C14.22599609 14.93943359 14.22599609 14.93943359 14.28320312 16.32226562 C14.87488281 15.49082031 15.4665625 14.659375 16.07617188 13.80273438 C16.87386827 12.70472875 17.67207239 11.60709185 18.47070312 10.50976562 C19.05174805 9.68895508 19.05174805 9.68895508 19.64453125 8.8515625 C22.18540002 5.38674145 24.25364872 2.88962334 28.28320312 1.32226562 C31.68576457 1.07422844 35.0093135 1.26838107 38.40820312 1.50976562 C39.31441406 1.55423828 40.220625 1.59871094 41.15429688 1.64453125 C47.87111521 2.04754035 47.87111521 2.04754035 51.28320312 4.32226562 C51.13738922 9.13412438 48.74761324 11.30497023 45.44726562 14.43554688 C43.0986945 16.48312783 40.67627431 18.40454613 38.22070312 20.32226562 C31.59294309 25.53771759 26.30179701 30.49820868 24.79882812 39.09179688 C22.12747834 69.69446578 35.55659104 97.08210351 53.83789062 120.67773438 C55.20285028 122.43901106 55.20285028 122.43901106 57.28320312 123.32226562 C60.95650277 123.45584016 63.78173272 123.48942243 67.28320312 122.32226562 C68.35574663 120.0600118 68.35574663 120.0600118 69.28320312 117.32226562 C70.59570312 114.07226562 70.59570312 114.07226562 72.28320312 111.32226562 C75.12429077 110.1566912 76.51308982 110.04325969 79.39648438 111.08789062 C80.01910156 111.49523437 80.64171875 111.90257812 81.28320312 112.32226562 C81.91094973 115.46099866 82.17836357 118.1465007 82.28320312 121.32226562 C82.33476563 122.47597656 82.38632812 123.6296875 82.43945312 124.81835938 C82.73146901 136.31648469 82.73146901 136.31648469 79.28320312 141.32226562 C74.59737764 143.38849446 70.11464702 143.64291271 65.06835938 143.65820312 C64.29439316 143.66485992 63.52042694 143.67151672 62.7230072 143.67837524 C61.09343832 143.68845592 59.46382854 143.69319369 57.83422852 143.69287109 C55.35623572 143.69724703 52.88002243 143.73361968 50.40234375 143.77148438 C48.81185499 143.77735323 47.22135785 143.78132216 45.63085938 143.78320312 C44.53210228 143.80475967 44.53210228 143.80475967 43.41114807 143.82675171 C37.95972487 143.77888995 34.78018438 142.42708879 30.28320312 139.32226562 C25.51328539 132.95649741 23.58028752 124.92734433 21.09570312 117.44726562 C20.42204349 115.43517913 19.74630371 113.42383534 19.06730652 111.4135437 C18.45759447 109.60609621 17.85424235 107.79650701 17.2512207 105.98681641 C16.53682131 103.43483087 16.53682131 103.43483087 15.28320312 102.32226562 C15.10144531 102.8765625 14.9196875 103.43085938 14.73242188 104.00195312 C14.48105469 104.72640625 14.2296875 105.45085937 13.97070312 106.19726562 C13.72707031 106.9165625 13.4834375 107.63585937 13.23242188 108.37695312 C12.28320312 110.32226562 12.28320312 110.32226562 9.28320312 112.32226562 C6.72460938 112.58789062 6.72460938 112.58789062 3.84570312 112.57226562 C2.89824219 112.57742188 1.95078125 112.58257812 0.97460938 112.58789062 C-1.78106562 112.3159227 -3.40700599 111.82206197 -5.71679688 110.32226562 C-7.79192459 106.49966193 -8.14020296 102.58906061 -8.71679688 98.32226562 C-9.02383545 99.28003906 -9.33087402 100.2378125 -9.6472168 101.22460938 C-10.80110021 104.81400072 -11.96938975 108.39857031 -13.1418457 111.98193359 C-13.64507062 113.52657467 -14.14450178 115.07245751 -14.63989258 116.61962891 C-21.63323549 138.43773196 -21.63323549 138.43773196 -28.71679688 142.32226562 C-32.50385179 143.60033351 -36.34776002 143.48396306 -40.29882812 143.49023438 C-41.03123215 143.49356277 -41.76363617 143.49689117 -42.51823425 143.50032043 C-44.0656166 143.50537351 -45.6130098 143.50772926 -47.16040039 143.50756836 C-49.5107654 143.50974844 -51.86065584 143.52790323 -54.2109375 143.546875 C-55.71939945 143.54981067 -57.22786361 143.5517943 -58.73632812 143.55273438 C-59.43135941 143.55991989 -60.12639069 143.56710541 -60.84248352 143.57450867 C-65.44486603 143.55328801 -69.40254493 142.94116298 -73.71679688 141.32226562 C-78.41290407 134.27810483 -77.18730395 123.33652917 -75.71679688 115.32226562 C-74.16992188 112.43554688 -74.16992188 112.43554688 -72.71679688 110.32226562 C-66.12475352 112.51961341 -63.391577 116.6200206 -59.71679688 122.32226562 C-58.51738866 123.71844671 -58.51738866 123.71844671 -55.09179688 123.88476562 C-52.47756251 123.81987328 -51.11318224 123.60973429 -48.98242188 122.06445312 C-47.0357417 119.92310493 -45.38451879 117.68913476 -43.71679688 115.32226562 C-43.33765137 114.80180664 -42.95850586 114.28134766 -42.56787109 113.74511719 C-27.1106138 92.42772464 -16.50151689 66.0814413 -18.71679688 39.32226562 C-20.59017366 28.97933663 -27.18643794 23.51551377 -35.16992188 17.32226562 C-38.81099415 14.46301868 -42.26617921 11.40661661 -45.71679688 8.32226562 C-45.34179688 5.88476562 -45.34179688 5.88476562 -44.71679688 3.32226562 C-41.37787785 1.65280611 -37.64267272 1.85287535 -33.96679688 1.63476562 C-32.76796875 1.54485352 -32.76796875 1.54485352 -31.54492188 1.453125 C-25.89395639 1.11388118 -21.17425385 1.16065784 -16.70507812 5.09179688 C-15.87556641 6.10306641 -15.87556641 6.10306641 -15.02929688 7.13476562 C-14.46855469 7.80121094 -13.9078125 8.46765625 -13.33007812 9.15429688 C-11.6159638 11.4577677 -10.152271 13.83729077 -8.71679688 16.32226562 C-8.64332031 14.84113281 -8.64332031 14.84113281 -8.56835938 13.33007812 C-8.49359375 12.04875 -8.41882813 10.76742188 -8.34179688 9.44726562 C-8.2721875 8.17109375 -8.20257812 6.89492188 -8.13085938 5.58007812 C-7.42195649 0.00248372 -5.15087565 0.05202905 0 0 Z M3.28320312 40.32226562 C-3.06530488 54.12336998 -0.39172541 66.18035313 3.28320312 80.32226562 C7.69191299 75.91355576 8.47358582 68.17541083 8.72070312 62.13476562 C8.53614403 54.66555043 6.2924615 47.47127866 4.28320312 40.32226562 C3.95320312 40.32226562 3.62320313 40.32226562 3.28320312 40.32226562 Z " fill="#104B91" transform="translate(700.716796875,296.677734375)"/>
<path d="M0 0 C1.00259507 3.00778521 1.30314642 5.53820647 1.5625 8.6875 C1.64628906 9.68136719 1.73007812 10.67523438 1.81640625 11.69921875 C1.87699219 12.45847656 1.93757813 13.21773438 2 14 C2.53109375 13.24074219 3.0621875 12.48148437 3.609375 11.69921875 C4.31578125 10.70535156 5.0221875 9.71148437 5.75 8.6875 C6.44609375 7.70136719 7.1421875 6.71523438 7.859375 5.69921875 C12.196232 0.23066367 12.196232 0.23066367 16.01416016 -0.25756836 C18.49659468 -0.3689102 20.95314025 -0.35958794 23.4375 -0.3125 C24.28376953 -0.31572266 25.13003906 -0.31894531 26.00195312 -0.32226562 C30.43097002 -0.28411434 33.97703405 -0.0734383 38 2 C37.74248024 5.84600162 37.30595551 7.64799237 34.7421875 10.59765625 C33.79601562 11.41105469 32.84984375 12.22445313 31.875 13.0625 C31.37653564 13.49949219 30.87807129 13.93648438 30.36450195 14.38671875 C27.75628946 16.64174019 25.09970198 18.66105897 22.1875 20.5 C17.36210166 23.74406298 14.22342388 29.44836341 12.35546875 34.87109375 C8.10582416 60.32226188 19.00187926 88.03451927 33.4375 108.53125 C38.96640894 116.76488173 38.96640894 116.76488173 46.9375 122 C50.06072534 122.25323758 50.06072534 122.25323758 52.625 120.5 C54.60728884 118.41338017 55.7641021 116.83904999 57.125 114.375 C59 111 59 111 62 109 C64.5625 109.1875 64.5625 109.1875 67 110 C70.04004828 114.56007242 69.36843753 119.0726801 69.375 124.4375 C69.39949219 125.48744141 69.42398438 126.53738281 69.44921875 127.61914062 C69.45308594 128.63041016 69.45695313 129.64167969 69.4609375 130.68359375 C69.46915527 131.60712646 69.47737305 132.53065918 69.48583984 133.48217773 C68.82885667 136.88693528 67.807307 137.98343962 65 140 C57.98344062 141.55894949 50.71688538 141.18392102 43.5625 141.1875 C42.27794922 141.19974609 40.99339844 141.21199219 39.66992188 141.22460938 C24.02181829 141.24879501 24.02181829 141.24879501 18.3125 137 C12.46652869 129.41603722 9.57650244 120.3983359 6.6875 111.375 C6.32849609 110.27542969 5.96949219 109.17585938 5.59960938 108.04296875 C4.72608459 105.36415942 3.85970963 102.68326816 3 100 C2.73445313 100.55429687 2.46890625 101.10859375 2.1953125 101.6796875 C1.84210938 102.40414062 1.48890625 103.12859375 1.125 103.875 C0.77695312 104.59429687 0.42890625 105.31359375 0.0703125 106.0546875 C-1 108 -1 108 -3 110 C-5.8984375 110.3359375 -5.8984375 110.3359375 -9.375 110.375 C-10.51710938 110.40335937 -11.65921875 110.43171875 -12.8359375 110.4609375 C-16 110 -16 110 -18.37109375 108.23828125 C-20.09113229 105.87477505 -20.53111061 104.68682909 -20.6875 101.8125 C-20.56844101 98.21589984 -20.56844101 98.21589984 -22 97 C-22.31751221 97.96824707 -22.63502441 98.93649414 -22.9621582 99.93408203 C-24.14842525 103.54744017 -25.34077442 107.15876733 -26.53491211 110.76953125 C-27.04957878 112.3285592 -27.56262419 113.88812338 -28.07397461 115.44824219 C-28.81191799 117.69871802 -29.5557912 119.94716098 -30.30078125 122.1953125 C-30.52590897 122.8861795 -30.75103668 123.57704651 -30.98298645 124.28884888 C-33.19182857 130.91765025 -35.08018991 136.00412819 -41 140 C-44.73904755 141.24634918 -48.24408703 141.18167132 -52.140625 141.203125 C-52.9410321 141.20882507 -53.74143921 141.21452515 -54.56610107 141.22039795 C-56.26068808 141.22984142 -57.95529341 141.23637934 -59.64990234 141.24023438 C-62.22656883 141.249912 -64.80242786 141.28092914 -67.37890625 141.3125 C-69.02864112 141.31903337 -70.67838167 141.32428253 -72.328125 141.328125 C-73.09191467 141.3404718 -73.85570435 141.3528186 -74.64263916 141.36553955 C-79.79962724 141.34435482 -83.45604128 140.50777159 -88 138 C-89.42152285 133.73543146 -89.22445293 129.65504315 -89.25 125.1875 C-89.2809375 123.85235352 -89.2809375 123.85235352 -89.3125 122.49023438 C-89.3438557 117.20287946 -88.89611202 113.61091519 -86 109 C-82.01434793 109.23071792 -80.37968567 109.62796691 -77.48046875 112.46875 C-76.72378906 113.4690625 -75.96710938 114.469375 -75.1875 115.5 C-74.41792969 116.5003125 -73.64835937 117.500625 -72.85546875 118.53125 C-72.24316406 119.3459375 -71.63085938 120.160625 -71 121 C-69.8672967 122.36364533 -69.8672967 122.36364533 -66.875 122.0625 C-61.45038161 121.11621768 -59.04315377 117.28974688 -56 113 C-41.56571463 92.08800824 -27.14999098 63.63845399 -31.625 37.3125 C-32.21489061 35.07583871 -32.21489061 35.07583871 -33 33 C-33.2475 32.29875 -33.495 31.5975 -33.75 30.875 C-36.1866336 25.13150652 -40.17033125 21.78474894 -45 18 C-46.77083333 16.58333333 -48.54166667 15.16666667 -50.3125 13.75 C-51.13363281 13.10546875 -51.95476562 12.4609375 -52.80078125 11.796875 C-56.47216367 8.79716645 -56.47216367 8.79716645 -58 7 C-58.1875 4.3125 -58.1875 4.3125 -58 2 C-50.36149704 -1.03095797 -39.17988087 -2.2256063 -31.4453125 1.09765625 C-29.62845433 2.61170472 -28.35254753 4.06358878 -27 6 C-26.50242187 6.64582031 -26.00484375 7.29164063 -25.4921875 7.95703125 C-24.27018517 9.59638411 -23.12630294 11.29348039 -22 13 C-21.92652344 11.73542969 -21.92652344 11.73542969 -21.8515625 10.4453125 C-21.77679688 9.34960938 -21.70203125 8.25390625 -21.625 7.125 C-21.55539062 6.03445313 -21.48578125 4.94390625 -21.4140625 3.8203125 C-21 1 -21 1 -19 -1 C-12.92142241 -2.5196444 -5.33257087 -3.55504725 0 0 Z M-10 39 C-14.55500982 50.27907193 -14.26169643 62.50202877 -10.8515625 74.05859375 C-10.166324 76.18327743 -10.166324 76.18327743 -8 77 C-5.50487362 71.17143757 -4.50924101 66.50589819 -4.625 60.1875 C-4.63225098 59.40576416 -4.63950195 58.62402832 -4.64697266 57.81860352 C-4.79253049 51.68682154 -5.43020553 45.64647501 -8 40 C-8.66 39.67 -9.32 39.34 -10 39 Z " fill="#104B91" transform="translate(351,300)"/>
<path d="M0 0 C3.63 0 7.26 0 11 0 C15.455 13.365 15.455 13.365 20 27 C22.56931022 21.0156506 22.56931022 21.0156506 24.60546875 14.94140625 C24.86650391 14.06162109 25.12753906 13.18183594 25.39648438 12.27539062 C25.65751953 11.38013672 25.91855469 10.48488281 26.1875 9.5625 C26.46013672 8.64017578 26.73277344 7.71785156 27.01367188 6.76757812 C27.67957984 4.51283713 28.34032115 2.25657133 29 0 C32.96 0 36.92 0 41 0 C44.20666814 29.76286156 44.20666814 29.76286156 44 44 C37.84765625 44.09765625 37.84765625 44.09765625 36 44 C34.22808941 42.22808941 34.63939662 39.62367341 34.46484375 37.21484375 C34.33432617 35.46010742 34.33432617 35.46010742 34.20117188 33.66992188 C34.0706543 31.82237305 34.0706543 31.82237305 33.9375 29.9375 C33.84662109 28.70193359 33.75574219 27.46636719 33.66210938 26.19335938 C33.43732402 23.12918006 33.2168144 20.06475198 33 17 C32.6443396 18.17357056 32.6443396 18.17357056 32.28149414 19.37084961 C31.21176312 22.8940681 30.13719904 26.41579391 29.0625 29.9375 C28.68931641 31.16919922 28.31613281 32.40089844 27.93164062 33.66992188 C27.57392578 34.83974609 27.21621094 36.00957031 26.84765625 37.21484375 C26.51773682 38.29886475 26.18781738 39.38288574 25.84790039 40.49975586 C25 43 25 43 24 44 C21.36 44 18.72 44 16 44 C13.36 35.75 10.72 27.5 8 19 C6.79836456 22.60490632 6.68410417 26.05200178 6.5 29.8125 C6.26163598 34.60185121 5.88931697 39.27920908 5 44 C2.03 44 -0.94 44 -4 44 C-3.59649101 38.05479044 -3.18744053 32.10999837 -2.77319336 26.16552734 C-2.63298658 24.14219562 -2.49430902 22.11875734 -2.35717773 20.09521484 C-2.16008657 17.19078837 -1.95754346 14.28678642 -1.75390625 11.3828125 C-1.6934462 10.47443634 -1.63298615 9.56606018 -1.57069397 8.63015747 C-1.51070724 7.78943695 -1.45072052 6.94871643 -1.38891602 6.08251953 C-1.33784195 5.34083527 -1.28676788 4.599151 -1.23414612 3.83499146 C-1 2 -1 2 0 0 Z " fill="#104B91" transform="translate(547,514)"/>
<path d="M0 0 C4.45419012 4.10751966 6.42288491 9.34550056 6.859375 15.296875 C6.98569971 23.49745425 6.1154449 27.97517333 1.40625 34.77734375 C-3.67762605 39.8612198 -7.78377617 40.71406723 -14.78125 40.96484375 C-20.44108701 40.80888957 -24.8803796 40.15712961 -29.34375 36.52734375 C-35.42271351 29.82372484 -35.78953682 23.20493137 -35.609375 14.4921875 C-35.2815992 9.59965169 -34.67816256 6.18987669 -31.34375 2.52734375 C-22.12966732 -5.25993135 -10.32074512 -7.29642842 0 0 Z M-23.34375 7.52734375 C-26.37781564 13.40731591 -27.12114157 19.13834163 -25.34375 25.52734375 C-23.67842643 28.68571604 -22.34415302 30.79371487 -19.46875 32.90234375 C-16.48858554 33.77886271 -14.44536374 33.96156967 -11.34375 33.52734375 C-7.62385816 30.95203401 -4.98717972 28.75653675 -3.34375 24.52734375 C-2.45462922 17.1972666 -2.73395792 11.41763363 -7.34375 5.52734375 C-12.57152039 1.38118102 -19.17295882 2.77727602 -23.34375 7.52734375 Z " fill="#104B91" transform="translate(341.34375,517.47265625)"/>
<path d="M0 0 C3.3 0 6.6 0 10 0 C10.33 4.95 10.66 9.9 11 15 C11.81082031 13.9171875 12.62164062 12.834375 13.45703125 11.71875 C22.21186111 0.53770686 22.21186111 0.53770686 27.3125 -0.99609375 C30.02408235 -0.94313316 32.38569641 -0.70727652 35 0 C33.60809755 3.08549803 31.95565889 5.37046979 29.6875 7.875 C29.07261719 8.56851563 28.45773437 9.26203125 27.82421875 9.9765625 C26.69252263 11.23184856 25.55102997 12.47846441 24.39453125 13.7109375 C22.82306144 15.39002985 22.82306144 15.39002985 21 18 C21.33134274 21.49305473 23.03988296 23.69972279 25.125 26.44140625 C25.74890625 27.27220703 26.3728125 28.10300781 27.015625 28.95898438 C27.67046875 29.81814453 28.3253125 30.67730469 29 31.5625 C30.2951994 33.26946062 31.58702644 34.97898686 32.875 36.69140625 C33.44992187 37.44623291 34.02484375 38.20105957 34.6171875 38.97875977 C36 41 36 41 37 44 C33.1677727 44.63400819 29.81419192 44.82020222 26 44 C22.61644911 41.13133729 20.38276092 37.71430379 18 34 C17.00606373 32.62061039 16.00701155 31.24487326 15 29.875 C14.34 28.92625 13.68 27.9775 13 27 C12.34 27.33 11.68 27.66 11 28 C10.68758545 30.71446979 10.48663408 33.33909361 10.375 36.0625 C10.31699219 37.20041992 10.31699219 37.20041992 10.2578125 38.36132812 C10.16326438 40.24047195 10.08053244 42.12020336 10 44 C6.7 44 3.4 44 0 44 C0 29.48 0 14.96 0 0 Z " fill="#104B91" transform="translate(263,514)"/>
<path d="M0 0 C3.3 0 6.6 0 10 0 C12.28287346 5.94321212 14.56142566 11.88805545 16.8359375 17.83447266 C17.61078367 19.85836826 18.38682192 21.88180788 19.1640625 23.90478516 C20.27915976 26.80773606 21.39000063 29.71228414 22.5 32.6171875 C22.84998047 33.52556366 23.19996094 34.43393982 23.56054688 35.36984253 C23.88087891 36.21056305 24.20121094 37.05128357 24.53125 37.91748047 C24.81548828 38.65916473 25.09972656 39.400849 25.39257812 40.16500854 C26 42 26 42 26 44 C22.7 44 19.4 44 16 44 C14.68 40.7 13.36 37.4 12 34 C7.05 33.67 2.1 33.34 -3 33 C-3.495 35.475 -3.495 35.475 -4 38 C-4.64389782 40.00744615 -5.30562253 42.00945124 -6 44 C-9.3 44 -12.6 44 -16 44 C-13.37834423 34.55446765 -9.84558823 25.5068205 -6.3125 16.375 C-5.69953356 14.78268147 -5.08690065 13.19023452 -4.47460938 11.59765625 C-2.98691368 7.73027951 -1.4947164 3.8646684 0 0 Z M4 13 C3.32942113 14.7902061 2.6636531 16.58221489 2 18.375 C1.62875 19.37273438 1.2575 20.37046875 0.875 21.3984375 C-0.10626277 23.85848061 -0.10626277 23.85848061 0 26 C3.3 26 6.6 26 10 26 C8.68 21.71 7.36 17.42 6 13 C5.34 13 4.68 13 4 13 Z " fill="#104B91" transform="translate(507,514)"/>
<path d="M0 0 C23.74285714 0 23.74285714 0 29.375 5.1875 C31.43171643 8.74720151 32.18553801 11.93362519 32 16 C30.74025577 20.44615611 29.66569372 22.46177955 26.0625 25.375 C21.96098455 27.55131432 18.86697772 28.13039673 14.25 28.0625 C12.14625 28.0315625 12.14625 28.0315625 10 28 C10 33.28 10 38.56 10 44 C6.7 44 3.4 44 0 44 C0 29.48 0 14.96 0 0 Z M10 7 C10 11.29 10 15.58 10 20 C15.4159661 20.35144861 15.4159661 20.35144861 20.5 18.875 C22.25790052 17.0014421 22.25790052 17.0014421 22.4375 14 C21.94993927 10.65672646 21.60393554 9.99903901 19 8 C16.72838745 7.42676193 16.72838745 7.42676193 14.3125 7.3125 C12.1778125 7.1578125 12.1778125 7.1578125 10 7 Z " fill="#104B91" transform="translate(361,514)"/>
<path d="M0 0 C10.89 0 21.78 0 33 0 C33 2.64 33 5.28 33 8 C29.04 8 25.08 8 21 8 C21 19.88 21 31.76 21 44 C18.03 44 15.06 44 12 44 C12 32.12 12 20.24 12 8 C8.04 8 4.08 8 0 8 C0 5.36 0 2.72 0 0 Z " fill="#104B91" transform="translate(426,514)"/>
<path d="M0 0 C2.97 0 5.94 0 9 0 C9 14.52 9 29.04 9 44 C6.03 44 3.06 44 0 44 C0 29.48 0 14.96 0 0 Z " fill="#104B91" transform="translate(471,514)"/>
<path d="M0 0 C2.97 0 5.94 0 9 0 C9 14.52 9 29.04 9 44 C6.03 44 3.06 44 0 44 C0 29.48 0 14.96 0 0 Z " fill="#104B91" transform="translate(405,514)"/>
</svg>
