<?xml version="1.0" encoding="UTF-8"?>
<svg version="1.1" xmlns="http://www.w3.org/2000/svg" width="861" height="863">
<path d="M0 0 C2.18975773 3.28463659 2.99806563 6.20696275 4 10 C4.99 6.7 5.98 3.4 7 0 C9.64 1.32 12.28 2.64 15 4 C15.33 11.26 15.66 18.52 16 26 C17.69125 24.14375 19.3825 22.2875 21.125 20.375 C23.07871064 18.2457136 25.03903607 16.12260521 27 14 C27.97066406 12.94425781 27.97066406 12.94425781 28.9609375 11.8671875 C30.24593932 10.51695716 31.61452849 9.24692436 33 8 C33.99 8 34.98 8 36 8 C36.34910893 18.8029818 35.26699248 29.28712612 34 40 C34.55461914 39.823479 35.10923828 39.64695801 35.68066406 39.46508789 C38.2033753 38.66295856 40.72667969 37.86271116 43.25 37.0625 C44.55904297 36.64581055 44.55904297 36.64581055 45.89453125 36.22070312 C47.16103516 35.81948242 47.16103516 35.81948242 48.453125 35.41015625 C49.22817383 35.16402588 50.00322266 34.91789551 50.80175781 34.66430664 C54.39278098 33.57910295 57.48705131 32.87478419 61.25 32.9375 C63.10625 32.9684375 63.10625 32.9684375 65 33 C64.55798314 38.06109299 63.24101723 40.41542737 59.75 44.0625 C58.94175781 44.91714844 58.13351562 45.77179688 57.30078125 46.65234375 C56.54152344 47.42707031 55.78226563 48.20179688 55 49 C54.43667969 49.57878906 53.87335938 50.15757812 53.29296875 50.75390625 C52.20936047 51.85000569 51.10758968 52.92813902 50 54 C50.75023437 54.07476562 51.50046875 54.14953125 52.2734375 54.2265625 C64.71014717 55.82422545 72.58417092 62.10673052 82 70 C86.05066254 68.21770848 89.44952991 65.59971659 93 63 C98.77043039 58.77478946 103.03307429 55.97322782 110.25 54.875 C111.32765625 54.70742188 112.4053125 54.53984375 113.515625 54.3671875 C114.33546875 54.24601562 115.1553125 54.12484375 116 54 C115.08476562 53.09636719 114.16953125 52.19273437 113.2265625 51.26171875 C112.02590942 50.07044577 110.82539585 48.87903217 109.625 47.6875 C109.02171875 47.09259766 108.4184375 46.49769531 107.796875 45.88476562 C107.21679688 45.30791016 106.63671875 44.73105469 106.0390625 44.13671875 C105.23782959 43.34334106 105.23782959 43.34334106 104.42041016 42.53393555 C102.21195291 40.14896874 101.02812115 38.60460477 100.875 35.3125 C100.91625 34.549375 100.9575 33.78625 101 33 C107.6665409 32.63524165 112.98947338 33.89826559 119.3125 35.9375 C120.20517578 36.21529297 121.09785156 36.49308594 122.01757812 36.77929688 C125.35601409 37.82177312 128.68205697 38.89401899 132 40 C131.7834375 38.29457031 131.7834375 38.29457031 131.5625 36.5546875 C130.39343708 26.96670447 129.72011159 17.67169942 130 8 C134.55025964 9.41214954 137.33761009 11.94448044 140.5625 15.3125 C141.03107422 15.78623047 141.49964844 16.25996094 141.98242188 16.74804688 C144.88120418 19.71169703 147.3962947 22.74536838 150 26 C150.33 18.74 150.66 11.48 151 4 C153.64 2.68 156.28 1.36 159 0 C160.19287411 3.87684087 161 6.91621923 161 11 C161.66 11 162.32 11 163 11 C163.185625 9.1128125 163.185625 9.1128125 163.375 7.1875 C163.69868059 3.89674737 164.06604999 2.90092502 166 0 C170.75894666 1.79338285 170.75894666 1.79338285 173 4 C174.04804653 7.73485674 173.97913247 11.39042523 173.9375 15.25 C173.95361328 16.28125 173.96972656 17.3125 173.98632812 18.375 C174.02164776 20.91801362 174.02507469 23.45698183 174 26 C174.4031543 25.56131592 174.80630859 25.12263184 175.22167969 24.6706543 C177.06103419 22.67308995 178.90545272 20.68026983 180.75 18.6875 C181.70132813 17.65206055 181.70132813 17.65206055 182.671875 16.59570312 C183.290625 15.92861328 183.909375 15.26152344 184.546875 14.57421875 C185.11245117 13.96151123 185.67802734 13.34880371 186.26074219 12.7175293 C191.03795309 8 191.03795309 8 194 8 C194.14036598 18.71460306 193.73259082 29.3120232 193 40 C194.24136719 39.57847656 195.48273438 39.15695312 196.76171875 38.72265625 C198.40359178 38.16911049 200.04552188 37.61573396 201.6875 37.0625 C202.50412109 36.78470703 203.32074219 36.50691406 204.16210938 36.22070312 C210.64638763 34.04177562 216.09808434 32.86466832 223 33 C223.39374866 36.34686358 223.23161741 37.67522092 221.2421875 40.46484375 C220.46101563 41.28082031 219.67984375 42.09679687 218.875 42.9375 C218.05902344 43.79988281 217.24304688 44.66226563 216.40234375 45.55078125 C215.60957031 46.35902344 214.81679688 47.16726563 214 48 C213.36191406 48.65355469 212.72382812 49.30710937 212.06640625 49.98046875 C210.72517547 51.33456505 209.36506611 52.66993559 208 54 C209.43279297 54.185625 209.43279297 54.185625 210.89453125 54.375 C220.5379157 55.91332653 226.4157276 58.61133742 234 65 C235.55679067 66.13288748 237.11873005 67.25875984 238.6875 68.375 C240.63671875 69.7734375 240.63671875 69.7734375 242 71 C242 71.66 242 72.32 242 73 C234.11221212 80.23513403 224.45647375 87.49575399 213.75 89.125 C212.67234375 89.29257812 211.5946875 89.46015625 210.484375 89.6328125 C209.66453125 89.75398438 208.8446875 89.87515625 208 90 C209.37285156 91.35544922 209.37285156 91.35544922 210.7734375 92.73828125 C211.97409058 93.92955423 213.17460415 95.12096783 214.375 96.3125 C214.97828125 96.90740234 215.5815625 97.50230469 216.203125 98.11523438 C216.78320312 98.69208984 217.36328125 99.26894531 217.9609375 99.86328125 C218.49509277 100.39219971 219.02924805 100.92111816 219.57958984 101.46606445 C221.78804709 103.85103126 222.97187885 105.39539523 223.125 108.6875 C223.08375 109.450625 223.0425 110.21375 223 111 C216.31889054 111.36598152 210.96528305 110.09679052 204.625 108.0625 C203.72394531 107.78470703 202.82289063 107.50691406 201.89453125 107.22070312 C195.4015377 105.20076885 195.4015377 105.20076885 193 104 C193.0721875 105.05316406 193.144375 106.10632813 193.21875 107.19140625 C193.84813736 116.81396487 194.12633389 126.35651306 194 136 C189.63206869 134.59602208 187.17585413 132.52509957 184 129.25 C183.175 128.40953125 182.35 127.5690625 181.5 126.703125 C178.89974147 123.89159546 176.45166744 120.94200093 174 118 C173.67 125.26 173.34 132.52 173 140 C172.01 140.33 171.02 140.66 170 141 C170 141.66 170 142.32 170 143 C170.99 143.33 171.98 143.66 173 144 C173.33 151.26 173.66 158.52 174 166 C177.68335239 161.95088393 177.68335239 161.95088393 181.35791016 157.89379883 C184.68691907 154.26096532 188.0736635 150.9869408 192 148 C192.66 148 193.32 148 194 148 C194.28435784 158.85299084 193.47317858 169.25368837 192 180 C192.55461914 179.823479 193.10923828 179.64695801 193.68066406 179.46508789 C196.2033753 178.66295856 198.72667969 177.86271116 201.25 177.0625 C202.12269531 176.78470703 202.99539063 176.50691406 203.89453125 176.22070312 C204.73886719 175.95322266 205.58320312 175.68574219 206.453125 175.41015625 C207.22817383 175.16402588 208.00322266 174.91789551 208.80175781 174.66430664 C212.39278098 173.57910295 215.48705131 172.87478419 219.25 172.9375 C221.10625 172.9684375 221.10625 172.9684375 223 173 C223.39374866 176.34686358 223.23161741 177.67522092 221.2421875 180.46484375 C220.46101563 181.28082031 219.67984375 182.09679687 218.875 182.9375 C218.05902344 183.79988281 217.24304688 184.66226563 216.40234375 185.55078125 C215.60957031 186.35902344 214.81679688 187.16726563 214 188 C213.36191406 188.65355469 212.72382812 189.30710937 212.06640625 189.98046875 C210.72517547 191.33456505 209.36506611 192.66993559 208 194 C209.43279297 194.185625 209.43279297 194.185625 210.89453125 194.375 C220.5379157 195.91332653 226.4157276 198.61133742 234 205 C235.55679067 206.13288748 237.11873005 207.25875984 238.6875 208.375 C240.63671875 209.7734375 240.63671875 209.7734375 242 211 C242 211.66 242 212.32 242 213 C239.66717243 215.20110524 237.01255026 217.02946716 234.4375 218.9375 C233.73302734 219.47568359 233.02855469 220.01386719 232.30273438 220.56835938 C226.21322142 225.12005984 220.67169764 227.96627075 213.0625 229.1875 C212.10472656 229.34605469 211.14695312 229.50460937 210.16015625 229.66796875 C209.44730469 229.77753906 208.73445313 229.88710938 208 230 C208.91523437 230.90363281 209.83046875 231.80726563 210.7734375 232.73828125 C211.97409058 233.92955423 213.17460415 235.12096783 214.375 236.3125 C214.97828125 236.90740234 215.5815625 237.50230469 216.203125 238.11523438 C216.78320312 238.69208984 217.36328125 239.26894531 217.9609375 239.86328125 C218.49509277 240.39219971 219.02924805 240.92111816 219.57958984 241.46606445 C221.78804709 243.85103126 222.97187885 245.39539523 223.125 248.6875 C223.08375 249.450625 223.0425 250.21375 223 251 C217.2014345 251.29379399 212.42062064 250.26201571 206.875 248.625 C206.08996094 248.40328125 205.30492187 248.1815625 204.49609375 247.953125 C200.56980527 246.82754483 196.75896236 245.61529708 193 244 C193.0721875 245.05316406 193.144375 246.10632813 193.21875 247.19140625 C193.84813736 256.81396487 194.12633389 266.35651306 194 276 C189.91560691 274.6433211 187.54087268 272.89705352 184.5625 269.8125 C183.84191406 269.07644531 183.12132812 268.34039063 182.37890625 267.58203125 C179.50080457 264.45818033 176.74279105 261.24264278 174 258 C173.99589111 258.65073486 173.99178223 259.30146973 173.98754883 259.97192383 C173.95465827 262.91970746 173.88402238 265.86541134 173.8125 268.8125 C173.80379883 270.34874023 173.80379883 270.34874023 173.79492188 271.91601562 C173.71284922 274.69736669 173.58273031 277.27848262 173 280 C170.13600543 282.66517181 168.87906184 283 165 283 C163.68373308 279.38026598 163 276.90432869 163 273 C162.34 273 161.68 273 161 273 C160.67 275.97 160.34 278.94 160 282 C156 283 156 283 153.30078125 282.26171875 C150.03463776 279.05102761 150.33645413 276.36820255 150.20507812 271.91601562 C150.19927734 270.89185547 150.19347656 269.86769531 150.1875 268.8125 C150.16236328 267.77673828 150.13722656 266.74097656 150.11132812 265.67382812 C150.05238057 263.11550421 150.01615743 260.55889395 150 258 C149.5968457 258.43868408 149.19369141 258.87736816 148.77832031 259.3293457 C146.93896581 261.32691005 145.09454728 263.31973017 143.25 265.3125 C142.29867187 266.34793945 142.29867187 266.34793945 141.328125 267.40429688 C140.709375 268.07138672 140.090625 268.73847656 139.453125 269.42578125 C138.88754883 270.03848877 138.32197266 270.65119629 137.73925781 271.2824707 C132.96204691 276 132.96204691 276 130 276 C129.68633961 265.16129087 130.63673731 254.7356937 132 244 C131.45061768 244.176521 130.90123535 244.35304199 130.33520508 244.53491211 C127.8285268 245.33858197 125.32053518 246.13807522 122.8125 246.9375 C121.94818359 247.21529297 121.08386719 247.49308594 120.19335938 247.77929688 C118.93168945 248.18051758 118.93168945 248.18051758 117.64453125 248.58984375 C116.87471924 248.83597412 116.10490723 249.08210449 115.31176758 249.33569336 C110.43951396 250.73577807 106.07762084 251.09956119 101 251 C100.60625134 247.65313642 100.76838259 246.32477908 102.7578125 243.53515625 C103.53898438 242.71917969 104.32015625 241.90320313 105.125 241.0625 C105.94097656 240.20011719 106.75695312 239.33773437 107.59765625 238.44921875 C108.39042969 237.64097656 109.18320312 236.83273437 110 236 C110.63808594 235.34644531 111.27617187 234.69289063 111.93359375 234.01953125 C113.27482453 232.66543495 114.63493389 231.33006441 116 230 C114.67548828 229.79697266 114.67548828 229.79697266 113.32421875 229.58984375 C101.16249202 227.40830953 93.01558679 222.2142013 84 214 C79.75189833 215.41858991 76.98498572 217.50593653 73.625 220.4375 C66.07252131 226.72116227 59.66055427 228.51510468 50 230 C50.83144531 230.81984375 51.66289062 231.6396875 52.51953125 232.484375 C53.61732105 233.57278198 54.71496989 234.66133115 55.8125 235.75 C56.35970703 236.28882813 56.90691406 236.82765625 57.47070312 237.3828125 C64.91709608 244.7840758 64.91709608 244.7840758 65.1875 248.75 C65.125625 249.4925 65.06375 250.235 65 251 C58.66785213 251.40176386 53.35272709 249.93496352 47.3125 248.125 C46.37599609 247.85558594 45.43949219 247.58617187 44.47460938 247.30859375 C40.45384821 246.1319256 36.71017088 244.97230749 33 243 C33.13277344 243.60585938 33.26554687 244.21171875 33.40234375 244.8359375 C35.60723994 255.29712378 36.1507354 265.31453529 36 276 C31.0771702 274.52860069 28.33781101 271.72597803 24.875 268.125 C24.35035156 267.59519531 23.82570313 267.06539062 23.28515625 266.51953125 C20.62647287 263.80700112 18.24657465 261.07056638 16 258 C15.99589111 258.65073486 15.99178223 259.30146973 15.98754883 259.97192383 C15.95465827 262.91970746 15.88402238 265.86541134 15.8125 268.8125 C15.80379883 270.34874023 15.80379883 270.34874023 15.79492188 271.91601562 C15.57299918 279.43672916 15.57299918 279.43672916 12.69921875 282.26171875 C10 283 10 283 6 282 C5.34 279.36 4.68 276.72 4 274 C3.01 276.97 2.02 279.94 1 283 C-2.37462715 282.45276317 -4.08235 281.9451 -7 280 C-7.43237305 277.75341797 -7.43237305 277.75341797 -7.51171875 274.9921875 C-7.54716797 274.00605469 -7.58261719 273.01992188 -7.61914062 272.00390625 C-7.64169922 270.97136719 -7.66425781 269.93882812 -7.6875 268.875 C-7.72166016 267.83472656 -7.75582031 266.79445313 -7.79101562 265.72265625 C-7.87367058 263.14854493 -7.94276155 260.57478171 -8 258 C-8.46374023 258.50974365 -8.92748047 259.0194873 -9.40527344 259.54467773 C-11.51164104 261.85026076 -13.63058318 264.14390966 -15.75 266.4375 C-16.84441406 267.64116211 -16.84441406 267.64116211 -17.9609375 268.86914062 C-18.66992188 269.63291016 -19.37890625 270.39667969 -20.109375 271.18359375 C-20.75874023 271.89056396 -21.40810547 272.59753418 -22.07714844 273.32592773 C-24.09939548 275.08653566 -25.3794697 275.60997944 -28 276 C-28.11813543 265.27592816 -27.87157852 254.69240075 -27 244 C-27.55461914 244.176521 -28.10923828 244.35304199 -28.68066406 244.53491211 C-31.2033753 245.33704144 -33.72667969 246.13728884 -36.25 246.9375 C-37.12269531 247.21529297 -37.99539063 247.49308594 -38.89453125 247.77929688 C-40.16103516 248.18051758 -40.16103516 248.18051758 -41.453125 248.58984375 C-42.22817383 248.83597412 -43.00322266 249.08210449 -43.80175781 249.33569336 C-48.37107631 250.71653694 -52.1806174 251.09268043 -57 251 C-57.33 250.01 -57.66 249.02 -58 248 C-54.21416001 241.08672698 -48.43777741 234.52656224 -42 230 C-43.14275391 229.87044922 -43.14275391 229.87044922 -44.30859375 229.73828125 C-57.52878966 227.93927831 -65.85069014 221.07866241 -76 213 C-74.89803687 209.69411062 -74.2674616 209.16660896 -71.578125 207.15234375 C-70.88203125 206.62962891 -70.1859375 206.10691406 -69.46875 205.56835938 C-68.7365625 205.03017578 -68.004375 204.49199219 -67.25 203.9375 C-66.17492187 203.12442383 -66.17492187 203.12442383 -65.078125 202.29492188 C-59.38204431 198.05950893 -54.7591218 195.96294181 -47.6875 194.875 C-46.61886719 194.70742188 -45.55023438 194.53984375 -44.44921875 194.3671875 C-43.64097656 194.24601563 -42.83273437 194.12484375 -42 194 C-42.90363281 193.11957031 -43.80726563 192.23914063 -44.73828125 191.33203125 C-45.92995407 190.15912494 -47.12134553 188.98593272 -48.3125 187.8125 C-48.90740234 187.23435547 -49.50230469 186.65621094 -50.11523438 186.06054688 C-53.25065544 182.96015845 -56.1621553 180.07705779 -58 176 C-57.67 175.01 -57.34 174.02 -57 173 C-50.31889054 172.63401848 -44.96528305 173.90320948 -38.625 175.9375 C-37.72394531 176.21529297 -36.82289063 176.49308594 -35.89453125 176.77929688 C-29.4015377 178.79923115 -29.4015377 178.79923115 -27 180 C-27.10828125 178.67162109 -27.10828125 178.67162109 -27.21875 177.31640625 C-27.9522981 167.52557673 -28.10812858 157.81567245 -28 148 C-23.91560691 149.3566789 -21.54087268 151.10294648 -18.5625 154.1875 C-17.84191406 154.92355469 -17.12132812 155.65960938 -16.37890625 156.41796875 C-13.50395982 159.53839501 -10.76125626 162.77853436 -8 166 C-7.67 158.41 -7.34 150.82 -7 143 C-6.34 142.67 -5.68 142.34 -5 142 C-5.66 141.34 -6.32 140.68 -7 140 C-7.31884766 137.75341797 -7.31884766 137.75341797 -7.4140625 134.9921875 C-7.45273437 134.00605469 -7.49140625 133.01992188 -7.53125 132.00390625 C-7.5621875 130.97136719 -7.593125 129.93882812 -7.625 128.875 C-7.66367187 127.83472656 -7.70234375 126.79445313 -7.7421875 125.72265625 C-7.83664766 123.14861689 -7.92221214 120.57458845 -8 118 C-8.64231567 118.7113208 -8.64231567 118.7113208 -9.29760742 119.43701172 C-11.25204211 121.59124479 -13.21953583 123.73312272 -15.1875 125.875 C-15.86103516 126.62136719 -16.53457031 127.36773437 -17.22851562 128.13671875 C-17.88916016 128.85214844 -18.54980469 129.56757813 -19.23046875 130.3046875 C-19.83270264 130.96452637 -20.43493652 131.62436523 -21.05541992 132.30419922 C-23.24395834 134.2127476 -25.26610777 135.0715083 -28 136 C-28.11813543 125.27592816 -27.87157852 114.69240075 -27 104 C-28.24136719 104.42152344 -29.48273438 104.84304688 -30.76171875 105.27734375 C-32.40359178 105.83088951 -34.04552188 106.38426604 -35.6875 106.9375 C-36.50412109 107.21529297 -37.32074219 107.49308594 -38.16210938 107.77929688 C-44.64638763 109.95822438 -50.09808434 111.13533168 -57 111 C-57.33 110.01 -57.66 109.02 -58 108 C-55.30627834 103.14313823 -51.71581103 99.46747241 -47.75 95.625 C-47.19570313 95.07972656 -46.64140625 94.53445313 -46.0703125 93.97265625 C-44.71811269 92.64377023 -43.3596965 91.32121452 -42 90 C-43.43279297 89.814375 -43.43279297 89.814375 -44.89453125 89.625 C-54.5379157 88.08667347 -60.4157276 85.38866258 -68 79 C-69.55679067 77.86711252 -71.11873005 76.74124016 -72.6875 75.625 C-74.63671875 74.2265625 -74.63671875 74.2265625 -76 73 C-76 72.34 -76 71.68 -76 71 C-74.51879883 69.61132812 -74.51879883 69.61132812 -72.45703125 68.03125 C-71.71259766 67.46019531 -70.96816406 66.88914062 -70.20117188 66.30078125 C-69.41291016 65.70652344 -68.62464844 65.11226563 -67.8125 64.5 C-67.04357422 63.90574219 -66.27464844 63.31148438 -65.48242188 62.69921875 C-59.67844492 58.28520709 -54.9645411 55.99454478 -47.6875 54.875 C-46.08455078 54.62363281 -46.08455078 54.62363281 -44.44921875 54.3671875 C-43.64097656 54.24601562 -42.83273437 54.12484375 -42 54 C-42.41362793 53.60731934 -42.82725586 53.21463867 -43.25341797 52.81005859 C-45.1379345 51.00915723 -47.00640021 49.19240527 -48.875 47.375 C-49.85146484 46.44880859 -49.85146484 46.44880859 -50.84765625 45.50390625 C-54.52651479 41.90090046 -56.86522713 39.19438286 -58 34 C-57 33 -57 33 -54.0078125 32.7890625 C-49.41802126 32.85700734 -45.25166231 34.08304993 -40.875 35.375 C-40.08996094 35.59671875 -39.30492187 35.8184375 -38.49609375 36.046875 C-34.56980527 37.17245517 -30.75896236 38.38470292 -27 40 C-27.10828125 38.67162109 -27.10828125 38.67162109 -27.21875 37.31640625 C-27.9522981 27.52557673 -28.10812858 17.81567245 -28 8 C-23.91560691 9.3566789 -21.54087268 11.10294648 -18.5625 14.1875 C-17.84191406 14.92355469 -17.12132812 15.65960938 -16.37890625 16.41796875 C-13.50080457 19.54181967 -10.74279105 22.75735722 -8 26 C-8.00636475 25.35450195 -8.01272949 24.70900391 -8.01928711 24.04394531 C-8.0279865 21.1114589 -7.98331438 18.18212028 -7.9375 15.25 C-7.94845703 14.23421875 -7.95941406 13.2184375 -7.97070312 12.171875 C-7.80068856 4.78838512 -7.80068856 4.78838512 -5.37939453 2.40429688 C-3.44140625 1.296875 -3.44140625 1.296875 0 0 Z M73.40625 79.82617188 C67.61206081 84.49990354 62.62719028 87.19231149 55.125 88.1875 C53.97257812 88.34605469 52.82015625 88.50460937 51.6328125 88.66796875 C50.76398438 88.77753906 49.89515625 88.88710938 49 89 C49.825 89.969375 50.65 90.93875 51.5 91.9375 C52.04140625 92.57429688 52.5828125 93.21109375 53.140625 93.8671875 C54.43704179 95.35425382 55.76256557 96.81622759 57.109375 98.2578125 C57.81578125 99.01835937 58.5221875 99.77890625 59.25 100.5625 C59.91515625 101.26503906 60.5803125 101.96757812 61.265625 102.69140625 C63.26085994 105.34722573 64.10560577 107.81942459 65 111 C53.95435031 109.19333123 43.63483229 106.51329281 33 103 C33.99 113.89 34.98 124.78 36 136 C31.57659856 133.05106571 28.53207777 130.75961724 24.9375 127.0625 C24.12152344 126.22847656 23.30554688 125.39445312 22.46484375 124.53515625 C21.65144531 123.69855469 20.83804688 122.86195313 20 122 C18.35 120.35 16.7 118.7 15 117 C14.67 124.59 14.34 132.18 14 140 C13.01 140.495 13.01 140.495 12 141 C12 141.66 12 142.32 12 143 C12.66 143.33 13.32 143.66 14 144 C14.33 151.59 14.66 159.18 15 167 C17.75596382 164.24403618 20.50642415 161.49260537 23.2265625 158.703125 C24.35931171 157.55202105 25.49212508 156.40098023 26.625 155.25 C27.19734375 154.66089844 27.7696875 154.07179688 28.359375 153.46484375 C29.19082031 152.62373047 29.19082031 152.62373047 30.0390625 151.765625 C30.53615723 151.25805664 31.03325195 150.75048828 31.54541016 150.22753906 C33 149 33 149 36 148 C35.01 158.89 34.02 169.78 33 181 C40.54018998 178.74833639 40.54018998 178.74833639 48.07617188 176.48266602 C53.73780078 174.81160624 59.11499083 173.5070821 65 173 C62.79813299 179.21703625 59.44460897 183.19907216 55 188 C53.84803015 189.32803511 52.70171992 190.66101166 51.5625 192 C50.716875 192.99 49.87125 193.98 49 195 C49.82242188 195.07476562 50.64484375 195.14953125 51.4921875 195.2265625 C64.42239267 196.74951969 72.22094588 202.80223974 82 211 C86.84724361 208.85468883 90.76930096 205.42075999 94.9296875 202.19140625 C100.14710059 198.46752744 104.51808501 196.65576423 110.875 195.8125 C112.02742188 195.65394531 113.17984375 195.49539063 114.3671875 195.33203125 C115.67042969 195.16767578 115.67042969 195.16767578 117 195 C113.34958384 190.63730751 109.61135582 186.52626192 105.515625 182.578125 C102.61980714 179.56289197 101.65449093 177.03602743 101 173 C109.8140991 174.47647345 118.22466454 176.12963508 126.64453125 179.23046875 C129.06228143 180.15527357 129.06228143 180.15527357 132 180 C131.43114063 169.32480925 130.80552744 158.66038445 130 148 C136.28520697 151.63880404 140.9698451 156.82635416 146 162 C148.475 164.475 148.475 164.475 151 167 C151.33 159.41 151.66 151.82 152 144 C152.66 143.67 153.32 143.34 154 143 C154 142.34 154 141.68 154 141 C153.34 140.67 152.68 140.34 152 140 C151.67 132.41 151.34 124.82 151 117 C147.58318704 119.73345037 145.27895919 121.65141055 142.625 124.875 C139.00538673 129.11240285 135.04544042 133.47727979 130 136 C130.99 125.11 131.98 114.22 133 103 C126.12017355 105.06334632 126.12017355 105.06334632 119.2421875 107.1328125 C113.14709289 108.92881486 107.34142278 110.49268618 101 111 C102.87972105 102.64568422 109.76625651 97.0870624 115.71484375 91.34765625 C117.11502107 90.18975254 117.11502107 90.18975254 117 89 C116.17757812 88.92523438 115.35515625 88.85046875 114.5078125 88.7734375 C102.39439079 87.34668344 95.19016453 82.2777656 86.03125 74.5390625 C81.23241569 70.90302266 77.21161374 76.70206499 73.40625 79.82617188 Z M3 132 C1.20716149 139.37822 0.84185361 144.68628168 3 152 C6.12406383 148.87593617 5.97460287 146.52487407 6.1875 142.125 C6.1530588 138.44667947 5.37316047 135.43290119 4 132 C3.67 132 3.34 132 3 132 Z M161 133 C160.10614986 136.06462904 159.86527992 138.81181379 159.875 142 C159.87242187 142.845625 159.86984375 143.69125 159.8671875 144.5625 C159.99166289 146.84698944 160.36122543 148.80991574 161 151 C161.66 151 162.32 151 163 151 C164.79321797 144.26853564 165.2158855 139.6476565 163 133 C162.34 133 161.68 133 161 133 Z " fill="#068858" transform="translate(372,296)"/>
<path d="M0 0 C0.7115625 -0.01224609 1.423125 -0.02449219 2.15625 -0.03710938 C9.01818928 -0.05631256 9.01818928 -0.05631256 12 2.1875 C12.90316325 4.89698975 13.146575 6.58885334 13.20532227 9.38354492 C13.22526749 10.22418991 13.24521271 11.0648349 13.26576233 11.93095398 C13.28247482 12.83416885 13.29918732 13.73738373 13.31640625 14.66796875 C13.33718735 15.59595779 13.35796844 16.52394684 13.37937927 17.48005676 C13.44477323 20.4449624 13.50371262 23.40995672 13.5625 26.375 C13.60569487 28.3847748 13.64930947 30.39454063 13.69335938 32.40429688 C13.80044427 37.33194032 13.90174045 42.25967299 14 47.1875 C18.7005123 48.04225171 22.84616708 48.19582345 27.625 47.875 C28.91664063 47.79636719 30.20828125 47.71773437 31.5390625 47.63671875 C34.66523494 47.23095145 36.30871835 46.65396486 39 45.1875 C39.00410889 43.96119873 39.00821777 42.73489746 39.01245117 41.47143555 C39.03420781 36.92559663 39.08846097 32.38062759 39.15258789 27.83520508 C39.17579829 25.86719087 39.19017073 23.89905191 39.19555664 21.9309082 C39.20482417 19.10288479 39.24576458 16.27683167 39.29296875 13.44921875 C39.2890361 12.56787766 39.28510345 11.68653656 39.28105164 10.77848816 C39.33622253 8.47362877 39.42942725 6.42133384 40 4.1875 C44.9976922 -0.15816243 50.7484571 0.86358586 57 1.1875 C58.21429687 1.23390625 58.21429687 1.23390625 59.453125 1.28125 C64.49386628 1.65463824 64.49386628 1.65463824 66.67733765 3.95341492 C68.12693711 6.40190717 68.44133606 7.86388066 68.60009766 10.68286133 C68.65670563 11.56931839 68.7133136 12.45577545 68.77163696 13.36909485 C68.81863739 14.32623886 68.86563782 15.28338287 68.9140625 16.26953125 C69.00401993 17.77733406 69.00401993 17.77733406 69.09579468 19.31559753 C69.28503934 22.54314229 69.45511098 25.77138466 69.625 29 C69.74617589 31.09968014 69.86856026 33.1992909 69.9921875 35.29882812 C70.59626918 45.73713845 71.10971595 56.17942358 71.5703125 66.625 C71.63081284 67.99631828 71.63081284 67.99631828 71.6925354 69.39533997 C71.94708552 75.3874056 72.12564541 81.37884974 72.25 87.375 C72.27178314 88.10772629 72.29356628 88.84045258 72.31600952 89.59538269 C72.33326202 92.54675459 72.2368789 94.74920546 70.81933594 97.37207031 C67.76211564 100.42272653 64.47862172 99.74554748 60.3515625 99.78320312 C58.69253906 99.76676758 58.69253906 99.76676758 57 99.75 C55.89398437 99.77384766 54.78796875 99.79769531 53.6484375 99.82226562 C52.05902344 99.81936523 52.05902344 99.81936523 50.4375 99.81640625 C49.46683594 99.81713135 48.49617187 99.81785645 47.49609375 99.81860352 C45 99.1875 45 99.1875 43.20141602 97.03686523 C41.86315087 93.86293869 41.51701839 91.40392645 41.33984375 87.96875 C41.26830078 86.78925781 41.19675781 85.60976563 41.12304688 84.39453125 C41.06181641 83.17121094 41.00058594 81.94789063 40.9375 80.6875 C40.80832342 78.26000357 40.67188075 75.83288029 40.52734375 73.40625 C40.47312256 72.33310547 40.41890137 71.25996094 40.36303711 70.15429688 C39.99947563 67.18321476 39.24136248 64.89775062 38 62.1875 C35.64575325 62.16023073 33.29183038 62.14053281 30.9375 62.125 C29.62652344 62.11339844 28.31554687 62.10179687 26.96484375 62.08984375 C20.55842272 61.86337631 20.55842272 61.86337631 15 64.1875 C14.86475188 66.68302759 14.78950741 69.15485306 14.75390625 71.65234375 C14.72097154 73.1894589 14.68775983 74.72656813 14.65429688 76.26367188 C14.60682615 78.69746874 14.56239947 81.13124097 14.52319336 83.56518555 C14.48356602 85.90699496 14.4320018 88.24830651 14.37890625 90.58984375 C14.3704921 91.32009262 14.36207794 92.05034149 14.35340881 92.80271912 C14.22667352 97.96082648 14.22667352 97.96082648 12 100.1875 C8.37567136 100.69249972 4.71803253 100.60419052 1.0625 100.625 C0.04736328 100.65787109 -0.96777344 100.69074219 -2.01367188 100.72460938 C-2.98755859 100.73169922 -3.96144531 100.73878906 -4.96484375 100.74609375 C-6.30470337 100.76627563 -6.30470337 100.76627563 -7.67163086 100.78686523 C-10 100.1875 -10 100.1875 -11.77246094 98.21801758 C-13.42577934 94.13634667 -13.56631024 90.5126694 -13.67578125 86.140625 C-13.70859695 85.19882385 -13.74141266 84.25702271 -13.77522278 83.28668213 C-14.19672046 69.44095662 -14.18698213 55.58136881 -14.18530273 41.73046875 C-14.18519925 37.68440792 -14.1990866 33.63851534 -14.21607494 29.59249496 C-14.22714474 26.45277089 -14.22922385 23.31308907 -14.22869301 20.17334747 C-14.22987163 18.67897182 -14.23428679 17.18459503 -14.24202538 15.69023895 C-14.25176526 13.62376874 -14.24897653 11.55768667 -14.24291992 9.49121094 C-14.24434494 8.31846619 -14.24576996 7.14572144 -14.24723816 5.93743896 C-14 3.1875 -14 3.1875 -12 1.1875 C-8.16384 -0.26028154 -4.04436427 0.00366337 0 0 Z " fill="#068858" transform="translate(639,597.8125)"/>
<path d="M0 0 C0.88781662 -0.0066568 1.77563324 -0.0133136 2.69035339 -0.02017212 C4.54997708 -0.03022242 6.40963629 -0.03499153 8.26928711 -0.03466797 C11.11566402 -0.0390783 13.9605334 -0.07557798 16.80664062 -0.11328125 C18.62108848 -0.11914363 20.43554365 -0.12311689 22.25 -0.125 C23.09794632 -0.13937103 23.94589264 -0.15374207 24.8195343 -0.16854858 C30.64692373 -0.12324541 30.64692373 -0.12324541 33.7956543 2.11474609 C37.37411808 7.42321887 36.47665941 13.65719443 36.48046875 19.8359375 C36.49271484 20.88136719 36.50496094 21.92679687 36.51757812 23.00390625 C36.51951172 24.01066406 36.52144531 25.01742188 36.5234375 26.0546875 C36.52754639 26.97185547 36.53165527 27.88902344 36.53588867 28.83398438 C36.28149525 31.45410877 35.62118693 33.08550094 34.29296875 35.3359375 C32.0625 35.22265625 32.0625 35.22265625 29.29296875 34.3359375 C27.65608116 32.28174643 26.33021075 30.37410836 24.98046875 28.1484375 C18.9033529 18.8057596 11.23982992 13.14765715 0.27734375 10.6484375 C-2.37942266 10.15795755 -5.03243532 9.7158801 -7.70703125 9.3359375 C-5.61355501 14.02892894 -3.12816153 17.32071173 0.41796875 21.0234375 C4.7999281 25.67199915 8.91464298 30.45088292 12.91796875 35.43359375 C15.12547077 38.13124836 17.39249372 40.75870112 19.68798828 43.38085938 C24.30001279 48.66592703 28.72723355 54.03740657 32.85546875 59.7109375 C33.26079834 60.2572583 33.66612793 60.8035791 34.08374023 61.36645508 C38.34447316 67.35751748 41.22812888 73.57398811 40.0625 80.96484375 C37.76157211 88.0545048 32.8522545 93.90721995 26.29296875 97.3359375 C23.34805809 98.31757439 21.42017227 98.46796704 18.35009766 98.48120117 C17.34540436 98.48758102 16.34071106 98.49396088 15.30557251 98.50053406 C13.67898209 98.50220329 13.67898209 98.50220329 12.01953125 98.50390625 C10.90363617 98.50723465 9.78774109 98.51056305 8.63803101 98.51399231 C6.27594414 98.51905798 3.91385011 98.52140075 1.55175781 98.52124023 C-2.06066705 98.52342458 -5.67278553 98.54157848 -9.28515625 98.56054688 C-11.57942604 98.56348129 -13.87369728 98.56546576 -16.16796875 98.56640625 C-17.2483139 98.57359177 -18.32865906 98.58077728 -19.44174194 98.58818054 C-20.45273956 98.58510391 -21.46373718 98.58202728 -22.50537109 98.57885742 C-23.83415787 98.58099495 -23.83415787 98.58099495 -25.18978882 98.58317566 C-28.05696115 98.30156813 -30.14170954 97.64354933 -32.70703125 96.3359375 C-35.06711942 92.79580525 -34.94166769 91.32471795 -34.90234375 87.13671875 C-34.89589844 85.92822266 -34.88945312 84.71972656 -34.8828125 83.47460938 C-34.85767578 81.5806543 -34.85767578 81.5806543 -34.83203125 79.6484375 C-34.82300781 78.37419922 -34.81398437 77.09996094 -34.8046875 75.78710938 C-34.78108766 72.63653123 -34.74816319 69.48632767 -34.70703125 66.3359375 C-30.28969647 65.07391011 -30.28969647 65.07391011 -27.72167969 66.22875977 C-27.09293945 66.69854248 -26.46419922 67.1683252 -25.81640625 67.65234375 C-24.75909302 68.42372681 -24.75909302 68.42372681 -23.68041992 69.21069336 C-22.94670166 69.76764893 -22.2129834 70.32460449 -21.45703125 70.8984375 C-19.92737315 72.01602179 -18.39742841 73.13321385 -16.8671875 74.25 C-15.48013668 75.27819801 -14.09337777 76.30679005 -12.70703125 77.3359375 C-5.24184875 82.77501096 2.52175312 86.41219896 11.29296875 89.3359375 C8.08811741 83.33088777 4.20621636 78.08502816 0.04296875 72.7109375 C-0.6521582 71.80448486 -1.34728516 70.89803223 -2.06347656 69.96411133 C-5.75208395 65.15542278 -9.46152012 60.36310244 -13.17578125 55.57421875 C-14.25230957 54.17840576 -14.25230957 54.17840576 -15.35058594 52.75439453 C-16.72027676 50.97862244 -18.09563567 49.20720291 -19.47753906 47.44091797 C-26.14363416 38.78731994 -31.22915507 30.0281066 -30.70703125 18.7734375 C-29.77546609 12.42992239 -25.71527499 8.3984581 -21.39453125 3.9609375 C-14.98146101 0.08326712 -7.31396493 0.01942924 0 0 Z " fill="#068858" transform="translate(230.70703125,458.6640625)"/>
<path d="M0 0 C0.88781662 -0.0066568 1.77563324 -0.0133136 2.69035339 -0.02017212 C4.54997708 -0.03022242 6.40963629 -0.03499153 8.26928711 -0.03466797 C11.11566402 -0.0390783 13.9605334 -0.07557798 16.80664062 -0.11328125 C18.62108848 -0.11914363 20.43554365 -0.12311689 22.25 -0.125 C23.09794632 -0.13937103 23.94589264 -0.15374207 24.8195343 -0.16854858 C30.64692373 -0.12324541 30.64692373 -0.12324541 33.7956543 2.11474609 C37.37411808 7.42321887 36.47665941 13.65719443 36.48046875 19.8359375 C36.49271484 20.88136719 36.50496094 21.92679688 36.51757812 23.00390625 C36.51951172 24.01066406 36.52144531 25.01742187 36.5234375 26.0546875 C36.52754639 26.97185547 36.53165527 27.88902344 36.53588867 28.83398438 C36.28149525 31.45410877 35.62118693 33.08550094 34.29296875 35.3359375 C31.00924779 35.04355139 29.6584754 34.75410189 27.44921875 32.2265625 C26.90265625 31.35515625 26.35609375 30.48375 25.79296875 29.5859375 C19.28540328 19.75476563 10.84795374 13.14604274 -0.70703125 10.3359375 C-3.04743479 9.89630369 -5.33615291 9.5881586 -7.70703125 9.3359375 C-5.69603033 13.77960083 -3.44071909 16.9994809 -0.08203125 20.5234375 C3.36995024 24.22091549 6.68112205 27.95979291 9.85546875 31.8984375 C12.71346422 35.44335469 15.6461046 38.86142625 18.73046875 42.2109375 C40.48909899 66.17586242 40.48909899 66.17586242 40.29296875 78.3359375 C38.88101219 85.75962661 33.97719441 91.31642818 28.2578125 96.00390625 C24.96334801 98.23733048 22.21932129 98.46452215 18.35009766 98.48120117 C17.34540436 98.48758102 16.34071106 98.49396088 15.30557251 98.50053406 C13.67898209 98.50220329 13.67898209 98.50220329 12.01953125 98.50390625 C10.90363617 98.50723465 9.78774109 98.51056305 8.63803101 98.51399231 C6.27594414 98.51905798 3.91385011 98.52140075 1.55175781 98.52124023 C-2.06066705 98.52342458 -5.67278553 98.54157848 -9.28515625 98.56054688 C-11.57942604 98.56348129 -13.87369728 98.56546576 -16.16796875 98.56640625 C-17.2483139 98.57359177 -18.32865906 98.58077728 -19.44174194 98.58818054 C-20.45273956 98.58510391 -21.46373718 98.58202728 -22.50537109 98.57885742 C-23.83415787 98.58099495 -23.83415787 98.58099495 -25.18978882 98.58317566 C-28.05696115 98.30156813 -30.14170954 97.64354933 -32.70703125 96.3359375 C-35.06711942 92.79580525 -34.94166769 91.32471795 -34.90234375 87.13671875 C-34.89589844 85.92822266 -34.88945312 84.71972656 -34.8828125 83.47460938 C-34.85767578 81.5806543 -34.85767578 81.5806543 -34.83203125 79.6484375 C-34.82300781 78.37419922 -34.81398438 77.09996094 -34.8046875 75.78710938 C-34.78108766 72.63653123 -34.74816319 69.48632767 -34.70703125 66.3359375 C-30.28969647 65.07391011 -30.28969647 65.07391011 -27.72167969 66.22875977 C-27.09293945 66.69854248 -26.46419922 67.1683252 -25.81640625 67.65234375 C-24.75909302 68.42372681 -24.75909302 68.42372681 -23.68041992 69.21069336 C-22.94670166 69.76764893 -22.2129834 70.32460449 -21.45703125 70.8984375 C-19.92737315 72.01602179 -18.39742841 73.13321385 -16.8671875 74.25 C-15.48013668 75.27819801 -14.09337777 76.30679005 -12.70703125 77.3359375 C-5.24184875 82.77501096 2.52175312 86.41219896 11.29296875 89.3359375 C7.37442299 82.16020391 2.65153339 75.81819936 -2.43359375 69.453125 C-6.33637303 64.56550948 -10.15203822 59.61237202 -13.95703125 54.6484375 C-14.94872314 53.36682739 -14.94872314 53.36682739 -15.96044922 52.05932617 C-32.21539599 30.81961047 -32.21539599 30.81961047 -30.37890625 16.76171875 C-28.72368128 10.78558675 -23.93946437 5.49973427 -18.70703125 2.3359375 C-12.52825505 0.42542013 -6.42698677 0.01707302 0 0 Z " fill="#068858" transform="translate(531.70703125,183.6640625)"/>
<path d="M0 0 C0.77214844 -0.04640625 1.54429687 -0.0928125 2.33984375 -0.140625 C3.0359375 -0.18960938 3.73203125 -0.23859375 4.44921875 -0.2890625 C8.02810311 0.58606616 9.34000748 2.34895095 11.58984375 5.234375 C12.98229572 8.58694155 13.86869157 12.03667197 14.77734375 15.546875 C15.3770912 17.72221597 15.98012941 19.89665155 16.5859375 22.0703125 C16.90675293 23.23143555 17.22756836 24.39255859 17.55810547 25.58886719 C19.36853448 31.98577349 21.3518868 38.32850181 23.33984375 44.671875 C23.54602325 45.33302307 23.75220276 45.99417114 23.96463013 46.675354 C26.44623053 54.62663129 29.00970461 62.54609404 31.67578125 70.4375 C31.93049194 71.19293594 32.18520264 71.94837189 32.44763184 72.72669983 C33.6824761 76.38426772 34.92677554 80.03819034 36.18652344 83.68725586 C36.63626208 85.0088857 37.08581608 86.33057838 37.53515625 87.65234375 C37.93234863 88.80500732 38.32954102 89.9576709 38.73876953 91.14526367 C39.53876208 94.04896583 39.88635077 96.24841 39.58984375 99.234375 C37.25784009 102.07333597 35.3388421 102.27890755 31.71484375 102.921875 C30.00809928 103.04945557 28.29927419 103.1501073 26.58984375 103.234375 C25.42710937 103.31042969 24.264375 103.38648438 23.06640625 103.46484375 C21.22175781 103.53638672 21.22175781 103.53638672 19.33984375 103.609375 C18.1796875 103.65835938 17.01953125 103.70734375 15.82421875 103.7578125 C12.555927 103.22888606 10.9497757 102.59402936 8.76464844 100.08886719 C6.04796423 95.80043551 4.52074281 90.93442234 2.83984375 86.171875 C2.44152344 85.08326172 2.04320312 83.99464844 1.6328125 82.87304688 C-1.46410868 74.34339109 -1.46410868 74.34339109 -2.41015625 70.234375 C-15.74097337 68.98138221 -15.74097337 68.98138221 -27.90185547 72.45605469 C-29.71474845 74.59349601 -30.53272866 76.58160309 -31.53125 79.19921875 C-31.90958984 80.16408203 -32.28792969 81.12894531 -32.67773438 82.12304688 C-33.45587479 84.1508886 -34.23192707 86.17953288 -35.00585938 88.20898438 C-35.38548828 89.17513672 -35.76511719 90.14128906 -36.15625 91.13671875 C-36.49325928 92.01835693 -36.83026855 92.89999512 -37.17749023 93.80834961 C-38.57228052 96.5534538 -40.06752847 98.24720738 -42.41015625 100.234375 C-45.72071032 101.19995327 -47.55551704 101.57173258 -50.78515625 100.296875 C-51.32140625 99.94625 -51.85765625 99.595625 -52.41015625 99.234375 C-52.89866098 92.91999908 -51.23589038 88.37453982 -48.82421875 82.5859375 C-48.4516243 81.66419739 -48.07902985 80.74245728 -47.69514465 79.79278564 C-46.48652746 76.81020733 -45.26115881 73.8348439 -44.03515625 70.859375 C-43.19948095 68.80791082 -42.36492994 66.75598831 -41.53149414 64.70361328 C-39.89635671 60.67986978 -38.25561962 56.65848261 -36.61083984 52.63867188 C-34.36739895 47.14496943 -32.18730375 41.62879962 -30.0234375 36.10327148 C-26.73826473 27.73822296 -23.29304522 19.46149708 -19.53515625 11.296875 C-19.17736084 10.50200684 -18.81956543 9.70713867 -18.45092773 8.88818359 C-18.11005127 8.16840332 -17.7691748 7.44862305 -17.41796875 6.70703125 C-17.1255127 6.08062744 -16.83305664 5.45422363 -16.53173828 4.80883789 C-14.71092671 2.25280527 -12.3726654 1.42945334 -9.3671875 0.8203125 C-6.24686791 0.51339582 -3.12027573 0.30343038 0 0 Z M-15.41015625 37.234375 C-16.41652175 39.66942009 -17.41542038 42.10708364 -18.41015625 44.546875 C-18.69632812 45.23716797 -18.9825 45.92746094 -19.27734375 46.63867188 C-20.49926369 49.64983174 -21.41015625 51.95324484 -21.41015625 55.234375 C-17.34487245 57.2670169 -12.65846033 56.41341975 -8.41015625 55.234375 C-8.92101437 48.79756272 -10.13958522 43.27495076 -12.41015625 37.234375 C-13.40015625 37.234375 -14.39015625 37.234375 -15.41015625 37.234375 Z " fill="#068858" transform="translate(382.41015625,178.765625)"/>
<path d="M0 0 C2.62652561 2.83714703 3.68281722 5.59215951 4.7265625 9.27734375 C5.03118408 10.33260254 5.33580566 11.38786133 5.6496582 12.47509766 C5.971521 13.61769043 6.29338379 14.7602832 6.625 15.9375 C7.33828911 18.40279409 8.05318575 20.86762353 8.76953125 23.33203125 C8.95317734 23.96683411 9.13682343 24.60163696 9.32603455 25.25567627 C11.25107986 31.90070431 13.26626982 38.51642085 15.3125 45.125 C15.67545166 46.29998047 16.03840332 47.47496094 16.41235352 48.68554688 C18.52876176 55.47335589 20.73140508 62.2241872 23.015625 68.95703125 C23.269384 69.70724548 23.52314301 70.45745972 23.78459167 71.23040771 C25.02567726 74.89595856 26.27697058 78.55745712 27.54614258 82.21337891 C28.00111157 83.54709898 28.45579698 84.88091584 28.91015625 86.21484375 C29.31371338 87.38136475 29.71727051 88.54788574 30.13305664 89.74975586 C31.01278769 93.04794214 31.39937466 95.60914671 31 99 C25.47412228 102.68391848 19.39243312 102.27261462 12.9375 102.375 C11.59075195 102.43107422 11.59075195 102.43107422 10.21679688 102.48828125 C8.91645508 102.50568359 8.91645508 102.50568359 7.58984375 102.5234375 C6.80472412 102.54325684 6.01960449 102.56307617 5.21069336 102.58349609 C1.86865347 101.70138949 0.86374478 99.83530007 -1 97 C-2.21679688 94.29272461 -2.21679688 94.29272461 -3.21875 91.40234375 C-3.59386719 90.35369141 -3.96898437 89.30503906 -4.35546875 88.22460938 C-5.11970275 86.02971891 -5.88271996 83.8344044 -6.64453125 81.63867188 C-7.01964844 80.59130859 -7.39476562 79.54394531 -7.78125 78.46484375 C-8.11189453 77.512146 -8.44253906 76.55944824 -8.78320312 75.57788086 C-10.16117644 72.65853491 -11.45544256 70.98555214 -14 69 C-16.24222821 68.48122913 -16.24222821 68.48122913 -18.625 68.6875 C-19.49640625 68.72746094 -20.3678125 68.76742187 -21.265625 68.80859375 C-22.16796875 68.87175781 -23.0703125 68.93492187 -24 69 C-24.90234375 69.03222656 -25.8046875 69.06445312 -26.734375 69.09765625 C-31.82657007 69.27538728 -31.82657007 69.27538728 -36.15258789 71.73046875 C-38.11015162 74.1353204 -39.10932292 76.16290291 -40.18359375 79.0625 C-40.55419922 80.02414062 -40.92480469 80.98578125 -41.30664062 81.9765625 C-42.06006855 83.99090867 -42.81007507 86.00653789 -43.55664062 88.0234375 C-47.14830878 97.31073193 -47.14830878 97.31073193 -52 100 C-56.13530644 100.49623677 -57.48746854 100.34168764 -61 98 C-60.58486473 91.82936729 -59.43310293 86.68706795 -57.0078125 81.01171875 C-56.70609131 80.27898743 -56.40437012 79.5462561 -56.09350586 78.7913208 C-55.11433375 76.41894701 -54.11972819 74.05338759 -53.125 71.6875 C-52.09236272 69.19669418 -51.06374287 66.70425417 -50.03536987 64.21168518 C-49.34505086 62.53913623 -48.65342011 60.86712807 -47.96047974 59.19566345 C-44.90585965 51.81708972 -42.00381864 44.38622085 -39.125 36.9375 C-35.91385691 28.69584244 -32.59552775 20.51967252 -29 12.4375 C-28.63793457 11.61564209 -28.27586914 10.79378418 -27.90283203 9.94702148 C-27.56364746 9.20009033 -27.22446289 8.45315918 -26.875 7.68359375 C-26.58367188 7.03962646 -26.29234375 6.39565918 -25.9921875 5.73217773 C-24.8657354 3.76559859 -23.74593313 2.44610207 -22 1 C-18.671875 0.234375 -18.671875 0.234375 -14.75 -0.25 C-13.46609375 -0.42015625 -12.1821875 -0.5903125 -10.859375 -0.765625 C-6.97027455 -1.00180519 -3.78290695 -0.94111344 0 0 Z M-24 36 C-25.03227862 38.60014527 -26.05105152 41.20426369 -27.0625 43.8125 C-27.35705078 44.55048828 -27.65160156 45.28847656 -27.95507812 46.04882812 C-29.7697456 50.44384301 -29.7697456 50.44384301 -29 55 C-25.37 55 -21.74 55 -18 55 C-15.54109249 51.16048073 -15.54109249 51.16048073 -16.8984375 47.328125 C-17.37544633 45.96334974 -17.86821024 44.60399891 -18.375 43.25 C-18.6225 42.55261719 -18.87 41.85523438 -19.125 41.13671875 C-19.73656427 39.41963444 -20.36652005 37.7091204 -21 36 C-21.99 36 -22.98 36 -24 36 Z " fill="#068858" transform="translate(549,599)"/>
<path d="M0 0 C2.55057525 2.7726015 3.62144696 5.39875693 4.62109375 8.99609375 C5.05518555 10.51807373 5.05518555 10.51807373 5.49804688 12.07080078 C5.80806641 13.18181152 6.11808594 14.29282227 6.4375 15.4375 C9.73501755 26.91103262 13.29377135 38.2775345 17 49.625 C17.51662145 51.21155557 18.03314203 52.79814399 18.54956055 54.38476562 C20.46264006 60.25666311 22.37922066 66.12737185 24.31835938 71.99072266 C25.4688049 75.47086611 26.60994563 78.95394234 27.75 82.4375 C28.25273437 83.93627686 28.25273437 83.93627686 28.765625 85.46533203 C31.71212925 94.50646442 31.71212925 94.50646442 31 99 C25.47412228 102.68391848 19.39243312 102.27261462 12.9375 102.375 C11.59075195 102.43107422 11.59075195 102.43107422 10.21679688 102.48828125 C8.91645508 102.50568359 8.91645508 102.50568359 7.58984375 102.5234375 C6.80472412 102.54325684 6.01960449 102.56307617 5.21069336 102.58349609 C1.86865347 101.70138949 0.86374478 99.83530007 -1 97 C-2.21679688 94.29272461 -2.21679688 94.29272461 -3.21875 91.40234375 C-3.59386719 90.35369141 -3.96898437 89.30503906 -4.35546875 88.22460938 C-5.11970275 86.02971891 -5.88271996 83.8344044 -6.64453125 81.63867188 C-7.01964844 80.59130859 -7.39476562 79.54394531 -7.78125 78.46484375 C-8.11189453 77.512146 -8.44253906 76.55944824 -8.78320312 75.57788086 C-10.16117644 72.65853491 -11.45544256 70.98555214 -14 69 C-16.24222821 68.48122913 -16.24222821 68.48122913 -18.625 68.6875 C-19.49640625 68.72746094 -20.3678125 68.76742187 -21.265625 68.80859375 C-22.16796875 68.87175781 -23.0703125 68.93492187 -24 69 C-24.90234375 69.03222656 -25.8046875 69.06445312 -26.734375 69.09765625 C-31.82657007 69.27538728 -31.82657007 69.27538728 -36.15258789 71.73046875 C-38.11015162 74.1353204 -39.10932292 76.16290291 -40.18359375 79.0625 C-40.55419922 80.02414062 -40.92480469 80.98578125 -41.30664062 81.9765625 C-42.06006855 83.99090867 -42.81007507 86.00653789 -43.55664062 88.0234375 C-47.14830878 97.31073193 -47.14830878 97.31073193 -52 100 C-56.13530644 100.49623677 -57.48746854 100.34168764 -61 98 C-60.74667374 88.91065369 -57.08989178 81.27640981 -53.5625 73.0625 C-52.2690074 70.00370369 -50.9838971 66.94141316 -49.69921875 63.87890625 C-49.37910828 63.11861115 -49.0589978 62.35831604 -48.72918701 61.57498169 C-45.9476271 54.94316478 -43.38963349 48.23725084 -40.875 41.5 C-37.4226724 32.33685994 -33.59589202 23.38973872 -29.5 14.5 C-28.9829248 13.37658203 -28.46584961 12.25316406 -27.93310547 11.09570312 C-24.26684104 3.26684104 -24.26684104 3.26684104 -22 1 C-18.76953125 0.33203125 -18.76953125 0.33203125 -14.8125 -0.1875 C-13.51957031 -0.36667969 -12.22664063 -0.54585937 -10.89453125 -0.73046875 C-6.97870334 -1.00147389 -3.80891651 -0.9533918 0 0 Z M-23 36 C-26.14819255 41.86215164 -28.26375242 47.5811453 -30 54 C-28.94021067 55.28612676 -28.94021067 55.28612676 -26.49609375 55.09765625 C-25.48675781 55.08605469 -24.47742188 55.07445312 -23.4375 55.0625 C-22.42558594 55.05347656 -21.41367188 55.04445313 -20.37109375 55.03515625 C-19.58863281 55.02355469 -18.80617188 55.01195312 -18 55 C-16.68997694 53.43531291 -16.68997694 53.43531291 -16 51 C-16.66611098 48.27763337 -17.40007299 45.85472924 -18.375 43.25 C-18.6225 42.55261719 -18.87 41.85523438 -19.125 41.13671875 C-19.73656427 39.41963444 -20.36652005 37.7091204 -21 36 C-21.66 36 -22.32 36 -23 36 Z " fill="#068858" transform="translate(248,599)"/>
<path d="M0 0 C0.87398437 -0.03738281 1.74796875 -0.07476562 2.6484375 -0.11328125 C3.45796875 -0.15066406 4.2675 -0.18804687 5.1015625 -0.2265625 C8.49272151 0.40207072 9.35008537 1.39052496 11.3984375 4.19921875 C12.84263097 7.64303406 13.89350054 11.1859597 14.9609375 14.76171875 C15.29681885 15.84727051 15.6327002 16.93282227 15.97875977 18.05126953 C16.72274632 20.45636236 17.46165533 22.86302998 18.19628906 25.27099609 C20.13926293 31.63633261 22.13839157 37.98420458 24.13284302 44.33355713 C24.83643303 46.57579793 25.53734694 48.81886326 26.23803711 51.06201172 C28.44689725 58.11688524 30.69300426 65.15482807 33.06640625 72.15625 C33.68914429 73.99533936 33.68914429 73.99533936 34.32446289 75.87158203 C35.09887662 78.1419972 35.88013725 80.41009375 36.66967773 82.67529297 C38.57136076 88.23473961 39.93489158 93.33466052 40.3984375 99.19921875 C36.66919047 102.92846578 32.39076745 102.95311798 27.3984375 103.19921875 C26.23570312 103.27527344 25.07296875 103.35132813 23.875 103.4296875 C22.03035156 103.50123047 22.03035156 103.50123047 20.1484375 103.57421875 C18.98828125 103.62320313 17.828125 103.6721875 16.6328125 103.72265625 C12.36273809 103.03160556 11.19765499 101.44002328 8.3984375 98.19921875 C6.94458008 95.27661133 6.94458008 95.27661133 5.79296875 92.09375 C5.36693359 90.94583984 4.94089844 89.79792969 4.50195312 88.61523438 C4.07591797 87.42607422 3.64988281 86.23691406 3.2109375 85.01171875 C2.34708582 82.64153366 1.47881545 80.2729529 0.60546875 77.90625 C0.2288208 76.85928955 -0.14782715 75.8123291 -0.53588867 74.73364258 C-1.46026798 72.08868153 -1.46026798 72.08868153 -3.6015625 70.19921875 C-7.59642866 69.82089274 -11.59492872 70.0717993 -15.6015625 70.19921875 C-17.13490234 70.17408203 -17.13490234 70.17408203 -18.69921875 70.1484375 C-19.65699219 70.16519531 -20.61476563 70.18195313 -21.6015625 70.19921875 C-22.4678125 70.19921875 -23.3340625 70.19921875 -24.2265625 70.19921875 C-27.57411837 71.60871596 -28.20587114 73.60074676 -29.64550781 76.83740234 C-31.62539348 81.72846821 -33.59155955 86.62439597 -35.42578125 91.57226562 C-37.0555307 95.65962531 -37.94114093 97.74681729 -41.65234375 100.2890625 C-45.08358869 101.3479765 -47.16590056 101.15800813 -50.6015625 100.19921875 C-51.6015625 99.19921875 -51.6015625 99.19921875 -51.8269043 96.08544922 C-51.58099772 91.84455979 -50.61434771 88.93719132 -48.99609375 85.01953125 C-48.72071274 84.34216919 -48.44533173 83.66480713 -48.16160583 82.96691895 C-47.25686525 80.74794994 -46.33558502 78.53626454 -45.4140625 76.32421875 C-44.44907319 73.97206506 -43.48807638 71.61830375 -42.52713013 69.26449585 C-41.86768586 67.65031025 -41.20676155 66.03672855 -40.54440308 64.42373657 C-38.3484499 59.06831552 -36.21438825 53.69231181 -34.12890625 48.29296875 C-29.37513461 35.99351262 -24.61899845 23.71722485 -19.0390625 11.76171875 C-18.64557617 10.90336426 -18.25208984 10.04500977 -17.84667969 9.16064453 C-17.29028809 8.00604736 -17.29028809 8.00604736 -16.72265625 6.828125 C-16.4073999 6.1688501 -16.09214355 5.5095752 -15.76733398 4.83032227 C-13.49579762 1.65207421 -10.70855264 1.21766533 -6.9765625 0.57421875 C-4.65330277 0.34363305 -2.32785967 0.17825952 0 0 Z M-14.6015625 37.19921875 C-15.42221319 39.0706657 -16.2327209 40.94656211 -17.0390625 42.82421875 C-17.49152344 43.86835938 -17.94398438 44.9125 -18.41015625 45.98828125 C-19.56504598 49.10080375 -20.25823434 51.90133421 -20.6015625 55.19921875 C-18.73931389 57.06146736 -16.17625075 56.32276589 -13.70703125 56.33203125 C-11.5619719 56.19672138 -9.66560554 55.78364442 -7.6015625 55.19921875 C-8.11242062 48.76240647 -9.33099147 43.23979451 -11.6015625 37.19921875 C-12.5915625 37.19921875 -13.5815625 37.19921875 -14.6015625 37.19921875 Z " fill="#068858" transform="translate(673.6015625,178.80078125)"/>
<path d="M0 0 C1.34771484 -0.01836914 1.34771484 -0.01836914 2.72265625 -0.03710938 C11.23631395 -0.05597272 11.23631395 -0.05597272 15.125 2.1875 C16.58904829 5.11559657 16.28953434 8.06926898 16.30200195 11.2800293 C16.30857315 12.01034866 16.31514435 12.74066803 16.32191467 13.49311829 C16.34166312 15.91598613 16.35331562 18.33879184 16.36328125 20.76171875 C16.36735678 21.58962229 16.3714323 22.41752583 16.37563133 23.27051735 C16.39650185 27.65519589 16.41079749 32.03984306 16.42016602 36.42456055 C16.43121335 40.94616203 16.46559071 45.46726905 16.50533772 49.9886961 C16.53153412 53.47094107 16.53986067 56.95306899 16.54344749 60.43540382 C16.54830817 62.10151306 16.5599074 63.76761725 16.57848549 65.43362999 C16.60293507 67.77214566 16.60190158 70.10939267 16.5949707 72.44799805 C16.60778076 73.13034515 16.62059082 73.81269226 16.63378906 74.51571655 C16.56964741 80.4848901 14.42687283 84.36990702 10.6953125 88.9375 C-1.84961426 99.78716639 -17.77537401 103.9028922 -34.09375 103.01171875 C-47.51086488 101.263963 -58.1957497 94.14546624 -66.79296875 83.90234375 C-70.73608538 78.74163767 -72.30948852 75.8969807 -71.875 69.1875 C-70.98465701 66.6801719 -70.07600602 64.45230744 -68.91796875 62.08203125 C-68.46252434 61.11229622 -68.46252434 61.11229622 -67.99787903 60.12297058 C-67.35765868 58.76625046 -66.7110393 57.41253319 -66.05834961 56.06176758 C-65.06316242 54.00137145 -64.08766058 51.93254931 -63.11523438 49.86132812 C-62.48810364 48.53852881 -61.85988509 47.21624456 -61.23046875 45.89453125 C-60.9397197 45.28092239 -60.64897064 44.66731354 -60.34941101 44.03511047 C-58.7992039 40.83728397 -57.27506207 37.82849494 -54.875 35.1875 C-52.25 34.875 -52.25 34.875 -49.875 35.1875 C-48.33836082 36.72413918 -48.53402444 38.32117713 -48.296875 40.45703125 C-45.89353889 60.43988726 -40.91195363 72.81114916 -24.8125 85.625 C-22.07944222 87.07875414 -20.66938839 87.47120317 -17.69140625 87.78515625 C-16.43199219 87.91792969 -15.17257813 88.05070312 -13.875 88.1875 C-13.93558594 87.55102539 -13.99617188 86.91455078 -14.05859375 86.25878906 C-15.6293504 68.90192805 -16.11348857 51.59438466 -16.17456055 34.17150879 C-16.18318278 31.8082851 -16.19684997 29.4450744 -16.21557617 27.08190918 C-16.23939015 23.71977565 -16.2421353 20.35829662 -16.23828125 16.99609375 C-16.24741043 15.97952194 -16.25653961 14.96295013 -16.26594543 13.91557312 C-16.20770093 4.96495204 -16.20770093 4.96495204 -12.875 1.1875 C-8.59155569 -0.24031477 -4.48652757 0.00319099 0 0 Z " fill="#068858" transform="translate(260.875,178.8125)"/>
<path d="M0 0 C2.36199303 2.6969626 3.53070077 5.07704402 4.47265625 8.515625 C4.72692383 9.41982178 4.98119141 10.32401855 5.24316406 11.25561523 C5.51354492 12.24376221 5.78392578 13.23190918 6.0625 14.25 C6.68090681 16.43435623 7.30214928 18.61791106 7.92578125 20.80078125 C8.25916504 21.96818848 8.59254883 23.1355957 8.93603516 24.33837891 C10.79319122 30.7297572 12.76565832 37.0847738 14.75 43.4375 C14.95566589 44.09888977 15.16133179 44.76027954 15.37322998 45.44171143 C17.84759025 53.38884794 20.41859686 61.29536235 23.12109375 69.16796875 C23.37817108 69.92103806 23.63524841 70.67410736 23.90011597 71.44999695 C25.14461912 75.09459222 26.40185925 78.733663 27.68457031 82.36499023 C28.13793621 83.68323633 28.59076395 85.00166766 29.04296875 86.3203125 C29.44539795 87.46773926 29.84782715 88.61516602 30.26245117 89.79736328 C31.05973095 93.25936798 30.82588638 95.57268492 30 99 C24.16745684 100.99995674 18.89184246 101.33494825 12.75 101.3125 C11.40421875 101.33666992 11.40421875 101.33666992 10.03125 101.36132812 C9.17015625 101.36197266 8.3090625 101.36261719 7.421875 101.36328125 C6.64424805 101.36626221 5.86662109 101.36924316 5.06542969 101.37231445 C2.44893958 100.90066582 1.62492141 100.06937277 0 98 C-1.0489169 95.71301726 -1.98740097 93.4722984 -2.875 91.125 C-3.134021 90.46604736 -3.39304199 89.80709473 -3.65991211 89.12817383 C-4.94699849 85.83693823 -6.17372298 82.53282336 -7.32421875 79.19140625 C-7.73285156 78.03511719 -8.14148438 76.87882813 -8.5625 75.6875 C-8.91441406 74.63949219 -9.26632812 73.59148437 -9.62890625 72.51171875 C-10.79999543 69.9039877 -10.79999543 69.9039877 -13.05078125 68.6328125 C-17.30175165 67.72068375 -21.30377389 67.92888116 -25.625 68.1875 C-26.91277344 68.23487305 -26.91277344 68.23487305 -28.2265625 68.28320312 C-29.0515625 68.32767578 -29.8765625 68.37214844 -30.7265625 68.41796875 C-31.47502441 68.45688232 -32.22348633 68.4957959 -32.99462891 68.53588867 C-35.55077268 69.1274676 -36.39973539 69.9376037 -38 72 C-39.06089832 74.1005194 -39.06089832 74.1005194 -39.90234375 76.45703125 C-40.23556641 77.32263672 -40.56878906 78.18824219 -40.91210938 79.08007812 C-41.41967773 80.43262695 -41.41967773 80.43262695 -41.9375 81.8125 C-47.56308515 96.78154258 -47.56308515 96.78154258 -52 99 C-55.5 99.1875 -55.5 99.1875 -59 99 C-61 97 -61 97 -61.27416992 93.78271484 C-60.98740363 89.8262083 -60.1509164 87.11828761 -58.61328125 83.4765625 C-58.23357178 82.56067352 -58.23357178 82.56067352 -57.84619141 81.62628174 C-57.01254905 79.62109349 -56.16245742 77.62332022 -55.3125 75.625 C-54.41728587 73.48298589 -53.52664579 71.33910999 -52.63652039 69.19497681 C-52.02056338 67.71134245 -51.40328695 66.22825524 -50.78474426 64.74569702 C-47.78192717 57.53078023 -44.95059267 50.25281492 -42.12527466 42.96704102 C-38.09285529 32.58779675 -33.95460006 22.27816888 -29.375 12.125 C-28.97321533 11.22765137 -28.57143066 10.33030273 -28.1574707 9.40576172 C-27.78323975 8.59381348 -27.40900879 7.78186523 -27.0234375 6.9453125 C-26.70294434 6.24937988 -26.38245117 5.55344727 -26.05224609 4.83642578 C-24.89626775 2.81896195 -23.80218968 1.47056254 -22 0 C-19.34144165 -0.5943342 -16.87757267 -1.01251909 -14.1875 -1.3125 C-13.48818359 -1.41111328 -12.78886719 -1.50972656 -12.06835938 -1.61132812 C-7.51893097 -2.1603237 -4.14257597 -2.00174109 0 0 Z M-24 35 C-25.03479213 37.41151557 -26.0529372 39.82794469 -27.0625 42.25 C-27.35705078 42.93191406 -27.65160156 43.61382812 -27.95507812 44.31640625 C-29.48321625 48.01989395 -30.24129373 50.1840347 -29 54 C-27.18757948 54.02687279 -25.37504767 54.04633715 -23.5625 54.0625 C-22.55316406 54.07410156 -21.54382813 54.08570313 -20.50390625 54.09765625 C-18.05978933 54.28612676 -18.05978933 54.28612676 -17 53 C-16.92560644 46.33433701 -19.02044428 40.86210264 -22 35 C-22.66 35 -23.32 35 -24 35 Z " fill="#068858" transform="translate(683,458)"/>
<path d="M0 0 C1.30066406 -0.03738281 2.60132813 -0.07476562 3.94140625 -0.11328125 C8.0941952 0.3924774 8.83833734 1.15426963 11.4375 4.3125 C12.4831543 6.78491211 12.4831543 6.78491211 13.26171875 9.58984375 C13.56311768 10.64510254 13.8645166 11.70036133 14.17504883 12.78759766 C14.48853271 13.93019043 14.8020166 15.0727832 15.125 16.25 C15.82902538 18.71533094 16.53481259 21.1801593 17.2421875 23.64453125 C17.42274185 24.27933411 17.6032962 24.91413696 17.7893219 25.56817627 C19.68310615 32.2203728 21.70057158 38.83185899 23.75 45.4375 C24.11303223 46.61248047 24.47606445 47.78746094 24.85009766 48.99804688 C26.96608504 55.78596679 29.16891239 62.53670874 31.453125 69.26953125 C31.706884 70.01974548 31.96064301 70.76995972 32.22209167 71.54290771 C33.46317726 75.20845856 34.71447058 78.86995712 35.98364258 82.52587891 C36.43861157 83.85959898 36.89329698 85.19341584 37.34765625 86.52734375 C37.75121338 87.69386475 38.15477051 88.86038574 38.57055664 90.06225586 C39.44554858 93.34267481 39.75694844 95.9370864 39.4375 99.3125 C35.1022959 103.6477041 27.6590943 102.60040207 21.875 102.6875 C20.45670898 102.74357422 20.45670898 102.74357422 19.00976562 102.80078125 C18.09775391 102.81238281 17.18574219 102.82398438 16.24609375 102.8359375 C15.00557251 102.8656665 15.00557251 102.8656665 13.73999023 102.89599609 C10.31831139 102.0288757 9.33495509 100.21588033 7.4375 97.3125 C6.18896484 94.58935547 6.18896484 94.58935547 5.1484375 91.6796875 C4.76429688 90.62652344 4.38015625 89.57335937 3.984375 88.48828125 C3.59765625 87.39902344 3.2109375 86.30976563 2.8125 85.1875 C2.03204021 83.01700563 1.24832985 80.84767657 0.4609375 78.6796875 C-0.05073975 77.24278564 -0.05073975 77.24278564 -0.57275391 75.77685547 C-1.54094098 73.1231447 -1.54094098 73.1231447 -3.5625 70.3125 C-7.14577789 69.64930106 -10.80019225 69.84958044 -14.4375 69.875 C-15.44425781 69.85501953 -16.45101562 69.83503906 -17.48828125 69.81445312 C-22.991936 69.76920062 -22.991936 69.76920062 -28.0078125 71.71875 C-30.39304031 75.69812504 -31.96522706 79.90429452 -33.5625 84.25 C-38.57045756 97.81647878 -38.57045756 97.81647878 -43.5625 100.3125 C-47.0625 100.5 -47.0625 100.5 -50.5625 100.3125 C-51.2225 99.6525 -51.8825 98.9925 -52.5625 98.3125 C-52.25443521 92.72257861 -50.95081549 88.02041557 -48.7890625 82.859375 C-48.50967331 82.16989273 -48.23028412 81.48041046 -47.94242859 80.77003479 C-47.0328962 78.5304958 -46.11033604 76.29658572 -45.1875 74.0625 C-44.22372005 71.70111738 -43.26305943 69.33848074 -42.30250549 66.9757843 C-41.65475397 65.38326742 -41.00585567 63.79121652 -40.3558197 62.19963074 C-37.90095189 56.18130412 -35.53827367 50.13256614 -33.20263672 44.06689453 C-29.24984242 33.81928621 -25.0917703 23.6949374 -20.5625 13.6875 C-20.10528564 12.66696533 -19.64807129 11.64643066 -19.17700195 10.5949707 C-18.74734131 9.66386475 -18.31768066 8.73275879 -17.875 7.7734375 C-17.49988281 6.95665527 -17.12476563 6.13987305 -16.73828125 5.29833984 C-15.14256144 2.6032433 -13.34380694 1.52608479 -10.34765625 0.70703125 C-6.88290519 0.21623201 -3.49915768 0.06602184 0 0 Z M-14.5625 36.3125 C-17.71069255 42.17465164 -19.82625242 47.8936453 -21.5625 54.3125 C-20.50271067 55.59862676 -20.50271067 55.59862676 -18.05859375 55.41015625 C-17.04925781 55.39855469 -16.03992188 55.38695312 -15 55.375 C-13.98808594 55.36597656 -12.97617188 55.35695313 -11.93359375 55.34765625 C-11.15113281 55.33605469 -10.36867188 55.32445312 -9.5625 55.3125 C-8.25247694 53.74781291 -8.25247694 53.74781291 -7.5625 51.3125 C-8.22861098 48.59013337 -8.96257299 46.16722924 -9.9375 43.5625 C-10.185 42.86511719 -10.4325 42.16773438 -10.6875 41.44921875 C-11.29906427 39.73213444 -11.92902005 38.0216204 -12.5625 36.3125 C-13.2225 36.3125 -13.8825 36.3125 -14.5625 36.3125 Z " fill="#068858" transform="translate(239.5625,316.6875)"/>
<path d="M0 0 C5.81029159 5.76470443 9.74281137 13.93015128 13.9375 20.875 C20.99816839 35.11555786 20.99816839 35.11555786 32 45 C32.39268066 44.23969482 32.78536133 43.47938965 33.18994141 42.69604492 C34.67625791 39.81971893 36.16369984 36.94397835 37.65185547 34.06860352 C38.29031334 32.83445451 38.9283486 31.60008676 39.56591797 30.36547852 C41.69813088 26.23704422 43.84509182 22.11663793 46 18 C46.5475293 16.94377441 47.09505859 15.88754883 47.65917969 14.79931641 C48.17125977 13.8304248 48.68333984 12.8615332 49.2109375 11.86328125 C49.87681885 10.5935144 49.87681885 10.5935144 50.55615234 9.2980957 C52.85742646 5.6352798 54.86289081 3.3790364 59 2 C62.64192272 1.76964558 66.2890471 1.81483725 69.9375 1.8125 C70.93974609 1.80025391 71.94199219 1.78800781 72.97460938 1.77539062 C74.42383789 1.77249023 74.42383789 1.77249023 75.90234375 1.76953125 C76.78398193 1.76542236 77.66562012 1.76131348 78.57397461 1.75708008 C81.15110768 2.01513054 82.78111936 2.69934353 85 4 C84.50617575 9.30038034 83.1283867 13.34098857 80.5703125 17.9453125 C80.0504628 18.91170906 80.0504628 18.91170906 79.52011108 19.89762878 C78.39801479 21.97878427 77.26155332 24.05171081 76.125 26.125 C75.34974075 27.55820524 74.57565865 28.99204784 73.80273438 30.42651367 C72.26235474 33.28355807 70.71751995 36.13811235 69.16894531 38.99072266 C66.23305449 44.40702393 63.35878469 49.85517725 60.5 55.3125 C60.05027832 56.16408691 59.60055664 57.01567383 59.13720703 57.89306641 C58.73099121 58.6669873 58.32477539 59.4409082 57.90625 60.23828125 C57.55884766 60.89868408 57.21144531 61.55908691 56.85351562 62.23950195 C54.85585774 66.35995704 54.85023561 70.1185624 54.82421875 74.58984375 C54.80102584 76.11134204 54.77690872 77.63282647 54.75195312 79.15429688 C54.71681268 81.54851644 54.68747356 83.94222356 54.67407227 86.33666992 C54.65859198 88.65085426 54.61839491 90.96355251 54.57421875 93.27734375 C54.57612717 93.99099594 54.57803558 94.70464813 54.58000183 95.43992615 C54.49900162 98.73437187 54.19727259 100.71380939 52.31005859 103.45166016 C49.47851307 105.34953182 47.8566954 105.50260402 44.46484375 105.49609375 C43.40845703 105.49673828 42.35207031 105.49738281 41.26367188 105.49804688 C40.16603516 105.47806641 39.06839844 105.45808594 37.9375 105.4375 C36.83599609 105.44458984 35.73449219 105.45167969 34.59960938 105.45898438 C26.68071198 105.39609759 26.68071198 105.39609759 24.19921875 103.95214844 C22.33953798 100.92486679 22.48505129 97.7871621 22.41015625 94.33203125 C22.34714488 92.78319744 22.28398917 91.23436949 22.22070312 89.68554688 C22.13875036 87.25460779 22.06282603 84.82360631 21.99145508 82.39233398 C21.91727626 80.03805672 21.82076405 77.68541541 21.72265625 75.33203125 C21.708965 74.61715042 21.69527374 73.90226959 21.6811676 73.16572571 C21.27496345 63.83459918 15.76405952 56.87774436 10.66015625 49.3828125 C9.4198835 47.54039041 8.17965035 45.69794167 6.93945312 43.85546875 C5.00150399 40.98888322 3.06158336 38.12364745 1.12036133 35.25927734 C-0.76720633 32.47046023 -2.64750268 29.6768414 -4.52734375 26.8828125 C-5.10145493 26.04082306 -5.6755661 25.19883362 -6.26707458 24.33132935 C-9.03249567 20.21677032 -11.64904713 16.04498523 -14.02954102 11.69482422 C-14.45840103 10.91388397 -14.88726105 10.13294373 -15.32911682 9.32833862 C-16 7 -16 7 -15.32237244 4.28860474 C-14 2 -14 2 -10.8125 0.6875 C-3.48559671 -0.63374486 -3.48559671 -0.63374486 0 0 Z " fill="#068858" transform="translate(633,315)"/>
<path d="M0 0 C4.94933289 5.2971669 8.56540021 11.96045292 12.3125 18.125 C13.45249777 19.97825056 14.59312525 21.83111391 15.734375 23.68359375 C17.29418274 26.22168603 18.85325769 28.76019539 20.40820312 31.30126953 C21.61675014 33.26948769 22.83749903 35.22949587 24.0625 37.1875 C25.06990234 38.81751953 25.06990234 38.81751953 26.09765625 40.48046875 C28.02787932 43.03692435 29.16480585 43.73014212 32 45 C32.59425781 43.86046875 33.18851562 42.7209375 33.80078125 41.546875 C38.44681166 32.66227759 43.14378014 23.80588135 47.9375 15 C48.39745361 14.14631836 48.85740723 13.29263672 49.33129883 12.41308594 C49.98521606 11.2186084 49.98521606 11.2186084 50.65234375 10 C51.03382568 9.29875 51.41530762 8.5975 51.80834961 7.875 C53.05317752 5.91632794 54.20661932 4.47464398 56 3 C62.18599379 1.75596589 68.165303 2.00847278 74.4375 2.375 C75.34693359 2.41882813 76.25636719 2.46265625 77.19335938 2.5078125 C83.86664488 2.86664488 83.86664488 2.86664488 85 4 C85.95666151 10.21336855 82.92733551 14.4468394 79.9375 19.625 C78.84238416 21.57605691 77.74870692 23.52792179 76.65625 25.48046875 C76.0684375 26.52380371 75.480625 27.56713867 74.875 28.64208984 C71.83320222 34.08960114 68.87892206 39.58345868 65.93240356 45.08294678 C64.95496198 46.90494994 63.97276233 48.72432487 62.98999023 50.54345703 C62.38356689 51.67251465 61.77714355 52.80157227 61.15234375 53.96484375 C60.61601318 54.9612085 60.07968262 55.95757324 59.52709961 56.98413086 C56.35566197 63.24740331 54.56414973 68.17984107 54.59375 75.234375 C54.57749573 76.37413788 54.57749573 76.37413788 54.56091309 77.53692627 C54.51533088 80.75942233 54.50351461 83.98182889 54.48876953 87.20458984 C54.47310505 89.56897769 54.44013655 91.93268961 54.40625 94.296875 C54.40927124 95.02501404 54.41229248 95.75315308 54.41540527 96.50335693 C54.37314358 99.33682666 54.30383245 101.4927264 52.828125 103.95654297 C50.2626396 105.42087051 48.29024772 105.38859083 45.34375 105.3984375 C44.23902344 105.40230469 43.13429688 105.40617188 41.99609375 105.41015625 C40.84238281 105.39855469 39.68867188 105.38695312 38.5 105.375 C37.34628906 105.38660156 36.19257813 105.39820313 35.00390625 105.41015625 C33.89917969 105.40628906 32.79445313 105.40242187 31.65625 105.3984375 C30.64369141 105.39505371 29.63113281 105.39166992 28.58789062 105.38818359 C26 105 26 105 24.18334961 103.9543457 C22.34669127 100.92103643 22.48495094 97.78253224 22.41015625 94.33203125 C22.34714488 92.78319744 22.28398917 91.23436949 22.22070312 89.68554688 C22.13875036 87.25460779 22.06282603 84.82360631 21.99145508 82.39233398 C21.91727626 80.03805672 21.82076405 77.68541541 21.72265625 75.33203125 C21.708965 74.61715042 21.69527374 73.90226959 21.6811676 73.16572571 C21.27391777 63.81057828 15.72285192 56.80567103 10.625 49.27734375 C10.01865723 48.37303116 9.41231445 47.46871857 8.78759766 46.53700256 C6.86280584 43.6675114 4.93185831 40.80223745 3 37.9375 C1.06895383 35.0686618 -0.86069131 32.19890631 -2.78759766 29.32728577 C-3.98259499 27.54692671 -5.18005558 25.76821771 -6.38037109 23.99143982 C-15.59432237 10.28044902 -15.59432237 10.28044902 -15 3 C-4.20863309 -1.02877698 -4.20863309 -1.02877698 0 0 Z " fill="#068858" transform="translate(336,595)"/>
</svg>
