<?xml version="1.0" encoding="UTF-8"?>
<svg version="1.1" xmlns="http://www.w3.org/2000/svg" width="4168" height="2084">
<path d="M0 0 C2.61723248 2.61723248 3.60904611 5.60739232 4.94921875 8.98828125 C5.23799896 9.70476837 5.52677917 10.42125549 5.8243103 11.15945435 C6.7833852 13.54195177 7.73532145 15.92723899 8.6875 18.3125 C9.36655773 20.00225499 10.04617311 21.69178597 10.72631836 23.38110352 C12.13518987 26.88176501 13.54166726 30.38337343 14.94628906 33.88574219 C17.67280544 40.68055572 20.42247733 47.46592888 23.17514038 54.25018311 C24.07863897 56.47728212 24.98139226 58.70468216 25.8840332 60.93212891 C32.00502825 76.0325582 38.15909078 91.11950757 44.31008911 106.20773315 C50.73319147 121.96475847 57.13648295 137.72956233 63.51269531 153.50561523 C69.60523252 168.57778122 75.73631973 183.63407535 81.875 198.6875 C89.16621178 216.56743126 96.42857676 234.45862023 103.65618896 252.36434937 C110.07178891 268.25613583 116.5279151 284.13114021 123 300 C129.86093136 316.82226971 136.69978011 333.6530951 143.5 350.5 C150.80933079 368.60796974 158.1646807 386.69686232 165.53851318 404.77865601 C172.26311876 421.26913067 178.96558034 437.7682684 185.63110352 454.28271484 C189.55423667 463.99598263 193.51222152 473.69428889 197.49609375 483.3828125 C198.43091449 485.65971336 199.36564803 487.93665002 200.30029297 490.21362305 C202.11268632 494.6288963 203.93178245 499.04132947 205.75439453 503.45239258 C206.57742169 505.45643077 207.40018905 507.46057568 208.22265625 509.46484375 C208.60610703 510.38770172 208.9895578 511.31055969 209.3846283 512.26138306 C209.73086746 513.10832733 210.07710663 513.95527161 210.43383789 514.82788086 C210.73786026 515.56501816 211.04188263 516.30215546 211.3551178 517.06163025 C212 519 212 519 212 522 C212.66 522 213.32 522 214 522 C214.20629028 521.16782959 214.20629028 521.16782959 214.41674805 520.31884766 C217.05147287 510.18107617 220.48085462 500.29920697 223.8125 490.375 C224.48952057 488.35151457 225.16643934 486.32799509 225.84326172 484.30444336 C230.61227016 470.06309116 235.44522307 455.844007 240.3125 441.63598633 C245.45285038 426.62784033 250.54534231 411.60361279 255.63079834 396.5768013 C257.67405698 390.53935299 259.71779453 384.50206677 261.76171875 378.46484375 C262.09674219 377.47525067 262.09674219 377.47525067 262.43853378 376.46566582 C266.82317973 363.51508794 271.22121188 350.56908055 275.625 337.625 C281.54924393 320.21089941 287.46588869 302.79424177 293.375 285.375 C293.76993652 284.21081543 294.16487305 283.04663086 294.57177734 281.84716797 C297.38141744 273.56485752 300.19074739 265.28244188 303 257 C306.20811821 247.54159368 309.41639773 238.08324212 312.625 228.625 C313.02058105 227.45888184 313.41616211 226.29276367 313.82373047 225.09130859 C319.67653264 207.83880599 325.53913591 190.58965697 331.4067688 173.3421936 C336.79448644 157.50381023 342.16614484 141.66002421 347.53072453 125.81379318 C351.27651526 114.74927669 355.02449619 103.68550201 358.77294922 92.62188721 C359.57156085 90.26462434 360.37006889 87.90732637 361.16845703 85.54998779 C363.30672855 79.23660467 365.44706407 72.92392959 367.59078979 66.61239624 C368.21417426 64.77607371 368.83689374 62.93952523 369.45877075 61.10269165 C375.47313439 43.34116293 381.75788112 25.68600348 388 8 C416.38 8 444.76 8 474 8 C465.95435552 30.98755566 465.95435552 30.98755566 463.16015625 38.50390625 C462.83688354 39.37796616 462.51361084 40.25202606 462.18054199 41.15257263 C461.14294595 43.95653401 460.10279648 46.75953951 459.0625 49.5625 C458.31034855 51.59305564 457.5583168 53.62365563 456.80639648 55.65429688 C451.43693612 70.14934006 446.04948782 84.63771632 440.65454102 99.12329102 C434.37871216 115.97452151 428.11818448 132.83142142 421.85834122 149.68859482 C414.3688873 169.85675435 406.87909297 190.02478145 399.375 210.1875 C399.05940125 211.03549164 398.74380249 211.88348328 398.41864014 212.75717163 C395.98073805 219.30737634 393.54227359 225.85737164 391.10375977 232.40734863 C388.94388818 238.20895969 386.78427932 244.01066848 384.625 249.8125 C384.15281036 251.08122452 384.15281036 251.08122452 383.67108154 252.37557983 C376.19614678 272.46161671 368.73639849 292.5532948 361.27520752 312.6444397 C354.55680528 330.73534464 347.83559032 348.82518529 341.10253906 366.91064453 C334.39193815 384.93680663 327.6962629 402.96850827 321 421 C313.70673628 440.63907724 306.41177734 460.2775056 299.10253906 479.91064453 C292.68000465 497.16299612 286.2712041 514.42044337 279.86235809 531.67788315 C270.82604588 556.01043483 261.78557804 580.34141994 252.72975159 604.66671753 C250.5338695 610.56527139 248.33897994 616.46419398 246.14453125 622.36328125 C235.77211556 650.24557655 225.38764303 678.12337442 215 706 C214.34 706 213.68 706 213 706 C212.51345947 704.79617676 212.02691895 703.59235352 211.52563477 702.35205078 C197.22671201 666.97370064 182.92184954 631.59777057 168.58190918 596.23602295 C163.18782225 582.93426334 157.80140931 569.62940688 152.41699219 556.32373047 C147.4490113 544.04738745 142.47693016 531.77271755 137.5 519.5 C131.79975058 505.44363416 126.10688844 491.38429013 120.41699219 477.32373047 C115.4490113 465.04738745 110.47693016 452.77271755 105.5 440.5 C100.16141019 427.33545825 94.8289207 414.16845865 89.5 401 C84.12892192 387.72757508 78.75497385 374.4563217 73.375 361.1875 C73.06850525 360.43157562 72.7620105 359.67565125 72.44622803 358.89682007 C70.29765775 353.59781013 68.1488574 348.29889351 66 343 C63.54150436 336.93756581 61.08311786 330.87508738 58.625 324.8125 C58.31866638 324.05697845 58.01233276 323.30145691 57.69671631 322.52304077 C52.26497376 309.12589316 46.84045373 295.72582775 41.4175415 282.32510376 C37.05926722 271.55539539 32.69889706 260.78654438 28.33276367 250.02001953 C27.11878789 247.02644593 25.90542876 244.03262363 24.69262695 241.03857422 C21.65119734 233.53132341 18.60457981 226.0262504 15.54696655 218.52557373 C13.97459723 214.66687962 12.40508309 210.80702748 10.8359375 206.94702148 C10.07764603 205.0836943 9.31806839 203.22088995 8.55712891 201.35864258 C7.49700987 198.76386831 6.44140334 196.16729951 5.38671875 193.5703125 C5.07284714 192.80530426 4.75897552 192.04029602 4.43559265 191.25210571 C2.66787941 186.88462076 1.21116784 182.55435116 0 178 C-0.66 178 -1.32 178 -2 178 C-2.14695312 178.55147705 -2.29390625 179.1029541 -2.4453125 179.67114258 C-4.47470573 186.86951118 -7.23098887 193.70771832 -10.12149048 200.59350586 C-11.69006775 204.33232888 -13.24047621 208.07869496 -14.79296875 211.82421875 C-15.12814011 212.6318869 -15.46331146 213.43955505 -15.80863953 214.271698 C-20.04191136 224.48794519 -24.17497516 234.74469952 -28.3125 245 C-29.12463858 247.01181462 -29.93681321 249.02361469 -30.74902344 251.03540039 C-31.969702 254.05922451 -33.19026008 257.08309703 -34.41049194 260.10710144 C-38.51653932 270.28261835 -42.63232872 280.45418241 -46.75 290.625 C-47.09936615 291.48805756 -47.4487323 292.35111511 -47.8086853 293.24032593 C-55.50387804 312.25012948 -63.20966648 331.25563429 -70.91674805 350.26062012 C-73.0696474 355.56951979 -75.22241787 360.8784717 -77.375 366.1875 C-77.68133362 366.94302155 -77.98766724 367.69854309 -78.30328369 368.47695923 C-83.37361916 380.98271262 -88.43781254 393.49094645 -93.5 406 C-100.71199614 423.82139572 -107.93241104 441.63936435 -115.15722656 459.45556641 C-117.019147 464.04709237 -118.88071684 468.63876043 -120.7421875 473.23046875 C-121.05196533 473.99460083 -121.36174316 474.75873291 -121.6809082 475.54602051 C-122.62061113 477.86401138 -123.56030697 480.18200512 -124.5 482.5 C-131.39026807 499.49662089 -131.39026807 499.49662089 -134.76116943 507.80917358 C-141.67984197 524.87046652 -148.59359281 541.93373802 -155.5 559 C-162.71199614 576.82139572 -169.93241104 594.63936435 -177.15722656 612.45556641 C-179.33264698 617.82018839 -181.50761971 623.18499184 -183.68241882 628.54986572 C-185.23990688 632.39191726 -186.79758003 636.2338935 -188.35571289 640.07568359 C-191.25483624 647.22443141 -194.15209301 654.37391838 -197.04275513 661.52609253 C-198.39105318 664.86176656 -199.74041118 668.19701136 -201.08984375 671.53222656 C-201.72562401 673.1044422 -202.36089937 674.67686213 -202.99560547 676.24951172 C-206.88408576 685.88381319 -210.86421692 695.4688956 -215 705 C-215.66 705 -216.32 705 -217 705 C-217.21201553 704.42357758 -217.42403107 703.84715515 -217.64247131 703.25326538 C-228.24632653 674.42623725 -238.87353875 645.60808623 -249.5625 616.8125 C-249.8019912 616.16731163 -250.04148239 615.52212326 -250.2882309 614.85738373 C-252.22067937 609.65145906 -254.15323249 604.44557324 -256.0859642 599.23975372 C-261.12670758 585.66239016 -266.15843413 572.08169294 -271.1875 558.5 C-271.59477325 557.40015778 -272.00204651 556.30031555 -272.42166138 555.16714478 C-274.46398581 549.65183082 -276.50620001 544.13647606 -278.54833984 538.62109375 C-282.28051366 528.54148664 -286.01379781 518.46229077 -289.74697876 508.38305664 C-291.8313628 502.75538725 -293.91567798 497.12769236 -296 491.5 C-296.833333 489.24999988 -297.66666634 486.99999988 -298.5 484.75 C-339.75 373.375 -381 262 -423.5 147.25 C-423.91246475 146.13634567 -424.3249295 145.02269135 -424.74989319 143.87528992 C-425.58358389 141.62432402 -426.41727326 139.37335763 -427.2509613 137.12239075 C-429.32881612 131.51216499 -431.40669367 125.90194764 -433.48461914 120.29174805 C-437.29993359 109.99069404 -441.11507796 99.68957719 -444.92935181 89.38813782 C-445.80509272 87.02303657 -446.68088592 84.65795469 -447.55673218 82.29289246 C-449.68806699 76.5376099 -451.81883577 70.7821194 -453.94824219 65.02612305 C-457.66222942 54.98972441 -461.38492314 44.95690816 -465.14453125 34.9375 C-466.06146063 32.48894548 -466.97814118 30.0402979 -467.89480591 27.59164429 C-468.7249983 25.37913106 -469.56046537 23.1686611 -470.39624023 20.95825195 C-470.88420485 19.65585649 -471.37193322 18.35337248 -471.859375 17.05078125 C-472.48537598 15.39042847 -472.48537598 15.39042847 -473.12402344 13.6965332 C-474 11 -474 11 -474 8 C-466.46112676 7.86714701 -458.92221563 7.73664285 -451.383255 7.60884857 C-447.87966979 7.549391 -444.37610008 7.48923079 -440.87255859 7.42724609 C-423.58075876 7.12189922 -406.2950454 6.92406058 -389 7 C-386.39185907 13.36476357 -383.98207479 19.75563991 -381.80566406 26.2800293 C-381.51147709 27.15412823 -381.21729012 28.02822716 -380.91418839 28.92881393 C-379.94531388 31.80972072 -378.98047476 34.6919618 -378.015625 37.57421875 C-377.32541983 39.62891906 -376.63494319 41.6835282 -375.94421387 43.73805237 C-374.47516028 48.10929558 -373.00782113 52.48110888 -371.54187012 56.85339355 C-369.22646458 63.75903629 -366.90712037 70.6633518 -364.58691406 77.56738281 C-363.80608946 79.89089904 -363.02526671 82.21441588 -362.2444458 84.53793335 C-361.85858559 85.68612926 -361.47272537 86.83432518 -361.07517242 88.01731491 C-359.90536621 91.49872395 -358.73592865 94.98025662 -357.56658936 98.46182251 C-351.54949234 116.37563857 -345.50864223 134.28130615 -339.45017624 152.1811676 C-337.31095504 158.50199067 -335.1729934 164.82323996 -333.03515625 171.14453125 C-332.79690187 171.84898754 -332.5586475 172.55344383 -332.31317329 173.27924728 C-325.58969797 193.16029838 -318.88947327 213.04919277 -312.1875 232.9375 C-309.63026668 240.52606133 -307.07299975 248.11461133 -304.515625 255.703125 C-304.19999289 256.63970884 -303.88436077 257.57629269 -303.55916405 258.54125786 C-296.85798349 278.42537805 -290.14871605 298.3067651 -283.4375 318.1875 C-281.21867987 324.760393 -278.99990335 331.33330071 -276.78125 337.90625 C-276.36784237 339.13100414 -276.36784237 339.13100414 -275.94608307 340.38050079 C-270.94336388 355.20185393 -265.9442331 370.02441584 -260.94674683 384.84753418 C-260.33412738 386.66463236 -259.72150735 388.48173034 -259.10888672 390.29882812 C-258.80526152 391.19941704 -258.50163631 392.10000595 -258.18881035 393.02788544 C-256.06817564 399.31766583 -253.9466381 405.60714122 -251.82470703 411.89648438 C-250.62527272 415.4518051 -249.42589845 419.00714609 -248.2265625 422.5625 C-247.78253271 423.87875618 -247.78253271 423.87875618 -247.32953262 425.22160339 C-243.3234083 437.09813001 -239.3258267 448.97749895 -235.33500671 460.85917664 C-233.20196621 467.20940904 -231.06598181 473.55864993 -228.92916584 479.9076128 C-227.20450636 485.03274855 -225.48365225 490.15914091 -223.7656517 495.28651237 C-222.71410031 498.421806 -221.65888661 501.5558575 -220.60260391 504.68955994 C-220.11488063 506.13900219 -219.62869879 507.58896416 -219.14416122 509.03947449 C-218.484699 511.012984 -217.81983082 512.98458968 -217.15356445 514.95581055 C-216.78358841 516.05765182 -216.41361237 517.1594931 -216.03242493 518.29472351 C-215.05343647 521.15988425 -215.05343647 521.15988425 -213 524 C-203.02362299 499.90961234 -193.21882914 475.75179304 -183.4611969 451.57208252 C-179.77545818 442.43996499 -176.07708765 433.31299957 -172.375 424.1875 C-171.16396287 421.20186332 -169.95303569 418.21618206 -168.7421875 415.23046875 C-168.44084396 414.48741989 -168.13950043 413.74437103 -167.82902527 412.97880554 C-164.048087 403.65439809 -160.27433671 394.32708105 -156.5 385 C-149.28807755 367.17857449 -142.06758894 349.36063559 -134.84277344 331.54443359 C-132.04118497 324.63567107 -129.2403858 317.72658856 -126.43951416 310.8175354 C-124.87637387 306.96167766 -123.3131845 303.10583982 -121.75 299.25 C-121.12499976 297.70833343 -120.49999976 296.16666676 -119.875 294.625 C-113.625 279.20833333 -107.375 263.79166667 -101.125 248.375 C-100.81561493 247.61184982 -100.50622986 246.84869965 -100.18746948 246.06242371 C-99.56257215 244.52101097 -98.93767388 242.97959862 -98.31277466 241.43818665 C-96.74869606 237.58013799 -95.18463396 233.72208264 -93.62060547 229.86401367 C-90.82696242 222.97283691 -88.03321459 216.08170275 -85.23883057 209.19082642 C-78.32015803 192.12953348 -71.40640719 175.06626198 -64.5 158 C-57.28800386 140.17860428 -50.06758896 122.36063565 -42.84277344 104.54443359 C-40.980853 99.95290763 -39.11928598 95.36123843 -37.2578125 90.76953125 C-36.79266991 89.62217751 -36.79266991 89.62217751 -36.31813049 88.4516449 C-34.75715283 84.60118603 -33.19626191 80.75069202 -31.63549805 76.90014648 C-28.77821066 69.85121089 -25.92025096 62.80255092 -23.05938721 55.75506592 C-21.75531502 52.54251264 -20.4516042 49.3298128 -19.14801025 46.11706543 C-18.51201107 44.54971967 -17.87590417 42.98241762 -17.23968506 41.41516113 C-14.09619032 33.6703547 -10.96061516 25.92277002 -7.87109375 18.15625 C-7.16786987 16.38942871 -7.16786987 16.38942871 -6.45043945 14.58691406 C-5.59099894 12.4231946 -4.73391892 10.25853547 -3.87963867 8.09277344 C-3.50943604 7.15981445 -3.1392334 6.22685547 -2.7578125 5.265625 C-2.4395752 4.45899414 -2.12133789 3.65236328 -1.79345703 2.82128906 C-1 1 -1 1 0 0 Z " fill="#49B9C6" transform="translate(707,688)"/>
<path d="M0 0 C21.78 0 43.56 0 66 0 C66 226.38 66 452.76 66 686 C44.22 686 22.44 686 0 686 C-0.33 658.94 -0.66 631.88 -1 604 C-13.28072167 616.23736997 -13.28072167 616.23736997 -25 629 C-45.47053538 651.2684494 -72.71028186 667.93553577 -100.1875 680.3125 C-100.85056152 680.61365723 -101.51362305 680.91481445 -102.19677734 681.22509766 C-162.31579345 707.48115775 -232.43077653 704.81593049 -293 682 C-297.3191775 680.24307061 -301.5144601 678.3281689 -305.6875 676.25 C-306.73220459 675.73759766 -307.77690918 675.22519531 -308.85327148 674.69726562 C-336.96323501 660.68644466 -365.23085381 640.22707979 -385.4140625 615.89453125 C-387.28098285 613.66434315 -389.26604967 611.56415553 -391.25 609.4375 C-402.28188958 597.13628979 -410.78402009 583.27699811 -419 569 C-419.3722168 568.36690918 -419.74443359 567.73381836 -420.12792969 567.08154297 C-431.71530402 547.30538783 -439.38472415 525.13585106 -445 503 C-445.35916504 501.59403564 -445.35916504 501.59403564 -445.72558594 500.15966797 C-462.65968068 432.34108466 -450.69010253 361.30358325 -416 301 C-406.39105308 285.01691934 -394.90333894 270.43488741 -382 257 C-381.5138623 256.49194824 -381.02772461 255.98389648 -380.52685547 255.46044922 C-374.57434482 249.27534291 -368.47242127 243.51819934 -361.73046875 238.18359375 C-359.94905585 236.75897314 -358.19912964 235.29378927 -356.48828125 233.78515625 C-304.11282779 187.83238613 -239.41331695 173.76123353 -171.5625 177.27734375 C-132.37262809 180.02052721 -89.37066879 195.68072174 -58.125 219.6875 C-57.45718506 220.19514893 -56.78937012 220.70279785 -56.10131836 221.22583008 C-42.93416884 231.3372923 -30.79552517 242.1100754 -20.39453125 255.09765625 C-16.97694058 259.24002146 -13.33696564 263.15116574 -9.67578125 267.078125 C-6.70866395 270.31813046 -3.85914659 273.66432898 -1 277 C-0.67 185.59 -0.34 94.18 0 0 Z M-231 243 C-231.78117187 243.16628906 -232.56234375 243.33257813 -233.3671875 243.50390625 C-284.51878844 254.82434252 -328.17832578 287.53471559 -356.17675781 331.39892578 C-376.99455837 364.84091053 -387.94502766 403.48427529 -386 443 C-385.95891113 443.85078125 -385.91782227 444.7015625 -385.87548828 445.578125 C-383.04983511 497.86625015 -362.19596472 546.24344723 -326 584 C-325.49210937 584.53512207 -324.98421875 585.07024414 -324.4609375 585.62158203 C-297.47906167 613.92430708 -258.00613247 636.4992017 -218.20976257 638.11315918 C-214.91953367 638.1814218 -211.63071774 638.21723841 -208.33984375 638.23828125 C-207.11834122 638.246353 -205.89683868 638.25442474 -204.63832092 638.26274109 C-202.05210772 638.27653798 -199.46587665 638.28727967 -196.87963867 638.29516602 C-194.278346 638.30660416 -191.67707525 638.32692352 -189.07592773 638.35668945 C-168.11405885 638.59600156 -147.79729211 637.46454739 -127.875 630.375 C-126.40135986 629.86404785 -126.40135986 629.86404785 -124.89794922 629.34277344 C-97.92971037 619.71342638 -75.73174772 604.54868603 -55 585 C-53.824375 583.90558594 -53.824375 583.90558594 -52.625 582.7890625 C-16.33900545 547.92858916 3.73621279 495.67156176 5.125 445.94140625 C6.18545395 390.14905254 -14.39822161 336.98737306 -52.61230469 296.46655273 C-68.71625461 279.76511412 -87.86953349 266.55752525 -109 257 C-110.12019531 256.47148438 -111.24039063 255.94296875 -112.39453125 255.3984375 C-137.41140073 244.04037103 -164.52264071 239.77136547 -191.8125 239.75 C-192.58867676 239.74932526 -193.36485352 239.74865051 -194.16455078 239.74795532 C-206.65333138 239.76515794 -218.75205182 240.36357726 -231 243 Z " fill="#49B9C6" transform="translate(2627,696)"/>
<path d="M0 0 C0.59151855 0.44875488 1.18303711 0.89750977 1.79248047 1.35986328 C12.36921844 9.42303736 22.28545478 17.55169194 30.578125 28.03515625 C33.30695072 31.37576709 36.18324558 34.53509919 39.125 37.6875 C40.14584192 38.78254408 41.16667548 39.87759595 42.1875 40.97265625 C42.90873047 41.74633545 42.90873047 41.74633545 43.64453125 42.53564453 C47.33786175 46.52566548 50.98191104 50.47286656 54 55 C54.33 26.29 54.66 -2.42 55 -32 C75.79 -32 96.58 -32 118 -32 C118 131.68 118 295.36 118 464 C97.21 464 76.42 464 55 464 C55 437.27 55 410.54 55 383 C44.77439678 391.18048258 36.21638641 399.48853309 27.9375 409.4921875 C21.20641361 417.33754157 13.57342907 423.38515448 5.21044922 429.40771484 C3.80650302 430.4190399 2.4088681 431.43923068 1.02001953 432.47119141 C-9.3767869 440.16910625 -20.59636781 446.08493323 -32.125 451.875 C-32.83953339 452.23589722 -33.55406677 452.59679443 -34.29025269 452.96862793 C-52.41685368 462.08068171 -69.7650511 467.37174644 -89.6875 471.3125 C-91.88500971 471.75725922 -94.08227751 472.20321547 -96.27929688 472.65039062 C-101.07876662 473.62470807 -105.88031306 474.5878289 -110.68412781 475.54048157 C-112.29740813 475.86059079 -113.90767243 476.19612284 -115.51530457 476.54348755 C-117.87575641 476.97717276 -120.079042 477.17024557 -122.47509766 477.24047852 C-123.33852783 477.26587708 -124.20195801 477.29127563 -125.09155273 477.31744385 C-147.60939461 477.80778782 -169.45565121 477.66617377 -191.625 473.3125 C-192.49699036 473.14259552 -193.36898071 472.97269104 -194.26739502 472.79763794 C-216.32189366 468.40354493 -236.74896038 460.95203031 -256.8125 450.875 C-257.46064667 450.55085114 -258.10879333 450.22670227 -258.77658081 449.89273071 C-269.75757106 444.37721331 -280.09920238 438.29435752 -290 431 C-290.58974609 430.57412598 -291.17949219 430.14825195 -291.78710938 429.70947266 C-299.86890687 423.85359396 -307.18084381 417.32801155 -314.41796875 410.47607422 C-315.94421075 409.05205274 -317.49513068 407.66365555 -319.0625 406.28515625 C-337.95252261 389.61280453 -351.56785369 368.72849581 -364 347 C-364.40847168 346.28908203 -364.81694336 345.57816406 -365.23779297 344.84570312 C-387.73828135 305.25993824 -398.24965796 261.84324895 -398.1875 216.5625 C-398.18656342 215.67949219 -398.18562683 214.79648438 -398.18466187 213.88671875 C-398.03391273 148.20465377 -374.79311218 86.87738709 -330.0546875 38.23828125 C-328.11897397 36.12960473 -326.24180024 33.98213672 -324.375 31.8125 C-318.72357781 25.34259597 -312.57958977 19.51601108 -306 14 C-305.48969238 13.57058105 -304.97938477 13.14116211 -304.45361328 12.69873047 C-265.7818706 -19.64066711 -217.31904262 -39.91290477 -167 -44 C-165.83984375 -44.10957031 -164.6796875 -44.21914063 -163.484375 -44.33203125 C-105.34424884 -49.13435445 -46.77388236 -35.64562439 0 0 Z M-282.48779297 83.69433594 C-285.84307613 87.66230284 -288.96198138 91.78576454 -292 96 C-292.47646973 96.65919434 -292.95293945 97.31838867 -293.44384766 97.99755859 C-311.93706738 123.91243948 -324.28011197 152.67378394 -330 184 C-330.12987305 184.67740234 -330.25974609 185.35480469 -330.39355469 186.05273438 C-337.67689488 225.75407894 -330.05016306 269.29309504 -312 305 C-311.59942383 305.79567383 -311.19884766 306.59134766 -310.78613281 307.41113281 C-302.24128073 324.14180958 -291.91780337 339.34330847 -279 353 C-277.80652293 354.36981522 -276.61876776 355.74464217 -275.4375 357.125 C-253.71795726 381.92603394 -223.42440908 400.61152049 -192 410.3125 C-191.2668457 410.54283936 -190.53369141 410.77317871 -189.77832031 411.01049805 C-172.83577508 415.95782292 -156.0826941 416.50444039 -138.53320312 416.44604492 C-134.63878533 416.43753014 -130.74583667 416.46640406 -126.8515625 416.49804688 C-82.8250995 416.62162575 -43.62333574 399.12945351 -10 371 C-9.40316406 370.50467773 -8.80632813 370.00935547 -8.19140625 369.49902344 C10.93274695 353.57907561 25.30812634 336.01489656 37 314 C37.36432129 313.32066406 37.72864258 312.64132812 38.10400391 311.94140625 C53.37136115 282.99719074 60.2196156 250.27515765 60.25 217.75 C60.25100708 216.9997757 60.25201416 216.24955139 60.25305176 215.47659302 C60.24157415 202.78488994 59.44326532 190.4822957 57 178 C56.7831958 176.87585693 56.7831958 176.87585693 56.56201172 175.72900391 C55.57071824 170.76155876 54.36520085 165.87720611 53 161 C52.81131348 160.31615234 52.62262695 159.63230469 52.42822266 158.92773438 C43.6102868 127.87357863 26.21823101 100.13628091 4 77 C3.45827148 76.43104004 2.91654297 75.86208008 2.35839844 75.27587891 C-5.53992135 67.01895466 -13.65613735 59.58458313 -23 53 C-23.58894043 52.58266602 -24.17788086 52.16533203 -24.78466797 51.73535156 C-45.97236929 36.85156882 -69.58096866 26.27276003 -95 21 C-95.7528125 20.83773926 -96.505625 20.67547852 -97.28125 20.50830078 C-110.77301996 17.74784363 -124.41050115 17.68973303 -138.125 17.625 C-139.44783493 17.61308121 -139.44783493 17.61308121 -140.7973938 17.60092163 C-196.05577657 17.2189261 -246.22027246 42.39197422 -282.48779297 83.69433594 Z " fill="#49B9C6" transform="translate(3225,918)"/>
<path d="M0 0 C2.63680346 -0.00217978 5.27318246 -0.02039391 7.90991211 -0.03930664 C23.9981937 -0.09454256 39.7310526 1.08203408 55.40795898 4.87280273 C57.05344727 5.26363037 57.05344727 5.26363037 58.73217773 5.66235352 C100.04391254 15.792135 144.8739251 38.12404127 172.70092773 71.09936523 C174.69548667 73.45056716 176.76630137 75.7211431 178.84545898 77.99780273 C182.84199275 82.41717796 186.61480868 86.984793 190.32983398 91.64233398 C192.55949514 94.29107379 195.02227482 96.73711857 197.47045898 99.18530273 C197.80045898 70.80530273 198.13045898 42.42530273 198.47045898 13.18530273 C219.26045898 13.18530273 240.05045898 13.18530273 261.47045898 13.18530273 C261.47045898 176.86530273 261.47045898 340.54530273 261.47045898 509.18530273 C240.68045898 509.18530273 219.89045898 509.18530273 198.47045898 509.18530273 C198.14045898 482.78530273 197.81045898 456.38530273 197.47045898 429.18530273 C189.04159385 435.88621106 189.04159385 435.88621106 181.30639648 443.18920898 C180.78461823 443.71618881 180.26283997 444.24316864 179.72525024 444.78611755 C178.09365542 446.43517247 176.46905158 448.09087198 174.84545898 449.74780273 C168.24603991 456.46022556 161.68289333 463.12091506 154.47045898 469.18530273 C153.50881836 470.02834961 152.54717773 470.87139648 151.55639648 471.73999023 C128.0043754 491.89834834 97.79239326 506.56514395 67.59301758 513.44458008 C64.61568163 514.15085351 61.66133339 514.92591507 58.70414734 515.71156311 C-4.59284241 532.30206747 -72.15643919 520.40479345 -128.52954102 488.18530273 C-139.7831547 481.36520896 -150.68132141 473.93380448 -160.52954102 465.18530273 C-161.38547852 464.42604492 -162.24141602 463.66678711 -163.12329102 462.88452148 C-164.82117524 461.36307403 -166.5128568 459.83466913 -168.19750977 458.29858398 C-170.27988838 456.41153737 -172.39457165 454.57472041 -174.52954102 452.74780273 C-192.62990789 436.90542931 -206.85437607 417.12267131 -218.52954102 396.18530273 C-218.98828613 395.36352539 -219.44703125 394.54174805 -219.91967773 393.69506836 C-243.32775157 351.30893532 -254.71909019 307.09248277 -254.71484375 258.78076172 C-254.71702431 256.01896596 -254.73524287 253.25757497 -254.75415039 250.49584961 C-254.80534013 234.65478322 -254.1061951 218.69949972 -250.34204102 203.24780273 C-250.12773438 202.34433105 -249.91342773 201.44085937 -249.69262695 200.51000977 C-245.47017501 183.30665359 -239.25514355 167.10064284 -231.52954102 151.18530273 C-231.10608398 150.30181152 -230.68262695 149.41832031 -230.24633789 148.50805664 C-217.02167018 121.17740133 -199.55405787 96.07384083 -178.52954102 74.18530273 C-177.67360352 73.28811523 -176.81766602 72.39092773 -175.93579102 71.46655273 C-170.16376306 65.54839749 -164.0638078 60.24491009 -157.52954102 55.18530273 C-156.99796387 54.77199707 -156.46638672 54.35869141 -155.91870117 53.93286133 C-140.28857124 41.86885103 -123.44027652 31.49096734 -105.52954102 23.18530273 C-104.83860352 22.85723633 -104.14766602 22.52916992 -103.43579102 22.19116211 C-70.57188346 6.62248127 -36.22337457 -0.00333395 0 0 Z M-30.52954102 66.18530273 C-31.74770508 66.43473633 -31.74770508 66.43473633 -32.99047852 66.68920898 C-71.36457211 74.75852773 -103.27471297 94.59730628 -131.52954102 121.18530273 C-132.18825195 121.80147461 -132.84696289 122.41764648 -133.52563477 123.05249023 C-147.92868091 136.95658559 -159.33480101 154.5081219 -168.52954102 172.18530273 C-168.86937012 172.82306641 -169.20919922 173.46083008 -169.55932617 174.11791992 C-192.93692414 218.41349292 -194.67109471 275.02568837 -180.39624023 322.45239258 C-173.62629231 343.79965935 -163.35781196 364.5407117 -149.52954102 382.18530273 C-148.53374023 383.4943457 -148.53374023 383.4943457 -147.51782227 384.82983398 C-115.55157456 426.00339847 -69.51801097 454.49182138 -17.65087891 461.91918945 C33.95605632 468.3930713 86.30666843 453.84793669 127.47045898 422.18530273 C128.38698242 421.50983398 129.30350586 420.83436523 130.24780273 420.13842773 C144.58038813 409.09637427 158.3814221 395.21726275 168.47045898 380.18530273 C168.9385498 379.49678223 169.40664062 378.80826172 169.88891602 378.09887695 C201.15862091 331.67053345 209.66760243 273.54055808 199.50561523 218.80639648 C193.73258965 190.05530988 181.47464279 163.32651645 163.47045898 140.18530273 C162.8164209 139.34080566 162.8164209 139.34080566 162.14916992 138.47924805 C150.51315653 123.66574205 136.7919462 110.1446928 121.47045898 99.18530273 C120.89150879 98.76732422 120.31255859 98.3493457 119.71606445 97.91870117 C98.04383816 82.43259705 73.51315044 71.73935472 47.47045898 66.18530273 C46.71522949 66.0215918 45.96 65.85788086 45.18188477 65.68920898 C21.13756556 60.75076192 -6.55428187 61.0935671 -30.52954102 66.18530273 Z " fill="#49B9C6" transform="translate(1449.529541015625,872.814697265625)"/>
<path d="M0 0 C21.78 0 43.56 0 66 0 C66.33 91.08 66.66 182.16 67 276 C72.34276353 270.06359608 77.47634513 264.22288955 82.49609375 258.05078125 C94.91171128 242.92348439 107.89460732 230.08390248 123.78564453 218.61083984 C126.07200564 216.94761927 128.33034694 215.25026835 130.58984375 213.55078125 C173.52677947 181.77972757 229.65834571 171.66130285 282 179 C316.96612379 184.54054802 347.46957892 198.38399228 373 223 C373.75539063 223.69222656 374.51078125 224.38445312 375.2890625 225.09765625 C382.84637616 232.22901223 388.90537436 240.62535684 395 249 C395.46615723 249.63744141 395.93231445 250.27488281 396.41259766 250.93164062 C417.85858978 280.60057117 426.49393705 317.99425859 431.5296253 353.6805259 C431.8211641 355.73793992 432.11655069 357.79481751 432.4180361 359.85079753 C434.87574647 376.80422761 435.42493401 393.49126073 435.34819686 410.60270941 C435.33498633 414.3153225 435.3396432 418.02792477 435.34190369 421.74055481 C435.34346097 428.14134608 435.33421595 434.54204414 435.31719017 440.94281197 C435.29259146 450.19672034 435.28497383 459.45058461 435.2812262 468.70452213 C435.27469403 483.7259731 435.25482172 498.74737463 435.22631836 513.76879883 C435.19869332 528.34268958 435.17750133 542.9165668 435.16479492 557.49047852 C435.16400675 558.39195708 435.16321858 559.29343565 435.16240653 560.22223175 C435.15849082 564.74562347 435.15469984 569.26901528 435.15097082 573.79240716 C435.11997588 611.19498206 435.06472807 648.59746528 435 686 C413.22 686 391.44 686 369 686 C368.97812622 672.45964722 368.97812622 672.45964722 368.95581055 658.64575195 C368.90689899 629.65702439 368.84344795 600.66834461 368.77101372 571.67966666 C368.75974756 567.1655951 368.74860878 562.65152324 368.73754883 558.13745117 C368.7342433 556.78962726 368.7342433 556.78962726 368.730871 555.41457459 C368.6956419 540.92652278 368.67069696 526.43847102 368.64965298 511.95039246 C368.62777558 497.04874502 368.59461384 482.14715243 368.55129844 467.24555176 C368.52498562 458.07424338 368.50714101 448.90300314 368.50065396 439.73165896 C368.4953369 433.41509332 368.47891332 427.09861291 368.45433434 420.7820932 C368.44053154 417.15525703 368.43106645 413.52857259 368.43499184 409.9017086 C368.46822645 371.03634718 365.0762264 331.86417394 347.0625 296.8125 C346.58482178 295.88042725 346.10714355 294.94835449 345.61499023 293.98803711 C342.0789725 287.38062689 337.82679913 281.71536897 333 276 C332.29681641 275.14108154 331.59363281 274.28216309 330.86914062 273.3972168 C312.97418626 251.76811561 284.00873357 241.04539266 256.78076172 238.19628906 C239.17458273 236.95349996 220.10782735 236.40542582 203 241 C202.24219238 241.19335938 201.48438477 241.38671875 200.70361328 241.5859375 C175.38083931 248.12735968 151.99898416 260.11937363 132 277 C131.46036621 277.45455566 130.92073242 277.90911133 130.36474609 278.37744141 C115.1136148 291.41087668 105.33310747 306.7376094 95.58789062 324.17041016 C94.21220471 326.62185538 92.80826072 329.05318617 91.390625 331.48046875 C68.52183365 371.47448498 66.72185723 421.80325826 66.68115234 466.66894531 C66.6718174 469.08684104 66.66164369 471.50473365 66.65071106 473.92262268 C66.6237981 480.38562792 66.6083789 486.84861189 66.59528303 493.31165791 C66.5820191 499.41214797 66.55798309 505.5126003 66.53501268 511.61305997 C66.48989115 523.67122153 66.45313597 535.72939276 66.421875 547.78759766 C66.39154563 559.47934658 66.35713118 571.17107211 66.31738281 582.86279297 C66.31492126 583.58725063 66.31245972 584.31170829 66.30992357 585.05811921 C66.2975462 588.69363913 66.2850902 592.32915877 66.27259517 595.96467829 C66.16954795 625.9764239 66.08175976 655.98818669 66 686 C44.22 686 22.44 686 0 686 C0 459.62 0 233.24 0 0 Z " fill="#49B9C6" transform="translate(3500,696)"/>
<path d="M0 0 C1.03196914 1.30874653 2.03781304 2.63912747 3 4 C-4.85421281 17.27933259 -12.96996004 30.36836259 -21.30322266 43.35205078 C-24.21367102 47.89402531 -27.10638712 52.44728793 -30 57 C-36.01637929 55.64938424 -41.80901224 53.77969744 -47.63110352 51.76489258 C-64.25227083 46.0748993 -82.56168015 48.40221755 -98.32299805 55.7355957 C-131.0462771 71.91230296 -154.0875588 105.03956687 -165.77734375 138.96484375 C-167.38012512 143.92783354 -168.72860098 148.94319033 -170 154 C-170.21994629 154.8569043 -170.43989258 155.71380859 -170.66650391 156.59667969 C-173.65172803 168.46310984 -175.63213878 180.43345392 -177.1875 192.5625 C-177.41977295 194.33995605 -177.41977295 194.33995605 -177.65673828 196.15332031 C-178.17191514 200.43057762 -178.59394073 204.71120428 -179 209 C-179.08345421 209.85951452 -179.16690842 210.71902905 -179.25289154 211.60458946 C-181.70727433 238.15557494 -181.34943682 264.82254765 -181.40061974 291.45969476 C-181.41452446 298.49835001 -181.4395202 305.53695468 -181.46498732 312.57557602 C-181.51009675 325.12067956 -181.54685673 337.66579237 -181.578125 350.2109375 C-181.60845947 362.3740399 -181.64287612 374.53711985 -181.68261719 386.70019531 C-181.68507874 387.45399748 -181.68754028 388.20779965 -181.69007643 388.98444431 C-181.7024539 392.76726366 -181.71490987 396.55008275 -181.72740483 400.33290172 C-181.83043378 431.55524093 -181.91822941 462.77759608 -182 494 C-204.11 494 -226.22 494 -249 494 C-249 330.32 -249 166.64 -249 -2 C-226.89 -2 -204.78 -2 -182 -2 C-181.67 20.11 -181.34 42.22 -181 65 C-173.78471913 57.04228867 -173.78471913 57.04228867 -167.1875 48.75 C-145.03653351 19.49317891 -113.48339859 -7.79120338 -75.87451172 -13.31201172 C-49.62371504 -16.81543873 -22.6943069 -15.18616046 0 0 Z " fill="#49B9C6" transform="translate(2119,888)"/>
<path d="M0 0 C1.22944336 0.26893066 2.45888672 0.53786133 3.72558594 0.81494141 C25.8951419 5.73626189 47.51003229 12.42948689 69.17724609 19.18212891 C113.68904517 33.04482079 159.08040113 44.30651969 206 44.125 C207.23516357 44.12306641 208.47032715 44.12113281 209.74291992 44.11914062 C221.17746738 44.06624712 232.58411589 43.63468467 244 43 C221.8905739 57.7396174 179.79692183 59.78126603 154 62 C152.85023682 62.10368896 152.85023682 62.10368896 151.67724609 62.20947266 C98.20943782 66.84555121 45.76091914 56.20693985 -5.9375 43.875 C-57.48655673 31.59562896 -104.50271853 25.310693 -155 45 C-153.68088879 42.00680215 -152.36236406 40.17974287 -149.83203125 38.1171875 C-149.19394531 37.59479492 -148.55585938 37.07240234 -147.8984375 36.53417969 C-146.86589844 35.71288574 -146.86589844 35.71288574 -145.8125 34.875 C-144.73935547 34.01503418 -144.73935547 34.01503418 -143.64453125 33.13769531 C-136.70276515 27.64722274 -129.52402835 22.65512611 -122 18 C-121.3822168 17.61360352 -120.76443359 17.22720703 -120.12792969 16.82910156 C-84.15698417 -5.39427389 -40.73531031 -9.05819999 0 0 Z " fill="#49B9C6" transform="translate(3080,755)"/>
</svg>
