<?xml version="1.0" encoding="UTF-8"?>
<svg version="1.1" xmlns="http://www.w3.org/2000/svg" width="512" height="512">
<path d="M0 0 C1.19212097 -0.00160126 1.19212097 -0.00160126 2.4083252 -0.00323486 C15.72542606 0.02253585 27.94825215 1.33888186 40.6875 5.4375 C41.38568848 5.64616699 42.08387695 5.85483398 42.80322266 6.06982422 C52.5416645 9.01596655 60.96361394 13.73810063 69.69067383 18.90576172 C76.20896862 22.72403448 82.79340218 25.76563123 89.79736328 28.56982422 C97.38142114 31.63362476 104.46536431 35.43934017 111.64208984 39.34375 C114.95429786 41.11489967 118.31956678 42.77548916 121.6875 44.4375 C127.41733358 47.27602846 133.09830619 50.19629786 138.75 53.1875 C139.78543945 53.73470703 139.78543945 53.73470703 140.84179688 54.29296875 C156.57347187 62.65664407 172.11888057 71.86069872 186.578125 82.27734375 C189.30747364 84.17348672 192.07273448 85.93952759 194.890625 87.69921875 C200.55701282 91.28541306 205.88367129 95.21449058 211.1875 99.3125 C212.1038623 100.01648926 213.02022461 100.72047852 213.96435547 101.44580078 C223.33852787 108.67016298 232.41214622 116.07396413 241.125 124.09375 C243.34434276 126.12363667 245.59422034 128.10245498 247.875 130.0625 C249.14919749 131.18368826 250.41995634 132.3087948 251.6875 133.4375 C252.43644531 134.09621094 253.18539063 134.75492188 253.95703125 135.43359375 C254.69308594 136.11550781 255.42914063 136.79742187 256.1875 137.5 C256.8578125 138.10972656 257.528125 138.71945313 258.21875 139.34765625 C260.2846354 142.28714744 260.2842584 143.91484408 259.6875 147.4375 C257.6328125 150.1484375 257.6328125 150.1484375 254.8125 152.8125 C254.06202393 153.52792969 254.06202393 153.52792969 253.29638672 154.2578125 C249.49763431 157.82746427 245.50949995 161.12791805 241.3828125 164.3125 C239.29090625 165.96177101 237.26081179 167.63936043 235.2421875 169.375 C234.6529248 169.88160156 234.06366211 170.38820312 233.45654297 170.91015625 C232.2935178 171.91428065 231.13358389 172.92199871 229.97705078 173.93359375 C225.90611721 177.4375 225.90611721 177.4375 223.6875 177.4375 C223.3575 178.4275 223.0275 179.4175 222.6875 180.4375 C221.27978516 181.75268555 221.27978516 181.75268555 219.4765625 183.07421875 C218.81446777 183.56486816 218.15237305 184.05551758 217.47021484 184.56103516 C216.402146 185.33519775 216.402146 185.33519775 215.3125 186.125 C214.58369629 186.6617334 213.85489258 187.1984668 213.10400391 187.75146484 C210.97015481 189.32043 208.82956324 190.87977748 206.6875 192.4375 C205.69234375 193.16839844 204.6971875 193.89929688 203.671875 194.65234375 C201.92673794 195.92984678 200.17668177 197.20065604 198.421875 198.46484375 C196.4859271 199.86149187 194.55975737 201.27174038 192.640625 202.69140625 C176.56317288 214.50753907 159.33214931 224.42314414 141.74658203 233.79833984 C139.01020639 235.26458295 136.2824402 236.74566089 133.55812073 238.23416138 C119.53176041 245.89700942 105.49500014 253.37167339 90.6875 259.4375 C89.34486084 259.98929932 89.34486084 259.98929932 87.97509766 260.55224609 C71.56537791 267.20162192 54.81518938 272.03356299 37.6875 276.4375 C36.04793335 276.85926514 36.04793335 276.85926514 34.37524414 277.28955078 C18.86342683 281.22697285 2.00334244 284.31618783 -14 281.875 C-16.85692008 281.49767093 -18.70510761 281.53277203 -21.5 281.890625 C-41.50278103 284.02515117 -62.88049733 283.81351328 -82.3125 278.4375 C-83.0240625 278.24494629 -83.735625 278.05239258 -84.46875 277.85400391 C-104.99792961 272.12326044 -121.95267658 258.43221054 -132.67089844 240.03881836 C-137.30532317 231.59913471 -139.95065147 222.73284379 -142.3125 213.4375 C-142.48502289 212.82259705 -142.65754578 212.20769409 -142.83529663 211.57415771 C-145.05501287 201.63547301 -144.51513683 190.86386152 -144.5859375 180.734375 C-144.59126118 180.00522133 -144.59658485 179.27606766 -144.60206985 178.52481842 C-144.62857954 174.65750697 -144.64801437 170.79022516 -144.66259766 166.92285156 C-144.67584081 163.78713192 -144.70354562 160.65207786 -144.74462891 157.51660156 C-145.07981112 131.29500273 -143.84460568 105.29577141 -131.5625 81.4375 C-131.22250977 80.7667041 -130.88251953 80.0959082 -130.53222656 79.40478516 C-127.25700287 73.08140792 -123.40373387 67.26492976 -119.3125 61.4375 C-118.61640625 60.33664063 -117.9203125 59.23578125 -117.203125 58.1015625 C-116.57921875 57.22242188 -115.9553125 56.34328125 -115.3125 55.4375 C-114.6525 55.4375 -113.9925 55.4375 -113.3125 55.4375 C-113.06113281 54.87160156 -112.80976562 54.30570313 -112.55078125 53.72265625 C-101.94843823 34.15681819 -76.82854183 20.96243259 -57.3125 12.4375 C-56.27480469 11.96570313 -55.23710937 11.49390625 -54.16796875 11.0078125 C-48.47991108 8.50226589 -42.69665427 6.53124077 -36.75 4.75 C-36.07775391 4.54737549 -35.40550781 4.34475098 -34.71289062 4.13598633 C-23.17682565 0.80923612 -11.94578298 -0.0034083 0 0 Z M-105.3125 50.4375 C-129.37348418 78.14948474 -143.68769306 115.50997008 -141.3125 152.4375 C-140.90191033 156.4400695 -140.42556646 160.43533334 -139.95849609 164.43164062 C-139.34930284 170.00458949 -139.37253826 175.18632817 -140.01171875 180.76953125 C-142.56311424 203.40074063 -136.42031817 228.74636525 -122.375 246.8125 C-121.04361083 248.37387963 -119.69001513 249.9166596 -118.3125 251.4375 C-117.67441406 252.14519531 -117.03632812 252.85289062 -116.37890625 253.58203125 C-98.34285333 272.56162013 -74.50127469 277.43121251 -49.3125 278.4375 C-41.50804662 278.60532254 -33.73290249 278.28741832 -25.9375 277.9375 C-18.60346876 277.61887889 -11.30609539 277.39687828 -3.96557617 277.52172852 C39.86753997 278.21159096 89.68400268 259.47579986 126.5715332 236.72583008 C129.04324719 235.22089934 131.57461195 233.92942827 134.1875 232.6875 C157.01582954 221.41855361 178.28247518 207.6142078 198.6875 192.4375 C200.10397766 191.39427458 201.52064293 190.35130383 202.9375 189.30859375 C211.08868458 183.2806505 218.98529366 177.03105543 226.6875 170.4375 C225.3675 169.7775 224.0475 169.1175 222.6875 168.4375 C221.66914063 169.22511719 220.65078125 170.01273438 219.6015625 170.82421875 C191.09615602 192.79628422 161.42810311 212.50012383 130.04150391 230.11523438 C128.6142744 230.9169223 127.1889159 231.72197056 125.76708984 232.53320312 C87.05309585 254.5928338 41.45335295 271.81270684 -3.3125 273.4375 C0.5898735 269.13731172 5.15888906 266.78690647 10.203125 264.0234375 C11.02296875 263.50007813 11.8428125 262.97671875 12.6875 262.4375 C12.6875 261.7775 12.6875 261.1175 12.6875 260.4375 C13.55761719 260.04304688 13.55761719 260.04304688 14.4453125 259.640625 C20.62791568 256.32313061 25.93814078 250.54306116 30.6875 245.4375 C30.6875 244.7775 30.6875 244.1175 30.6875 243.4375 C31.3475 243.4375 32.0075 243.4375 32.6875 243.4375 C37.65513058 237.82069042 41.26970597 230.87565401 44.9375 224.375 C45.36160156 223.6320166 45.78570312 222.8890332 46.22265625 222.12353516 C49.03104576 217.05394631 51.04467488 211.99310171 52.6875 206.4375 C52.04208252 206.79231445 51.39666504 207.14712891 50.73168945 207.51269531 C-33.64924454 253.73935987 -33.64924454 253.73935987 -75.93359375 242.47265625 C-85.37795602 239.40039382 -95.93897853 234.29763903 -101.48046875 225.60546875 C-106.50722309 212.50758773 -99.53967205 193.18045047 -95.30078125 180.53515625 C-94.21118421 177.66185172 -94.21118421 177.66185172 -94.3125 175.4375 C-93.38953125 175.52128906 -92.4665625 175.60507813 -91.515625 175.69140625 C-58.22633899 178.29007581 -25.71755076 171.67240917 5.8125 161.3125 C6.76503662 161.00030518 7.71757324 160.68811035 8.69897461 160.36645508 C14.98804514 158.22127207 20.82143418 155.54910689 26.6875 152.4375 C27.4388623 152.04481934 28.19022461 151.65213867 28.96435547 151.24755859 C38.84974017 146.02924333 48.02025652 140.53308333 56.6875 133.4375 C57.24920898 132.99180664 57.81091797 132.54611328 58.38964844 132.08691406 C67.2210933 125.06704763 74.28114332 117.72041397 80.6875 108.4375 C81.35652344 107.47585937 82.02554688 106.51421875 82.71484375 105.5234375 C86.55687139 99.75633469 89.47978514 94.00517434 91.6875 87.4375 C92.1 86.220625 92.5125 85.00375 92.9375 83.75 C97.16180718 64.7022149 89.45086207 49.99552925 79.6875 34.4375 C92.65867568 39.57431515 105.33618864 44.94745862 117.6875 51.4375 C119.05184457 52.14238941 120.41643338 52.84680626 121.78125 53.55078125 C156.62502962 71.63970257 188.33943673 93.92645255 219.6875 117.4375 C207.8075 117.7675 195.9275 118.0975 183.6875 118.4375 C183.3575 117.1175 183.0275 115.7975 182.6875 114.4375 C180.39495561 111.35138256 178.99614212 110.52167512 175.25 109.5 C171.23706012 109.42959755 169.81116278 110.0079845 166.6875 112.4375 C166.11 112.870625 165.5325 113.30375 164.9375 113.75 C163.0416848 116.30935052 162.8116134 118.27260827 162.6875 121.4375 C164.20232103 125.50359855 165.7168437 128.50582937 169.6875 130.4375 C174.475321 130.96948011 176.55152545 131.16259014 180.625 128.5625 C182.72633584 126.61152388 182.72633584 126.61152388 183.6875 124.4375 C189.77047982 124.23848468 195.85153169 124.09398697 201.93701172 123.99804688 C204.00310304 123.95802261 206.06897075 123.90358301 208.13427734 123.83398438 C227.51144606 123.19774706 227.51144606 123.19774706 233.78125 128.1875 C235.12570644 129.5640182 236.4351917 130.97664773 237.6875 132.4375 C238.65945313 133.2728125 239.63140625 134.108125 240.6328125 134.96875 C241.71175781 135.94328125 241.71175781 135.94328125 242.8125 136.9375 C243.55757813 137.6078125 244.30265625 138.278125 245.0703125 138.96875 C245.60398437 139.4534375 246.13765625 139.938125 246.6875 140.4375 C248.0075 139.7775 249.3275 139.1175 250.6875 138.4375 C249.6975 138.1075 248.7075 137.7775 247.6875 137.4375 C247.3575 136.4475 247.0275 135.4575 246.6875 134.4375 C246.0275 134.4375 245.3675 134.4375 244.6875 134.4375 C244.6875 133.7775 244.6875 133.1175 244.6875 132.4375 C243.0811111 130.65702154 243.0811111 130.65702154 241 128.875 C240.31550781 128.25496094 239.63101562 127.63492188 238.92578125 126.99609375 C236.46278428 125.28102256 234.60775816 124.9399635 231.6875 124.4375 C230.6875 122.6875 230.6875 122.6875 229.6875 120.4375 C226.23417417 116.74237936 222.48572189 113.53500498 218.5 110.4375 C217.89978027 109.96965088 217.29956055 109.50180176 216.68115234 109.01977539 C205.02042023 100.00058028 193.10413275 91.50635771 180.5234375 83.8203125 C177.41950709 81.91559253 174.40584171 79.90787219 171.40478516 77.84594727 C161.73836989 71.21470684 151.53644334 65.58421386 141.29589844 59.89599609 C137.9241631 58.01067722 134.58816804 56.06908184 131.25 54.125 C114.68490244 44.6732658 97.16742815 36.856462 79.74658203 29.13378906 C74.76360289 26.9170232 69.98754365 24.56457366 65.28808594 21.79736328 C9.65440996 -10.90778933 -61.52165218 4.88417224 -105.3125 50.4375 Z M112.9375 137.75 C111.0416848 140.30935052 110.8116134 142.27260827 110.6875 145.4375 C111.98023896 149.31571689 113.08660869 151.01414476 116.4375 153.375 C120.47065844 154.69353257 122.62858767 154.6920729 126.6875 153.4375 C127.35206711 152.44152802 128.01663422 151.44555603 128.70133972 150.41940308 C130.40818911 148.28655359 131.30660067 147.53107376 133.98848915 146.87222672 C136.97377573 146.65781262 139.91060915 146.63026153 142.90356445 146.66455078 C144.03570877 146.65392105 145.16785309 146.64329132 146.33430481 146.63233948 C150.07358038 146.60425187 153.81144811 146.61835886 157.55078125 146.6328125 C160.14439631 146.62156476 162.73800119 146.60768519 165.33158875 146.59127808 C171.45853018 146.55887369 177.58497004 146.55299753 183.71197623 146.56000316 C190.68909802 146.5664983 197.66595804 146.53906029 204.64300215 146.50880075 C218.99118377 146.44733118 233.33919833 146.42838089 247.6875 146.4375 C246.90482254 147.20767456 246.12214508 147.97784912 245.31575012 148.7713623 C242.67586967 151.34215627 242.67586967 151.34215627 240.63549805 154.09570312 C235.72819786 159.51831273 231.65637361 161.64280851 224.27197266 162.17578125 C215.65453969 162.4234438 207.04538833 162.15064252 198.43261719 161.87017822 C175.94434766 160.78827262 175.94434766 160.78827262 156.2019043 170.26757812 C152.73213111 172.83602266 149.92307712 172.8050572 145.71052551 172.4107666 C143.34494066 172.26000157 143.34494066 172.26000157 140.5625 174.5 C138.3724012 177.36611075 138.3724012 177.36611075 138.625 181.0625 C139.44459938 184.38948217 139.44459938 184.38948217 141.3125 186.4375 C144.77133253 187.89385054 147.10048371 187.35055869 150.6875 186.4375 C152.73201019 185.39375978 152.73201019 185.39375978 153.6875 183.4375 C153.93798636 180.31200983 153.93798636 180.31200983 153.6875 177.4375 C154.41678711 177.18137939 155.14607422 176.92525879 155.89746094 176.66137695 C158.7090951 175.56585596 158.7090951 175.56585596 160.86035156 173.73510742 C171.49381969 165.63587205 184.73031479 167.58210493 197.4375 167.75 C201.05526688 167.78159938 204.67219026 167.8027696 208.2901001 167.80058289 C210.5295785 167.80071186 212.76917351 167.82063744 215.00823975 167.86360168 C221.71709804 167.88248023 225.93273331 166.93553779 231.6875 163.4375 C232.1825 164.4275 232.1825 164.4275 232.6875 165.4375 C233.6775 164.7775 234.6675 164.1175 235.6875 163.4375 C235.6875 162.7775 235.6875 162.1175 235.6875 161.4375 C236.24179687 161.2003125 236.79609375 160.963125 237.3671875 160.71875 C240.23898267 159.13297758 242.39895652 157.15651908 244.8125 154.9375 C246.11574219 153.74640625 246.11574219 153.74640625 247.4453125 152.53125 C248.88158422 151.19006247 250.29795683 149.82704317 251.6875 148.4375 C251.0275 148.4375 250.3675 148.4375 249.6875 148.4375 C250.3475 147.1175 251.0075 145.7975 251.6875 144.4375 C250.0241223 142.39250323 249.14340607 141.51486005 246.5022974 141.0667057 C245.64745982 141.06859083 244.79262224 141.07047596 243.91188049 141.07241821 C242.92908112 141.06710587 241.94628174 141.06179352 240.93370056 141.05632019 C239.85673416 141.0656105 238.77976776 141.07490082 237.67016602 141.08447266 C236.53498535 141.08231247 235.39980469 141.08015228 234.23022461 141.07792664 C231.76169872 141.07483503 229.29315752 141.0784591 226.8246479 141.08794022 C222.92076493 141.10163491 219.01739277 141.09526688 215.11351013 141.08309937 C204.71423416 141.05296931 194.31501172 141.05444519 183.9157142 141.07335222 C176.42879338 141.08686425 168.94236276 141.07777846 161.4554882 141.04725266 C158.86587705 141.0417991 156.27622785 141.04590883 153.68664742 141.05965042 C150.068747 141.07862501 146.45210614 141.06734266 142.83422852 141.04931641 C141.75928635 141.06265518 140.68434418 141.07599396 139.576828 141.08973694 C132.28557025 141.008718 132.28557025 141.008718 129.11582947 137.98129272 C128.64448074 137.14184113 128.17313202 136.30238953 127.6875 135.4375 C121.96307739 131.68084766 117.90223832 134.02644626 112.9375 137.75 Z M254.6875 143.4375 C254.6875 146.4375 254.6875 146.4375 254.6875 146.4375 Z " fill="#007236" transform="translate(198.3125,55.5625)"/>
<path d="M0 0 C1.78700317 -0.01522705 1.78700317 -0.01522705 3.61010742 -0.03076172 C19.64361888 0.12650558 35.0184995 4.06724965 48.1875 13.4375 C48.1875 14.0975 48.1875 14.7575 48.1875 15.4375 C48.785625 15.685 49.38375 15.9325 50 16.1875 C54.02336585 18.4865662 55.91542075 22.51299948 58.1875 26.4375 C58.60773438 27.14648438 59.02796875 27.85546875 59.4609375 28.5859375 C64.55073762 38.87383136 63.55129038 53.6175187 60.37109375 64.390625 C57.1223041 72.75384587 53.32785371 81.78438189 47.1875 88.4375 C46.5275 88.4375 45.8675 88.4375 45.1875 88.4375 C44.94 89.05625 44.6925 89.675 44.4375 90.3125 C42.98121361 92.78818687 41.80937494 93.38875002 39.1875 94.4375 C39.1875 95.0975 39.1875 95.7575 39.1875 96.4375 C11.42910215 121.12645963 -32.7070861 124.11401668 -67.8125 122.4375 C-69.8174991 122.13568925 -71.81969343 121.81144265 -73.8125 121.4375 C-69.36990384 97.74365379 -45.83004375 75.04671906 -29.1953125 58.82421875 C-27.08492033 56.71036692 -25.15117264 54.55069443 -23.25 52.25 C-22.445625 51.321875 -21.64125 50.39375 -20.8125 49.4375 C-20.1525 49.4375 -19.4925 49.4375 -18.8125 49.4375 C-18.52375 48.839375 -18.235 48.24125 -17.9375 47.625 C-16.8125 45.4375 -16.8125 45.4375 -14.8125 42.4375 C-31.859025 47.41267627 -48.57007103 54.73098613 -62.8125 65.4375 C-63.63258545 66.04996582 -63.63258545 66.04996582 -64.46923828 66.67480469 C-89.20585184 85.25998524 -109.58651947 108.26870492 -122.8125 136.4375 C-123.8025 136.4375 -124.7925 136.4375 -125.8125 136.4375 C-127.60638259 102.9915557 -116.62967372 69.44323099 -94.375 44.25 C-92.86349827 42.63703774 -91.34263206 41.03279953 -89.8125 39.4375 C-89.06613281 38.62796875 -88.31976563 37.8184375 -87.55078125 36.984375 C-64.59450036 12.85182187 -33.00916698 0.19815197 0 0 Z " fill="#8DC63F" transform="translate(187.8125,70.5625)"/>
<path d="M0 0 C1.19212097 -0.00160126 1.19212097 -0.00160126 2.4083252 -0.00323486 C15.72542606 0.02253585 27.94825215 1.33888186 40.6875 5.4375 C41.38568848 5.64616699 42.08387695 5.85483398 42.80322266 6.06982422 C52.5416645 9.01596655 60.96361394 13.73810063 69.69067383 18.90576172 C76.20896862 22.72403448 82.79340218 25.76563123 89.79736328 28.56982422 C97.38142114 31.63362476 104.46536431 35.43934017 111.64208984 39.34375 C114.95429786 41.11489967 118.31956678 42.77548916 121.6875 44.4375 C127.41733358 47.27602846 133.09830619 50.19629786 138.75 53.1875 C139.78543945 53.73470703 139.78543945 53.73470703 140.84179688 54.29296875 C156.57347187 62.65664407 172.11888057 71.86069872 186.578125 82.27734375 C189.30747364 84.17348672 192.07273448 85.93952759 194.890625 87.69921875 C200.55701282 91.28541306 205.88367129 95.21449058 211.1875 99.3125 C212.1038623 100.01648926 213.02022461 100.72047852 213.96435547 101.44580078 C223.33852787 108.67016298 232.41214622 116.07396413 241.125 124.09375 C243.34434276 126.12363667 245.59422034 128.10245498 247.875 130.0625 C249.14919749 131.18368826 250.41995634 132.3087948 251.6875 133.4375 C252.43644531 134.09621094 253.18539063 134.75492188 253.95703125 135.43359375 C254.69308594 136.11550781 255.42914063 136.79742187 256.1875 137.5 C256.8578125 138.10972656 257.528125 138.71945313 258.21875 139.34765625 C260.2846354 142.28714744 260.2842584 143.91484408 259.6875 147.4375 C257.6328125 150.1484375 257.6328125 150.1484375 254.8125 152.8125 C254.06202393 153.52792969 254.06202393 153.52792969 253.29638672 154.2578125 C249.49763431 157.82746427 245.50949995 161.12791805 241.3828125 164.3125 C239.29090625 165.96177101 237.26081179 167.63936043 235.2421875 169.375 C234.6529248 169.88160156 234.06366211 170.38820312 233.45654297 170.91015625 C232.2935178 171.91428065 231.13358389 172.92199871 229.97705078 173.93359375 C225.90611721 177.4375 225.90611721 177.4375 223.6875 177.4375 C223.3575 178.4275 223.0275 179.4175 222.6875 180.4375 C221.27978516 181.75268555 221.27978516 181.75268555 219.4765625 183.07421875 C218.81446777 183.56486816 218.15237305 184.05551758 217.47021484 184.56103516 C216.402146 185.33519775 216.402146 185.33519775 215.3125 186.125 C214.58369629 186.6617334 213.85489258 187.1984668 213.10400391 187.75146484 C210.97015481 189.32043 208.82956324 190.87977748 206.6875 192.4375 C205.69234375 193.16839844 204.6971875 193.89929688 203.671875 194.65234375 C201.92673794 195.92984678 200.17668177 197.20065604 198.421875 198.46484375 C196.4859271 199.86149187 194.55975737 201.27174038 192.640625 202.69140625 C176.56317288 214.50753907 159.33214931 224.42314414 141.74658203 233.79833984 C139.01020639 235.26458295 136.2824402 236.74566089 133.55812073 238.23416138 C119.53176041 245.89700942 105.49500014 253.37167339 90.6875 259.4375 C89.34486084 259.98929932 89.34486084 259.98929932 87.97509766 260.55224609 C71.56537791 267.20162192 54.81518938 272.03356299 37.6875 276.4375 C36.04793335 276.85926514 36.04793335 276.85926514 34.37524414 277.28955078 C18.86342683 281.22697285 2.00334244 284.31618783 -14 281.875 C-16.85692008 281.49767093 -18.70510761 281.53277203 -21.5 281.890625 C-41.50278103 284.02515117 -62.88049733 283.81351328 -82.3125 278.4375 C-83.0240625 278.24494629 -83.735625 278.05239258 -84.46875 277.85400391 C-104.99792961 272.12326044 -121.95267658 258.43221054 -132.67089844 240.03881836 C-137.30532317 231.59913471 -139.95065147 222.73284379 -142.3125 213.4375 C-142.48502289 212.82259705 -142.65754578 212.20769409 -142.83529663 211.57415771 C-145.05501287 201.63547301 -144.51513683 190.86386152 -144.5859375 180.734375 C-144.59126118 180.00522133 -144.59658485 179.27606766 -144.60206985 178.52481842 C-144.62857954 174.65750697 -144.64801437 170.79022516 -144.66259766 166.92285156 C-144.67584081 163.78713192 -144.70354562 160.65207786 -144.74462891 157.51660156 C-145.07981112 131.29500273 -143.84460568 105.29577141 -131.5625 81.4375 C-131.22250977 80.7667041 -130.88251953 80.0959082 -130.53222656 79.40478516 C-127.25700287 73.08140792 -123.40373387 67.26492976 -119.3125 61.4375 C-118.61640625 60.33664063 -117.9203125 59.23578125 -117.203125 58.1015625 C-116.57921875 57.22242188 -115.9553125 56.34328125 -115.3125 55.4375 C-114.6525 55.4375 -113.9925 55.4375 -113.3125 55.4375 C-113.06113281 54.87160156 -112.80976562 54.30570313 -112.55078125 53.72265625 C-101.94843823 34.15681819 -76.82854183 20.96243259 -57.3125 12.4375 C-56.27480469 11.96570313 -55.23710937 11.49390625 -54.16796875 11.0078125 C-48.47991108 8.50226589 -42.69665427 6.53124077 -36.75 4.75 C-36.07775391 4.54737549 -35.40550781 4.34475098 -34.71289062 4.13598633 C-23.17682565 0.80923612 -11.94578298 -0.0034083 0 0 Z M-105.3125 50.4375 C-129.37348418 78.14948474 -143.68769306 115.50997008 -141.3125 152.4375 C-140.90191033 156.4400695 -140.42556646 160.43533334 -139.95849609 164.43164062 C-139.34930284 170.00458949 -139.37253826 175.18632817 -140.01171875 180.76953125 C-142.56311424 203.40074063 -136.42031817 228.74636525 -122.375 246.8125 C-121.04361083 248.37387963 -119.69001513 249.9166596 -118.3125 251.4375 C-117.67441406 252.14519531 -117.03632812 252.85289062 -116.37890625 253.58203125 C-98.34285333 272.56162013 -74.50127469 277.43121251 -49.3125 278.4375 C-41.50804662 278.60532254 -33.73290249 278.28741832 -25.9375 277.9375 C-18.60346876 277.61887889 -11.30609539 277.39687828 -3.96557617 277.52172852 C39.86753997 278.21159096 89.68400268 259.47579986 126.5715332 236.72583008 C129.04324719 235.22089934 131.57461195 233.92942827 134.1875 232.6875 C157.01582954 221.41855361 178.28247518 207.6142078 198.6875 192.4375 C200.10397766 191.39427458 201.52064293 190.35130383 202.9375 189.30859375 C211.08868458 183.2806505 218.98529366 177.03105543 226.6875 170.4375 C225.2025 168.9525 225.2025 168.9525 223.6875 167.4375 C226.3275 166.1175 228.9675 164.7975 231.6875 163.4375 C232.0175 164.0975 232.3475 164.7575 232.6875 165.4375 C234.1725 164.4475 234.1725 164.4475 235.6875 163.4375 C235.6875 162.7775 235.6875 162.1175 235.6875 161.4375 C236.24179687 161.2003125 236.79609375 160.963125 237.3671875 160.71875 C240.23898267 159.13297758 242.39895652 157.15651908 244.8125 154.9375 C245.68132812 154.1434375 246.55015625 153.349375 247.4453125 152.53125 C248.88158422 151.19006247 250.29795683 149.82704317 251.6875 148.4375 C251.0275 148.4375 250.3675 148.4375 249.6875 148.4375 C250.3475 147.1175 251.0075 145.7975 251.6875 144.4375 C249.7075 141.9625 249.7075 141.9625 247.6875 139.4375 C248.6775 139.1075 249.6675 138.7775 250.6875 138.4375 C249.6975 138.1075 248.7075 137.7775 247.6875 137.4375 C247.3575 136.4475 247.0275 135.4575 246.6875 134.4375 C246.0275 134.4375 245.3675 134.4375 244.6875 134.4375 C244.6875 133.7775 244.6875 133.1175 244.6875 132.4375 C243.0811111 130.65702154 243.0811111 130.65702154 241 128.875 C240.31550781 128.25496094 239.63101562 127.63492188 238.92578125 126.99609375 C236.46278428 125.28102256 234.60775816 124.9399635 231.6875 124.4375 C230.6875 122.6875 230.6875 122.6875 229.6875 120.4375 C226.23417417 116.74237936 222.48572189 113.53500498 218.5 110.4375 C217.89978027 109.96965088 217.29956055 109.50180176 216.68115234 109.01977539 C205.02042023 100.00058028 193.10413275 91.50635771 180.5234375 83.8203125 C177.41950709 81.91559253 174.40584171 79.90787219 171.40478516 77.84594727 C161.73836989 71.21470684 151.53644334 65.58421386 141.29589844 59.89599609 C137.9241631 58.01067722 134.58816804 56.06908184 131.25 54.125 C114.68490244 44.6732658 97.16742815 36.856462 79.74658203 29.13378906 C74.76360289 26.9170232 69.98754365 24.56457366 65.28808594 21.79736328 C9.65440996 -10.90778933 -61.52165218 4.88417224 -105.3125 50.4375 Z M254.6875 143.4375 C254.6875 146.4375 254.6875 146.4375 254.6875 146.4375 Z " fill="#8DC63F" transform="translate(198.3125,55.5625)"/>
<path d="M0 0 C9.72795733 7.21490168 15.59284243 15.36739887 17.59375 27.48828125 C18.46156364 38.54785971 15.78379587 47.94174612 8.875 56.65625 C2.66783068 63.43580173 -5.81769414 67.98592802 -15.0703125 68.69140625 C-26.51826739 68.87264036 -36.01367334 66.40082926 -44.5390625 58.515625 C-52.06231647 50.64535747 -54.99039765 42.62201865 -55.5 31.79296875 C-55.20359928 21.34484322 -51.67112226 13.08637328 -44.5546875 5.51953125 C-32.81371 -5.51979421 -14.07517571 -8.84268344 0 0 Z M-37.1796875 18.609375 C-41.24288254 24.83356868 -41.09558898 31.28076232 -40.40625 38.48828125 C-38.71499474 44.74693845 -34.71559103 48.94094131 -29.40625 52.48828125 C-23.82147711 55.21861466 -17.16312512 55.59675854 -11.1953125 53.8359375 C-5.30559017 51.20700014 -1.09636012 46.93795807 1.734375 41.16015625 C3.75349903 34.88251609 3.7595726 27.11632248 1.03125 21.05078125 C-2.33461792 15.40519428 -7.18779682 11.53627481 -13.40625 9.48828125 C-23.67353059 8.16842156 -30.61220802 10.70271675 -37.1796875 18.609375 Z " fill="#007236" transform="translate(407.40625,370.51171875)"/>
<path d="M0 0 C2.95968996 2.26107095 5.6914624 4.6133374 8.32421875 7.24609375 C8.32421875 10.24609375 8.32421875 10.24609375 6.71484375 12.10546875 C6.0084375 12.729375 5.30203125 13.35328125 4.57421875 13.99609375 C3.878125 14.6303125 3.18203125 15.26453125 2.46484375 15.91796875 C0.32421875 17.24609375 0.32421875 17.24609375 -1.65625 17.13671875 C-4.06521507 16.07435118 -6.08524916 14.76159519 -8.23828125 13.24609375 C-14.53805782 8.82668894 -20.09377408 8.45284239 -27.67578125 9.24609375 C-34.31073143 11.20185041 -38.47478745 14.24074903 -41.8359375 20.28125 C-44.46418456 26.43012568 -44.61051515 33.1653621 -42.48828125 39.49609375 C-40.12419464 45.07888984 -36.00375068 48.51380173 -30.67578125 51.24609375 C-24.06785035 53.24934017 -16.99262805 52.9975474 -10.63671875 50.3125 C-7.00753765 48.33886167 -3.89183274 45.83042084 -0.67578125 43.24609375 C2.29421875 46.21609375 5.26421875 49.18609375 8.32421875 52.24609375 C4.70646435 59.48160254 -1.37786668 63.1127283 -8.92578125 65.68359375 C-20.69152922 68.86872039 -32.10787341 68.1215799 -42.80078125 62.12109375 C-50.44665555 56.97214797 -56.01623662 49.99095729 -58.22265625 41.0234375 C-60.2054149 28.87049439 -58.96910733 18.37711986 -52.05078125 8.05859375 C-39.59922733 -7.39635006 -16.6478844 -10.91226291 0 0 Z " fill="#007236" transform="translate(336.67578125,371.75390625)"/>
<path d="M0 0 C12.87 0 25.74 0 39 0 C39 4.29 39 8.58 39 13 C31.08 13 23.16 13 15 13 C15 16.96 15 20.92 15 25 C22.92 25 30.84 25 39 25 C39 29.29 39 33.58 39 38 C31.08 38 23.16 38 15 38 C15 43.94 15 49.88 15 56 C22.92 56 30.84 56 39 56 C39 60.29 39 64.58 39 69 C26.13 69 13.26 69 0 69 C0 46.23 0 23.46 0 0 Z " fill="#007236" transform="translate(231,368)"/>
<path d="M0 0 C2.2074192 2.18797058 4.13970316 4.51278995 6 7 C6.7734375 5.88625 6.7734375 5.88625 7.5625 4.75 C12.15739421 -0.43398321 17.4418324 -2.6578685 24.25 -3.3125 C30.07972417 -2.82668965 34.24547842 -0.75452158 38.375 3.375 C41.93533603 9.12631205 42.27996502 14.33592623 42.1953125 20.8984375 C42.1924826 21.73339752 42.18965271 22.56835754 42.18673706 23.42861938 C42.17560301 26.07756291 42.15051127 28.72615984 42.125 31.375 C42.11496143 33.17838051 42.10583712 34.98176636 42.09765625 36.78515625 C42.0756859 41.19023633 42.04120321 45.59505953 42 50 C39.36 50 36.72 50 34 50 C33.970271 48.35801636 33.970271 48.35801636 33.93994141 46.68286133 C33.86370563 42.61052971 33.7750162 38.53854704 33.68261719 34.46655273 C33.64440159 32.70620629 33.60953587 30.94578374 33.578125 29.18530273 C33.53231286 26.65060275 33.47434583 24.11642336 33.4140625 21.58203125 C33.40251129 20.79850784 33.39096008 20.01498444 33.37905884 19.2077179 C33.26833898 15.0820423 33.02599951 11.64279651 31 8 C26.73191307 5.15460871 23.00803677 5.38374625 18 6 C13.86703722 7.87861944 12.3955557 9.29072772 10.1875 13.25 C7.6476318 21.27063643 7.72912112 29.65294288 7.4375 38 C7.37272461 39.73443359 7.37272461 39.73443359 7.30664062 41.50390625 C7.20132083 44.33583854 7.09918913 47.16784747 7 50 C4.69 50 2.38 50 0 50 C-0.029729 48.71536865 -0.029729 48.71536865 -0.06005859 47.40478516 C-0.13887508 44.18027658 -0.22558633 40.95609679 -0.31738281 37.73193359 C-0.35530245 36.34529587 -0.39021453 34.9585721 -0.421875 33.57177734 C-0.35014927 20.00699326 -0.35014927 20.00699326 -4.5 7.375 C-8.57646361 5.13294501 -12.47328635 5.19191368 -17 6 C-21.52941599 8.63529657 -23.62636142 11.40873382 -25.37768555 16.3203125 C-26.79074707 22.40495876 -26.58939774 28.77932851 -26.6875 35 C-26.72072553 36.45706099 -26.75521991 37.91409363 -26.79101562 39.37109375 C-26.8753193 42.91385474 -26.94240852 46.45669235 -27 50 C-29.64 50 -32.28 50 -35 50 C-35 33.17 -35 16.34 -35 -1 C-32.36 -1 -29.72 -1 -27 -1 C-26.67 0.65 -26.34 2.3 -26 4 C-25.13375 3.21625 -24.2675 2.4325 -23.375 1.625 C-16.21202545 -4.29661596 -8.01921189 -4.51991943 0 0 Z " fill="#007236" transform="translate(125,387)"/>
<path d="M0 0 C2.97 0 5.94 0 9 0 C11.14345242 4.6414866 13.27948655 9.28628644 15.40869141 13.93432617 C16.13419508 15.51533989 16.86172391 17.09542592 17.59130859 18.67456055 C18.639121 20.94339516 19.67962597 23.21545675 20.71875 25.48828125 C21.04685669 26.19463211 21.37496338 26.90098297 21.7130127 27.6287384 C23.061098 30.5935089 24 32.70363935 24 36 C24.66 36 25.32 36 26 36 C26.55107422 34.20755859 26.55107422 34.20755859 27.11328125 32.37890625 C29.33877029 25.70243912 32.29492065 19.34485532 35.1875 12.9375 C35.75234508 11.67791007 36.31680111 10.4181456 36.88085938 9.15820312 C38.25010318 6.10373617 39.62323397 3.05108191 41 0 C43.97 0 46.94 0 50 0 C43.63633708 15.5849707 36.9317227 30.9886266 30.00390625 46.328125 C26.99215945 52.99746364 24.06135681 59.69882326 21.171875 66.421875 C20 69 20 69 19 70 C16.32941149 70.14115161 13.67567762 70.04247107 11 70 C13.03309104 63.33597938 15.71034627 57.5100588 19.0859375 51.40625 C20.41123167 46.46754694 18.99151163 43.58800767 17 39 C16.53400391 37.91928223 16.06800781 36.83856445 15.58789062 35.72509766 C13.94270664 31.989962 12.2593952 28.27431059 10.5625 24.5625 C6.86215629 16.4412357 3.23466306 8.3211111 0 0 Z " fill="#007236" transform="translate(174,386)"/>
<path d="M0 0 C1.9375 1.625 1.9375 1.625 3 4 C2.875 7.125 2.875 7.125 2 10 C-1 12 -1 12 -4.0625 11.8125 C-7 11 -7 11 -9 8 C-9.35384949 5.16920408 -9.3920891 3.63169911 -7.875 1.1875 C-5.09996189 -0.57002414 -3.21070255 -0.46822746 0 0 Z " fill="#007236" transform="translate(375,170)"/>
<path d="M0 0 C3.625 0.375 3.625 0.375 7 1 C8.1875 3.75 8.1875 3.75 9 7 C8 9.375 8 9.375 6 11 C2.79301294 11.46768561 0.88988761 11.51670894 -1.9375 9.875 C-3 8 -3 8 -2.8125 4.9375 C-2 2 -2 2 0 0 Z " fill="#007236" transform="translate(317,194)"/>
<path d="M0 0 C2.375 0.25 2.375 0.25 5 1 C6.4375 2.8125 6.4375 2.8125 7 5 C6.125 7.25 6.125 7.25 5 9 C4.01 9 3.02 9 2 9 C2.33 7.02 2.66 5.04 3 3 C2.01 2.67 1.02 2.34 0 2 C0 1.34 0 0.68 0 0 Z " fill="#DDEEC6" transform="translate(446,195)"/>
<path d="M0 0 C-0.3125 1.875 -0.3125 1.875 -1 4 C-4 6 -4 6 -6.6875 5.625 C-7.450625 5.41875 -8.21375 5.2125 -9 5 C-4.22727273 0 -4.22727273 0 0 0 Z " fill="#FCFDFC" transform="translate(430,219)"/>
<path d="M0 0 C3.24271506 0.5590888 4.93057424 1.4132178 7 4 C7 4.66 7 5.32 7 6 C3.75728494 5.4409112 2.06942576 4.5867822 0 2 C0 1.34 0 0.68 0 0 Z " fill="#FAFCF6" transform="translate(427,176)"/>
<path d="" fill="#007236" transform="translate(0,0)"/>
<path d="" fill="#007236" transform="translate(0,0)"/>
</svg>
